%FSLAX45Y45*%
G04 Gerber Fmt 4.5, Leading zero omitted, Abs format (unit mm)*
G04 Created by KiCad (PCBNEW 6.0.5+dfsg-1~bpo11+1) date 2022-12-29 14:19:14*
%MOMM*%
%LPD*%
G01*
G04 APERTURE LIST*
%TA.AperFunction,Profile*%
%ADD10C,0.050000*%
%TD*%
%ADD11C,0.200000*%
%ADD12C,0.050000*%
%ADD13C,0.080000*%
%ADD14C,0.090000*%
%ADD15C,0.100000*%
%ADD16C,0.110000*%
%ADD17C,0.130000*%
%ADD18C,0.160000*%
G04 APERTURE END LIST*
D10*
X12674600Y-4622800D02*
X16611600Y-4622800D01*
X16992600Y-5003800D02*
G75*
G03*
X16611600Y-4622800I-381000J0D01*
G01*
X12293600Y-14147800D02*
G75*
G03*
X12674600Y-14528800I381000J0D01*
G01*
X16611600Y-14528800D02*
G75*
G03*
X16992600Y-14147800I0J381000D01*
G01*
X12674600Y-4622800D02*
G75*
G03*
X12293600Y-5003800I0J-381000D01*
G01*
X12293600Y-14147800D02*
X12293600Y-5003800D01*
X16992600Y-5003800D02*
X16992600Y-14147800D01*
X16611600Y-14528800D02*
X12674600Y-14528800D01*
D11*
D12*
X12344800Y-10846200D02*
X12394800Y-10896200D01*
X12394800Y-10846200D02*
X12344800Y-10896200D01*
X12522600Y-10846200D02*
X12572600Y-10896200D01*
X12572600Y-10846200D02*
X12522600Y-10896200D01*
X12548000Y-12192400D02*
X12598000Y-12242400D01*
X12598000Y-12192400D02*
X12548000Y-12242400D01*
X12954400Y-6731400D02*
X13004400Y-6781400D01*
X13004400Y-6731400D02*
X12954400Y-6781400D01*
X13259200Y-11100200D02*
X13309200Y-11150200D01*
X13309200Y-11100200D02*
X13259200Y-11150200D01*
X13386200Y-12192400D02*
X13436200Y-12242400D01*
X13436200Y-12192400D02*
X13386200Y-12242400D01*
X13437000Y-12395600D02*
X13487000Y-12445600D01*
X13487000Y-12395600D02*
X13437000Y-12445600D01*
X13818000Y-6731400D02*
X13868000Y-6781400D01*
X13868000Y-6731400D02*
X13818000Y-6781400D01*
X13818000Y-6934600D02*
X13868000Y-6984600D01*
X13868000Y-6934600D02*
X13818000Y-6984600D01*
X13843400Y-9627000D02*
X13893400Y-9677000D01*
X13893400Y-9627000D02*
X13843400Y-9677000D01*
X13868800Y-8128400D02*
X13918800Y-8178400D01*
X13918800Y-8128400D02*
X13868800Y-8178400D01*
X13894200Y-8331600D02*
X13944200Y-8381600D01*
X13944200Y-8331600D02*
X13894200Y-8381600D01*
X14021200Y-13030600D02*
X14071200Y-13080600D01*
X14071200Y-13030600D02*
X14021200Y-13080600D01*
X14055350Y-10415943D02*
X14105350Y-10465943D01*
X14105350Y-10415943D02*
X14055350Y-10465943D01*
X14072000Y-9627000D02*
X14122000Y-9677000D01*
X14122000Y-9627000D02*
X14072000Y-9677000D01*
X14072000Y-9982600D02*
X14122000Y-10032600D01*
X14122000Y-9982600D02*
X14072000Y-10032600D01*
X14072000Y-11278000D02*
X14122000Y-11328000D01*
X14122000Y-11278000D02*
X14072000Y-11328000D01*
X14080750Y-11939942D02*
X14130750Y-11989942D01*
X14130750Y-11939942D02*
X14080750Y-11989942D01*
X14093969Y-13211831D02*
X14143969Y-13261831D01*
X14143969Y-13211831D02*
X14093969Y-13261831D01*
X14097400Y-12573400D02*
X14147400Y-12623400D01*
X14147400Y-12573400D02*
X14097400Y-12623400D01*
X14376800Y-7823600D02*
X14426800Y-7873600D01*
X14426800Y-7823600D02*
X14376800Y-7873600D01*
X14402200Y-8179200D02*
X14452200Y-8229200D01*
X14452200Y-8179200D02*
X14402200Y-8229200D01*
X14481700Y-13262500D02*
X14531700Y-13312500D01*
X14531700Y-13262500D02*
X14481700Y-13312500D01*
X14691200Y-12040000D02*
X14741200Y-12090000D01*
X14741200Y-12040000D02*
X14691200Y-12090000D01*
X14707000Y-9271400D02*
X14757000Y-9321400D01*
X14757000Y-9271400D02*
X14707000Y-9321400D01*
X14707000Y-10744600D02*
X14757000Y-10794600D01*
X14757000Y-10744600D02*
X14707000Y-10794600D01*
X14859400Y-6985400D02*
X14909400Y-7035400D01*
X14909400Y-6985400D02*
X14859400Y-7035400D01*
X14961000Y-10211200D02*
X15011000Y-10261200D01*
X15011000Y-10211200D02*
X14961000Y-10261200D01*
X14961000Y-11481200D02*
X15011000Y-11531200D01*
X15011000Y-11481200D02*
X14961000Y-11531200D01*
X14961000Y-12116200D02*
X15011000Y-12166200D01*
X15011000Y-12116200D02*
X14961000Y-12166200D01*
X14961000Y-12776600D02*
X15011000Y-12826600D01*
X15011000Y-12776600D02*
X14961000Y-12826600D01*
X14993687Y-10871600D02*
X15043687Y-10921600D01*
X15043687Y-10871600D02*
X14993687Y-10921600D01*
X15011800Y-9271400D02*
X15061800Y-9321400D01*
X15061800Y-9271400D02*
X15011800Y-9321400D01*
X15011800Y-9982600D02*
X15061800Y-10032600D01*
X15061800Y-9982600D02*
X15011800Y-10032600D01*
X15164200Y-6985400D02*
X15214200Y-7035400D01*
X15214200Y-6985400D02*
X15164200Y-7035400D01*
X15164200Y-7290200D02*
X15214200Y-7340200D01*
X15214200Y-7290200D02*
X15164200Y-7340200D01*
X15215000Y-10897000D02*
X15265000Y-10947000D01*
X15265000Y-10897000D02*
X15215000Y-10947000D01*
X15215000Y-11379600D02*
X15265000Y-11429600D01*
X15265000Y-11379600D02*
X15215000Y-11429600D01*
X15215000Y-12243200D02*
X15265000Y-12293200D01*
X15265000Y-12243200D02*
X15215000Y-12293200D01*
X15215000Y-13513200D02*
X15265000Y-13563200D01*
X15265000Y-13513200D02*
X15215000Y-13563200D01*
X15240400Y-12675000D02*
X15290400Y-12725000D01*
X15290400Y-12675000D02*
X15240400Y-12725000D01*
X15283567Y-13324495D02*
X15333567Y-13374495D01*
X15333567Y-13324495D02*
X15283567Y-13374495D01*
X15291200Y-7722000D02*
X15341200Y-7772000D01*
X15341200Y-7722000D02*
X15291200Y-7772000D01*
X15380700Y-10755693D02*
X15430700Y-10805693D01*
X15430700Y-10755693D02*
X15380700Y-10805693D01*
X15380700Y-12074414D02*
X15430700Y-12124414D01*
X15430700Y-12074414D02*
X15380700Y-12124414D01*
X15494400Y-13132200D02*
X15544400Y-13182200D01*
X15544400Y-13132200D02*
X15494400Y-13182200D01*
X15509595Y-13345604D02*
X15559595Y-13395604D01*
X15559595Y-13345604D02*
X15509595Y-13395604D01*
X15545200Y-11455800D02*
X15595200Y-11505800D01*
X15595200Y-11455800D02*
X15545200Y-11505800D01*
X15553950Y-12808207D02*
X15603950Y-12858207D01*
X15603950Y-12808207D02*
X15553950Y-12858207D01*
X15570600Y-10770000D02*
X15620600Y-10820000D01*
X15620600Y-10770000D02*
X15570600Y-10820000D01*
X15570600Y-12065400D02*
X15620600Y-12115400D01*
X15620600Y-12065400D02*
X15570600Y-12115400D01*
X15850000Y-10109600D02*
X15900000Y-10159600D01*
X15900000Y-10109600D02*
X15850000Y-10159600D01*
X15900800Y-11049400D02*
X15950800Y-11099400D01*
X15950800Y-11049400D02*
X15900800Y-11099400D01*
X15900800Y-11328800D02*
X15950800Y-11378800D01*
X15950800Y-11328800D02*
X15900800Y-11378800D01*
X15900800Y-12370200D02*
X15950800Y-12420200D01*
X15950800Y-12370200D02*
X15900800Y-12420200D01*
X15900800Y-12649600D02*
X15950800Y-12699600D01*
X15950800Y-12649600D02*
X15900800Y-12699600D01*
X16332600Y-10947800D02*
X16382600Y-10997800D01*
X16382600Y-10947800D02*
X16332600Y-10997800D01*
X16332600Y-12268600D02*
X16382600Y-12318600D01*
X16382600Y-12268600D02*
X16332600Y-12318600D01*
X16332600Y-12675000D02*
X16382600Y-12725000D01*
X16382600Y-12675000D02*
X16332600Y-12725000D01*
X16755650Y-10008000D02*
X16805650Y-10058000D01*
X16805650Y-10008000D02*
X16755650Y-10058000D01*
X16755650Y-10971658D02*
X16805650Y-11021658D01*
X16805650Y-10971658D02*
X16755650Y-11021658D01*
X16755650Y-11276457D02*
X16805650Y-11326457D01*
X16805650Y-11276457D02*
X16755650Y-11326457D01*
X16764400Y-12268600D02*
X16814400Y-12318600D01*
X16814400Y-12268600D02*
X16764400Y-12318600D01*
X16764400Y-12573400D02*
X16814400Y-12623400D01*
X16814400Y-12573400D02*
X16764400Y-12623400D01*
X16789800Y-13564000D02*
X16839800Y-13614000D01*
X16839800Y-13564000D02*
X16789800Y-13614000D01*
X16840600Y-7010800D02*
X16890600Y-7060800D01*
X16890600Y-7010800D02*
X16840600Y-7060800D01*
X16840600Y-12751200D02*
X16890600Y-12801200D01*
X16890600Y-12751200D02*
X16840600Y-12801200D01*
D13*
X15127600Y-9753600D02*
G75*
G03*
X15127600Y-9753600I-40000J0D01*
G01*
X15356200Y-9677400D02*
G75*
G03*
X15356200Y-9677400I-40000J0D01*
G01*
X12877800Y-13295000D02*
X12877800Y-13375000D01*
X12837800Y-13335000D02*
X12917800Y-13335000D01*
X13377800Y-13295000D02*
X13377800Y-13375000D01*
X13337800Y-13335000D02*
X13417800Y-13335000D01*
X13817600Y-12482200D02*
X13817600Y-12562200D01*
X13777600Y-12522200D02*
X13857600Y-12522200D01*
X13817600Y-12736200D02*
X13817600Y-12816200D01*
X13777600Y-12776200D02*
X13857600Y-12776200D01*
X13817600Y-12990200D02*
X13817600Y-13070200D01*
X13777600Y-13030200D02*
X13857600Y-13030200D01*
X13821600Y-9281800D02*
X13821600Y-9361800D01*
X13781600Y-9321800D02*
X13861600Y-9321800D01*
X14224000Y-4866200D02*
X14224000Y-4946200D01*
X14184000Y-4906200D02*
X14264000Y-4906200D01*
X14224000Y-5116200D02*
X14224000Y-5196200D01*
X14184000Y-5156200D02*
X14264000Y-5156200D01*
X14224000Y-5577400D02*
X14224000Y-5657400D01*
X14184000Y-5617400D02*
X14264000Y-5617400D01*
X14224000Y-5827400D02*
X14224000Y-5907400D01*
X14184000Y-5867400D02*
X14264000Y-5867400D01*
X14321600Y-9281800D02*
X14321600Y-9361800D01*
X14281600Y-9321800D02*
X14361600Y-9321800D01*
X14655800Y-6771200D02*
X14655800Y-6851200D01*
X14615800Y-6811200D02*
X14695800Y-6811200D01*
X14655800Y-7271200D02*
X14655800Y-7351200D01*
X14615800Y-7311200D02*
X14695800Y-7311200D01*
D14*
X15508420Y-7930620D02*
X15508420Y-7866980D01*
X15444780Y-7866980D01*
X15444780Y-7930620D01*
X15508420Y-7930620D01*
X15508420Y-9760620D02*
X15508420Y-9696980D01*
X15444780Y-9696980D01*
X15444780Y-9760620D01*
X15508420Y-9760620D01*
X15758420Y-7930620D02*
X15758420Y-7866980D01*
X15694780Y-7866980D01*
X15694780Y-7930620D01*
X15758420Y-7930620D01*
X15758420Y-9760620D02*
X15758420Y-9696980D01*
X15694780Y-9696980D01*
X15694780Y-9760620D01*
X15758420Y-9760620D01*
X16008420Y-7930620D02*
X16008420Y-7866980D01*
X15944780Y-7866980D01*
X15944780Y-7930620D01*
X16008420Y-7930620D01*
X16008420Y-9760620D02*
X16008420Y-9696980D01*
X15944780Y-9696980D01*
X15944780Y-9760620D01*
X16008420Y-9760620D01*
X16258420Y-7930620D02*
X16258420Y-7866980D01*
X16194780Y-7866980D01*
X16194780Y-7930620D01*
X16258420Y-7930620D01*
X16258420Y-9760620D02*
X16258420Y-9696980D01*
X16194780Y-9696980D01*
X16194780Y-9760620D01*
X16258420Y-9760620D01*
X16508420Y-7930620D02*
X16508420Y-7866980D01*
X16444780Y-7866980D01*
X16444780Y-7930620D01*
X16508420Y-7930620D01*
X16508420Y-9760620D02*
X16508420Y-9696980D01*
X16444780Y-9696980D01*
X16444780Y-9760620D01*
X16508420Y-9760620D01*
D15*
X13059600Y-6196800D02*
X13109600Y-6146800D01*
X13059600Y-6096800D01*
X13009600Y-6146800D01*
X13059600Y-6196800D01*
X13059600Y-8482800D02*
X13109600Y-8432800D01*
X13059600Y-8382800D01*
X13009600Y-8432800D01*
X13059600Y-8482800D01*
X13059600Y-10768800D02*
X13109600Y-10718800D01*
X13059600Y-10668800D01*
X13009600Y-10718800D01*
X13059600Y-10768800D01*
X13309600Y-6196800D02*
X13359600Y-6146800D01*
X13309600Y-6096800D01*
X13259600Y-6146800D01*
X13309600Y-6196800D01*
X13309600Y-8482800D02*
X13359600Y-8432800D01*
X13309600Y-8382800D01*
X13259600Y-8432800D01*
X13309600Y-8482800D01*
X13309600Y-10768800D02*
X13359600Y-10718800D01*
X13309600Y-10668800D01*
X13259600Y-10718800D01*
X13309600Y-10768800D01*
X13559600Y-6196800D02*
X13609600Y-6146800D01*
X13559600Y-6096800D01*
X13509600Y-6146800D01*
X13559600Y-6196800D01*
X13559600Y-8482800D02*
X13609600Y-8432800D01*
X13559600Y-8382800D01*
X13509600Y-8432800D01*
X13559600Y-8482800D01*
X13559600Y-10768800D02*
X13609600Y-10718800D01*
X13559600Y-10668800D01*
X13509600Y-10718800D01*
X13559600Y-10768800D01*
X15113000Y-5053800D02*
X15163000Y-5003800D01*
X15113000Y-4953800D01*
X15063000Y-5003800D01*
X15113000Y-5053800D01*
X15113000Y-5307800D02*
X15163000Y-5257800D01*
X15113000Y-5207800D01*
X15063000Y-5257800D01*
X15113000Y-5307800D01*
X15113000Y-5561800D02*
X15163000Y-5511800D01*
X15113000Y-5461800D01*
X15063000Y-5511800D01*
X15113000Y-5561800D01*
X15113000Y-5815800D02*
X15163000Y-5765800D01*
X15113000Y-5715800D01*
X15063000Y-5765800D01*
X15113000Y-5815800D01*
X15113000Y-6069800D02*
X15163000Y-6019800D01*
X15113000Y-5969800D01*
X15063000Y-6019800D01*
X15113000Y-6069800D01*
X15367000Y-5053800D02*
X15417000Y-5003800D01*
X15367000Y-4953800D01*
X15317000Y-5003800D01*
X15367000Y-5053800D01*
X15367000Y-5307800D02*
X15417000Y-5257800D01*
X15367000Y-5207800D01*
X15317000Y-5257800D01*
X15367000Y-5307800D01*
X15367000Y-5561800D02*
X15417000Y-5511800D01*
X15367000Y-5461800D01*
X15317000Y-5511800D01*
X15367000Y-5561800D01*
X15367000Y-5815800D02*
X15417000Y-5765800D01*
X15367000Y-5715800D01*
X15317000Y-5765800D01*
X15367000Y-5815800D01*
X15367000Y-6069800D02*
X15417000Y-6019800D01*
X15367000Y-5969800D01*
X15317000Y-6019800D01*
X15367000Y-6069800D01*
X15726600Y-7277300D02*
X15776600Y-7227300D01*
X15726600Y-7177300D01*
X15676600Y-7227300D01*
X15726600Y-7277300D01*
X15976600Y-7277300D02*
X16026600Y-7227300D01*
X15976600Y-7177300D01*
X15926600Y-7227300D01*
X15976600Y-7277300D01*
X16226600Y-7277300D02*
X16276600Y-7227300D01*
X16226600Y-7177300D01*
X16176600Y-7227300D01*
X16226600Y-7277300D01*
D16*
X12774600Y-5341800D02*
X12884600Y-5451800D01*
X12884600Y-5341800D02*
X12774600Y-5451800D01*
X12884600Y-5396800D02*
G75*
G03*
X12884600Y-5396800I-55000J0D01*
G01*
D11*
X12874600Y-5431800D02*
X12874600Y-5361800D01*
X12784600Y-5431800D02*
X12784600Y-5361800D01*
X12874600Y-5361800D02*
G75*
G03*
X12784600Y-5361800I-45000J0D01*
G01*
X12784600Y-5431800D02*
G75*
G03*
X12874600Y-5431800I45000J0D01*
G01*
D16*
X12774600Y-7627800D02*
X12884600Y-7737800D01*
X12884600Y-7627800D02*
X12774600Y-7737800D01*
X12884600Y-7682800D02*
G75*
G03*
X12884600Y-7682800I-55000J0D01*
G01*
D11*
X12874600Y-7717800D02*
X12874600Y-7647800D01*
X12784600Y-7717800D02*
X12784600Y-7647800D01*
X12874600Y-7647800D02*
G75*
G03*
X12784600Y-7647800I-45000J0D01*
G01*
X12784600Y-7717800D02*
G75*
G03*
X12874600Y-7717800I45000J0D01*
G01*
D16*
X12774600Y-9913800D02*
X12884600Y-10023800D01*
X12884600Y-9913800D02*
X12774600Y-10023800D01*
X12884600Y-9968800D02*
G75*
G03*
X12884600Y-9968800I-55000J0D01*
G01*
D11*
X12874600Y-10003800D02*
X12874600Y-9933800D01*
X12784600Y-10003800D02*
X12784600Y-9933800D01*
X12874600Y-9933800D02*
G75*
G03*
X12784600Y-9933800I-45000J0D01*
G01*
X12784600Y-10003800D02*
G75*
G03*
X12874600Y-10003800I45000J0D01*
G01*
D16*
X13734600Y-5341800D02*
X13844600Y-5451800D01*
X13844600Y-5341800D02*
X13734600Y-5451800D01*
X13844600Y-5396800D02*
G75*
G03*
X13844600Y-5396800I-55000J0D01*
G01*
D11*
X13834600Y-5431800D02*
X13834600Y-5361800D01*
X13744600Y-5431800D02*
X13744600Y-5361800D01*
X13834600Y-5361800D02*
G75*
G03*
X13744600Y-5361800I-45000J0D01*
G01*
X13744600Y-5431800D02*
G75*
G03*
X13834600Y-5431800I45000J0D01*
G01*
D16*
X13734600Y-7627800D02*
X13844600Y-7737800D01*
X13844600Y-7627800D02*
X13734600Y-7737800D01*
X13844600Y-7682800D02*
G75*
G03*
X13844600Y-7682800I-55000J0D01*
G01*
D11*
X13834600Y-7717800D02*
X13834600Y-7647800D01*
X13744600Y-7717800D02*
X13744600Y-7647800D01*
X13834600Y-7647800D02*
G75*
G03*
X13744600Y-7647800I-45000J0D01*
G01*
X13744600Y-7717800D02*
G75*
G03*
X13834600Y-7717800I45000J0D01*
G01*
D16*
X13734600Y-9913800D02*
X13844600Y-10023800D01*
X13844600Y-9913800D02*
X13734600Y-10023800D01*
X13844600Y-9968800D02*
G75*
G03*
X13844600Y-9968800I-55000J0D01*
G01*
D11*
X13834600Y-10003800D02*
X13834600Y-9933800D01*
X13744600Y-10003800D02*
X13744600Y-9933800D01*
X13834600Y-9933800D02*
G75*
G03*
X13744600Y-9933800I-45000J0D01*
G01*
X13744600Y-10003800D02*
G75*
G03*
X13834600Y-10003800I45000J0D01*
G01*
D16*
X15441600Y-6422300D02*
X15551600Y-6532300D01*
X15551600Y-6422300D02*
X15441600Y-6532300D01*
X15551600Y-6477300D02*
G75*
G03*
X15551600Y-6477300I-55000J0D01*
G01*
D11*
X15541600Y-6512300D02*
X15541600Y-6442300D01*
X15451600Y-6512300D02*
X15451600Y-6442300D01*
X15541600Y-6442300D02*
G75*
G03*
X15451600Y-6442300I-45000J0D01*
G01*
X15451600Y-6512300D02*
G75*
G03*
X15541600Y-6512300I45000J0D01*
G01*
D16*
X16401600Y-6422300D02*
X16511600Y-6532300D01*
X16511600Y-6422300D02*
X16401600Y-6532300D01*
X16511600Y-6477300D02*
G75*
G03*
X16511600Y-6477300I-55000J0D01*
G01*
D11*
X16501600Y-6512300D02*
X16501600Y-6442300D01*
X16411600Y-6512300D02*
X16411600Y-6442300D01*
X16501600Y-6442300D02*
G75*
G03*
X16411600Y-6442300I-45000J0D01*
G01*
X16411600Y-6512300D02*
G75*
G03*
X16501600Y-6512300I45000J0D01*
G01*
D17*
X12660400Y-8926600D02*
X12790400Y-9056600D01*
X12790400Y-8926600D02*
X12660400Y-9056600D01*
X12725400Y-8926600D02*
X12725400Y-9056600D01*
X12660400Y-8991600D02*
X12790400Y-8991600D01*
X13422400Y-8926600D02*
X13552400Y-9056600D01*
X13552400Y-8926600D02*
X13422400Y-9056600D01*
X13487400Y-8926600D02*
X13487400Y-9056600D01*
X13422400Y-8991600D02*
X13552400Y-8991600D01*
D18*
X12327600Y-13813800D02*
X12487600Y-13973800D01*
X12487600Y-13813800D02*
X12327600Y-13973800D01*
X12464169Y-13950369D02*
X12464169Y-13837231D01*
X12351031Y-13837231D01*
X12351031Y-13950369D01*
X12464169Y-13950369D01*
X12637600Y-13813800D02*
X12797600Y-13973800D01*
X12797600Y-13813800D02*
X12637600Y-13973800D01*
X12774169Y-13950369D02*
X12774169Y-13837231D01*
X12661031Y-13837231D01*
X12661031Y-13950369D01*
X12774169Y-13950369D01*
X13467600Y-13813800D02*
X13627600Y-13973800D01*
X13627600Y-13813800D02*
X13467600Y-13973800D01*
X13604169Y-13950369D02*
X13604169Y-13837231D01*
X13491031Y-13837231D01*
X13491031Y-13950369D01*
X13604169Y-13950369D01*
X13915100Y-13813800D02*
X14075100Y-13973800D01*
X14075100Y-13813800D02*
X13915100Y-13973800D01*
X14051669Y-13950369D02*
X14051669Y-13837231D01*
X13938531Y-13837231D01*
X13938531Y-13950369D01*
X14051669Y-13950369D01*
X14225100Y-13813800D02*
X14385100Y-13973800D01*
X14385100Y-13813800D02*
X14225100Y-13973800D01*
X14361669Y-13950369D02*
X14361669Y-13837231D01*
X14248531Y-13837231D01*
X14248531Y-13950369D01*
X14361669Y-13950369D01*
X15055100Y-13813800D02*
X15215100Y-13973800D01*
X15215100Y-13813800D02*
X15055100Y-13973800D01*
X15191669Y-13950369D02*
X15191669Y-13837231D01*
X15078531Y-13837231D01*
X15078531Y-13950369D01*
X15191669Y-13950369D01*
X15502600Y-13813800D02*
X15662600Y-13973800D01*
X15662600Y-13813800D02*
X15502600Y-13973800D01*
X15639169Y-13950369D02*
X15639169Y-13837231D01*
X15526031Y-13837231D01*
X15526031Y-13950369D01*
X15639169Y-13950369D01*
X15812600Y-13813800D02*
X15972600Y-13973800D01*
X15972600Y-13813800D02*
X15812600Y-13973800D01*
X15949169Y-13950369D02*
X15949169Y-13837231D01*
X15836031Y-13837231D01*
X15836031Y-13950369D01*
X15949169Y-13950369D01*
X16642600Y-13813800D02*
X16802600Y-13973800D01*
X16802600Y-13813800D02*
X16642600Y-13973800D01*
X16779169Y-13950369D02*
X16779169Y-13837231D01*
X16666031Y-13837231D01*
X16666031Y-13950369D01*
X16779169Y-13950369D01*
D11*
X15076600Y-8823800D02*
X15276600Y-9023800D01*
X15276600Y-8823800D02*
X15076600Y-9023800D01*
X15176600Y-9023800D02*
X15276600Y-8923800D01*
X15176600Y-8823800D01*
X15076600Y-8923800D01*
X15176600Y-9023800D01*
X16676600Y-8823800D02*
X16876600Y-9023800D01*
X16876600Y-8823800D02*
X16676600Y-9023800D01*
X16776600Y-9023800D02*
X16876600Y-8923800D01*
X16776600Y-8823800D01*
X16676600Y-8923800D01*
X16776600Y-9023800D01*
X12548719Y-14841776D02*
X12548719Y-14641776D01*
X12596338Y-14641776D01*
X12624909Y-14651300D01*
X12643957Y-14670348D01*
X12653481Y-14689395D01*
X12663005Y-14727490D01*
X12663005Y-14756062D01*
X12653481Y-14794157D01*
X12643957Y-14813205D01*
X12624909Y-14832252D01*
X12596338Y-14841776D01*
X12548719Y-14841776D01*
X12748719Y-14841776D02*
X12748719Y-14708443D01*
X12748719Y-14746538D02*
X12758243Y-14727490D01*
X12767767Y-14717967D01*
X12786814Y-14708443D01*
X12805862Y-14708443D01*
X12872528Y-14841776D02*
X12872528Y-14708443D01*
X12872528Y-14641776D02*
X12863005Y-14651300D01*
X12872528Y-14660824D01*
X12882052Y-14651300D01*
X12872528Y-14641776D01*
X12872528Y-14660824D01*
X12996338Y-14841776D02*
X12977290Y-14832252D01*
X12967767Y-14813205D01*
X12967767Y-14641776D01*
X13101100Y-14841776D02*
X13082052Y-14832252D01*
X13072528Y-14813205D01*
X13072528Y-14641776D01*
X13329671Y-14841776D02*
X13329671Y-14641776D01*
X13396338Y-14784633D01*
X13463005Y-14641776D01*
X13463005Y-14841776D01*
X13643957Y-14841776D02*
X13643957Y-14737014D01*
X13634433Y-14717967D01*
X13615386Y-14708443D01*
X13577290Y-14708443D01*
X13558243Y-14717967D01*
X13643957Y-14832252D02*
X13624909Y-14841776D01*
X13577290Y-14841776D01*
X13558243Y-14832252D01*
X13548719Y-14813205D01*
X13548719Y-14794157D01*
X13558243Y-14775109D01*
X13577290Y-14765586D01*
X13624909Y-14765586D01*
X13643957Y-14756062D01*
X13739195Y-14708443D02*
X13739195Y-14908443D01*
X13739195Y-14717967D02*
X13758243Y-14708443D01*
X13796338Y-14708443D01*
X13815386Y-14717967D01*
X13824909Y-14727490D01*
X13834433Y-14746538D01*
X13834433Y-14803681D01*
X13824909Y-14822728D01*
X13815386Y-14832252D01*
X13796338Y-14841776D01*
X13758243Y-14841776D01*
X13739195Y-14832252D01*
X13920148Y-14822728D02*
X13929671Y-14832252D01*
X13920148Y-14841776D01*
X13910624Y-14832252D01*
X13920148Y-14822728D01*
X13920148Y-14841776D01*
X13920148Y-14717967D02*
X13929671Y-14727490D01*
X13920148Y-14737014D01*
X13910624Y-14727490D01*
X13920148Y-14717967D01*
X13920148Y-14737014D01*
D12*
X12241100Y-15146300D02*
X12291100Y-15196300D01*
X12291100Y-15146300D02*
X12241100Y-15196300D01*
D11*
X12586814Y-15061776D02*
X12605862Y-15061776D01*
X12624909Y-15071300D01*
X12634433Y-15080824D01*
X12643957Y-15099871D01*
X12653481Y-15137967D01*
X12653481Y-15185586D01*
X12643957Y-15223681D01*
X12634433Y-15242728D01*
X12624909Y-15252252D01*
X12605862Y-15261776D01*
X12586814Y-15261776D01*
X12567767Y-15252252D01*
X12558243Y-15242728D01*
X12548719Y-15223681D01*
X12539195Y-15185586D01*
X12539195Y-15137967D01*
X12548719Y-15099871D01*
X12558243Y-15080824D01*
X12567767Y-15071300D01*
X12586814Y-15061776D01*
X12739195Y-15242728D02*
X12748719Y-15252252D01*
X12739195Y-15261776D01*
X12729671Y-15252252D01*
X12739195Y-15242728D01*
X12739195Y-15261776D01*
X12929671Y-15061776D02*
X12834433Y-15061776D01*
X12824909Y-15157014D01*
X12834433Y-15147490D01*
X12853481Y-15137967D01*
X12901100Y-15137967D01*
X12920148Y-15147490D01*
X12929671Y-15157014D01*
X12939195Y-15176062D01*
X12939195Y-15223681D01*
X12929671Y-15242728D01*
X12920148Y-15252252D01*
X12901100Y-15261776D01*
X12853481Y-15261776D01*
X12834433Y-15252252D01*
X12824909Y-15242728D01*
X13063005Y-15061776D02*
X13082052Y-15061776D01*
X13101100Y-15071300D01*
X13110624Y-15080824D01*
X13120148Y-15099871D01*
X13129671Y-15137967D01*
X13129671Y-15185586D01*
X13120148Y-15223681D01*
X13110624Y-15242728D01*
X13101100Y-15252252D01*
X13082052Y-15261776D01*
X13063005Y-15261776D01*
X13043957Y-15252252D01*
X13034433Y-15242728D01*
X13024909Y-15223681D01*
X13015386Y-15185586D01*
X13015386Y-15137967D01*
X13024909Y-15099871D01*
X13034433Y-15080824D01*
X13043957Y-15071300D01*
X13063005Y-15061776D01*
X13253481Y-15061776D02*
X13272528Y-15061776D01*
X13291576Y-15071300D01*
X13301100Y-15080824D01*
X13310624Y-15099871D01*
X13320148Y-15137967D01*
X13320148Y-15185586D01*
X13310624Y-15223681D01*
X13301100Y-15242728D01*
X13291576Y-15252252D01*
X13272528Y-15261776D01*
X13253481Y-15261776D01*
X13234433Y-15252252D01*
X13224909Y-15242728D01*
X13215386Y-15223681D01*
X13205862Y-15185586D01*
X13205862Y-15137967D01*
X13215386Y-15099871D01*
X13224909Y-15080824D01*
X13234433Y-15071300D01*
X13253481Y-15061776D01*
X13405862Y-15261776D02*
X13405862Y-15128443D01*
X13405862Y-15147490D02*
X13415386Y-15137967D01*
X13434433Y-15128443D01*
X13463005Y-15128443D01*
X13482052Y-15137967D01*
X13491576Y-15157014D01*
X13491576Y-15261776D01*
X13491576Y-15157014D02*
X13501100Y-15137967D01*
X13520148Y-15128443D01*
X13548719Y-15128443D01*
X13567767Y-15137967D01*
X13577290Y-15157014D01*
X13577290Y-15261776D01*
X13672528Y-15261776D02*
X13672528Y-15128443D01*
X13672528Y-15147490D02*
X13682052Y-15137967D01*
X13701100Y-15128443D01*
X13729671Y-15128443D01*
X13748719Y-15137967D01*
X13758243Y-15157014D01*
X13758243Y-15261776D01*
X13758243Y-15157014D02*
X13767767Y-15137967D01*
X13786814Y-15128443D01*
X13815386Y-15128443D01*
X13834433Y-15137967D01*
X13843957Y-15157014D01*
X13843957Y-15261776D01*
X14234433Y-15052252D02*
X14063005Y-15309395D01*
X14491576Y-15061776D02*
X14510624Y-15061776D01*
X14529671Y-15071300D01*
X14539195Y-15080824D01*
X14548719Y-15099871D01*
X14558243Y-15137967D01*
X14558243Y-15185586D01*
X14548719Y-15223681D01*
X14539195Y-15242728D01*
X14529671Y-15252252D01*
X14510624Y-15261776D01*
X14491576Y-15261776D01*
X14472528Y-15252252D01*
X14463005Y-15242728D01*
X14453481Y-15223681D01*
X14443957Y-15185586D01*
X14443957Y-15137967D01*
X14453481Y-15099871D01*
X14463005Y-15080824D01*
X14472528Y-15071300D01*
X14491576Y-15061776D01*
X14643957Y-15242728D02*
X14653481Y-15252252D01*
X14643957Y-15261776D01*
X14634433Y-15252252D01*
X14643957Y-15242728D01*
X14643957Y-15261776D01*
X14777290Y-15061776D02*
X14796338Y-15061776D01*
X14815386Y-15071300D01*
X14824909Y-15080824D01*
X14834433Y-15099871D01*
X14843957Y-15137967D01*
X14843957Y-15185586D01*
X14834433Y-15223681D01*
X14824909Y-15242728D01*
X14815386Y-15252252D01*
X14796338Y-15261776D01*
X14777290Y-15261776D01*
X14758243Y-15252252D01*
X14748719Y-15242728D01*
X14739195Y-15223681D01*
X14729671Y-15185586D01*
X14729671Y-15137967D01*
X14739195Y-15099871D01*
X14748719Y-15080824D01*
X14758243Y-15071300D01*
X14777290Y-15061776D01*
X15034433Y-15261776D02*
X14920148Y-15261776D01*
X14977290Y-15261776D02*
X14977290Y-15061776D01*
X14958243Y-15090348D01*
X14939195Y-15109395D01*
X14920148Y-15118919D01*
X15129671Y-15261776D02*
X15167767Y-15261776D01*
X15186814Y-15252252D01*
X15196338Y-15242728D01*
X15215386Y-15214157D01*
X15224909Y-15176062D01*
X15224909Y-15099871D01*
X15215386Y-15080824D01*
X15205862Y-15071300D01*
X15186814Y-15061776D01*
X15148719Y-15061776D01*
X15129671Y-15071300D01*
X15120148Y-15080824D01*
X15110624Y-15099871D01*
X15110624Y-15147490D01*
X15120148Y-15166538D01*
X15129671Y-15176062D01*
X15148719Y-15185586D01*
X15186814Y-15185586D01*
X15205862Y-15176062D01*
X15215386Y-15166538D01*
X15224909Y-15147490D01*
X15291576Y-15061776D02*
X15424909Y-15061776D01*
X15339195Y-15261776D01*
X15491576Y-15061776D02*
X15491576Y-15099871D01*
X15567767Y-15061776D02*
X15567767Y-15099871D01*
X15863005Y-15337967D02*
X15853481Y-15328443D01*
X15834433Y-15299871D01*
X15824909Y-15280824D01*
X15815386Y-15252252D01*
X15805862Y-15204633D01*
X15805862Y-15166538D01*
X15815386Y-15118919D01*
X15824909Y-15090348D01*
X15834433Y-15071300D01*
X15853481Y-15042728D01*
X15863005Y-15033205D01*
X16024909Y-15061776D02*
X15986814Y-15061776D01*
X15967767Y-15071300D01*
X15958243Y-15080824D01*
X15939195Y-15109395D01*
X15929671Y-15147490D01*
X15929671Y-15223681D01*
X15939195Y-15242728D01*
X15948719Y-15252252D01*
X15967767Y-15261776D01*
X16005862Y-15261776D01*
X16024909Y-15252252D01*
X16034433Y-15242728D01*
X16043957Y-15223681D01*
X16043957Y-15176062D01*
X16034433Y-15157014D01*
X16024909Y-15147490D01*
X16005862Y-15137967D01*
X15967767Y-15137967D01*
X15948719Y-15147490D01*
X15939195Y-15157014D01*
X15929671Y-15176062D01*
X16110624Y-15061776D02*
X16243957Y-15061776D01*
X16158243Y-15261776D01*
X16472528Y-15261776D02*
X16472528Y-15061776D01*
X16558243Y-15261776D02*
X16558243Y-15157014D01*
X16548719Y-15137967D01*
X16529671Y-15128443D01*
X16501100Y-15128443D01*
X16482052Y-15137967D01*
X16472528Y-15147490D01*
X16682052Y-15261776D02*
X16663005Y-15252252D01*
X16653481Y-15242728D01*
X16643957Y-15223681D01*
X16643957Y-15166538D01*
X16653481Y-15147490D01*
X16663005Y-15137967D01*
X16682052Y-15128443D01*
X16710624Y-15128443D01*
X16729671Y-15137967D01*
X16739195Y-15147490D01*
X16748719Y-15166538D01*
X16748719Y-15223681D01*
X16739195Y-15242728D01*
X16729671Y-15252252D01*
X16710624Y-15261776D01*
X16682052Y-15261776D01*
X16863005Y-15261776D02*
X16843957Y-15252252D01*
X16834433Y-15233205D01*
X16834433Y-15061776D01*
X17015386Y-15252252D02*
X16996338Y-15261776D01*
X16958243Y-15261776D01*
X16939195Y-15252252D01*
X16929671Y-15233205D01*
X16929671Y-15157014D01*
X16939195Y-15137967D01*
X16958243Y-15128443D01*
X16996338Y-15128443D01*
X17015386Y-15137967D01*
X17024910Y-15157014D01*
X17024910Y-15176062D01*
X16929671Y-15195109D01*
X17101100Y-15252252D02*
X17120148Y-15261776D01*
X17158243Y-15261776D01*
X17177290Y-15252252D01*
X17186814Y-15233205D01*
X17186814Y-15223681D01*
X17177290Y-15204633D01*
X17158243Y-15195109D01*
X17129671Y-15195109D01*
X17110624Y-15185586D01*
X17101100Y-15166538D01*
X17101100Y-15157014D01*
X17110624Y-15137967D01*
X17129671Y-15128443D01*
X17158243Y-15128443D01*
X17177290Y-15137967D01*
X17253481Y-15337967D02*
X17263005Y-15328443D01*
X17282052Y-15299871D01*
X17291576Y-15280824D01*
X17301100Y-15252252D01*
X17310624Y-15204633D01*
X17310624Y-15166538D01*
X17301100Y-15118919D01*
X17291576Y-15090348D01*
X17282052Y-15071300D01*
X17263005Y-15042728D01*
X17253481Y-15033205D01*
D13*
X12291100Y-15435300D02*
G75*
G03*
X12291100Y-15435300I-40000J0D01*
G01*
D11*
X12586814Y-15325776D02*
X12605862Y-15325776D01*
X12624909Y-15335300D01*
X12634433Y-15344824D01*
X12643957Y-15363871D01*
X12653481Y-15401967D01*
X12653481Y-15449586D01*
X12643957Y-15487681D01*
X12634433Y-15506728D01*
X12624909Y-15516252D01*
X12605862Y-15525776D01*
X12586814Y-15525776D01*
X12567767Y-15516252D01*
X12558243Y-15506728D01*
X12548719Y-15487681D01*
X12539195Y-15449586D01*
X12539195Y-15401967D01*
X12548719Y-15363871D01*
X12558243Y-15344824D01*
X12567767Y-15335300D01*
X12586814Y-15325776D01*
X12739195Y-15506728D02*
X12748719Y-15516252D01*
X12739195Y-15525776D01*
X12729671Y-15516252D01*
X12739195Y-15506728D01*
X12739195Y-15525776D01*
X12863005Y-15411490D02*
X12843957Y-15401967D01*
X12834433Y-15392443D01*
X12824909Y-15373395D01*
X12824909Y-15363871D01*
X12834433Y-15344824D01*
X12843957Y-15335300D01*
X12863005Y-15325776D01*
X12901100Y-15325776D01*
X12920148Y-15335300D01*
X12929671Y-15344824D01*
X12939195Y-15363871D01*
X12939195Y-15373395D01*
X12929671Y-15392443D01*
X12920148Y-15401967D01*
X12901100Y-15411490D01*
X12863005Y-15411490D01*
X12843957Y-15421014D01*
X12834433Y-15430538D01*
X12824909Y-15449586D01*
X12824909Y-15487681D01*
X12834433Y-15506728D01*
X12843957Y-15516252D01*
X12863005Y-15525776D01*
X12901100Y-15525776D01*
X12920148Y-15516252D01*
X12929671Y-15506728D01*
X12939195Y-15487681D01*
X12939195Y-15449586D01*
X12929671Y-15430538D01*
X12920148Y-15421014D01*
X12901100Y-15411490D01*
X13063005Y-15325776D02*
X13082052Y-15325776D01*
X13101100Y-15335300D01*
X13110624Y-15344824D01*
X13120148Y-15363871D01*
X13129671Y-15401967D01*
X13129671Y-15449586D01*
X13120148Y-15487681D01*
X13110624Y-15506728D01*
X13101100Y-15516252D01*
X13082052Y-15525776D01*
X13063005Y-15525776D01*
X13043957Y-15516252D01*
X13034433Y-15506728D01*
X13024909Y-15487681D01*
X13015386Y-15449586D01*
X13015386Y-15401967D01*
X13024909Y-15363871D01*
X13034433Y-15344824D01*
X13043957Y-15335300D01*
X13063005Y-15325776D01*
X13253481Y-15325776D02*
X13272528Y-15325776D01*
X13291576Y-15335300D01*
X13301100Y-15344824D01*
X13310624Y-15363871D01*
X13320148Y-15401967D01*
X13320148Y-15449586D01*
X13310624Y-15487681D01*
X13301100Y-15506728D01*
X13291576Y-15516252D01*
X13272528Y-15525776D01*
X13253481Y-15525776D01*
X13234433Y-15516252D01*
X13224909Y-15506728D01*
X13215386Y-15487681D01*
X13205862Y-15449586D01*
X13205862Y-15401967D01*
X13215386Y-15363871D01*
X13224909Y-15344824D01*
X13234433Y-15335300D01*
X13253481Y-15325776D01*
X13405862Y-15525776D02*
X13405862Y-15392443D01*
X13405862Y-15411490D02*
X13415386Y-15401967D01*
X13434433Y-15392443D01*
X13463005Y-15392443D01*
X13482052Y-15401967D01*
X13491576Y-15421014D01*
X13491576Y-15525776D01*
X13491576Y-15421014D02*
X13501100Y-15401967D01*
X13520148Y-15392443D01*
X13548719Y-15392443D01*
X13567767Y-15401967D01*
X13577290Y-15421014D01*
X13577290Y-15525776D01*
X13672528Y-15525776D02*
X13672528Y-15392443D01*
X13672528Y-15411490D02*
X13682052Y-15401967D01*
X13701100Y-15392443D01*
X13729671Y-15392443D01*
X13748719Y-15401967D01*
X13758243Y-15421014D01*
X13758243Y-15525776D01*
X13758243Y-15421014D02*
X13767767Y-15401967D01*
X13786814Y-15392443D01*
X13815386Y-15392443D01*
X13834433Y-15401967D01*
X13843957Y-15421014D01*
X13843957Y-15525776D01*
X14234433Y-15316252D02*
X14063005Y-15573395D01*
X14491576Y-15325776D02*
X14510624Y-15325776D01*
X14529671Y-15335300D01*
X14539195Y-15344824D01*
X14548719Y-15363871D01*
X14558243Y-15401967D01*
X14558243Y-15449586D01*
X14548719Y-15487681D01*
X14539195Y-15506728D01*
X14529671Y-15516252D01*
X14510624Y-15525776D01*
X14491576Y-15525776D01*
X14472528Y-15516252D01*
X14463005Y-15506728D01*
X14453481Y-15487681D01*
X14443957Y-15449586D01*
X14443957Y-15401967D01*
X14453481Y-15363871D01*
X14463005Y-15344824D01*
X14472528Y-15335300D01*
X14491576Y-15325776D01*
X14643957Y-15506728D02*
X14653481Y-15516252D01*
X14643957Y-15525776D01*
X14634433Y-15516252D01*
X14643957Y-15506728D01*
X14643957Y-15525776D01*
X14777290Y-15325776D02*
X14796338Y-15325776D01*
X14815386Y-15335300D01*
X14824909Y-15344824D01*
X14834433Y-15363871D01*
X14843957Y-15401967D01*
X14843957Y-15449586D01*
X14834433Y-15487681D01*
X14824909Y-15506728D01*
X14815386Y-15516252D01*
X14796338Y-15525776D01*
X14777290Y-15525776D01*
X14758243Y-15516252D01*
X14748719Y-15506728D01*
X14739195Y-15487681D01*
X14729671Y-15449586D01*
X14729671Y-15401967D01*
X14739195Y-15363871D01*
X14748719Y-15344824D01*
X14758243Y-15335300D01*
X14777290Y-15325776D01*
X14910624Y-15325776D02*
X15034433Y-15325776D01*
X14967767Y-15401967D01*
X14996338Y-15401967D01*
X15015386Y-15411490D01*
X15024909Y-15421014D01*
X15034433Y-15440062D01*
X15034433Y-15487681D01*
X15024909Y-15506728D01*
X15015386Y-15516252D01*
X14996338Y-15525776D01*
X14939195Y-15525776D01*
X14920148Y-15516252D01*
X14910624Y-15506728D01*
X15224909Y-15525776D02*
X15110624Y-15525776D01*
X15167767Y-15525776D02*
X15167767Y-15325776D01*
X15148719Y-15354348D01*
X15129671Y-15373395D01*
X15110624Y-15382919D01*
X15405862Y-15325776D02*
X15310624Y-15325776D01*
X15301100Y-15421014D01*
X15310624Y-15411490D01*
X15329671Y-15401967D01*
X15377290Y-15401967D01*
X15396338Y-15411490D01*
X15405862Y-15421014D01*
X15415386Y-15440062D01*
X15415386Y-15487681D01*
X15405862Y-15506728D01*
X15396338Y-15516252D01*
X15377290Y-15525776D01*
X15329671Y-15525776D01*
X15310624Y-15516252D01*
X15301100Y-15506728D01*
X15491576Y-15325776D02*
X15491576Y-15363871D01*
X15567767Y-15325776D02*
X15567767Y-15363871D01*
X15863005Y-15601967D02*
X15853481Y-15592443D01*
X15834433Y-15563871D01*
X15824909Y-15544824D01*
X15815386Y-15516252D01*
X15805862Y-15468633D01*
X15805862Y-15430538D01*
X15815386Y-15382919D01*
X15824909Y-15354348D01*
X15834433Y-15335300D01*
X15853481Y-15306728D01*
X15863005Y-15297205D01*
X15929671Y-15344824D02*
X15939195Y-15335300D01*
X15958243Y-15325776D01*
X16005862Y-15325776D01*
X16024909Y-15335300D01*
X16034433Y-15344824D01*
X16043957Y-15363871D01*
X16043957Y-15382919D01*
X16034433Y-15411490D01*
X15920148Y-15525776D01*
X16043957Y-15525776D01*
X16282052Y-15525776D02*
X16282052Y-15325776D01*
X16367767Y-15525776D02*
X16367767Y-15421014D01*
X16358243Y-15401967D01*
X16339195Y-15392443D01*
X16310624Y-15392443D01*
X16291576Y-15401967D01*
X16282052Y-15411490D01*
X16491576Y-15525776D02*
X16472528Y-15516252D01*
X16463005Y-15506728D01*
X16453481Y-15487681D01*
X16453481Y-15430538D01*
X16463005Y-15411490D01*
X16472528Y-15401967D01*
X16491576Y-15392443D01*
X16520148Y-15392443D01*
X16539195Y-15401967D01*
X16548719Y-15411490D01*
X16558243Y-15430538D01*
X16558243Y-15487681D01*
X16548719Y-15506728D01*
X16539195Y-15516252D01*
X16520148Y-15525776D01*
X16491576Y-15525776D01*
X16672528Y-15525776D02*
X16653481Y-15516252D01*
X16643957Y-15497205D01*
X16643957Y-15325776D01*
X16824910Y-15516252D02*
X16805862Y-15525776D01*
X16767767Y-15525776D01*
X16748719Y-15516252D01*
X16739195Y-15497205D01*
X16739195Y-15421014D01*
X16748719Y-15401967D01*
X16767767Y-15392443D01*
X16805862Y-15392443D01*
X16824910Y-15401967D01*
X16834433Y-15421014D01*
X16834433Y-15440062D01*
X16739195Y-15459109D01*
X16910624Y-15516252D02*
X16929671Y-15525776D01*
X16967767Y-15525776D01*
X16986814Y-15516252D01*
X16996338Y-15497205D01*
X16996338Y-15487681D01*
X16986814Y-15468633D01*
X16967767Y-15459109D01*
X16939195Y-15459109D01*
X16920148Y-15449586D01*
X16910624Y-15430538D01*
X16910624Y-15421014D01*
X16920148Y-15401967D01*
X16939195Y-15392443D01*
X16967767Y-15392443D01*
X16986814Y-15401967D01*
X17063005Y-15601967D02*
X17072529Y-15592443D01*
X17091576Y-15563871D01*
X17101100Y-15544824D01*
X17110624Y-15516252D01*
X17120148Y-15468633D01*
X17120148Y-15430538D01*
X17110624Y-15382919D01*
X17101100Y-15354348D01*
X17091576Y-15335300D01*
X17072529Y-15306728D01*
X17063005Y-15297205D01*
D13*
X12251100Y-15659300D02*
X12251100Y-15739300D01*
X12211100Y-15699300D02*
X12291100Y-15699300D01*
D11*
X12586814Y-15589776D02*
X12605862Y-15589776D01*
X12624909Y-15599300D01*
X12634433Y-15608824D01*
X12643957Y-15627871D01*
X12653481Y-15665967D01*
X12653481Y-15713586D01*
X12643957Y-15751681D01*
X12634433Y-15770728D01*
X12624909Y-15780252D01*
X12605862Y-15789776D01*
X12586814Y-15789776D01*
X12567767Y-15780252D01*
X12558243Y-15770728D01*
X12548719Y-15751681D01*
X12539195Y-15713586D01*
X12539195Y-15665967D01*
X12548719Y-15627871D01*
X12558243Y-15608824D01*
X12567767Y-15599300D01*
X12586814Y-15589776D01*
X12739195Y-15770728D02*
X12748719Y-15780252D01*
X12739195Y-15789776D01*
X12729671Y-15780252D01*
X12739195Y-15770728D01*
X12739195Y-15789776D01*
X12863005Y-15675490D02*
X12843957Y-15665967D01*
X12834433Y-15656443D01*
X12824909Y-15637395D01*
X12824909Y-15627871D01*
X12834433Y-15608824D01*
X12843957Y-15599300D01*
X12863005Y-15589776D01*
X12901100Y-15589776D01*
X12920148Y-15599300D01*
X12929671Y-15608824D01*
X12939195Y-15627871D01*
X12939195Y-15637395D01*
X12929671Y-15656443D01*
X12920148Y-15665967D01*
X12901100Y-15675490D01*
X12863005Y-15675490D01*
X12843957Y-15685014D01*
X12834433Y-15694538D01*
X12824909Y-15713586D01*
X12824909Y-15751681D01*
X12834433Y-15770728D01*
X12843957Y-15780252D01*
X12863005Y-15789776D01*
X12901100Y-15789776D01*
X12920148Y-15780252D01*
X12929671Y-15770728D01*
X12939195Y-15751681D01*
X12939195Y-15713586D01*
X12929671Y-15694538D01*
X12920148Y-15685014D01*
X12901100Y-15675490D01*
X13063005Y-15589776D02*
X13082052Y-15589776D01*
X13101100Y-15599300D01*
X13110624Y-15608824D01*
X13120148Y-15627871D01*
X13129671Y-15665967D01*
X13129671Y-15713586D01*
X13120148Y-15751681D01*
X13110624Y-15770728D01*
X13101100Y-15780252D01*
X13082052Y-15789776D01*
X13063005Y-15789776D01*
X13043957Y-15780252D01*
X13034433Y-15770728D01*
X13024909Y-15751681D01*
X13015386Y-15713586D01*
X13015386Y-15665967D01*
X13024909Y-15627871D01*
X13034433Y-15608824D01*
X13043957Y-15599300D01*
X13063005Y-15589776D01*
X13253481Y-15589776D02*
X13272528Y-15589776D01*
X13291576Y-15599300D01*
X13301100Y-15608824D01*
X13310624Y-15627871D01*
X13320148Y-15665967D01*
X13320148Y-15713586D01*
X13310624Y-15751681D01*
X13301100Y-15770728D01*
X13291576Y-15780252D01*
X13272528Y-15789776D01*
X13253481Y-15789776D01*
X13234433Y-15780252D01*
X13224909Y-15770728D01*
X13215386Y-15751681D01*
X13205862Y-15713586D01*
X13205862Y-15665967D01*
X13215386Y-15627871D01*
X13224909Y-15608824D01*
X13234433Y-15599300D01*
X13253481Y-15589776D01*
X13405862Y-15789776D02*
X13405862Y-15656443D01*
X13405862Y-15675490D02*
X13415386Y-15665967D01*
X13434433Y-15656443D01*
X13463005Y-15656443D01*
X13482052Y-15665967D01*
X13491576Y-15685014D01*
X13491576Y-15789776D01*
X13491576Y-15685014D02*
X13501100Y-15665967D01*
X13520148Y-15656443D01*
X13548719Y-15656443D01*
X13567767Y-15665967D01*
X13577290Y-15685014D01*
X13577290Y-15789776D01*
X13672528Y-15789776D02*
X13672528Y-15656443D01*
X13672528Y-15675490D02*
X13682052Y-15665967D01*
X13701100Y-15656443D01*
X13729671Y-15656443D01*
X13748719Y-15665967D01*
X13758243Y-15685014D01*
X13758243Y-15789776D01*
X13758243Y-15685014D02*
X13767767Y-15665967D01*
X13786814Y-15656443D01*
X13815386Y-15656443D01*
X13834433Y-15665967D01*
X13843957Y-15685014D01*
X13843957Y-15789776D01*
X14234433Y-15580252D02*
X14063005Y-15837395D01*
X14491576Y-15589776D02*
X14510624Y-15589776D01*
X14529671Y-15599300D01*
X14539195Y-15608824D01*
X14548719Y-15627871D01*
X14558243Y-15665967D01*
X14558243Y-15713586D01*
X14548719Y-15751681D01*
X14539195Y-15770728D01*
X14529671Y-15780252D01*
X14510624Y-15789776D01*
X14491576Y-15789776D01*
X14472528Y-15780252D01*
X14463005Y-15770728D01*
X14453481Y-15751681D01*
X14443957Y-15713586D01*
X14443957Y-15665967D01*
X14453481Y-15627871D01*
X14463005Y-15608824D01*
X14472528Y-15599300D01*
X14491576Y-15589776D01*
X14643957Y-15770728D02*
X14653481Y-15780252D01*
X14643957Y-15789776D01*
X14634433Y-15780252D01*
X14643957Y-15770728D01*
X14643957Y-15789776D01*
X14777290Y-15589776D02*
X14796338Y-15589776D01*
X14815386Y-15599300D01*
X14824909Y-15608824D01*
X14834433Y-15627871D01*
X14843957Y-15665967D01*
X14843957Y-15713586D01*
X14834433Y-15751681D01*
X14824909Y-15770728D01*
X14815386Y-15780252D01*
X14796338Y-15789776D01*
X14777290Y-15789776D01*
X14758243Y-15780252D01*
X14748719Y-15770728D01*
X14739195Y-15751681D01*
X14729671Y-15713586D01*
X14729671Y-15665967D01*
X14739195Y-15627871D01*
X14748719Y-15608824D01*
X14758243Y-15599300D01*
X14777290Y-15589776D01*
X14910624Y-15589776D02*
X15034433Y-15589776D01*
X14967767Y-15665967D01*
X14996338Y-15665967D01*
X15015386Y-15675490D01*
X15024909Y-15685014D01*
X15034433Y-15704062D01*
X15034433Y-15751681D01*
X15024909Y-15770728D01*
X15015386Y-15780252D01*
X14996338Y-15789776D01*
X14939195Y-15789776D01*
X14920148Y-15780252D01*
X14910624Y-15770728D01*
X15224909Y-15789776D02*
X15110624Y-15789776D01*
X15167767Y-15789776D02*
X15167767Y-15589776D01*
X15148719Y-15618348D01*
X15129671Y-15637395D01*
X15110624Y-15646919D01*
X15405862Y-15589776D02*
X15310624Y-15589776D01*
X15301100Y-15685014D01*
X15310624Y-15675490D01*
X15329671Y-15665967D01*
X15377290Y-15665967D01*
X15396338Y-15675490D01*
X15405862Y-15685014D01*
X15415386Y-15704062D01*
X15415386Y-15751681D01*
X15405862Y-15770728D01*
X15396338Y-15780252D01*
X15377290Y-15789776D01*
X15329671Y-15789776D01*
X15310624Y-15780252D01*
X15301100Y-15770728D01*
X15491576Y-15589776D02*
X15491576Y-15627871D01*
X15567767Y-15589776D02*
X15567767Y-15627871D01*
X15863005Y-15865967D02*
X15853481Y-15856443D01*
X15834433Y-15827871D01*
X15824909Y-15808824D01*
X15815386Y-15780252D01*
X15805862Y-15732633D01*
X15805862Y-15694538D01*
X15815386Y-15646919D01*
X15824909Y-15618348D01*
X15834433Y-15599300D01*
X15853481Y-15570728D01*
X15863005Y-15561205D01*
X16043957Y-15789776D02*
X15929671Y-15789776D01*
X15986814Y-15789776D02*
X15986814Y-15589776D01*
X15967767Y-15618348D01*
X15948719Y-15637395D01*
X15929671Y-15646919D01*
X16110624Y-15589776D02*
X16234433Y-15589776D01*
X16167767Y-15665967D01*
X16196338Y-15665967D01*
X16215386Y-15675490D01*
X16224909Y-15685014D01*
X16234433Y-15704062D01*
X16234433Y-15751681D01*
X16224909Y-15770728D01*
X16215386Y-15780252D01*
X16196338Y-15789776D01*
X16139195Y-15789776D01*
X16120148Y-15780252D01*
X16110624Y-15770728D01*
X16472528Y-15789776D02*
X16472528Y-15589776D01*
X16558243Y-15789776D02*
X16558243Y-15685014D01*
X16548719Y-15665967D01*
X16529671Y-15656443D01*
X16501100Y-15656443D01*
X16482052Y-15665967D01*
X16472528Y-15675490D01*
X16682052Y-15789776D02*
X16663005Y-15780252D01*
X16653481Y-15770728D01*
X16643957Y-15751681D01*
X16643957Y-15694538D01*
X16653481Y-15675490D01*
X16663005Y-15665967D01*
X16682052Y-15656443D01*
X16710624Y-15656443D01*
X16729671Y-15665967D01*
X16739195Y-15675490D01*
X16748719Y-15694538D01*
X16748719Y-15751681D01*
X16739195Y-15770728D01*
X16729671Y-15780252D01*
X16710624Y-15789776D01*
X16682052Y-15789776D01*
X16863005Y-15789776D02*
X16843957Y-15780252D01*
X16834433Y-15761205D01*
X16834433Y-15589776D01*
X17015386Y-15780252D02*
X16996338Y-15789776D01*
X16958243Y-15789776D01*
X16939195Y-15780252D01*
X16929671Y-15761205D01*
X16929671Y-15685014D01*
X16939195Y-15665967D01*
X16958243Y-15656443D01*
X16996338Y-15656443D01*
X17015386Y-15665967D01*
X17024910Y-15685014D01*
X17024910Y-15704062D01*
X16929671Y-15723109D01*
X17101100Y-15780252D02*
X17120148Y-15789776D01*
X17158243Y-15789776D01*
X17177290Y-15780252D01*
X17186814Y-15761205D01*
X17186814Y-15751681D01*
X17177290Y-15732633D01*
X17158243Y-15723109D01*
X17129671Y-15723109D01*
X17110624Y-15713586D01*
X17101100Y-15694538D01*
X17101100Y-15685014D01*
X17110624Y-15665967D01*
X17129671Y-15656443D01*
X17158243Y-15656443D01*
X17177290Y-15665967D01*
X17253481Y-15865967D02*
X17263005Y-15856443D01*
X17282052Y-15827871D01*
X17291576Y-15808824D01*
X17301100Y-15780252D01*
X17310624Y-15732633D01*
X17310624Y-15694538D01*
X17301100Y-15646919D01*
X17291576Y-15618348D01*
X17282052Y-15599300D01*
X17263005Y-15570728D01*
X17253481Y-15561205D01*
D14*
X12277920Y-15995120D02*
X12277920Y-15931480D01*
X12214280Y-15931480D01*
X12214280Y-15995120D01*
X12277920Y-15995120D01*
D11*
X12586814Y-15853776D02*
X12605862Y-15853776D01*
X12624909Y-15863300D01*
X12634433Y-15872824D01*
X12643957Y-15891871D01*
X12653481Y-15929967D01*
X12653481Y-15977586D01*
X12643957Y-16015681D01*
X12634433Y-16034728D01*
X12624909Y-16044252D01*
X12605862Y-16053776D01*
X12586814Y-16053776D01*
X12567767Y-16044252D01*
X12558243Y-16034728D01*
X12548719Y-16015681D01*
X12539195Y-15977586D01*
X12539195Y-15929967D01*
X12548719Y-15891871D01*
X12558243Y-15872824D01*
X12567767Y-15863300D01*
X12586814Y-15853776D01*
X12739195Y-16034728D02*
X12748719Y-16044252D01*
X12739195Y-16053776D01*
X12729671Y-16044252D01*
X12739195Y-16034728D01*
X12739195Y-16053776D01*
X12843957Y-16053776D02*
X12882052Y-16053776D01*
X12901100Y-16044252D01*
X12910624Y-16034728D01*
X12929671Y-16006157D01*
X12939195Y-15968062D01*
X12939195Y-15891871D01*
X12929671Y-15872824D01*
X12920148Y-15863300D01*
X12901100Y-15853776D01*
X12863005Y-15853776D01*
X12843957Y-15863300D01*
X12834433Y-15872824D01*
X12824909Y-15891871D01*
X12824909Y-15939490D01*
X12834433Y-15958538D01*
X12843957Y-15968062D01*
X12863005Y-15977586D01*
X12901100Y-15977586D01*
X12920148Y-15968062D01*
X12929671Y-15958538D01*
X12939195Y-15939490D01*
X13063005Y-15853776D02*
X13082052Y-15853776D01*
X13101100Y-15863300D01*
X13110624Y-15872824D01*
X13120148Y-15891871D01*
X13129671Y-15929967D01*
X13129671Y-15977586D01*
X13120148Y-16015681D01*
X13110624Y-16034728D01*
X13101100Y-16044252D01*
X13082052Y-16053776D01*
X13063005Y-16053776D01*
X13043957Y-16044252D01*
X13034433Y-16034728D01*
X13024909Y-16015681D01*
X13015386Y-15977586D01*
X13015386Y-15929967D01*
X13024909Y-15891871D01*
X13034433Y-15872824D01*
X13043957Y-15863300D01*
X13063005Y-15853776D01*
X13253481Y-15853776D02*
X13272528Y-15853776D01*
X13291576Y-15863300D01*
X13301100Y-15872824D01*
X13310624Y-15891871D01*
X13320148Y-15929967D01*
X13320148Y-15977586D01*
X13310624Y-16015681D01*
X13301100Y-16034728D01*
X13291576Y-16044252D01*
X13272528Y-16053776D01*
X13253481Y-16053776D01*
X13234433Y-16044252D01*
X13224909Y-16034728D01*
X13215386Y-16015681D01*
X13205862Y-15977586D01*
X13205862Y-15929967D01*
X13215386Y-15891871D01*
X13224909Y-15872824D01*
X13234433Y-15863300D01*
X13253481Y-15853776D01*
X13405862Y-16053776D02*
X13405862Y-15920443D01*
X13405862Y-15939490D02*
X13415386Y-15929967D01*
X13434433Y-15920443D01*
X13463005Y-15920443D01*
X13482052Y-15929967D01*
X13491576Y-15949014D01*
X13491576Y-16053776D01*
X13491576Y-15949014D02*
X13501100Y-15929967D01*
X13520148Y-15920443D01*
X13548719Y-15920443D01*
X13567767Y-15929967D01*
X13577290Y-15949014D01*
X13577290Y-16053776D01*
X13672528Y-16053776D02*
X13672528Y-15920443D01*
X13672528Y-15939490D02*
X13682052Y-15929967D01*
X13701100Y-15920443D01*
X13729671Y-15920443D01*
X13748719Y-15929967D01*
X13758243Y-15949014D01*
X13758243Y-16053776D01*
X13758243Y-15949014D02*
X13767767Y-15929967D01*
X13786814Y-15920443D01*
X13815386Y-15920443D01*
X13834433Y-15929967D01*
X13843957Y-15949014D01*
X13843957Y-16053776D01*
X14234433Y-15844252D02*
X14063005Y-16101395D01*
X14491576Y-15853776D02*
X14510624Y-15853776D01*
X14529671Y-15863300D01*
X14539195Y-15872824D01*
X14548719Y-15891871D01*
X14558243Y-15929967D01*
X14558243Y-15977586D01*
X14548719Y-16015681D01*
X14539195Y-16034728D01*
X14529671Y-16044252D01*
X14510624Y-16053776D01*
X14491576Y-16053776D01*
X14472528Y-16044252D01*
X14463005Y-16034728D01*
X14453481Y-16015681D01*
X14443957Y-15977586D01*
X14443957Y-15929967D01*
X14453481Y-15891871D01*
X14463005Y-15872824D01*
X14472528Y-15863300D01*
X14491576Y-15853776D01*
X14643957Y-16034728D02*
X14653481Y-16044252D01*
X14643957Y-16053776D01*
X14634433Y-16044252D01*
X14643957Y-16034728D01*
X14643957Y-16053776D01*
X14777290Y-15853776D02*
X14796338Y-15853776D01*
X14815386Y-15863300D01*
X14824909Y-15872824D01*
X14834433Y-15891871D01*
X14843957Y-15929967D01*
X14843957Y-15977586D01*
X14834433Y-16015681D01*
X14824909Y-16034728D01*
X14815386Y-16044252D01*
X14796338Y-16053776D01*
X14777290Y-16053776D01*
X14758243Y-16044252D01*
X14748719Y-16034728D01*
X14739195Y-16015681D01*
X14729671Y-15977586D01*
X14729671Y-15929967D01*
X14739195Y-15891871D01*
X14748719Y-15872824D01*
X14758243Y-15863300D01*
X14777290Y-15853776D01*
X14910624Y-15853776D02*
X15034433Y-15853776D01*
X14967767Y-15929967D01*
X14996338Y-15929967D01*
X15015386Y-15939490D01*
X15024909Y-15949014D01*
X15034433Y-15968062D01*
X15034433Y-16015681D01*
X15024909Y-16034728D01*
X15015386Y-16044252D01*
X14996338Y-16053776D01*
X14939195Y-16053776D01*
X14920148Y-16044252D01*
X14910624Y-16034728D01*
X15215386Y-15853776D02*
X15120148Y-15853776D01*
X15110624Y-15949014D01*
X15120148Y-15939490D01*
X15139195Y-15929967D01*
X15186814Y-15929967D01*
X15205862Y-15939490D01*
X15215386Y-15949014D01*
X15224909Y-15968062D01*
X15224909Y-16015681D01*
X15215386Y-16034728D01*
X15205862Y-16044252D01*
X15186814Y-16053776D01*
X15139195Y-16053776D01*
X15120148Y-16044252D01*
X15110624Y-16034728D01*
X15396338Y-15920443D02*
X15396338Y-16053776D01*
X15348719Y-15844252D02*
X15301100Y-15987109D01*
X15424909Y-15987109D01*
X15491576Y-15853776D02*
X15491576Y-15891871D01*
X15567767Y-15853776D02*
X15567767Y-15891871D01*
X15863005Y-16129967D02*
X15853481Y-16120443D01*
X15834433Y-16091871D01*
X15824909Y-16072824D01*
X15815386Y-16044252D01*
X15805862Y-15996633D01*
X15805862Y-15958538D01*
X15815386Y-15910919D01*
X15824909Y-15882348D01*
X15834433Y-15863300D01*
X15853481Y-15834728D01*
X15863005Y-15825205D01*
X16043957Y-16053776D02*
X15929671Y-16053776D01*
X15986814Y-16053776D02*
X15986814Y-15853776D01*
X15967767Y-15882348D01*
X15948719Y-15901395D01*
X15929671Y-15910919D01*
X16167767Y-15853776D02*
X16186814Y-15853776D01*
X16205862Y-15863300D01*
X16215386Y-15872824D01*
X16224909Y-15891871D01*
X16234433Y-15929967D01*
X16234433Y-15977586D01*
X16224909Y-16015681D01*
X16215386Y-16034728D01*
X16205862Y-16044252D01*
X16186814Y-16053776D01*
X16167767Y-16053776D01*
X16148719Y-16044252D01*
X16139195Y-16034728D01*
X16129671Y-16015681D01*
X16120148Y-15977586D01*
X16120148Y-15929967D01*
X16129671Y-15891871D01*
X16139195Y-15872824D01*
X16148719Y-15863300D01*
X16167767Y-15853776D01*
X16472528Y-16053776D02*
X16472528Y-15853776D01*
X16558243Y-16053776D02*
X16558243Y-15949014D01*
X16548719Y-15929967D01*
X16529671Y-15920443D01*
X16501100Y-15920443D01*
X16482052Y-15929967D01*
X16472528Y-15939490D01*
X16682052Y-16053776D02*
X16663005Y-16044252D01*
X16653481Y-16034728D01*
X16643957Y-16015681D01*
X16643957Y-15958538D01*
X16653481Y-15939490D01*
X16663005Y-15929967D01*
X16682052Y-15920443D01*
X16710624Y-15920443D01*
X16729671Y-15929967D01*
X16739195Y-15939490D01*
X16748719Y-15958538D01*
X16748719Y-16015681D01*
X16739195Y-16034728D01*
X16729671Y-16044252D01*
X16710624Y-16053776D01*
X16682052Y-16053776D01*
X16863005Y-16053776D02*
X16843957Y-16044252D01*
X16834433Y-16025205D01*
X16834433Y-15853776D01*
X17015386Y-16044252D02*
X16996338Y-16053776D01*
X16958243Y-16053776D01*
X16939195Y-16044252D01*
X16929671Y-16025205D01*
X16929671Y-15949014D01*
X16939195Y-15929967D01*
X16958243Y-15920443D01*
X16996338Y-15920443D01*
X17015386Y-15929967D01*
X17024910Y-15949014D01*
X17024910Y-15968062D01*
X16929671Y-15987109D01*
X17101100Y-16044252D02*
X17120148Y-16053776D01*
X17158243Y-16053776D01*
X17177290Y-16044252D01*
X17186814Y-16025205D01*
X17186814Y-16015681D01*
X17177290Y-15996633D01*
X17158243Y-15987109D01*
X17129671Y-15987109D01*
X17110624Y-15977586D01*
X17101100Y-15958538D01*
X17101100Y-15949014D01*
X17110624Y-15929967D01*
X17129671Y-15920443D01*
X17158243Y-15920443D01*
X17177290Y-15929967D01*
X17253481Y-16129967D02*
X17263005Y-16120443D01*
X17282052Y-16091871D01*
X17291576Y-16072824D01*
X17301100Y-16044252D01*
X17310624Y-15996633D01*
X17310624Y-15958538D01*
X17301100Y-15910919D01*
X17291576Y-15882348D01*
X17282052Y-15863300D01*
X17263005Y-15834728D01*
X17253481Y-15825205D01*
D15*
X12241100Y-16277300D02*
X12291100Y-16227300D01*
X12241100Y-16177300D01*
X12191100Y-16227300D01*
X12241100Y-16277300D01*
D11*
X12653481Y-16317776D02*
X12539195Y-16317776D01*
X12596338Y-16317776D02*
X12596338Y-16117776D01*
X12577290Y-16146348D01*
X12558243Y-16165395D01*
X12539195Y-16174919D01*
X12739195Y-16298728D02*
X12748719Y-16308252D01*
X12739195Y-16317776D01*
X12729671Y-16308252D01*
X12739195Y-16298728D01*
X12739195Y-16317776D01*
X12872528Y-16117776D02*
X12891576Y-16117776D01*
X12910624Y-16127300D01*
X12920148Y-16136824D01*
X12929671Y-16155871D01*
X12939195Y-16193967D01*
X12939195Y-16241586D01*
X12929671Y-16279681D01*
X12920148Y-16298728D01*
X12910624Y-16308252D01*
X12891576Y-16317776D01*
X12872528Y-16317776D01*
X12853481Y-16308252D01*
X12843957Y-16298728D01*
X12834433Y-16279681D01*
X12824909Y-16241586D01*
X12824909Y-16193967D01*
X12834433Y-16155871D01*
X12843957Y-16136824D01*
X12853481Y-16127300D01*
X12872528Y-16117776D01*
X13063005Y-16117776D02*
X13082052Y-16117776D01*
X13101100Y-16127300D01*
X13110624Y-16136824D01*
X13120148Y-16155871D01*
X13129671Y-16193967D01*
X13129671Y-16241586D01*
X13120148Y-16279681D01*
X13110624Y-16298728D01*
X13101100Y-16308252D01*
X13082052Y-16317776D01*
X13063005Y-16317776D01*
X13043957Y-16308252D01*
X13034433Y-16298728D01*
X13024909Y-16279681D01*
X13015386Y-16241586D01*
X13015386Y-16193967D01*
X13024909Y-16155871D01*
X13034433Y-16136824D01*
X13043957Y-16127300D01*
X13063005Y-16117776D01*
X13253481Y-16117776D02*
X13272528Y-16117776D01*
X13291576Y-16127300D01*
X13301100Y-16136824D01*
X13310624Y-16155871D01*
X13320148Y-16193967D01*
X13320148Y-16241586D01*
X13310624Y-16279681D01*
X13301100Y-16298728D01*
X13291576Y-16308252D01*
X13272528Y-16317776D01*
X13253481Y-16317776D01*
X13234433Y-16308252D01*
X13224909Y-16298728D01*
X13215386Y-16279681D01*
X13205862Y-16241586D01*
X13205862Y-16193967D01*
X13215386Y-16155871D01*
X13224909Y-16136824D01*
X13234433Y-16127300D01*
X13253481Y-16117776D01*
X13405862Y-16317776D02*
X13405862Y-16184443D01*
X13405862Y-16203490D02*
X13415386Y-16193967D01*
X13434433Y-16184443D01*
X13463005Y-16184443D01*
X13482052Y-16193967D01*
X13491576Y-16213014D01*
X13491576Y-16317776D01*
X13491576Y-16213014D02*
X13501100Y-16193967D01*
X13520148Y-16184443D01*
X13548719Y-16184443D01*
X13567767Y-16193967D01*
X13577290Y-16213014D01*
X13577290Y-16317776D01*
X13672528Y-16317776D02*
X13672528Y-16184443D01*
X13672528Y-16203490D02*
X13682052Y-16193967D01*
X13701100Y-16184443D01*
X13729671Y-16184443D01*
X13748719Y-16193967D01*
X13758243Y-16213014D01*
X13758243Y-16317776D01*
X13758243Y-16213014D02*
X13767767Y-16193967D01*
X13786814Y-16184443D01*
X13815386Y-16184443D01*
X13834433Y-16193967D01*
X13843957Y-16213014D01*
X13843957Y-16317776D01*
X14234433Y-16108252D02*
X14063005Y-16365395D01*
X14491576Y-16117776D02*
X14510624Y-16117776D01*
X14529671Y-16127300D01*
X14539195Y-16136824D01*
X14548719Y-16155871D01*
X14558243Y-16193967D01*
X14558243Y-16241586D01*
X14548719Y-16279681D01*
X14539195Y-16298728D01*
X14529671Y-16308252D01*
X14510624Y-16317776D01*
X14491576Y-16317776D01*
X14472528Y-16308252D01*
X14463005Y-16298728D01*
X14453481Y-16279681D01*
X14443957Y-16241586D01*
X14443957Y-16193967D01*
X14453481Y-16155871D01*
X14463005Y-16136824D01*
X14472528Y-16127300D01*
X14491576Y-16117776D01*
X14643957Y-16298728D02*
X14653481Y-16308252D01*
X14643957Y-16317776D01*
X14634433Y-16308252D01*
X14643957Y-16298728D01*
X14643957Y-16317776D01*
X14777290Y-16117776D02*
X14796338Y-16117776D01*
X14815386Y-16127300D01*
X14824909Y-16136824D01*
X14834433Y-16155871D01*
X14843957Y-16193967D01*
X14843957Y-16241586D01*
X14834433Y-16279681D01*
X14824909Y-16298728D01*
X14815386Y-16308252D01*
X14796338Y-16317776D01*
X14777290Y-16317776D01*
X14758243Y-16308252D01*
X14748719Y-16298728D01*
X14739195Y-16279681D01*
X14729671Y-16241586D01*
X14729671Y-16193967D01*
X14739195Y-16155871D01*
X14748719Y-16136824D01*
X14758243Y-16127300D01*
X14777290Y-16117776D01*
X14910624Y-16117776D02*
X15034433Y-16117776D01*
X14967767Y-16193967D01*
X14996338Y-16193967D01*
X15015386Y-16203490D01*
X15024909Y-16213014D01*
X15034433Y-16232062D01*
X15034433Y-16279681D01*
X15024909Y-16298728D01*
X15015386Y-16308252D01*
X14996338Y-16317776D01*
X14939195Y-16317776D01*
X14920148Y-16308252D01*
X14910624Y-16298728D01*
X15129671Y-16317776D02*
X15167767Y-16317776D01*
X15186814Y-16308252D01*
X15196338Y-16298728D01*
X15215386Y-16270157D01*
X15224909Y-16232062D01*
X15224909Y-16155871D01*
X15215386Y-16136824D01*
X15205862Y-16127300D01*
X15186814Y-16117776D01*
X15148719Y-16117776D01*
X15129671Y-16127300D01*
X15120148Y-16136824D01*
X15110624Y-16155871D01*
X15110624Y-16203490D01*
X15120148Y-16222538D01*
X15129671Y-16232062D01*
X15148719Y-16241586D01*
X15186814Y-16241586D01*
X15205862Y-16232062D01*
X15215386Y-16222538D01*
X15224909Y-16203490D01*
X15396338Y-16184443D02*
X15396338Y-16317776D01*
X15348719Y-16108252D02*
X15301100Y-16251109D01*
X15424909Y-16251109D01*
X15491576Y-16117776D02*
X15491576Y-16155871D01*
X15567767Y-16117776D02*
X15567767Y-16155871D01*
X15863005Y-16393967D02*
X15853481Y-16384443D01*
X15834433Y-16355871D01*
X15824909Y-16336824D01*
X15815386Y-16308252D01*
X15805862Y-16260633D01*
X15805862Y-16222538D01*
X15815386Y-16174919D01*
X15824909Y-16146348D01*
X15834433Y-16127300D01*
X15853481Y-16098728D01*
X15863005Y-16089205D01*
X15929671Y-16136824D02*
X15939195Y-16127300D01*
X15958243Y-16117776D01*
X16005862Y-16117776D01*
X16024909Y-16127300D01*
X16034433Y-16136824D01*
X16043957Y-16155871D01*
X16043957Y-16174919D01*
X16034433Y-16203490D01*
X15920148Y-16317776D01*
X16043957Y-16317776D01*
X16120148Y-16136824D02*
X16129671Y-16127300D01*
X16148719Y-16117776D01*
X16196338Y-16117776D01*
X16215386Y-16127300D01*
X16224909Y-16136824D01*
X16234433Y-16155871D01*
X16234433Y-16174919D01*
X16224909Y-16203490D01*
X16110624Y-16317776D01*
X16234433Y-16317776D01*
X16472528Y-16317776D02*
X16472528Y-16117776D01*
X16558243Y-16317776D02*
X16558243Y-16213014D01*
X16548719Y-16193967D01*
X16529671Y-16184443D01*
X16501100Y-16184443D01*
X16482052Y-16193967D01*
X16472528Y-16203490D01*
X16682052Y-16317776D02*
X16663005Y-16308252D01*
X16653481Y-16298728D01*
X16643957Y-16279681D01*
X16643957Y-16222538D01*
X16653481Y-16203490D01*
X16663005Y-16193967D01*
X16682052Y-16184443D01*
X16710624Y-16184443D01*
X16729671Y-16193967D01*
X16739195Y-16203490D01*
X16748719Y-16222538D01*
X16748719Y-16279681D01*
X16739195Y-16298728D01*
X16729671Y-16308252D01*
X16710624Y-16317776D01*
X16682052Y-16317776D01*
X16863005Y-16317776D02*
X16843957Y-16308252D01*
X16834433Y-16289205D01*
X16834433Y-16117776D01*
X17015386Y-16308252D02*
X16996338Y-16317776D01*
X16958243Y-16317776D01*
X16939195Y-16308252D01*
X16929671Y-16289205D01*
X16929671Y-16213014D01*
X16939195Y-16193967D01*
X16958243Y-16184443D01*
X16996338Y-16184443D01*
X17015386Y-16193967D01*
X17024910Y-16213014D01*
X17024910Y-16232062D01*
X16929671Y-16251109D01*
X17101100Y-16308252D02*
X17120148Y-16317776D01*
X17158243Y-16317776D01*
X17177290Y-16308252D01*
X17186814Y-16289205D01*
X17186814Y-16279681D01*
X17177290Y-16260633D01*
X17158243Y-16251109D01*
X17129671Y-16251109D01*
X17110624Y-16241586D01*
X17101100Y-16222538D01*
X17101100Y-16213014D01*
X17110624Y-16193967D01*
X17129671Y-16184443D01*
X17158243Y-16184443D01*
X17177290Y-16193967D01*
X17253481Y-16393967D02*
X17263005Y-16384443D01*
X17282052Y-16355871D01*
X17291576Y-16336824D01*
X17301100Y-16308252D01*
X17310624Y-16260633D01*
X17310624Y-16222538D01*
X17301100Y-16174919D01*
X17291576Y-16146348D01*
X17282052Y-16127300D01*
X17263005Y-16098728D01*
X17253481Y-16089205D01*
D16*
X12181100Y-16436300D02*
X12291100Y-16546300D01*
X12291100Y-16436300D02*
X12181100Y-16546300D01*
X12291100Y-16491300D02*
G75*
G03*
X12291100Y-16491300I-55000J0D01*
G01*
D11*
X12653481Y-16581776D02*
X12539195Y-16581776D01*
X12596338Y-16581776D02*
X12596338Y-16381776D01*
X12577290Y-16410348D01*
X12558243Y-16429395D01*
X12539195Y-16438919D01*
X12739195Y-16562728D02*
X12748719Y-16572252D01*
X12739195Y-16581776D01*
X12729671Y-16572252D01*
X12739195Y-16562728D01*
X12739195Y-16581776D01*
X12939195Y-16581776D02*
X12824909Y-16581776D01*
X12882052Y-16581776D02*
X12882052Y-16381776D01*
X12863005Y-16410348D01*
X12843957Y-16429395D01*
X12824909Y-16438919D01*
X13063005Y-16381776D02*
X13082052Y-16381776D01*
X13101100Y-16391300D01*
X13110624Y-16400824D01*
X13120148Y-16419871D01*
X13129671Y-16457967D01*
X13129671Y-16505586D01*
X13120148Y-16543681D01*
X13110624Y-16562728D01*
X13101100Y-16572252D01*
X13082052Y-16581776D01*
X13063005Y-16581776D01*
X13043957Y-16572252D01*
X13034433Y-16562728D01*
X13024909Y-16543681D01*
X13015386Y-16505586D01*
X13015386Y-16457967D01*
X13024909Y-16419871D01*
X13034433Y-16400824D01*
X13043957Y-16391300D01*
X13063005Y-16381776D01*
X13253481Y-16381776D02*
X13272528Y-16381776D01*
X13291576Y-16391300D01*
X13301100Y-16400824D01*
X13310624Y-16419871D01*
X13320148Y-16457967D01*
X13320148Y-16505586D01*
X13310624Y-16543681D01*
X13301100Y-16562728D01*
X13291576Y-16572252D01*
X13272528Y-16581776D01*
X13253481Y-16581776D01*
X13234433Y-16572252D01*
X13224909Y-16562728D01*
X13215386Y-16543681D01*
X13205862Y-16505586D01*
X13205862Y-16457967D01*
X13215386Y-16419871D01*
X13224909Y-16400824D01*
X13234433Y-16391300D01*
X13253481Y-16381776D01*
X13405862Y-16581776D02*
X13405862Y-16448443D01*
X13405862Y-16467490D02*
X13415386Y-16457967D01*
X13434433Y-16448443D01*
X13463005Y-16448443D01*
X13482052Y-16457967D01*
X13491576Y-16477014D01*
X13491576Y-16581776D01*
X13491576Y-16477014D02*
X13501100Y-16457967D01*
X13520148Y-16448443D01*
X13548719Y-16448443D01*
X13567767Y-16457967D01*
X13577290Y-16477014D01*
X13577290Y-16581776D01*
X13672528Y-16581776D02*
X13672528Y-16448443D01*
X13672528Y-16467490D02*
X13682052Y-16457967D01*
X13701100Y-16448443D01*
X13729671Y-16448443D01*
X13748719Y-16457967D01*
X13758243Y-16477014D01*
X13758243Y-16581776D01*
X13758243Y-16477014D02*
X13767767Y-16457967D01*
X13786814Y-16448443D01*
X13815386Y-16448443D01*
X13834433Y-16457967D01*
X13843957Y-16477014D01*
X13843957Y-16581776D01*
X14234433Y-16372252D02*
X14063005Y-16629395D01*
X14491576Y-16381776D02*
X14510624Y-16381776D01*
X14529671Y-16391300D01*
X14539195Y-16400824D01*
X14548719Y-16419871D01*
X14558243Y-16457967D01*
X14558243Y-16505586D01*
X14548719Y-16543681D01*
X14539195Y-16562728D01*
X14529671Y-16572252D01*
X14510624Y-16581776D01*
X14491576Y-16581776D01*
X14472528Y-16572252D01*
X14463005Y-16562728D01*
X14453481Y-16543681D01*
X14443957Y-16505586D01*
X14443957Y-16457967D01*
X14453481Y-16419871D01*
X14463005Y-16400824D01*
X14472528Y-16391300D01*
X14491576Y-16381776D01*
X14643957Y-16562728D02*
X14653481Y-16572252D01*
X14643957Y-16581776D01*
X14634433Y-16572252D01*
X14643957Y-16562728D01*
X14643957Y-16581776D01*
X14777290Y-16381776D02*
X14796338Y-16381776D01*
X14815386Y-16391300D01*
X14824909Y-16400824D01*
X14834433Y-16419871D01*
X14843957Y-16457967D01*
X14843957Y-16505586D01*
X14834433Y-16543681D01*
X14824909Y-16562728D01*
X14815386Y-16572252D01*
X14796338Y-16581776D01*
X14777290Y-16581776D01*
X14758243Y-16572252D01*
X14748719Y-16562728D01*
X14739195Y-16543681D01*
X14729671Y-16505586D01*
X14729671Y-16457967D01*
X14739195Y-16419871D01*
X14748719Y-16400824D01*
X14758243Y-16391300D01*
X14777290Y-16381776D01*
X15015386Y-16448443D02*
X15015386Y-16581776D01*
X14967767Y-16372252D02*
X14920148Y-16515109D01*
X15043957Y-16515109D01*
X15101100Y-16381776D02*
X15224909Y-16381776D01*
X15158243Y-16457967D01*
X15186814Y-16457967D01*
X15205862Y-16467490D01*
X15215386Y-16477014D01*
X15224909Y-16496062D01*
X15224909Y-16543681D01*
X15215386Y-16562728D01*
X15205862Y-16572252D01*
X15186814Y-16581776D01*
X15129671Y-16581776D01*
X15110624Y-16572252D01*
X15101100Y-16562728D01*
X15291576Y-16381776D02*
X15415386Y-16381776D01*
X15348719Y-16457967D01*
X15377290Y-16457967D01*
X15396338Y-16467490D01*
X15405862Y-16477014D01*
X15415386Y-16496062D01*
X15415386Y-16543681D01*
X15405862Y-16562728D01*
X15396338Y-16572252D01*
X15377290Y-16581776D01*
X15320148Y-16581776D01*
X15301100Y-16572252D01*
X15291576Y-16562728D01*
X15491576Y-16381776D02*
X15491576Y-16419871D01*
X15567767Y-16381776D02*
X15567767Y-16419871D01*
X15863005Y-16657967D02*
X15853481Y-16648443D01*
X15834433Y-16619871D01*
X15824909Y-16600824D01*
X15815386Y-16572252D01*
X15805862Y-16524633D01*
X15805862Y-16486538D01*
X15815386Y-16438919D01*
X15824909Y-16410348D01*
X15834433Y-16391300D01*
X15853481Y-16362728D01*
X15863005Y-16353205D01*
X15977290Y-16381776D02*
X15996338Y-16381776D01*
X16015386Y-16391300D01*
X16024909Y-16400824D01*
X16034433Y-16419871D01*
X16043957Y-16457967D01*
X16043957Y-16505586D01*
X16034433Y-16543681D01*
X16024909Y-16562728D01*
X16015386Y-16572252D01*
X15996338Y-16581776D01*
X15977290Y-16581776D01*
X15958243Y-16572252D01*
X15948719Y-16562728D01*
X15939195Y-16543681D01*
X15929671Y-16505586D01*
X15929671Y-16457967D01*
X15939195Y-16419871D01*
X15948719Y-16400824D01*
X15958243Y-16391300D01*
X15977290Y-16381776D01*
X16282052Y-16581776D02*
X16282052Y-16381776D01*
X16367767Y-16581776D02*
X16367767Y-16477014D01*
X16358243Y-16457967D01*
X16339195Y-16448443D01*
X16310624Y-16448443D01*
X16291576Y-16457967D01*
X16282052Y-16467490D01*
X16491576Y-16581776D02*
X16472528Y-16572252D01*
X16463005Y-16562728D01*
X16453481Y-16543681D01*
X16453481Y-16486538D01*
X16463005Y-16467490D01*
X16472528Y-16457967D01*
X16491576Y-16448443D01*
X16520148Y-16448443D01*
X16539195Y-16457967D01*
X16548719Y-16467490D01*
X16558243Y-16486538D01*
X16558243Y-16543681D01*
X16548719Y-16562728D01*
X16539195Y-16572252D01*
X16520148Y-16581776D01*
X16491576Y-16581776D01*
X16672528Y-16581776D02*
X16653481Y-16572252D01*
X16643957Y-16553205D01*
X16643957Y-16381776D01*
X16824910Y-16572252D02*
X16805862Y-16581776D01*
X16767767Y-16581776D01*
X16748719Y-16572252D01*
X16739195Y-16553205D01*
X16739195Y-16477014D01*
X16748719Y-16457967D01*
X16767767Y-16448443D01*
X16805862Y-16448443D01*
X16824910Y-16457967D01*
X16834433Y-16477014D01*
X16834433Y-16496062D01*
X16739195Y-16515109D01*
X16910624Y-16572252D02*
X16929671Y-16581776D01*
X16967767Y-16581776D01*
X16986814Y-16572252D01*
X16996338Y-16553205D01*
X16996338Y-16543681D01*
X16986814Y-16524633D01*
X16967767Y-16515109D01*
X16939195Y-16515109D01*
X16920148Y-16505586D01*
X16910624Y-16486538D01*
X16910624Y-16477014D01*
X16920148Y-16457967D01*
X16939195Y-16448443D01*
X16967767Y-16448443D01*
X16986814Y-16457967D01*
X17234433Y-16505586D02*
X17386814Y-16505586D01*
X17310624Y-16581776D02*
X17310624Y-16429395D01*
X17663005Y-16467490D02*
X17643957Y-16457967D01*
X17634433Y-16448443D01*
X17624910Y-16429395D01*
X17624910Y-16419871D01*
X17634433Y-16400824D01*
X17643957Y-16391300D01*
X17663005Y-16381776D01*
X17701100Y-16381776D01*
X17720148Y-16391300D01*
X17729671Y-16400824D01*
X17739195Y-16419871D01*
X17739195Y-16429395D01*
X17729671Y-16448443D01*
X17720148Y-16457967D01*
X17701100Y-16467490D01*
X17663005Y-16467490D01*
X17643957Y-16477014D01*
X17634433Y-16486538D01*
X17624910Y-16505586D01*
X17624910Y-16543681D01*
X17634433Y-16562728D01*
X17643957Y-16572252D01*
X17663005Y-16581776D01*
X17701100Y-16581776D01*
X17720148Y-16572252D01*
X17729671Y-16562728D01*
X17739195Y-16543681D01*
X17739195Y-16505586D01*
X17729671Y-16486538D01*
X17720148Y-16477014D01*
X17701100Y-16467490D01*
X17967767Y-16572252D02*
X17986814Y-16581776D01*
X18024910Y-16581776D01*
X18043957Y-16572252D01*
X18053481Y-16553205D01*
X18053481Y-16543681D01*
X18043957Y-16524633D01*
X18024910Y-16515109D01*
X17996338Y-16515109D01*
X17977290Y-16505586D01*
X17967767Y-16486538D01*
X17967767Y-16477014D01*
X17977290Y-16457967D01*
X17996338Y-16448443D01*
X18024910Y-16448443D01*
X18043957Y-16457967D01*
X18167767Y-16581776D02*
X18148719Y-16572252D01*
X18139195Y-16553205D01*
X18139195Y-16381776D01*
X18272529Y-16581776D02*
X18253481Y-16572252D01*
X18243957Y-16562728D01*
X18234433Y-16543681D01*
X18234433Y-16486538D01*
X18243957Y-16467490D01*
X18253481Y-16457967D01*
X18272529Y-16448443D01*
X18301100Y-16448443D01*
X18320148Y-16457967D01*
X18329671Y-16467490D01*
X18339195Y-16486538D01*
X18339195Y-16543681D01*
X18329671Y-16562728D01*
X18320148Y-16572252D01*
X18301100Y-16581776D01*
X18272529Y-16581776D01*
X18396338Y-16448443D02*
X18472529Y-16448443D01*
X18424910Y-16381776D02*
X18424910Y-16553205D01*
X18434433Y-16572252D01*
X18453481Y-16581776D01*
X18472529Y-16581776D01*
X18529671Y-16572252D02*
X18548719Y-16581776D01*
X18586814Y-16581776D01*
X18605862Y-16572252D01*
X18615386Y-16553205D01*
X18615386Y-16543681D01*
X18605862Y-16524633D01*
X18586814Y-16515109D01*
X18558243Y-16515109D01*
X18539195Y-16505586D01*
X18529671Y-16486538D01*
X18529671Y-16477014D01*
X18539195Y-16457967D01*
X18558243Y-16448443D01*
X18586814Y-16448443D01*
X18605862Y-16457967D01*
X18682052Y-16657967D02*
X18691576Y-16648443D01*
X18710624Y-16619871D01*
X18720148Y-16600824D01*
X18729671Y-16572252D01*
X18739195Y-16524633D01*
X18739195Y-16486538D01*
X18729671Y-16438919D01*
X18720148Y-16410348D01*
X18710624Y-16391300D01*
X18691576Y-16362728D01*
X18682052Y-16353205D01*
D17*
X12161100Y-16690300D02*
X12291100Y-16820300D01*
X12291100Y-16690300D02*
X12161100Y-16820300D01*
X12226100Y-16690300D02*
X12226100Y-16820300D01*
X12161100Y-16755300D02*
X12291100Y-16755300D01*
D11*
X12653481Y-16845776D02*
X12539195Y-16845776D01*
X12596338Y-16845776D02*
X12596338Y-16645776D01*
X12577290Y-16674348D01*
X12558243Y-16693395D01*
X12539195Y-16702919D01*
X12739195Y-16826729D02*
X12748719Y-16836252D01*
X12739195Y-16845776D01*
X12729671Y-16836252D01*
X12739195Y-16826729D01*
X12739195Y-16845776D01*
X12815386Y-16645776D02*
X12939195Y-16645776D01*
X12872528Y-16721967D01*
X12901100Y-16721967D01*
X12920148Y-16731490D01*
X12929671Y-16741014D01*
X12939195Y-16760062D01*
X12939195Y-16807681D01*
X12929671Y-16826729D01*
X12920148Y-16836252D01*
X12901100Y-16845776D01*
X12843957Y-16845776D01*
X12824909Y-16836252D01*
X12815386Y-16826729D01*
X13063005Y-16645776D02*
X13082052Y-16645776D01*
X13101100Y-16655300D01*
X13110624Y-16664824D01*
X13120148Y-16683871D01*
X13129671Y-16721967D01*
X13129671Y-16769586D01*
X13120148Y-16807681D01*
X13110624Y-16826729D01*
X13101100Y-16836252D01*
X13082052Y-16845776D01*
X13063005Y-16845776D01*
X13043957Y-16836252D01*
X13034433Y-16826729D01*
X13024909Y-16807681D01*
X13015386Y-16769586D01*
X13015386Y-16721967D01*
X13024909Y-16683871D01*
X13034433Y-16664824D01*
X13043957Y-16655300D01*
X13063005Y-16645776D01*
X13253481Y-16645776D02*
X13272528Y-16645776D01*
X13291576Y-16655300D01*
X13301100Y-16664824D01*
X13310624Y-16683871D01*
X13320148Y-16721967D01*
X13320148Y-16769586D01*
X13310624Y-16807681D01*
X13301100Y-16826729D01*
X13291576Y-16836252D01*
X13272528Y-16845776D01*
X13253481Y-16845776D01*
X13234433Y-16836252D01*
X13224909Y-16826729D01*
X13215386Y-16807681D01*
X13205862Y-16769586D01*
X13205862Y-16721967D01*
X13215386Y-16683871D01*
X13224909Y-16664824D01*
X13234433Y-16655300D01*
X13253481Y-16645776D01*
X13405862Y-16845776D02*
X13405862Y-16712443D01*
X13405862Y-16731490D02*
X13415386Y-16721967D01*
X13434433Y-16712443D01*
X13463005Y-16712443D01*
X13482052Y-16721967D01*
X13491576Y-16741014D01*
X13491576Y-16845776D01*
X13491576Y-16741014D02*
X13501100Y-16721967D01*
X13520148Y-16712443D01*
X13548719Y-16712443D01*
X13567767Y-16721967D01*
X13577290Y-16741014D01*
X13577290Y-16845776D01*
X13672528Y-16845776D02*
X13672528Y-16712443D01*
X13672528Y-16731490D02*
X13682052Y-16721967D01*
X13701100Y-16712443D01*
X13729671Y-16712443D01*
X13748719Y-16721967D01*
X13758243Y-16741014D01*
X13758243Y-16845776D01*
X13758243Y-16741014D02*
X13767767Y-16721967D01*
X13786814Y-16712443D01*
X13815386Y-16712443D01*
X13834433Y-16721967D01*
X13843957Y-16741014D01*
X13843957Y-16845776D01*
X14234433Y-16636252D02*
X14063005Y-16893395D01*
X14491576Y-16645776D02*
X14510624Y-16645776D01*
X14529671Y-16655300D01*
X14539195Y-16664824D01*
X14548719Y-16683871D01*
X14558243Y-16721967D01*
X14558243Y-16769586D01*
X14548719Y-16807681D01*
X14539195Y-16826729D01*
X14529671Y-16836252D01*
X14510624Y-16845776D01*
X14491576Y-16845776D01*
X14472528Y-16836252D01*
X14463005Y-16826729D01*
X14453481Y-16807681D01*
X14443957Y-16769586D01*
X14443957Y-16721967D01*
X14453481Y-16683871D01*
X14463005Y-16664824D01*
X14472528Y-16655300D01*
X14491576Y-16645776D01*
X14643957Y-16826729D02*
X14653481Y-16836252D01*
X14643957Y-16845776D01*
X14634433Y-16836252D01*
X14643957Y-16826729D01*
X14643957Y-16845776D01*
X14777290Y-16645776D02*
X14796338Y-16645776D01*
X14815386Y-16655300D01*
X14824909Y-16664824D01*
X14834433Y-16683871D01*
X14843957Y-16721967D01*
X14843957Y-16769586D01*
X14834433Y-16807681D01*
X14824909Y-16826729D01*
X14815386Y-16836252D01*
X14796338Y-16845776D01*
X14777290Y-16845776D01*
X14758243Y-16836252D01*
X14748719Y-16826729D01*
X14739195Y-16807681D01*
X14729671Y-16769586D01*
X14729671Y-16721967D01*
X14739195Y-16683871D01*
X14748719Y-16664824D01*
X14758243Y-16655300D01*
X14777290Y-16645776D01*
X15024909Y-16645776D02*
X14929671Y-16645776D01*
X14920148Y-16741014D01*
X14929671Y-16731490D01*
X14948719Y-16721967D01*
X14996338Y-16721967D01*
X15015386Y-16731490D01*
X15024909Y-16741014D01*
X15034433Y-16760062D01*
X15034433Y-16807681D01*
X15024909Y-16826729D01*
X15015386Y-16836252D01*
X14996338Y-16845776D01*
X14948719Y-16845776D01*
X14929671Y-16836252D01*
X14920148Y-16826729D01*
X15224909Y-16845776D02*
X15110624Y-16845776D01*
X15167767Y-16845776D02*
X15167767Y-16645776D01*
X15148719Y-16674348D01*
X15129671Y-16693395D01*
X15110624Y-16702919D01*
X15301100Y-16664824D02*
X15310624Y-16655300D01*
X15329671Y-16645776D01*
X15377290Y-16645776D01*
X15396338Y-16655300D01*
X15405862Y-16664824D01*
X15415386Y-16683871D01*
X15415386Y-16702919D01*
X15405862Y-16731490D01*
X15291576Y-16845776D01*
X15415386Y-16845776D01*
X15491576Y-16645776D02*
X15491576Y-16683871D01*
X15567767Y-16645776D02*
X15567767Y-16683871D01*
X15863005Y-16921967D02*
X15853481Y-16912443D01*
X15834433Y-16883871D01*
X15824909Y-16864824D01*
X15815386Y-16836252D01*
X15805862Y-16788633D01*
X15805862Y-16750538D01*
X15815386Y-16702919D01*
X15824909Y-16674348D01*
X15834433Y-16655300D01*
X15853481Y-16626728D01*
X15863005Y-16617205D01*
X15929671Y-16664824D02*
X15939195Y-16655300D01*
X15958243Y-16645776D01*
X16005862Y-16645776D01*
X16024909Y-16655300D01*
X16034433Y-16664824D01*
X16043957Y-16683871D01*
X16043957Y-16702919D01*
X16034433Y-16731490D01*
X15920148Y-16845776D01*
X16043957Y-16845776D01*
X16282052Y-16845776D02*
X16282052Y-16645776D01*
X16367767Y-16845776D02*
X16367767Y-16741014D01*
X16358243Y-16721967D01*
X16339195Y-16712443D01*
X16310624Y-16712443D01*
X16291576Y-16721967D01*
X16282052Y-16731490D01*
X16491576Y-16845776D02*
X16472528Y-16836252D01*
X16463005Y-16826729D01*
X16453481Y-16807681D01*
X16453481Y-16750538D01*
X16463005Y-16731490D01*
X16472528Y-16721967D01*
X16491576Y-16712443D01*
X16520148Y-16712443D01*
X16539195Y-16721967D01*
X16548719Y-16731490D01*
X16558243Y-16750538D01*
X16558243Y-16807681D01*
X16548719Y-16826729D01*
X16539195Y-16836252D01*
X16520148Y-16845776D01*
X16491576Y-16845776D01*
X16672528Y-16845776D02*
X16653481Y-16836252D01*
X16643957Y-16817205D01*
X16643957Y-16645776D01*
X16824910Y-16836252D02*
X16805862Y-16845776D01*
X16767767Y-16845776D01*
X16748719Y-16836252D01*
X16739195Y-16817205D01*
X16739195Y-16741014D01*
X16748719Y-16721967D01*
X16767767Y-16712443D01*
X16805862Y-16712443D01*
X16824910Y-16721967D01*
X16834433Y-16741014D01*
X16834433Y-16760062D01*
X16739195Y-16779110D01*
X16910624Y-16836252D02*
X16929671Y-16845776D01*
X16967767Y-16845776D01*
X16986814Y-16836252D01*
X16996338Y-16817205D01*
X16996338Y-16807681D01*
X16986814Y-16788633D01*
X16967767Y-16779110D01*
X16939195Y-16779110D01*
X16920148Y-16769586D01*
X16910624Y-16750538D01*
X16910624Y-16741014D01*
X16920148Y-16721967D01*
X16939195Y-16712443D01*
X16967767Y-16712443D01*
X16986814Y-16721967D01*
X17063005Y-16921967D02*
X17072529Y-16912443D01*
X17091576Y-16883871D01*
X17101100Y-16864824D01*
X17110624Y-16836252D01*
X17120148Y-16788633D01*
X17120148Y-16750538D01*
X17110624Y-16702919D01*
X17101100Y-16674348D01*
X17091576Y-16655300D01*
X17072529Y-16626728D01*
X17063005Y-16617205D01*
D18*
X12131100Y-16939300D02*
X12291100Y-17099300D01*
X12291100Y-16939300D02*
X12131100Y-17099300D01*
X12267669Y-17075869D02*
X12267669Y-16962731D01*
X12154531Y-16962731D01*
X12154531Y-17075869D01*
X12267669Y-17075869D01*
D11*
X12653481Y-17109776D02*
X12539195Y-17109776D01*
X12596338Y-17109776D02*
X12596338Y-16909776D01*
X12577290Y-16938348D01*
X12558243Y-16957395D01*
X12539195Y-16966919D01*
X12739195Y-17090729D02*
X12748719Y-17100252D01*
X12739195Y-17109776D01*
X12729671Y-17100252D01*
X12739195Y-17090729D01*
X12739195Y-17109776D01*
X12920148Y-16909776D02*
X12882052Y-16909776D01*
X12863005Y-16919300D01*
X12853481Y-16928824D01*
X12834433Y-16957395D01*
X12824909Y-16995490D01*
X12824909Y-17071681D01*
X12834433Y-17090729D01*
X12843957Y-17100252D01*
X12863005Y-17109776D01*
X12901100Y-17109776D01*
X12920148Y-17100252D01*
X12929671Y-17090729D01*
X12939195Y-17071681D01*
X12939195Y-17024062D01*
X12929671Y-17005014D01*
X12920148Y-16995490D01*
X12901100Y-16985967D01*
X12863005Y-16985967D01*
X12843957Y-16995490D01*
X12834433Y-17005014D01*
X12824909Y-17024062D01*
X13063005Y-16909776D02*
X13082052Y-16909776D01*
X13101100Y-16919300D01*
X13110624Y-16928824D01*
X13120148Y-16947871D01*
X13129671Y-16985967D01*
X13129671Y-17033586D01*
X13120148Y-17071681D01*
X13110624Y-17090729D01*
X13101100Y-17100252D01*
X13082052Y-17109776D01*
X13063005Y-17109776D01*
X13043957Y-17100252D01*
X13034433Y-17090729D01*
X13024909Y-17071681D01*
X13015386Y-17033586D01*
X13015386Y-16985967D01*
X13024909Y-16947871D01*
X13034433Y-16928824D01*
X13043957Y-16919300D01*
X13063005Y-16909776D01*
X13253481Y-16909776D02*
X13272528Y-16909776D01*
X13291576Y-16919300D01*
X13301100Y-16928824D01*
X13310624Y-16947871D01*
X13320148Y-16985967D01*
X13320148Y-17033586D01*
X13310624Y-17071681D01*
X13301100Y-17090729D01*
X13291576Y-17100252D01*
X13272528Y-17109776D01*
X13253481Y-17109776D01*
X13234433Y-17100252D01*
X13224909Y-17090729D01*
X13215386Y-17071681D01*
X13205862Y-17033586D01*
X13205862Y-16985967D01*
X13215386Y-16947871D01*
X13224909Y-16928824D01*
X13234433Y-16919300D01*
X13253481Y-16909776D01*
X13405862Y-17109776D02*
X13405862Y-16976443D01*
X13405862Y-16995490D02*
X13415386Y-16985967D01*
X13434433Y-16976443D01*
X13463005Y-16976443D01*
X13482052Y-16985967D01*
X13491576Y-17005014D01*
X13491576Y-17109776D01*
X13491576Y-17005014D02*
X13501100Y-16985967D01*
X13520148Y-16976443D01*
X13548719Y-16976443D01*
X13567767Y-16985967D01*
X13577290Y-17005014D01*
X13577290Y-17109776D01*
X13672528Y-17109776D02*
X13672528Y-16976443D01*
X13672528Y-16995490D02*
X13682052Y-16985967D01*
X13701100Y-16976443D01*
X13729671Y-16976443D01*
X13748719Y-16985967D01*
X13758243Y-17005014D01*
X13758243Y-17109776D01*
X13758243Y-17005014D02*
X13767767Y-16985967D01*
X13786814Y-16976443D01*
X13815386Y-16976443D01*
X13834433Y-16985967D01*
X13843957Y-17005014D01*
X13843957Y-17109776D01*
X14234433Y-16900252D02*
X14063005Y-17157395D01*
X14491576Y-16909776D02*
X14510624Y-16909776D01*
X14529671Y-16919300D01*
X14539195Y-16928824D01*
X14548719Y-16947871D01*
X14558243Y-16985967D01*
X14558243Y-17033586D01*
X14548719Y-17071681D01*
X14539195Y-17090729D01*
X14529671Y-17100252D01*
X14510624Y-17109776D01*
X14491576Y-17109776D01*
X14472528Y-17100252D01*
X14463005Y-17090729D01*
X14453481Y-17071681D01*
X14443957Y-17033586D01*
X14443957Y-16985967D01*
X14453481Y-16947871D01*
X14463005Y-16928824D01*
X14472528Y-16919300D01*
X14491576Y-16909776D01*
X14643957Y-17090729D02*
X14653481Y-17100252D01*
X14643957Y-17109776D01*
X14634433Y-17100252D01*
X14643957Y-17090729D01*
X14643957Y-17109776D01*
X14777290Y-16909776D02*
X14796338Y-16909776D01*
X14815386Y-16919300D01*
X14824909Y-16928824D01*
X14834433Y-16947871D01*
X14843957Y-16985967D01*
X14843957Y-17033586D01*
X14834433Y-17071681D01*
X14824909Y-17090729D01*
X14815386Y-17100252D01*
X14796338Y-17109776D01*
X14777290Y-17109776D01*
X14758243Y-17100252D01*
X14748719Y-17090729D01*
X14739195Y-17071681D01*
X14729671Y-17033586D01*
X14729671Y-16985967D01*
X14739195Y-16947871D01*
X14748719Y-16928824D01*
X14758243Y-16919300D01*
X14777290Y-16909776D01*
X15015386Y-16909776D02*
X14977290Y-16909776D01*
X14958243Y-16919300D01*
X14948719Y-16928824D01*
X14929671Y-16957395D01*
X14920148Y-16995490D01*
X14920148Y-17071681D01*
X14929671Y-17090729D01*
X14939195Y-17100252D01*
X14958243Y-17109776D01*
X14996338Y-17109776D01*
X15015386Y-17100252D01*
X15024909Y-17090729D01*
X15034433Y-17071681D01*
X15034433Y-17024062D01*
X15024909Y-17005014D01*
X15015386Y-16995490D01*
X14996338Y-16985967D01*
X14958243Y-16985967D01*
X14939195Y-16995490D01*
X14929671Y-17005014D01*
X14920148Y-17024062D01*
X15101100Y-16909776D02*
X15224909Y-16909776D01*
X15158243Y-16985967D01*
X15186814Y-16985967D01*
X15205862Y-16995490D01*
X15215386Y-17005014D01*
X15224909Y-17024062D01*
X15224909Y-17071681D01*
X15215386Y-17090729D01*
X15205862Y-17100252D01*
X15186814Y-17109776D01*
X15129671Y-17109776D01*
X15110624Y-17100252D01*
X15101100Y-17090729D01*
X15348719Y-16909776D02*
X15367767Y-16909776D01*
X15386814Y-16919300D01*
X15396338Y-16928824D01*
X15405862Y-16947871D01*
X15415386Y-16985967D01*
X15415386Y-17033586D01*
X15405862Y-17071681D01*
X15396338Y-17090729D01*
X15386814Y-17100252D01*
X15367767Y-17109776D01*
X15348719Y-17109776D01*
X15329671Y-17100252D01*
X15320148Y-17090729D01*
X15310624Y-17071681D01*
X15301100Y-17033586D01*
X15301100Y-16985967D01*
X15310624Y-16947871D01*
X15320148Y-16928824D01*
X15329671Y-16919300D01*
X15348719Y-16909776D01*
X15491576Y-16909776D02*
X15491576Y-16947871D01*
X15567767Y-16909776D02*
X15567767Y-16947871D01*
X15863005Y-17185967D02*
X15853481Y-17176443D01*
X15834433Y-17147871D01*
X15824909Y-17128824D01*
X15815386Y-17100252D01*
X15805862Y-17052633D01*
X15805862Y-17014538D01*
X15815386Y-16966919D01*
X15824909Y-16938348D01*
X15834433Y-16919300D01*
X15853481Y-16890729D01*
X15863005Y-16881205D01*
X15948719Y-17109776D02*
X15986814Y-17109776D01*
X16005862Y-17100252D01*
X16015386Y-17090729D01*
X16034433Y-17062157D01*
X16043957Y-17024062D01*
X16043957Y-16947871D01*
X16034433Y-16928824D01*
X16024909Y-16919300D01*
X16005862Y-16909776D01*
X15967767Y-16909776D01*
X15948719Y-16919300D01*
X15939195Y-16928824D01*
X15929671Y-16947871D01*
X15929671Y-16995490D01*
X15939195Y-17014538D01*
X15948719Y-17024062D01*
X15967767Y-17033586D01*
X16005862Y-17033586D01*
X16024909Y-17024062D01*
X16034433Y-17014538D01*
X16043957Y-16995490D01*
X16282052Y-17109776D02*
X16282052Y-16909776D01*
X16367767Y-17109776D02*
X16367767Y-17005014D01*
X16358243Y-16985967D01*
X16339195Y-16976443D01*
X16310624Y-16976443D01*
X16291576Y-16985967D01*
X16282052Y-16995490D01*
X16491576Y-17109776D02*
X16472528Y-17100252D01*
X16463005Y-17090729D01*
X16453481Y-17071681D01*
X16453481Y-17014538D01*
X16463005Y-16995490D01*
X16472528Y-16985967D01*
X16491576Y-16976443D01*
X16520148Y-16976443D01*
X16539195Y-16985967D01*
X16548719Y-16995490D01*
X16558243Y-17014538D01*
X16558243Y-17071681D01*
X16548719Y-17090729D01*
X16539195Y-17100252D01*
X16520148Y-17109776D01*
X16491576Y-17109776D01*
X16672528Y-17109776D02*
X16653481Y-17100252D01*
X16643957Y-17081205D01*
X16643957Y-16909776D01*
X16824910Y-17100252D02*
X16805862Y-17109776D01*
X16767767Y-17109776D01*
X16748719Y-17100252D01*
X16739195Y-17081205D01*
X16739195Y-17005014D01*
X16748719Y-16985967D01*
X16767767Y-16976443D01*
X16805862Y-16976443D01*
X16824910Y-16985967D01*
X16834433Y-17005014D01*
X16834433Y-17024062D01*
X16739195Y-17043110D01*
X16910624Y-17100252D02*
X16929671Y-17109776D01*
X16967767Y-17109776D01*
X16986814Y-17100252D01*
X16996338Y-17081205D01*
X16996338Y-17071681D01*
X16986814Y-17052633D01*
X16967767Y-17043110D01*
X16939195Y-17043110D01*
X16920148Y-17033586D01*
X16910624Y-17014538D01*
X16910624Y-17005014D01*
X16920148Y-16985967D01*
X16939195Y-16976443D01*
X16967767Y-16976443D01*
X16986814Y-16985967D01*
X17063005Y-17185967D02*
X17072529Y-17176443D01*
X17091576Y-17147871D01*
X17101100Y-17128824D01*
X17110624Y-17100252D01*
X17120148Y-17052633D01*
X17120148Y-17014538D01*
X17110624Y-16966919D01*
X17101100Y-16938348D01*
X17091576Y-16919300D01*
X17072529Y-16890729D01*
X17063005Y-16881205D01*
X12091100Y-17199300D02*
X12291100Y-17399300D01*
X12291100Y-17199300D02*
X12091100Y-17399300D01*
X12191100Y-17399300D02*
X12291100Y-17299300D01*
X12191100Y-17199300D01*
X12091100Y-17299300D01*
X12191100Y-17399300D01*
X12539195Y-17208824D02*
X12548719Y-17199300D01*
X12567767Y-17189776D01*
X12615386Y-17189776D01*
X12634433Y-17199300D01*
X12643957Y-17208824D01*
X12653481Y-17227871D01*
X12653481Y-17246919D01*
X12643957Y-17275490D01*
X12529671Y-17389776D01*
X12653481Y-17389776D01*
X12739195Y-17370729D02*
X12748719Y-17380252D01*
X12739195Y-17389776D01*
X12729671Y-17380252D01*
X12739195Y-17370729D01*
X12739195Y-17389776D01*
X12872528Y-17189776D02*
X12891576Y-17189776D01*
X12910624Y-17199300D01*
X12920148Y-17208824D01*
X12929671Y-17227871D01*
X12939195Y-17265967D01*
X12939195Y-17313586D01*
X12929671Y-17351681D01*
X12920148Y-17370729D01*
X12910624Y-17380252D01*
X12891576Y-17389776D01*
X12872528Y-17389776D01*
X12853481Y-17380252D01*
X12843957Y-17370729D01*
X12834433Y-17351681D01*
X12824909Y-17313586D01*
X12824909Y-17265967D01*
X12834433Y-17227871D01*
X12843957Y-17208824D01*
X12853481Y-17199300D01*
X12872528Y-17189776D01*
X13063005Y-17189776D02*
X13082052Y-17189776D01*
X13101100Y-17199300D01*
X13110624Y-17208824D01*
X13120148Y-17227871D01*
X13129671Y-17265967D01*
X13129671Y-17313586D01*
X13120148Y-17351681D01*
X13110624Y-17370729D01*
X13101100Y-17380252D01*
X13082052Y-17389776D01*
X13063005Y-17389776D01*
X13043957Y-17380252D01*
X13034433Y-17370729D01*
X13024909Y-17351681D01*
X13015386Y-17313586D01*
X13015386Y-17265967D01*
X13024909Y-17227871D01*
X13034433Y-17208824D01*
X13043957Y-17199300D01*
X13063005Y-17189776D01*
X13253481Y-17189776D02*
X13272528Y-17189776D01*
X13291576Y-17199300D01*
X13301100Y-17208824D01*
X13310624Y-17227871D01*
X13320148Y-17265967D01*
X13320148Y-17313586D01*
X13310624Y-17351681D01*
X13301100Y-17370729D01*
X13291576Y-17380252D01*
X13272528Y-17389776D01*
X13253481Y-17389776D01*
X13234433Y-17380252D01*
X13224909Y-17370729D01*
X13215386Y-17351681D01*
X13205862Y-17313586D01*
X13205862Y-17265967D01*
X13215386Y-17227871D01*
X13224909Y-17208824D01*
X13234433Y-17199300D01*
X13253481Y-17189776D01*
X13405862Y-17389776D02*
X13405862Y-17256443D01*
X13405862Y-17275490D02*
X13415386Y-17265967D01*
X13434433Y-17256443D01*
X13463005Y-17256443D01*
X13482052Y-17265967D01*
X13491576Y-17285014D01*
X13491576Y-17389776D01*
X13491576Y-17285014D02*
X13501100Y-17265967D01*
X13520148Y-17256443D01*
X13548719Y-17256443D01*
X13567767Y-17265967D01*
X13577290Y-17285014D01*
X13577290Y-17389776D01*
X13672528Y-17389776D02*
X13672528Y-17256443D01*
X13672528Y-17275490D02*
X13682052Y-17265967D01*
X13701100Y-17256443D01*
X13729671Y-17256443D01*
X13748719Y-17265967D01*
X13758243Y-17285014D01*
X13758243Y-17389776D01*
X13758243Y-17285014D02*
X13767767Y-17265967D01*
X13786814Y-17256443D01*
X13815386Y-17256443D01*
X13834433Y-17265967D01*
X13843957Y-17285014D01*
X13843957Y-17389776D01*
X14234433Y-17180252D02*
X14063005Y-17437395D01*
X14491576Y-17189776D02*
X14510624Y-17189776D01*
X14529671Y-17199300D01*
X14539195Y-17208824D01*
X14548719Y-17227871D01*
X14558243Y-17265967D01*
X14558243Y-17313586D01*
X14548719Y-17351681D01*
X14539195Y-17370729D01*
X14529671Y-17380252D01*
X14510624Y-17389776D01*
X14491576Y-17389776D01*
X14472528Y-17380252D01*
X14463005Y-17370729D01*
X14453481Y-17351681D01*
X14443957Y-17313586D01*
X14443957Y-17265967D01*
X14453481Y-17227871D01*
X14463005Y-17208824D01*
X14472528Y-17199300D01*
X14491576Y-17189776D01*
X14643957Y-17370729D02*
X14653481Y-17380252D01*
X14643957Y-17389776D01*
X14634433Y-17380252D01*
X14643957Y-17370729D01*
X14643957Y-17389776D01*
X14777290Y-17189776D02*
X14796338Y-17189776D01*
X14815386Y-17199300D01*
X14824909Y-17208824D01*
X14834433Y-17227871D01*
X14843957Y-17265967D01*
X14843957Y-17313586D01*
X14834433Y-17351681D01*
X14824909Y-17370729D01*
X14815386Y-17380252D01*
X14796338Y-17389776D01*
X14777290Y-17389776D01*
X14758243Y-17380252D01*
X14748719Y-17370729D01*
X14739195Y-17351681D01*
X14729671Y-17313586D01*
X14729671Y-17265967D01*
X14739195Y-17227871D01*
X14748719Y-17208824D01*
X14758243Y-17199300D01*
X14777290Y-17189776D01*
X14910624Y-17189776D02*
X15043957Y-17189776D01*
X14958243Y-17389776D01*
X15148719Y-17275490D02*
X15129671Y-17265967D01*
X15120148Y-17256443D01*
X15110624Y-17237395D01*
X15110624Y-17227871D01*
X15120148Y-17208824D01*
X15129671Y-17199300D01*
X15148719Y-17189776D01*
X15186814Y-17189776D01*
X15205862Y-17199300D01*
X15215386Y-17208824D01*
X15224909Y-17227871D01*
X15224909Y-17237395D01*
X15215386Y-17256443D01*
X15205862Y-17265967D01*
X15186814Y-17275490D01*
X15148719Y-17275490D01*
X15129671Y-17285014D01*
X15120148Y-17294538D01*
X15110624Y-17313586D01*
X15110624Y-17351681D01*
X15120148Y-17370729D01*
X15129671Y-17380252D01*
X15148719Y-17389776D01*
X15186814Y-17389776D01*
X15205862Y-17380252D01*
X15215386Y-17370729D01*
X15224909Y-17351681D01*
X15224909Y-17313586D01*
X15215386Y-17294538D01*
X15205862Y-17285014D01*
X15186814Y-17275490D01*
X15291576Y-17189776D02*
X15424909Y-17189776D01*
X15339195Y-17389776D01*
X15491576Y-17189776D02*
X15491576Y-17227871D01*
X15567767Y-17189776D02*
X15567767Y-17227871D01*
X15863005Y-17465967D02*
X15853481Y-17456443D01*
X15834433Y-17427871D01*
X15824909Y-17408824D01*
X15815386Y-17380252D01*
X15805862Y-17332633D01*
X15805862Y-17294538D01*
X15815386Y-17246919D01*
X15824909Y-17218348D01*
X15834433Y-17199300D01*
X15853481Y-17170729D01*
X15863005Y-17161205D01*
X15929671Y-17208824D02*
X15939195Y-17199300D01*
X15958243Y-17189776D01*
X16005862Y-17189776D01*
X16024909Y-17199300D01*
X16034433Y-17208824D01*
X16043957Y-17227871D01*
X16043957Y-17246919D01*
X16034433Y-17275490D01*
X15920148Y-17389776D01*
X16043957Y-17389776D01*
X16282052Y-17389776D02*
X16282052Y-17189776D01*
X16367767Y-17389776D02*
X16367767Y-17285014D01*
X16358243Y-17265967D01*
X16339195Y-17256443D01*
X16310624Y-17256443D01*
X16291576Y-17265967D01*
X16282052Y-17275490D01*
X16491576Y-17389776D02*
X16472528Y-17380252D01*
X16463005Y-17370729D01*
X16453481Y-17351681D01*
X16453481Y-17294538D01*
X16463005Y-17275490D01*
X16472528Y-17265967D01*
X16491576Y-17256443D01*
X16520148Y-17256443D01*
X16539195Y-17265967D01*
X16548719Y-17275490D01*
X16558243Y-17294538D01*
X16558243Y-17351681D01*
X16548719Y-17370729D01*
X16539195Y-17380252D01*
X16520148Y-17389776D01*
X16491576Y-17389776D01*
X16672528Y-17389776D02*
X16653481Y-17380252D01*
X16643957Y-17361205D01*
X16643957Y-17189776D01*
X16824910Y-17380252D02*
X16805862Y-17389776D01*
X16767767Y-17389776D01*
X16748719Y-17380252D01*
X16739195Y-17361205D01*
X16739195Y-17285014D01*
X16748719Y-17265967D01*
X16767767Y-17256443D01*
X16805862Y-17256443D01*
X16824910Y-17265967D01*
X16834433Y-17285014D01*
X16834433Y-17304062D01*
X16739195Y-17323110D01*
X16910624Y-17380252D02*
X16929671Y-17389776D01*
X16967767Y-17389776D01*
X16986814Y-17380252D01*
X16996338Y-17361205D01*
X16996338Y-17351681D01*
X16986814Y-17332633D01*
X16967767Y-17323110D01*
X16939195Y-17323110D01*
X16920148Y-17313586D01*
X16910624Y-17294538D01*
X16910624Y-17285014D01*
X16920148Y-17265967D01*
X16939195Y-17256443D01*
X16967767Y-17256443D01*
X16986814Y-17265967D01*
X17063005Y-17465967D02*
X17072529Y-17456443D01*
X17091576Y-17427871D01*
X17101100Y-17408824D01*
X17110624Y-17380252D01*
X17120148Y-17332633D01*
X17120148Y-17294538D01*
X17110624Y-17246919D01*
X17101100Y-17218348D01*
X17091576Y-17199300D01*
X17072529Y-17170729D01*
X17063005Y-17161205D01*
M02*
