G04 #@! TF.GenerationSoftware,KiCad,Pcbnew,6.0.5+dfsg-1~bpo11+1*
G04 #@! TF.CreationDate,2022-12-29T14:19:14+00:00*
G04 #@! TF.ProjectId,SSI2140_phase_shifter,53534932-3134-4305-9f70-686173655f73,0*
G04 #@! TF.SameCoordinates,Original*
G04 #@! TF.FileFunction,Legend,Top*
G04 #@! TF.FilePolarity,Positive*
%FSLAX46Y46*%
G04 Gerber Fmt 4.6, Leading zero omitted, Abs format (unit mm)*
G04 Created by KiCad (PCBNEW 6.0.5+dfsg-1~bpo11+1) date 2022-12-29 14:19:14*
%MOMM*%
%LPD*%
G01*
G04 APERTURE LIST*
%ADD10C,0.150000*%
%ADD11C,0.120000*%
%ADD12C,0.127000*%
%ADD13C,0.080000*%
%ADD14C,1.800000*%
%ADD15C,1.902000*%
%ADD16O,2.822000X3.342000*%
%ADD17C,3.102000*%
%ADD18C,1.451600*%
%ADD19C,1.702000*%
%ADD20O,1.802000X1.802000*%
%ADD21C,2.702000*%
%ADD22C,1.542000*%
G04 APERTURE END LIST*
D10*
X124634666Y-142454380D02*
X124634666Y-143168666D01*
X124587047Y-143311523D01*
X124491809Y-143406761D01*
X124348952Y-143454380D01*
X124253714Y-143454380D01*
X125634666Y-143454380D02*
X125063238Y-143454380D01*
X125348952Y-143454380D02*
X125348952Y-142454380D01*
X125253714Y-142597238D01*
X125158476Y-142692476D01*
X125063238Y-142740095D01*
X131548380Y-94178380D02*
X131215047Y-93702190D01*
X130976952Y-94178380D02*
X130976952Y-93178380D01*
X131357904Y-93178380D01*
X131453142Y-93226000D01*
X131500761Y-93273619D01*
X131548380Y-93368857D01*
X131548380Y-93511714D01*
X131500761Y-93606952D01*
X131453142Y-93654571D01*
X131357904Y-93702190D01*
X130976952Y-93702190D01*
X131834095Y-93178380D02*
X132167428Y-94178380D01*
X132500761Y-93178380D01*
X133262666Y-93178380D02*
X133072190Y-93178380D01*
X132976952Y-93226000D01*
X132929333Y-93273619D01*
X132834095Y-93416476D01*
X132786476Y-93606952D01*
X132786476Y-93987904D01*
X132834095Y-94083142D01*
X132881714Y-94130761D01*
X132976952Y-94178380D01*
X133167428Y-94178380D01*
X133262666Y-94130761D01*
X133310285Y-94083142D01*
X133357904Y-93987904D01*
X133357904Y-93749809D01*
X133310285Y-93654571D01*
X133262666Y-93606952D01*
X133167428Y-93559333D01*
X132976952Y-93559333D01*
X132881714Y-93606952D01*
X132834095Y-93654571D01*
X132786476Y-93749809D01*
X133976952Y-93178380D02*
X134072190Y-93178380D01*
X134167428Y-93226000D01*
X134215047Y-93273619D01*
X134262666Y-93368857D01*
X134310285Y-93559333D01*
X134310285Y-93797428D01*
X134262666Y-93987904D01*
X134215047Y-94083142D01*
X134167428Y-94130761D01*
X134072190Y-94178380D01*
X133976952Y-94178380D01*
X133881714Y-94130761D01*
X133834095Y-94083142D01*
X133786476Y-93987904D01*
X133738857Y-93797428D01*
X133738857Y-93559333D01*
X133786476Y-93368857D01*
X133834095Y-93273619D01*
X133881714Y-93226000D01*
X133976952Y-93178380D01*
X134691238Y-93273619D02*
X134738857Y-93226000D01*
X134834095Y-93178380D01*
X135072190Y-93178380D01*
X135167428Y-93226000D01*
X135215047Y-93273619D01*
X135262666Y-93368857D01*
X135262666Y-93464095D01*
X135215047Y-93606952D01*
X134643619Y-94178380D01*
X135262666Y-94178380D01*
X158218380Y-59380380D02*
X157885047Y-58904190D01*
X157646952Y-59380380D02*
X157646952Y-58380380D01*
X158027904Y-58380380D01*
X158123142Y-58428000D01*
X158170761Y-58475619D01*
X158218380Y-58570857D01*
X158218380Y-58713714D01*
X158170761Y-58808952D01*
X158123142Y-58856571D01*
X158027904Y-58904190D01*
X157646952Y-58904190D01*
X158504095Y-58380380D02*
X158837428Y-59380380D01*
X159170761Y-58380380D01*
X159408857Y-58380380D02*
X160027904Y-58380380D01*
X159694571Y-58761333D01*
X159837428Y-58761333D01*
X159932666Y-58808952D01*
X159980285Y-58856571D01*
X160027904Y-58951809D01*
X160027904Y-59189904D01*
X159980285Y-59285142D01*
X159932666Y-59332761D01*
X159837428Y-59380380D01*
X159551714Y-59380380D01*
X159456476Y-59332761D01*
X159408857Y-59285142D01*
X160646952Y-58380380D02*
X160742190Y-58380380D01*
X160837428Y-58428000D01*
X160885047Y-58475619D01*
X160932666Y-58570857D01*
X160980285Y-58761333D01*
X160980285Y-58999428D01*
X160932666Y-59189904D01*
X160885047Y-59285142D01*
X160837428Y-59332761D01*
X160742190Y-59380380D01*
X160646952Y-59380380D01*
X160551714Y-59332761D01*
X160504095Y-59285142D01*
X160456476Y-59189904D01*
X160408857Y-58999428D01*
X160408857Y-58761333D01*
X160456476Y-58570857D01*
X160504095Y-58475619D01*
X160551714Y-58428000D01*
X160646952Y-58380380D01*
X161932666Y-59380380D02*
X161361238Y-59380380D01*
X161646952Y-59380380D02*
X161646952Y-58380380D01*
X161551714Y-58523238D01*
X161456476Y-58618476D01*
X161361238Y-58666095D01*
X131548380Y-48458380D02*
X131215047Y-47982190D01*
X130976952Y-48458380D02*
X130976952Y-47458380D01*
X131357904Y-47458380D01*
X131453142Y-47506000D01*
X131500761Y-47553619D01*
X131548380Y-47648857D01*
X131548380Y-47791714D01*
X131500761Y-47886952D01*
X131453142Y-47934571D01*
X131357904Y-47982190D01*
X130976952Y-47982190D01*
X131834095Y-47458380D02*
X132167428Y-48458380D01*
X132500761Y-47458380D01*
X133262666Y-47458380D02*
X133072190Y-47458380D01*
X132976952Y-47506000D01*
X132929333Y-47553619D01*
X132834095Y-47696476D01*
X132786476Y-47886952D01*
X132786476Y-48267904D01*
X132834095Y-48363142D01*
X132881714Y-48410761D01*
X132976952Y-48458380D01*
X133167428Y-48458380D01*
X133262666Y-48410761D01*
X133310285Y-48363142D01*
X133357904Y-48267904D01*
X133357904Y-48029809D01*
X133310285Y-47934571D01*
X133262666Y-47886952D01*
X133167428Y-47839333D01*
X132976952Y-47839333D01*
X132881714Y-47886952D01*
X132834095Y-47934571D01*
X132786476Y-48029809D01*
X133976952Y-47458380D02*
X134072190Y-47458380D01*
X134167428Y-47506000D01*
X134215047Y-47553619D01*
X134262666Y-47648857D01*
X134310285Y-47839333D01*
X134310285Y-48077428D01*
X134262666Y-48267904D01*
X134215047Y-48363142D01*
X134167428Y-48410761D01*
X134072190Y-48458380D01*
X133976952Y-48458380D01*
X133881714Y-48410761D01*
X133834095Y-48363142D01*
X133786476Y-48267904D01*
X133738857Y-48077428D01*
X133738857Y-47839333D01*
X133786476Y-47648857D01*
X133834095Y-47553619D01*
X133881714Y-47506000D01*
X133976952Y-47458380D01*
X135262666Y-48458380D02*
X134691238Y-48458380D01*
X134976952Y-48458380D02*
X134976952Y-47458380D01*
X134881714Y-47601238D01*
X134786476Y-47696476D01*
X134691238Y-47744095D01*
D11*
X157866000Y-77588285D02*
X158069571Y-77656142D01*
X158408857Y-77656142D01*
X158544571Y-77588285D01*
X158612428Y-77520428D01*
X158680285Y-77384714D01*
X158680285Y-77249000D01*
X158612428Y-77113285D01*
X158544571Y-77045428D01*
X158408857Y-76977571D01*
X158137428Y-76909714D01*
X158001714Y-76841857D01*
X157933857Y-76774000D01*
X157866000Y-76638285D01*
X157866000Y-76502571D01*
X157933857Y-76366857D01*
X158001714Y-76299000D01*
X158137428Y-76231142D01*
X158476714Y-76231142D01*
X158680285Y-76299000D01*
X159155285Y-76231142D02*
X159494571Y-77656142D01*
X159766000Y-76638285D01*
X160037428Y-77656142D01*
X160376714Y-76231142D01*
X161666000Y-77656142D02*
X160851714Y-77656142D01*
X161258857Y-77656142D02*
X161258857Y-76231142D01*
X161123142Y-76434714D01*
X160987428Y-76570428D01*
X160851714Y-76638285D01*
D10*
X156384666Y-142454380D02*
X156384666Y-143168666D01*
X156337047Y-143311523D01*
X156241809Y-143406761D01*
X156098952Y-143454380D01*
X156003714Y-143454380D01*
X156765619Y-142454380D02*
X157384666Y-142454380D01*
X157051333Y-142835333D01*
X157194190Y-142835333D01*
X157289428Y-142882952D01*
X157337047Y-142930571D01*
X157384666Y-143025809D01*
X157384666Y-143263904D01*
X157337047Y-143359142D01*
X157289428Y-143406761D01*
X157194190Y-143454380D01*
X156908476Y-143454380D01*
X156813238Y-143406761D01*
X156765619Y-143359142D01*
X140509666Y-142454380D02*
X140509666Y-143168666D01*
X140462047Y-143311523D01*
X140366809Y-143406761D01*
X140223952Y-143454380D01*
X140128714Y-143454380D01*
X140938238Y-142549619D02*
X140985857Y-142502000D01*
X141081095Y-142454380D01*
X141319190Y-142454380D01*
X141414428Y-142502000D01*
X141462047Y-142549619D01*
X141509666Y-142644857D01*
X141509666Y-142740095D01*
X141462047Y-142882952D01*
X140890619Y-143454380D01*
X141509666Y-143454380D01*
X131548380Y-71318380D02*
X131215047Y-70842190D01*
X130976952Y-71318380D02*
X130976952Y-70318380D01*
X131357904Y-70318380D01*
X131453142Y-70366000D01*
X131500761Y-70413619D01*
X131548380Y-70508857D01*
X131548380Y-70651714D01*
X131500761Y-70746952D01*
X131453142Y-70794571D01*
X131357904Y-70842190D01*
X130976952Y-70842190D01*
X131834095Y-70318380D02*
X132167428Y-71318380D01*
X132500761Y-70318380D01*
X133310285Y-70318380D02*
X132834095Y-70318380D01*
X132786476Y-70794571D01*
X132834095Y-70746952D01*
X132929333Y-70699333D01*
X133167428Y-70699333D01*
X133262666Y-70746952D01*
X133310285Y-70794571D01*
X133357904Y-70889809D01*
X133357904Y-71127904D01*
X133310285Y-71223142D01*
X133262666Y-71270761D01*
X133167428Y-71318380D01*
X132929333Y-71318380D01*
X132834095Y-71270761D01*
X132786476Y-71223142D01*
X133976952Y-70318380D02*
X134072190Y-70318380D01*
X134167428Y-70366000D01*
X134215047Y-70413619D01*
X134262666Y-70508857D01*
X134310285Y-70699333D01*
X134310285Y-70937428D01*
X134262666Y-71127904D01*
X134215047Y-71223142D01*
X134167428Y-71270761D01*
X134072190Y-71318380D01*
X133976952Y-71318380D01*
X133881714Y-71270761D01*
X133834095Y-71223142D01*
X133786476Y-71127904D01*
X133738857Y-70937428D01*
X133738857Y-70699333D01*
X133786476Y-70508857D01*
X133834095Y-70413619D01*
X133881714Y-70366000D01*
X133976952Y-70318380D01*
X135262666Y-71318380D02*
X134691238Y-71318380D01*
X134976952Y-71318380D02*
X134976952Y-70318380D01*
X134881714Y-70461238D01*
X134786476Y-70556476D01*
X134691238Y-70604095D01*
X136756000Y-134438000D02*
X136756000Y-143438000D01*
X136756000Y-143438000D02*
X125856000Y-143438000D01*
X125856000Y-134438000D02*
X125856000Y-143438000D01*
X136756000Y-134438000D02*
X125856000Y-134438000D01*
X132356000Y-138938000D02*
X128756000Y-138938000D01*
X130556000Y-137138000D02*
X130556000Y-140738000D01*
X132356000Y-138938000D02*
G75*
G03*
X132356000Y-138938000I-1800000J0D01*
G01*
D11*
X128216000Y-106308000D02*
X128216000Y-101588000D01*
X137966000Y-97778000D02*
X137966000Y-94718000D01*
X134756000Y-106308000D02*
X133926000Y-106308000D01*
X128226000Y-97778000D02*
X128226000Y-94718000D01*
X137966000Y-94718000D02*
X128226000Y-94718000D01*
X137966000Y-106308000D02*
X137966000Y-101588000D01*
X137966000Y-106308000D02*
X136476000Y-106308000D01*
X132306000Y-106308000D02*
X131776000Y-106308000D01*
X129406000Y-106308000D02*
X128226000Y-106308000D01*
G36*
X132256927Y-63654384D02*
G01*
X132284867Y-63762652D01*
X132308441Y-63870046D01*
X132329396Y-63981806D01*
X132118100Y-63981806D01*
X132139928Y-63870046D01*
X132164376Y-63762652D01*
X132192316Y-63654384D01*
X132224621Y-63538259D01*
X132256927Y-63654384D01*
G37*
G36*
X135733274Y-63513375D02*
G01*
X135793956Y-63543497D01*
X135833247Y-63595012D01*
X135846344Y-63669227D01*
X135797449Y-63790592D01*
X135733274Y-63822679D01*
X135638540Y-63833375D01*
X135591391Y-63833375D01*
X135591391Y-63508572D01*
X135626316Y-63504207D01*
X135656003Y-63503334D01*
X135733274Y-63513375D01*
G37*
G36*
X129637552Y-63654384D02*
G01*
X129665492Y-63762652D01*
X129689066Y-63870046D01*
X129710021Y-63981806D01*
X129498725Y-63981806D01*
X129520553Y-63870046D01*
X129545001Y-63762652D01*
X129572941Y-63654384D01*
X129605246Y-63538259D01*
X129637552Y-63654384D01*
G37*
G36*
X137554176Y-63526035D02*
G01*
X137605691Y-63606362D01*
X137630138Y-63725981D01*
X137634722Y-63797359D01*
X137636250Y-63873539D01*
X137634722Y-63949501D01*
X137630138Y-64020224D01*
X137605691Y-64139842D01*
X137553303Y-64221043D01*
X137465118Y-64250729D01*
X137376059Y-64221043D01*
X137324545Y-64139842D01*
X137300097Y-64020224D01*
X137295513Y-63949501D01*
X137293985Y-63873539D01*
X137295513Y-63797577D01*
X137300097Y-63726854D01*
X137324545Y-63607236D01*
X137376059Y-63526035D01*
X137465118Y-63496349D01*
X137554176Y-63526035D01*
G37*
G36*
X127706127Y-65213298D02*
G01*
X127588559Y-65195859D01*
X127473266Y-65166979D01*
X127361359Y-65126938D01*
X127253916Y-65076121D01*
X127151971Y-65015018D01*
X127056506Y-64944216D01*
X126968440Y-64864398D01*
X126888622Y-64776333D01*
X126817821Y-64680868D01*
X126756717Y-64578923D01*
X126705900Y-64471479D01*
X126683773Y-64409638D01*
X128337469Y-64409638D01*
X128534795Y-64409638D01*
X128526064Y-63569691D01*
X128653540Y-64027209D01*
X128810703Y-64027209D01*
X128943418Y-63569691D01*
X128932940Y-64409638D01*
X129130266Y-64409638D01*
X129186146Y-64409638D01*
X129409666Y-64409638D01*
X129458561Y-64159924D01*
X129746693Y-64159924D01*
X129797334Y-64409638D01*
X130027839Y-64409638D01*
X130123883Y-64409638D01*
X130317716Y-64409638D01*
X130317716Y-63691929D01*
X130382619Y-63811741D01*
X130444611Y-63931359D01*
X130503692Y-64050783D01*
X130559863Y-64170207D01*
X130613124Y-64289825D01*
X130663474Y-64409638D01*
X130836353Y-64409638D01*
X130836353Y-64018478D01*
X130984784Y-64018478D01*
X130989150Y-64108409D01*
X131002246Y-64189610D01*
X131025821Y-64260770D01*
X131061619Y-64320579D01*
X131174252Y-64403526D01*
X131253488Y-64425135D01*
X131349750Y-64432339D01*
X131447540Y-64425135D01*
X131505148Y-64409638D01*
X131805521Y-64409638D01*
X132029041Y-64409638D01*
X132077936Y-64159924D01*
X132366068Y-64159924D01*
X132416709Y-64409638D01*
X132647214Y-64409638D01*
X132786914Y-64409638D01*
X133466205Y-64409638D01*
X134519194Y-64409638D01*
X134733983Y-64409638D01*
X135376603Y-64409638D01*
X135591391Y-64409638D01*
X135591391Y-64011493D01*
X135703151Y-64011493D01*
X135762306Y-64110374D01*
X135817531Y-64207946D01*
X135867517Y-64306827D01*
X135910955Y-64409638D01*
X136136221Y-64409638D01*
X136265444Y-64409638D01*
X136958705Y-64409638D01*
X136958705Y-64231520D01*
X136480233Y-64231520D01*
X136480233Y-63927672D01*
X136862661Y-63927672D01*
X136862661Y-63873539D01*
X137075704Y-63873539D01*
X137084144Y-64021873D01*
X137109465Y-64147894D01*
X137151666Y-64251602D01*
X137209583Y-64332608D01*
X137282052Y-64390526D01*
X137369074Y-64425354D01*
X137409456Y-64533403D01*
X137492185Y-64613076D01*
X137572609Y-64652560D01*
X137675347Y-64683702D01*
X137800398Y-64706500D01*
X137845800Y-64552830D01*
X137730329Y-64528601D01*
X137642362Y-64501316D01*
X137548938Y-64428846D01*
X137640131Y-64396735D01*
X137715802Y-64339982D01*
X137775950Y-64258587D01*
X137819606Y-64153327D01*
X137845800Y-64024977D01*
X137854531Y-63873539D01*
X137848310Y-63742406D01*
X137829647Y-63628409D01*
X137798542Y-63531547D01*
X137754995Y-63451819D01*
X137678548Y-63372753D01*
X137581922Y-63325313D01*
X137465118Y-63309500D01*
X137351805Y-63325313D01*
X137256344Y-63372753D01*
X137178733Y-63451819D01*
X137133658Y-63531547D01*
X137101461Y-63628409D01*
X137082143Y-63742406D01*
X137075704Y-63873539D01*
X136862661Y-63873539D01*
X136862661Y-63749555D01*
X136480233Y-63749555D01*
X136480233Y-63506826D01*
X136920288Y-63506826D01*
X136920288Y-63328709D01*
X136265444Y-63328709D01*
X136265444Y-64409638D01*
X136136221Y-64409638D01*
X136086453Y-64295258D01*
X136026208Y-64174767D01*
X135961596Y-64059514D01*
X135898731Y-63959105D01*
X135975130Y-63909773D01*
X136026208Y-63842106D01*
X136055021Y-63760906D01*
X136064625Y-63670974D01*
X136057422Y-63586062D01*
X136035812Y-63512938D01*
X135952865Y-63402051D01*
X135893493Y-63364070D01*
X135823643Y-63337440D01*
X135744188Y-63321724D01*
X135656003Y-63316485D01*
X135594884Y-63318231D01*
X135521541Y-63322597D01*
X135445580Y-63331328D01*
X135376603Y-63344425D01*
X135376603Y-64409638D01*
X134733983Y-64409638D01*
X134733983Y-63946881D01*
X135125143Y-63946881D01*
X135125143Y-63768764D01*
X134733983Y-63768764D01*
X134733983Y-63506826D01*
X135181023Y-63506826D01*
X135181023Y-63328709D01*
X134519194Y-63328709D01*
X134519194Y-64409638D01*
X133466205Y-64409638D01*
X133466205Y-64231520D01*
X133003449Y-64231520D01*
X133003449Y-63328709D01*
X132786914Y-63328709D01*
X132786914Y-64409638D01*
X132647214Y-64409638D01*
X132618401Y-64287086D01*
X132589238Y-64168096D01*
X132559727Y-64052669D01*
X132529866Y-63940804D01*
X132499656Y-63832502D01*
X132461620Y-63701151D01*
X132423476Y-63573402D01*
X132385222Y-63449255D01*
X132346859Y-63328709D01*
X132112861Y-63328709D01*
X132075863Y-63448272D01*
X132038209Y-63571219D01*
X131999901Y-63697549D01*
X131960938Y-63827263D01*
X131929575Y-63934657D01*
X131898352Y-64046592D01*
X131867269Y-64163067D01*
X131836325Y-64284082D01*
X131805521Y-64409638D01*
X131505148Y-64409638D01*
X131527868Y-64403526D01*
X131592479Y-64368382D01*
X131643120Y-64320579D01*
X131680228Y-64260770D01*
X131704239Y-64189610D01*
X131717336Y-64108409D01*
X131721701Y-64018478D01*
X131721701Y-63328709D01*
X131506913Y-63328709D01*
X131506913Y-64002761D01*
X131499928Y-64117141D01*
X131475480Y-64192229D01*
X131428331Y-64233266D01*
X131353243Y-64245490D01*
X131278154Y-64233266D01*
X131231878Y-64193103D01*
X131208304Y-64118887D01*
X131201319Y-64004507D01*
X131201319Y-63328709D01*
X130984784Y-63328709D01*
X130984784Y-64018478D01*
X130836353Y-64018478D01*
X130836353Y-63328709D01*
X130642519Y-63328709D01*
X130642519Y-63994030D01*
X130611741Y-63925926D01*
X130575288Y-63847345D01*
X130534251Y-63762215D01*
X130489722Y-63674466D01*
X130442792Y-63585189D01*
X130394551Y-63495476D01*
X130345656Y-63408818D01*
X130296761Y-63328709D01*
X130123883Y-63328709D01*
X130123883Y-64409638D01*
X130027839Y-64409638D01*
X129999026Y-64287086D01*
X129969863Y-64168096D01*
X129940352Y-64052669D01*
X129910491Y-63940804D01*
X129880281Y-63832502D01*
X129842245Y-63701151D01*
X129804101Y-63573402D01*
X129765847Y-63449255D01*
X129727484Y-63328709D01*
X129493486Y-63328709D01*
X129456488Y-63448272D01*
X129418834Y-63571219D01*
X129380526Y-63697549D01*
X129341563Y-63827263D01*
X129310200Y-63934657D01*
X129278977Y-64046592D01*
X129247894Y-64163067D01*
X129216950Y-64284082D01*
X129186146Y-64409638D01*
X129130266Y-64409638D01*
X129126337Y-64271465D01*
X129121535Y-64136349D01*
X129115642Y-64003198D01*
X129108438Y-63870919D01*
X129099707Y-63738423D01*
X129089230Y-63604616D01*
X129077661Y-63468409D01*
X129065655Y-63328709D01*
X128887538Y-63328709D01*
X128856105Y-63421260D01*
X128817688Y-63540878D01*
X128774031Y-63673593D01*
X128730375Y-63807181D01*
X128690211Y-63681451D01*
X128648301Y-63546990D01*
X128609011Y-63423006D01*
X128578451Y-63328709D01*
X128400334Y-63328709D01*
X128388765Y-63447017D01*
X128378506Y-63574930D01*
X128369556Y-63709828D01*
X128361916Y-63849091D01*
X128355150Y-63990974D01*
X128348820Y-64133730D01*
X128342926Y-64274303D01*
X128337469Y-64409638D01*
X126683773Y-64409638D01*
X126665859Y-64359573D01*
X126636980Y-64244280D01*
X126619540Y-64126712D01*
X126613708Y-64008000D01*
X126619540Y-63889288D01*
X126636980Y-63771720D01*
X126665859Y-63656427D01*
X126705900Y-63544521D01*
X126756717Y-63437077D01*
X126817821Y-63335132D01*
X126888622Y-63239667D01*
X126968440Y-63151602D01*
X127056506Y-63071784D01*
X127151971Y-63000982D01*
X127253916Y-62939879D01*
X127361359Y-62889062D01*
X127473266Y-62849021D01*
X127588559Y-62820141D01*
X127706127Y-62802702D01*
X127824839Y-62796870D01*
X138367162Y-62796870D01*
X138485873Y-62802702D01*
X138603441Y-62820141D01*
X138718734Y-62849021D01*
X138830641Y-62889062D01*
X138938084Y-62939879D01*
X139040029Y-63000982D01*
X139135494Y-63071784D01*
X139223560Y-63151602D01*
X139303378Y-63239667D01*
X139374179Y-63335132D01*
X139435283Y-63437077D01*
X139486100Y-63544521D01*
X139526141Y-63656428D01*
X139555020Y-63771720D01*
X139572460Y-63889288D01*
X139578292Y-64008000D01*
X139572460Y-64126712D01*
X139555020Y-64244280D01*
X139526141Y-64359572D01*
X139486100Y-64471479D01*
X139435283Y-64578923D01*
X139374179Y-64680868D01*
X139303378Y-64776333D01*
X139223560Y-64864398D01*
X139135494Y-64944216D01*
X139040029Y-65015018D01*
X138938084Y-65076121D01*
X138830641Y-65126938D01*
X138718734Y-65166979D01*
X138603441Y-65195859D01*
X138485873Y-65213298D01*
X138367162Y-65219130D01*
X127824839Y-65219130D01*
X127706127Y-65213298D01*
G37*
X164636000Y-59803000D02*
X154896000Y-59803000D01*
X154886000Y-71393000D02*
X154886000Y-66673000D01*
X154896000Y-62863000D02*
X154896000Y-59803000D01*
X161426000Y-71393000D02*
X160596000Y-71393000D01*
X164636000Y-71393000D02*
X163146000Y-71393000D01*
X156076000Y-71393000D02*
X154896000Y-71393000D01*
X164636000Y-71393000D02*
X164636000Y-66673000D01*
X158976000Y-71393000D02*
X158446000Y-71393000D01*
X164636000Y-62863000D02*
X164636000Y-59803000D01*
G36*
X160278524Y-74778156D02*
G01*
X160328293Y-74890789D01*
X160310830Y-74968497D01*
X160266301Y-75015646D01*
X160204309Y-75038347D01*
X160132713Y-75044459D01*
X160079452Y-75042713D01*
X160029684Y-75037474D01*
X160029684Y-74744104D01*
X160144936Y-74744104D01*
X160278524Y-74778156D01*
G37*
G36*
X154993205Y-75359032D02*
G01*
X154930264Y-75274165D01*
X154896203Y-75217338D01*
X156338111Y-75217338D01*
X156552900Y-75217338D01*
X157211236Y-75217338D01*
X157904498Y-75217338D01*
X158084361Y-75217338D01*
X158777623Y-75217338D01*
X158777623Y-75205114D01*
X158941770Y-75205114D01*
X159059642Y-75225196D01*
X159172275Y-75231308D01*
X159277705Y-75223668D01*
X159373967Y-75200748D01*
X159375853Y-75199875D01*
X159814895Y-75199875D01*
X159890420Y-75213627D01*
X159966819Y-75223449D01*
X160042344Y-75229343D01*
X160115250Y-75231308D01*
X160201471Y-75227160D01*
X160265056Y-75217338D01*
X160609439Y-75217338D01*
X160832959Y-75217338D01*
X160881854Y-74967624D01*
X161169985Y-74967624D01*
X161220626Y-75217338D01*
X161451131Y-75217338D01*
X161422318Y-75094786D01*
X161393156Y-74975796D01*
X161363644Y-74860369D01*
X161333783Y-74748504D01*
X161313559Y-74676000D01*
X161513996Y-74676000D01*
X161521527Y-74803585D01*
X161544119Y-74915673D01*
X161581773Y-75012262D01*
X161634488Y-75093354D01*
X161726845Y-75174845D01*
X161843261Y-75223740D01*
X161983738Y-75240039D01*
X162079126Y-75234145D01*
X162158595Y-75217338D01*
X162418554Y-75217338D01*
X162633343Y-75217338D01*
X162633343Y-74723149D01*
X162725021Y-74821812D01*
X162771951Y-74882494D01*
X162816699Y-74947542D01*
X162858391Y-75015646D01*
X162896153Y-75085496D01*
X162951160Y-75217338D01*
X163193889Y-75217338D01*
X163165512Y-75139411D01*
X163129278Y-75059302D01*
X163086713Y-74978974D01*
X163039346Y-74900393D01*
X162988050Y-74825086D01*
X162933698Y-74754581D01*
X162878254Y-74690407D01*
X162823684Y-74634090D01*
X162876726Y-74569915D01*
X162927586Y-74503121D01*
X162975826Y-74435672D01*
X163021010Y-74369533D01*
X163062265Y-74305358D01*
X163098718Y-74243803D01*
X163157218Y-74136409D01*
X162914489Y-74136409D01*
X162862101Y-74241184D01*
X162793124Y-74358182D01*
X162713670Y-74476927D01*
X162633343Y-74585195D01*
X162633343Y-74136409D01*
X162418554Y-74136409D01*
X162418554Y-75217338D01*
X162158595Y-75217338D01*
X162162728Y-75216464D01*
X162285839Y-75164950D01*
X162231705Y-74995564D01*
X162143519Y-75033981D01*
X162004693Y-75053190D01*
X161880054Y-75028524D01*
X161796016Y-74954527D01*
X161760606Y-74879147D01*
X161739360Y-74784559D01*
X161732278Y-74670761D01*
X161738171Y-74572971D01*
X161755852Y-74492644D01*
X161816971Y-74378264D01*
X161902537Y-74317146D01*
X162001200Y-74298810D01*
X162131296Y-74317146D01*
X162228213Y-74361675D01*
X162284093Y-74190542D01*
X162248294Y-74169587D01*
X162189795Y-74143394D01*
X162108594Y-74121566D01*
X162004693Y-74111961D01*
X161902319Y-74121347D01*
X161808239Y-74149506D01*
X161724419Y-74195781D01*
X161652823Y-74259519D01*
X161594542Y-74340065D01*
X161550668Y-74436764D01*
X161523164Y-74548960D01*
X161513996Y-74676000D01*
X161313559Y-74676000D01*
X161303573Y-74640202D01*
X161265538Y-74508851D01*
X161227393Y-74381102D01*
X161189139Y-74256955D01*
X161150776Y-74136409D01*
X160916779Y-74136409D01*
X160879780Y-74255972D01*
X160842127Y-74378919D01*
X160803818Y-74505249D01*
X160764855Y-74634963D01*
X160733492Y-74742358D01*
X160702269Y-74854292D01*
X160671186Y-74970767D01*
X160640243Y-75091782D01*
X160609439Y-75217338D01*
X160265056Y-75217338D01*
X160282017Y-75214718D01*
X160354486Y-75192453D01*
X160416478Y-75158838D01*
X160506410Y-75054063D01*
X160531294Y-74980502D01*
X160539589Y-74890789D01*
X160529766Y-74817446D01*
X160500298Y-74747596D01*
X160443327Y-74686478D01*
X160350994Y-74639329D01*
X160451403Y-74545031D01*
X160479561Y-74481293D01*
X160488948Y-74408824D01*
X160473231Y-74307541D01*
X160413859Y-74215863D01*
X160293368Y-74149506D01*
X160205182Y-74130515D01*
X160094295Y-74124185D01*
X159949356Y-74132043D01*
X159814895Y-74150379D01*
X159814895Y-75199875D01*
X159375853Y-75199875D01*
X159459315Y-75161239D01*
X159532003Y-75103831D01*
X159591157Y-75027651D01*
X159635904Y-74931826D01*
X159664063Y-74815045D01*
X159673449Y-74676000D01*
X159664936Y-74540011D01*
X159639397Y-74425413D01*
X159598578Y-74330679D01*
X159544226Y-74254281D01*
X159476341Y-74196000D01*
X159394922Y-74155618D01*
X159302152Y-74132043D01*
X159200215Y-74124185D01*
X159079724Y-74129424D01*
X158941770Y-74150379D01*
X158941770Y-75205114D01*
X158777623Y-75205114D01*
X158777623Y-75039220D01*
X158299150Y-75039220D01*
X158299150Y-74735373D01*
X158681579Y-74735373D01*
X158681579Y-74557255D01*
X158299150Y-74557255D01*
X158299150Y-74314526D01*
X158739205Y-74314526D01*
X158739205Y-74136409D01*
X158084361Y-74136409D01*
X158084361Y-75217338D01*
X157904498Y-75217338D01*
X157904498Y-75039220D01*
X157426025Y-75039220D01*
X157426025Y-74735373D01*
X157808454Y-74735373D01*
X157808454Y-74557255D01*
X157426025Y-74557255D01*
X157426025Y-74314526D01*
X157866080Y-74314526D01*
X157866080Y-74136409D01*
X157211236Y-74136409D01*
X157211236Y-75217338D01*
X156552900Y-75217338D01*
X156552900Y-74754581D01*
X156944060Y-74754581D01*
X156944060Y-74576464D01*
X156552900Y-74576464D01*
X156552900Y-74314526D01*
X156999940Y-74314526D01*
X156999940Y-74136409D01*
X156338111Y-74136409D01*
X156338111Y-75217338D01*
X154896203Y-75217338D01*
X154875944Y-75183538D01*
X154830769Y-75088023D01*
X154795173Y-74988541D01*
X154769500Y-74886048D01*
X154753997Y-74781532D01*
X154748812Y-74676000D01*
X154753997Y-74570468D01*
X154769500Y-74465952D01*
X154795173Y-74363459D01*
X154830769Y-74263977D01*
X154875944Y-74168462D01*
X154930264Y-74077835D01*
X154993205Y-73992968D01*
X155064161Y-73914680D01*
X155142450Y-73843724D01*
X155227316Y-73780782D01*
X155317943Y-73726463D01*
X155413458Y-73681288D01*
X155512941Y-73645692D01*
X155615433Y-73620019D01*
X155719949Y-73604515D01*
X155825481Y-73599331D01*
X163706519Y-73599331D01*
X163812051Y-73604516D01*
X163916567Y-73620019D01*
X164019059Y-73645692D01*
X164118542Y-73681288D01*
X164214057Y-73726463D01*
X164304684Y-73780783D01*
X164389551Y-73843724D01*
X164467839Y-73914680D01*
X164538795Y-73992968D01*
X164601736Y-74077835D01*
X164656056Y-74168462D01*
X164701231Y-74263977D01*
X164736827Y-74363460D01*
X164762500Y-74465952D01*
X164778003Y-74570468D01*
X164783188Y-74676000D01*
X164778003Y-74781532D01*
X164762500Y-74886048D01*
X164736827Y-74988540D01*
X164701231Y-75088023D01*
X164656056Y-75183538D01*
X164601736Y-75274165D01*
X164538795Y-75359032D01*
X164467839Y-75437320D01*
X164389551Y-75508276D01*
X164304684Y-75571217D01*
X164214057Y-75625537D01*
X164118542Y-75670712D01*
X164019059Y-75706308D01*
X163916567Y-75731981D01*
X163812051Y-75747484D01*
X163706519Y-75752669D01*
X155825481Y-75752669D01*
X155719949Y-75747485D01*
X155615433Y-75731981D01*
X155512941Y-75706308D01*
X155413458Y-75670712D01*
X155317943Y-75625537D01*
X155227316Y-75571218D01*
X155142450Y-75508276D01*
X155064161Y-75437320D01*
X154993205Y-75359032D01*
G37*
G36*
X161060844Y-74462084D02*
G01*
X161088784Y-74570352D01*
X161112359Y-74677746D01*
X161133314Y-74789506D01*
X160922018Y-74789506D01*
X160943846Y-74677746D01*
X160968293Y-74570352D01*
X160996233Y-74462084D01*
X161028539Y-74345959D01*
X161060844Y-74462084D01*
G37*
G36*
X160185100Y-74315399D02*
G01*
X160233995Y-74332862D01*
X160267174Y-74369533D01*
X160279398Y-74431525D01*
X160237488Y-74530188D01*
X160113504Y-74565986D01*
X160029684Y-74565986D01*
X160029684Y-74318019D01*
X160076833Y-74312780D01*
X160127474Y-74311034D01*
X160185100Y-74315399D01*
G37*
G36*
X159336423Y-74341593D02*
G01*
X159408019Y-74422794D01*
X159444690Y-74539792D01*
X159455168Y-74676000D01*
X159451893Y-74753053D01*
X159442071Y-74823558D01*
X159398414Y-74939684D01*
X159318087Y-75016519D01*
X159194976Y-75044459D01*
X159175768Y-75044459D01*
X159156559Y-75042713D01*
X159156559Y-74316272D01*
X159187991Y-74311907D01*
X159219424Y-74311034D01*
X159336423Y-74341593D01*
G37*
G36*
X161101008Y-99354084D02*
G01*
X161128948Y-99462352D01*
X161152523Y-99569746D01*
X161173478Y-99681506D01*
X160962181Y-99681506D01*
X160984009Y-99569746D01*
X161008457Y-99462352D01*
X161036397Y-99354084D01*
X161068703Y-99237959D01*
X161101008Y-99354084D01*
G37*
G36*
X154857302Y-100639485D02*
G01*
X154752786Y-100623981D01*
X154650293Y-100598308D01*
X154550810Y-100562712D01*
X154455295Y-100517537D01*
X154364668Y-100463218D01*
X154279802Y-100400276D01*
X154201514Y-100329320D01*
X154130557Y-100251032D01*
X154067616Y-100166165D01*
X154033555Y-100109338D01*
X155475464Y-100109338D01*
X155669298Y-100109338D01*
X155669298Y-99391629D01*
X155734200Y-99511441D01*
X155796192Y-99631059D01*
X155855273Y-99750483D01*
X155911444Y-99869907D01*
X155964705Y-99989525D01*
X156015055Y-100109338D01*
X156187934Y-100109338D01*
X156187934Y-99718178D01*
X156336365Y-99718178D01*
X156340731Y-99808109D01*
X156353828Y-99889310D01*
X156377402Y-99960470D01*
X156413200Y-100020279D01*
X156525833Y-100103226D01*
X156605069Y-100124835D01*
X156701331Y-100132039D01*
X156799121Y-100124835D01*
X156856729Y-100109338D01*
X157181550Y-100109338D01*
X157378876Y-100109338D01*
X157370145Y-99269391D01*
X157497621Y-99726909D01*
X157654784Y-99726909D01*
X157787499Y-99269391D01*
X157777021Y-100109338D01*
X157974348Y-100109338D01*
X157972659Y-100049965D01*
X158957486Y-100049965D01*
X159077978Y-100103226D01*
X159171838Y-100124835D01*
X159292766Y-100132039D01*
X159415295Y-100122822D01*
X159515122Y-100095173D01*
X159592248Y-100049092D01*
X159666246Y-99948901D01*
X159690911Y-99814221D01*
X159683490Y-99732802D01*
X159661225Y-99666663D01*
X159585263Y-99568873D01*
X159483981Y-99506008D01*
X159378333Y-99463225D01*
X159311102Y-99437031D01*
X159249983Y-99404726D01*
X159205454Y-99362816D01*
X159187991Y-99307809D01*
X159207006Y-99238929D01*
X159264050Y-99197601D01*
X159359124Y-99183825D01*
X159482234Y-99201287D01*
X159579151Y-99243197D01*
X159593047Y-99206526D01*
X159804418Y-99206526D01*
X160089056Y-99206526D01*
X160089056Y-100109338D01*
X160305591Y-100109338D01*
X160649603Y-100109338D01*
X160873123Y-100109338D01*
X160922018Y-99859624D01*
X161210149Y-99859624D01*
X161260790Y-100109338D01*
X161491295Y-100109338D01*
X161462482Y-99986786D01*
X161433320Y-99867796D01*
X161403808Y-99752369D01*
X161373947Y-99640504D01*
X161353723Y-99568000D01*
X161554160Y-99568000D01*
X161562018Y-99699187D01*
X161585593Y-99813348D01*
X161623573Y-99910265D01*
X161674651Y-99989719D01*
X161738171Y-100051711D01*
X161813478Y-100096241D01*
X161899699Y-100123089D01*
X161995961Y-100132039D01*
X162102701Y-100127673D01*
X162192414Y-100114576D01*
X162212348Y-100109338D01*
X162490150Y-100109338D01*
X163183411Y-100109338D01*
X163183411Y-100049965D01*
X163323111Y-100049965D01*
X163443603Y-100103226D01*
X163537463Y-100124835D01*
X163658391Y-100132039D01*
X163780920Y-100122822D01*
X163880747Y-100095173D01*
X163957873Y-100049092D01*
X164031871Y-99948901D01*
X164056536Y-99814221D01*
X164049115Y-99732802D01*
X164026850Y-99666663D01*
X163950888Y-99568873D01*
X163849606Y-99506008D01*
X163743958Y-99463225D01*
X163676727Y-99437031D01*
X163615608Y-99404726D01*
X163571079Y-99362816D01*
X163553616Y-99307809D01*
X163572631Y-99238929D01*
X163629675Y-99197601D01*
X163724749Y-99183825D01*
X163847859Y-99201287D01*
X163944776Y-99243197D01*
X164007641Y-99077304D01*
X163882784Y-99026662D01*
X163802239Y-99009637D01*
X163709033Y-99003961D01*
X163602026Y-99013469D01*
X163511512Y-99041991D01*
X163437491Y-99089527D01*
X163363493Y-99191683D01*
X163338828Y-99327017D01*
X163366768Y-99455367D01*
X163437491Y-99541806D01*
X163532661Y-99599433D01*
X163633944Y-99639596D01*
X163707286Y-99670156D01*
X163773644Y-99706827D01*
X163822539Y-99753103D01*
X163841748Y-99812475D01*
X163833889Y-99863989D01*
X163805076Y-99909392D01*
X163748323Y-99940824D01*
X163658391Y-99952175D01*
X163571297Y-99946063D01*
X163498609Y-99927728D01*
X163385976Y-99875340D01*
X163323111Y-100049965D01*
X163183411Y-100049965D01*
X163183411Y-99931220D01*
X162704939Y-99931220D01*
X162704939Y-99627373D01*
X163087368Y-99627373D01*
X163087368Y-99449255D01*
X162704939Y-99449255D01*
X162704939Y-99206526D01*
X163144994Y-99206526D01*
X163144994Y-99028409D01*
X162490150Y-99028409D01*
X162490150Y-100109338D01*
X162212348Y-100109338D01*
X162312033Y-100083144D01*
X162312033Y-99543552D01*
X162097244Y-99543552D01*
X162097244Y-99938205D01*
X162055334Y-99943444D01*
X162013424Y-99945190D01*
X161909085Y-99922270D01*
X161833560Y-99853512D01*
X161799605Y-99781043D01*
X161779232Y-99685872D01*
X161772441Y-99568000D01*
X161776152Y-99487891D01*
X161787284Y-99415203D01*
X161836179Y-99296458D01*
X161922619Y-99218750D01*
X162051841Y-99190810D01*
X162167094Y-99210019D01*
X162261391Y-99253675D01*
X162317271Y-99082542D01*
X162281473Y-99061587D01*
X162221228Y-99035394D01*
X162134788Y-99013566D01*
X162022155Y-99003961D01*
X161927421Y-99012911D01*
X161838799Y-99039759D01*
X161758908Y-99084507D01*
X161690368Y-99147154D01*
X161634051Y-99227263D01*
X161590831Y-99324398D01*
X161563328Y-99438123D01*
X161554160Y-99568000D01*
X161353723Y-99568000D01*
X161343737Y-99532202D01*
X161305701Y-99400851D01*
X161267557Y-99273102D01*
X161229303Y-99148955D01*
X161190940Y-99028409D01*
X160956943Y-99028409D01*
X160919944Y-99147972D01*
X160882290Y-99270919D01*
X160843982Y-99397249D01*
X160805019Y-99526963D01*
X160773656Y-99634358D01*
X160742433Y-99746292D01*
X160711350Y-99862767D01*
X160680406Y-99983782D01*
X160649603Y-100109338D01*
X160305591Y-100109338D01*
X160305591Y-99206526D01*
X160590230Y-99206526D01*
X160590230Y-99028409D01*
X159804418Y-99028409D01*
X159804418Y-99206526D01*
X159593047Y-99206526D01*
X159642016Y-99077304D01*
X159517159Y-99026662D01*
X159436614Y-99009637D01*
X159343408Y-99003961D01*
X159236401Y-99013469D01*
X159145887Y-99041991D01*
X159071866Y-99089527D01*
X158997868Y-99191683D01*
X158973203Y-99327017D01*
X159001143Y-99455367D01*
X159071866Y-99541806D01*
X159167036Y-99599433D01*
X159268319Y-99639596D01*
X159341661Y-99670156D01*
X159408019Y-99706827D01*
X159456914Y-99753103D01*
X159476123Y-99812475D01*
X159468264Y-99863989D01*
X159439451Y-99909392D01*
X159382698Y-99940824D01*
X159292766Y-99952175D01*
X159205672Y-99946063D01*
X159132984Y-99927728D01*
X159020351Y-99875340D01*
X158957486Y-100049965D01*
X157972659Y-100049965D01*
X157970418Y-99971165D01*
X157965616Y-99836049D01*
X157959723Y-99702898D01*
X157952519Y-99570619D01*
X157943788Y-99438123D01*
X157933311Y-99304316D01*
X157921742Y-99168109D01*
X157909736Y-99028409D01*
X157731619Y-99028409D01*
X157700186Y-99120960D01*
X157661769Y-99240578D01*
X157618113Y-99373293D01*
X157574456Y-99506881D01*
X157534293Y-99381151D01*
X157492383Y-99246690D01*
X157453092Y-99122706D01*
X157422533Y-99028409D01*
X157244415Y-99028409D01*
X157232846Y-99146717D01*
X157222587Y-99274630D01*
X157213637Y-99409528D01*
X157205998Y-99548791D01*
X157199231Y-99690674D01*
X157192901Y-99833430D01*
X157187007Y-99974003D01*
X157181550Y-100109338D01*
X156856729Y-100109338D01*
X156879449Y-100103226D01*
X156944060Y-100068082D01*
X156994701Y-100020279D01*
X157031809Y-99960470D01*
X157055820Y-99889310D01*
X157068917Y-99808109D01*
X157073283Y-99718178D01*
X157073283Y-99028409D01*
X156858494Y-99028409D01*
X156858494Y-99702461D01*
X156851509Y-99816841D01*
X156827061Y-99891929D01*
X156779913Y-99932966D01*
X156704824Y-99945190D01*
X156629735Y-99932966D01*
X156583459Y-99892803D01*
X156559885Y-99818587D01*
X156552900Y-99704208D01*
X156552900Y-99028409D01*
X156336365Y-99028409D01*
X156336365Y-99718178D01*
X156187934Y-99718178D01*
X156187934Y-99028409D01*
X155994100Y-99028409D01*
X155994100Y-99693730D01*
X155963322Y-99625626D01*
X155926869Y-99547045D01*
X155885833Y-99461915D01*
X155841303Y-99374166D01*
X155794373Y-99284889D01*
X155746133Y-99195176D01*
X155697238Y-99108518D01*
X155648343Y-99028409D01*
X155475464Y-99028409D01*
X155475464Y-100109338D01*
X154033555Y-100109338D01*
X154013296Y-100075538D01*
X153968121Y-99980023D01*
X153932526Y-99880541D01*
X153906853Y-99778048D01*
X153891349Y-99673532D01*
X153886165Y-99568000D01*
X153891349Y-99462468D01*
X153906853Y-99357952D01*
X153932526Y-99255459D01*
X153968121Y-99155977D01*
X154013296Y-99060462D01*
X154067616Y-98969835D01*
X154130557Y-98884968D01*
X154201514Y-98806680D01*
X154279802Y-98735724D01*
X154364668Y-98672782D01*
X154455295Y-98618463D01*
X154550810Y-98573288D01*
X154650293Y-98537692D01*
X154752786Y-98512019D01*
X154857302Y-98496515D01*
X154962834Y-98491331D01*
X164569167Y-98491331D01*
X164674699Y-98496516D01*
X164779214Y-98512019D01*
X164881707Y-98537692D01*
X164981190Y-98573288D01*
X165076705Y-98618463D01*
X165167332Y-98672783D01*
X165252198Y-98735724D01*
X165330486Y-98806680D01*
X165401443Y-98884968D01*
X165464384Y-98969835D01*
X165518704Y-99060462D01*
X165563879Y-99155977D01*
X165599474Y-99255460D01*
X165625147Y-99357952D01*
X165640651Y-99462468D01*
X165645835Y-99568000D01*
X165640651Y-99673532D01*
X165625147Y-99778048D01*
X165599474Y-99880540D01*
X165563879Y-99980023D01*
X165518704Y-100075538D01*
X165464384Y-100166165D01*
X165401443Y-100251032D01*
X165330486Y-100329320D01*
X165252198Y-100400276D01*
X165167332Y-100463217D01*
X165076705Y-100517537D01*
X164981190Y-100562712D01*
X164881707Y-100598308D01*
X164779214Y-100623981D01*
X164674699Y-100639484D01*
X164569167Y-100644669D01*
X154962834Y-100644669D01*
X154857302Y-100639485D01*
G37*
G36*
X129102829Y-110072165D02*
G01*
X129048510Y-109981538D01*
X129003334Y-109886023D01*
X128967739Y-109786541D01*
X128942066Y-109684048D01*
X128926562Y-109579532D01*
X128921378Y-109474000D01*
X130510677Y-109474000D01*
X130518208Y-109601585D01*
X130540800Y-109713673D01*
X130578453Y-109810262D01*
X130631168Y-109891354D01*
X130723525Y-109972845D01*
X130839942Y-110021740D01*
X130980418Y-110038039D01*
X131075807Y-110032145D01*
X131159409Y-110014464D01*
X131282519Y-109962950D01*
X131228386Y-109793564D01*
X131140200Y-109831981D01*
X131001373Y-109851190D01*
X130876735Y-109826524D01*
X130792696Y-109752527D01*
X130757286Y-109677147D01*
X130736040Y-109582559D01*
X130728958Y-109468761D01*
X130734852Y-109370971D01*
X130752533Y-109290644D01*
X130813651Y-109176264D01*
X130899218Y-109115146D01*
X130997881Y-109096810D01*
X131127976Y-109115146D01*
X131224893Y-109159675D01*
X131280773Y-108988542D01*
X131244975Y-108967587D01*
X131186476Y-108941394D01*
X131160492Y-108934409D01*
X131359354Y-108934409D01*
X131379436Y-109032199D01*
X131408249Y-109154436D01*
X131431339Y-109245920D01*
X131456368Y-109341091D01*
X131483338Y-109439948D01*
X131511860Y-109540746D01*
X131541547Y-109641737D01*
X131572397Y-109742923D01*
X131618236Y-109886988D01*
X131661456Y-110015338D01*
X131883229Y-110015338D01*
X133206887Y-110015338D01*
X133886178Y-110015338D01*
X134066042Y-110015338D01*
X134759303Y-110015338D01*
X134759303Y-109837220D01*
X134280831Y-109837220D01*
X134280831Y-109533373D01*
X134663259Y-109533373D01*
X134663259Y-109355255D01*
X134280831Y-109355255D01*
X134280831Y-109112526D01*
X134720886Y-109112526D01*
X134720886Y-108934409D01*
X134851854Y-108934409D01*
X134871936Y-109032199D01*
X134900749Y-109154436D01*
X134923839Y-109245920D01*
X134948868Y-109341091D01*
X134975838Y-109439948D01*
X135004360Y-109540746D01*
X135034047Y-109641737D01*
X135064897Y-109742923D01*
X135110736Y-109886988D01*
X135153956Y-110015338D01*
X135375729Y-110015338D01*
X135409102Y-109922301D01*
X135441699Y-109827131D01*
X135473519Y-109729826D01*
X135504079Y-109632036D01*
X135532892Y-109535410D01*
X135559959Y-109439948D01*
X135597067Y-109300903D01*
X135629809Y-109168406D01*
X135657967Y-109045296D01*
X135681323Y-108934409D01*
X135456057Y-108934409D01*
X135440341Y-109025214D01*
X135421132Y-109129989D01*
X135399304Y-109243277D01*
X135375729Y-109359621D01*
X135350409Y-109476619D01*
X135323342Y-109591872D01*
X135295402Y-109699921D01*
X135267462Y-109795310D01*
X135239304Y-109698611D01*
X135210709Y-109590126D01*
X135182769Y-109474873D01*
X135156575Y-109357874D01*
X135132346Y-109241749D01*
X135110299Y-109129116D01*
X135091964Y-109024995D01*
X135078867Y-108934409D01*
X134851854Y-108934409D01*
X134720886Y-108934409D01*
X134066042Y-108934409D01*
X134066042Y-110015338D01*
X133886178Y-110015338D01*
X133886178Y-109837220D01*
X133423422Y-109837220D01*
X133423422Y-108934409D01*
X133206887Y-108934409D01*
X133206887Y-110015338D01*
X131883229Y-110015338D01*
X131916602Y-109922301D01*
X131949199Y-109827131D01*
X131981019Y-109729826D01*
X132011579Y-109632036D01*
X132040392Y-109535410D01*
X132067459Y-109439948D01*
X132104567Y-109300903D01*
X132137309Y-109168406D01*
X132165467Y-109045296D01*
X132188823Y-108934409D01*
X131963557Y-108934409D01*
X131947841Y-109025214D01*
X131928632Y-109129989D01*
X131906804Y-109243277D01*
X131883229Y-109359621D01*
X131857909Y-109476619D01*
X131830842Y-109591872D01*
X131802902Y-109699921D01*
X131774962Y-109795310D01*
X131746804Y-109698611D01*
X131718209Y-109590126D01*
X131690269Y-109474873D01*
X131664075Y-109357874D01*
X131639846Y-109241749D01*
X131617799Y-109129116D01*
X131599464Y-109024995D01*
X131586367Y-108934409D01*
X131359354Y-108934409D01*
X131160492Y-108934409D01*
X131105275Y-108919566D01*
X131001373Y-108909961D01*
X130898999Y-108919347D01*
X130804920Y-108947506D01*
X130721100Y-108993781D01*
X130649504Y-109057519D01*
X130591223Y-109138065D01*
X130547348Y-109234764D01*
X130519845Y-109346960D01*
X130510677Y-109474000D01*
X128921378Y-109474000D01*
X128926562Y-109368468D01*
X128942066Y-109263952D01*
X128967739Y-109161459D01*
X129003334Y-109061977D01*
X129048510Y-108966462D01*
X129102829Y-108875835D01*
X129165770Y-108790968D01*
X129236727Y-108712680D01*
X129315015Y-108641724D01*
X129399882Y-108578782D01*
X129490509Y-108524463D01*
X129586023Y-108479288D01*
X129685506Y-108443692D01*
X129787999Y-108418019D01*
X129892515Y-108402515D01*
X129998047Y-108397331D01*
X136193953Y-108397331D01*
X136299485Y-108402516D01*
X136404001Y-108418019D01*
X136506494Y-108443692D01*
X136605977Y-108479288D01*
X136701492Y-108524463D01*
X136792119Y-108578783D01*
X136876985Y-108641724D01*
X136955273Y-108712680D01*
X137026230Y-108790969D01*
X137089171Y-108875835D01*
X137143491Y-108966462D01*
X137188666Y-109061977D01*
X137224261Y-109161460D01*
X137249934Y-109263952D01*
X137265438Y-109368468D01*
X137270622Y-109474000D01*
X137265438Y-109579532D01*
X137249934Y-109684048D01*
X137224261Y-109786540D01*
X137188666Y-109886023D01*
X137143491Y-109981538D01*
X137089171Y-110072165D01*
X137026230Y-110157031D01*
X136955273Y-110235320D01*
X136876985Y-110306276D01*
X136792119Y-110369217D01*
X136701492Y-110423537D01*
X136605977Y-110468712D01*
X136506494Y-110504308D01*
X136404001Y-110529981D01*
X136299485Y-110545484D01*
X136193953Y-110550669D01*
X129998047Y-110550669D01*
X129892515Y-110545485D01*
X129787999Y-110529981D01*
X129685506Y-110504308D01*
X129586023Y-110468712D01*
X129490509Y-110423537D01*
X129399882Y-110369218D01*
X129315015Y-110306276D01*
X129236727Y-110235320D01*
X129165770Y-110157032D01*
X129102829Y-110072165D01*
G37*
X137966000Y-52058000D02*
X137966000Y-48998000D01*
X137966000Y-48998000D02*
X128226000Y-48998000D01*
X129406000Y-60588000D02*
X128226000Y-60588000D01*
X128226000Y-52058000D02*
X128226000Y-48998000D01*
X134756000Y-60588000D02*
X133926000Y-60588000D01*
X137966000Y-60588000D02*
X137966000Y-55868000D01*
X132306000Y-60588000D02*
X131776000Y-60588000D01*
X137966000Y-60588000D02*
X136476000Y-60588000D01*
X128216000Y-60588000D02*
X128216000Y-55868000D01*
D12*
X152266000Y-96138000D02*
X167266000Y-96138000D01*
X167266000Y-96138000D02*
X167866000Y-96138000D01*
X151666000Y-96138000D02*
X152266000Y-96138000D01*
X167866000Y-87503000D02*
X167866000Y-80138000D01*
D11*
X151666000Y-96138000D02*
X151666000Y-90932000D01*
D12*
X167866000Y-80138000D02*
X151666000Y-80138000D01*
D11*
X167866000Y-96138000D02*
X167866000Y-90932000D01*
D12*
X151666000Y-80138000D02*
X151666000Y-87503000D01*
X159766000Y-87138000D02*
X159766000Y-89138000D01*
X160766000Y-88138000D02*
X158766000Y-88138000D01*
D13*
X163766000Y-88138000D02*
G75*
G03*
X163766000Y-88138000I-4000000J0D01*
G01*
D10*
X168506000Y-143438000D02*
X157606000Y-143438000D01*
X162306000Y-137138000D02*
X162306000Y-140738000D01*
X168506000Y-134438000D02*
X168506000Y-143438000D01*
X157606000Y-134438000D02*
X157606000Y-143438000D01*
X164106000Y-138938000D02*
X160506000Y-138938000D01*
X168506000Y-134438000D02*
X157606000Y-134438000D01*
X164106000Y-138938000D02*
G75*
G03*
X164106000Y-138938000I-1800000J0D01*
G01*
G36*
X133099929Y-86437986D02*
G01*
X133160611Y-86468109D01*
X133199902Y-86519623D01*
X133212999Y-86593839D01*
X133164104Y-86715203D01*
X133099929Y-86747290D01*
X133005195Y-86757986D01*
X132958046Y-86757986D01*
X132958046Y-86433184D01*
X132992971Y-86428818D01*
X133022658Y-86427945D01*
X133099929Y-86437986D01*
G37*
G36*
X132264785Y-86458504D02*
G01*
X132336381Y-86539705D01*
X132373053Y-86656704D01*
X132383530Y-86792911D01*
X132380256Y-86869965D01*
X132370433Y-86940469D01*
X132326777Y-87056595D01*
X132246449Y-87133430D01*
X132123339Y-87161370D01*
X132104130Y-87161370D01*
X132084921Y-87159624D01*
X132084921Y-86433184D01*
X132116354Y-86428818D01*
X132147786Y-86427945D01*
X132264785Y-86458504D01*
G37*
G36*
X127007086Y-87847412D02*
G01*
X126914957Y-87763912D01*
X126831456Y-87671783D01*
X126794817Y-87622380D01*
X130984784Y-87622380D01*
X131208304Y-87622380D01*
X131304946Y-87322025D01*
X131870133Y-87322025D01*
X131988004Y-87342107D01*
X132100638Y-87348219D01*
X132206067Y-87340579D01*
X132232652Y-87334249D01*
X132743258Y-87334249D01*
X132958046Y-87334249D01*
X132958046Y-86936104D01*
X133069806Y-86936104D01*
X133128961Y-87034985D01*
X133184186Y-87132557D01*
X133234172Y-87231438D01*
X133277610Y-87334249D01*
X133502876Y-87334249D01*
X133453108Y-87219869D01*
X133392863Y-87099378D01*
X133328251Y-86984126D01*
X133265386Y-86883716D01*
X133341785Y-86834385D01*
X133392863Y-86766717D01*
X133421676Y-86685517D01*
X133431280Y-86595585D01*
X133424077Y-86510674D01*
X133402467Y-86437549D01*
X133319520Y-86326662D01*
X133260148Y-86288682D01*
X133190298Y-86262051D01*
X133146157Y-86253320D01*
X133544786Y-86253320D01*
X133589704Y-86370222D01*
X133635979Y-86483437D01*
X133683613Y-86592966D01*
X133734545Y-86701524D01*
X133790717Y-86811829D01*
X133852126Y-86923880D01*
X133852126Y-87334249D01*
X134068661Y-87334249D01*
X135308499Y-87334249D01*
X135505825Y-87334249D01*
X135497094Y-86494302D01*
X135624570Y-86951820D01*
X135781733Y-86951820D01*
X135914448Y-86494302D01*
X135903970Y-87334249D01*
X136101296Y-87334249D01*
X136235758Y-87334249D01*
X136922034Y-87334249D01*
X137033794Y-87334249D01*
X137266045Y-87334249D01*
X137306209Y-87239733D01*
X137353358Y-87134303D01*
X137403999Y-87025381D01*
X137454640Y-86920388D01*
X137505936Y-87028655D01*
X137555049Y-87136923D01*
X137599361Y-87240388D01*
X137636250Y-87334249D01*
X137868501Y-87334249D01*
X137821353Y-87219869D01*
X137789265Y-87150019D01*
X137752376Y-87074931D01*
X137711557Y-86996131D01*
X137667683Y-86915149D01*
X137621843Y-86834821D01*
X137575131Y-86757986D01*
X137851039Y-86253320D01*
X137634504Y-86253320D01*
X137454640Y-86599077D01*
X137283508Y-86253320D01*
X137051256Y-86253320D01*
X137334149Y-86763225D01*
X137291366Y-86839842D01*
X137246836Y-86919514D01*
X137202525Y-86999624D01*
X137160397Y-87077550D01*
X137121106Y-87151766D01*
X137085308Y-87220743D01*
X137033794Y-87334249D01*
X136922034Y-87334249D01*
X136922034Y-87156131D01*
X136688036Y-87156131D01*
X136688036Y-86431437D01*
X136922034Y-86431437D01*
X136922034Y-86253320D01*
X136235758Y-86253320D01*
X136235758Y-86431437D01*
X136471501Y-86431437D01*
X136471501Y-87156131D01*
X136235758Y-87156131D01*
X136235758Y-87334249D01*
X136101296Y-87334249D01*
X136097367Y-87196077D01*
X136092565Y-87060961D01*
X136086671Y-86927809D01*
X136079468Y-86795531D01*
X136070737Y-86663034D01*
X136060259Y-86529227D01*
X136048691Y-86393020D01*
X136036685Y-86253320D01*
X135858568Y-86253320D01*
X135827135Y-86345871D01*
X135788718Y-86465489D01*
X135745061Y-86598204D01*
X135701405Y-86731792D01*
X135661241Y-86606062D01*
X135619331Y-86471601D01*
X135580041Y-86347618D01*
X135549481Y-86253320D01*
X135371364Y-86253320D01*
X135359795Y-86371628D01*
X135349536Y-86499541D01*
X135340586Y-86634439D01*
X135332946Y-86773702D01*
X135326180Y-86915585D01*
X135319849Y-87058341D01*
X135313956Y-87198914D01*
X135308499Y-87334249D01*
X134068661Y-87334249D01*
X134068661Y-86922134D01*
X134115810Y-86837659D01*
X134159466Y-86755367D01*
X134200067Y-86673948D01*
X134238048Y-86592092D01*
X134273846Y-86509582D01*
X134307898Y-86426199D01*
X134341076Y-86341069D01*
X134374255Y-86253320D01*
X134152481Y-86253320D01*
X134109698Y-86379050D01*
X134085687Y-86448463D01*
X134060803Y-86517004D01*
X134010162Y-86646226D01*
X133965633Y-86747509D01*
X133914118Y-86633784D01*
X133864350Y-86509146D01*
X133817638Y-86380141D01*
X133775291Y-86253320D01*
X133544786Y-86253320D01*
X133146157Y-86253320D01*
X133110843Y-86246335D01*
X133022658Y-86241096D01*
X132961539Y-86242842D01*
X132888196Y-86247208D01*
X132812234Y-86255939D01*
X132743258Y-86269036D01*
X132743258Y-87334249D01*
X132232652Y-87334249D01*
X132302329Y-87317659D01*
X132387677Y-87278150D01*
X132460365Y-87220743D01*
X132519519Y-87144562D01*
X132564267Y-87048737D01*
X132592425Y-86931956D01*
X132601811Y-86792911D01*
X132593298Y-86656922D01*
X132567759Y-86542324D01*
X132526941Y-86447590D01*
X132472589Y-86371192D01*
X132404703Y-86312911D01*
X132323284Y-86272529D01*
X132230515Y-86248954D01*
X132128578Y-86241096D01*
X132008086Y-86246335D01*
X131870133Y-86267290D01*
X131870133Y-87322025D01*
X131304946Y-87322025D01*
X131693761Y-86113620D01*
X131473734Y-86113620D01*
X130984784Y-87622380D01*
X126794817Y-87622380D01*
X126757388Y-87571913D01*
X126693465Y-87465264D01*
X126640304Y-87352864D01*
X126598415Y-87235794D01*
X126568204Y-87115181D01*
X126549959Y-86992189D01*
X126543858Y-86868000D01*
X126549959Y-86743811D01*
X126568204Y-86620819D01*
X126598415Y-86500206D01*
X126640304Y-86383136D01*
X126693465Y-86270736D01*
X126703904Y-86253320D01*
X128323499Y-86253320D01*
X128327428Y-86386690D01*
X128332230Y-86524862D01*
X128338124Y-86664998D01*
X128345327Y-86804262D01*
X128353840Y-86942216D01*
X128363663Y-87078423D01*
X128375013Y-87210047D01*
X128388110Y-87334249D01*
X128566228Y-87334249D01*
X128602899Y-87219433D01*
X128643063Y-87095013D01*
X128684099Y-86970592D01*
X128723390Y-86855776D01*
X128761808Y-86973866D01*
X128800225Y-87097632D01*
X128838643Y-87220088D01*
X128877060Y-87334249D01*
X129055178Y-87334249D01*
X129266474Y-87334249D01*
X129959735Y-87334249D01*
X129959735Y-87156131D01*
X129481263Y-87156131D01*
X129481263Y-86852284D01*
X129863691Y-86852284D01*
X129863691Y-86674166D01*
X129481263Y-86674166D01*
X129481263Y-86431437D01*
X129921318Y-86431437D01*
X130073241Y-86431437D01*
X130357880Y-86431437D01*
X130357880Y-87334249D01*
X130574415Y-87334249D01*
X130574415Y-86431437D01*
X130859054Y-86431437D01*
X130859054Y-86253320D01*
X130073241Y-86253320D01*
X130073241Y-86431437D01*
X129921318Y-86431437D01*
X129921318Y-86253320D01*
X129266474Y-86253320D01*
X129266474Y-87334249D01*
X129055178Y-87334249D01*
X129066746Y-87210265D01*
X129077006Y-87079296D01*
X129085955Y-86943744D01*
X129093595Y-86806008D01*
X129100143Y-86666745D01*
X129105819Y-86526608D01*
X129111058Y-86388000D01*
X129116296Y-86253320D01*
X128917224Y-86253320D01*
X128917660Y-86358313D01*
X128918970Y-86467236D01*
X128920716Y-86577468D01*
X128922463Y-86686390D01*
X128924209Y-86793566D01*
X128925955Y-86898559D01*
X128927265Y-86999187D01*
X128927701Y-87093266D01*
X128888411Y-86953566D01*
X128851739Y-86826090D01*
X128821180Y-86717822D01*
X128800225Y-86635749D01*
X128643063Y-86635749D01*
X128618615Y-86721315D01*
X128584563Y-86840060D01*
X128546146Y-86971029D01*
X128510348Y-87093266D01*
X128510784Y-86999187D01*
X128512094Y-86898559D01*
X128513840Y-86793348D01*
X128515586Y-86685517D01*
X128517333Y-86576158D01*
X128519079Y-86466362D01*
X128520825Y-86358095D01*
X128522571Y-86253320D01*
X128323499Y-86253320D01*
X126703904Y-86253320D01*
X126757388Y-86164087D01*
X126831456Y-86064217D01*
X126914957Y-85972088D01*
X127007086Y-85888588D01*
X127106955Y-85814520D01*
X127213604Y-85750597D01*
X127326005Y-85697435D01*
X127443075Y-85655547D01*
X127563687Y-85625335D01*
X127686680Y-85607091D01*
X127810869Y-85600990D01*
X138381132Y-85600990D01*
X138505320Y-85607091D01*
X138628313Y-85625335D01*
X138748925Y-85655547D01*
X138865995Y-85697435D01*
X138978396Y-85750597D01*
X139085045Y-85814520D01*
X139184914Y-85888588D01*
X139277043Y-85972089D01*
X139360544Y-86064217D01*
X139434612Y-86164087D01*
X139498535Y-86270736D01*
X139551696Y-86383136D01*
X139593585Y-86500206D01*
X139623796Y-86620819D01*
X139642041Y-86743811D01*
X139648142Y-86868000D01*
X139642041Y-86992189D01*
X139623796Y-87115181D01*
X139593585Y-87235794D01*
X139551696Y-87352864D01*
X139498535Y-87465264D01*
X139434612Y-87571913D01*
X139360544Y-87671783D01*
X139277043Y-87763911D01*
X139184914Y-87847412D01*
X139085045Y-87921480D01*
X138978396Y-87985403D01*
X138865995Y-88038565D01*
X138748925Y-88080453D01*
X138628313Y-88110665D01*
X138505320Y-88128909D01*
X138381132Y-88135010D01*
X127810869Y-88135010D01*
X127686680Y-88128909D01*
X127563687Y-88110665D01*
X127443075Y-88080453D01*
X127326005Y-88038565D01*
X127213604Y-87985403D01*
X127106955Y-87921480D01*
X127007086Y-87847412D01*
G37*
X152631000Y-143438000D02*
X141731000Y-143438000D01*
X152631000Y-134438000D02*
X152631000Y-143438000D01*
X152631000Y-134438000D02*
X141731000Y-134438000D01*
X146431000Y-137138000D02*
X146431000Y-140738000D01*
X148231000Y-138938000D02*
X144631000Y-138938000D01*
X141731000Y-134438000D02*
X141731000Y-143438000D01*
X148231000Y-138938000D02*
G75*
G03*
X148231000Y-138938000I-1800000J0D01*
G01*
D11*
X137966000Y-83448000D02*
X137966000Y-78728000D01*
X128216000Y-83448000D02*
X128216000Y-78728000D01*
X137966000Y-74918000D02*
X137966000Y-71858000D01*
X137966000Y-83448000D02*
X136476000Y-83448000D01*
X137966000Y-71858000D02*
X128226000Y-71858000D01*
X132306000Y-83448000D02*
X131776000Y-83448000D01*
X134756000Y-83448000D02*
X133926000Y-83448000D01*
X129406000Y-83448000D02*
X128226000Y-83448000D01*
X128226000Y-74918000D02*
X128226000Y-71858000D01*
D14*
X124076000Y-138938000D03*
X127176000Y-138938000D03*
X135476000Y-138938000D03*
X155826000Y-138938000D03*
X158926000Y-138938000D03*
X167226000Y-138938000D03*
X139951000Y-138938000D03*
X143051000Y-138938000D03*
X151351000Y-138938000D03*
%LPC*%
D15*
X124076000Y-138938000D03*
X127176000Y-138938000D03*
X135476000Y-138938000D03*
D16*
X137896000Y-99688000D03*
X128296000Y-99688000D03*
G36*
G01*
X131547000Y-106288000D02*
X131547000Y-108088000D01*
G75*
G02*
X131496000Y-108139000I-51000J0D01*
G01*
X129696000Y-108139000D01*
G75*
G02*
X129645000Y-108088000I0J51000D01*
G01*
X129645000Y-106288000D01*
G75*
G02*
X129696000Y-106237000I51000J0D01*
G01*
X131496000Y-106237000D01*
G75*
G02*
X131547000Y-106288000I0J-51000D01*
G01*
G37*
D15*
X133096000Y-107188000D03*
X135596000Y-107188000D03*
D16*
X154966000Y-64773000D03*
X164566000Y-64773000D03*
G36*
G01*
X158217000Y-71373000D02*
X158217000Y-73173000D01*
G75*
G02*
X158166000Y-73224000I-51000J0D01*
G01*
X156366000Y-73224000D01*
G75*
G02*
X156315000Y-73173000I0J51000D01*
G01*
X156315000Y-71373000D01*
G75*
G02*
X156366000Y-71322000I51000J0D01*
G01*
X158166000Y-71322000D01*
G75*
G02*
X158217000Y-71373000I0J-51000D01*
G01*
G37*
D15*
X159766000Y-72273000D03*
X162266000Y-72273000D03*
D16*
X137896000Y-53968000D03*
X128296000Y-53968000D03*
G36*
G01*
X131547000Y-60568000D02*
X131547000Y-62368000D01*
G75*
G02*
X131496000Y-62419000I-51000J0D01*
G01*
X129696000Y-62419000D01*
G75*
G02*
X129645000Y-62368000I0J51000D01*
G01*
X129645000Y-60568000D01*
G75*
G02*
X129696000Y-60517000I51000J0D01*
G01*
X131496000Y-60517000D01*
G75*
G02*
X131547000Y-60568000I0J-51000D01*
G01*
G37*
D15*
X133096000Y-61468000D03*
X135596000Y-61468000D03*
D17*
X167766000Y-89238000D03*
X151766000Y-89238000D03*
D18*
X154766000Y-78988000D03*
X157266000Y-78988000D03*
X159766000Y-78988000D03*
X162266000Y-78988000D03*
X164766000Y-78988000D03*
X164766000Y-97288000D03*
X162266000Y-97288000D03*
X159766000Y-97288000D03*
X157266000Y-97288000D03*
X154766000Y-97288000D03*
D15*
X155826000Y-138938000D03*
X158926000Y-138938000D03*
X167226000Y-138938000D03*
X139951000Y-138938000D03*
X143051000Y-138938000D03*
X151351000Y-138938000D03*
D16*
X128296000Y-76828000D03*
X137896000Y-76828000D03*
G36*
G01*
X131547000Y-83428000D02*
X131547000Y-85228000D01*
G75*
G02*
X131496000Y-85279000I-51000J0D01*
G01*
X129696000Y-85279000D01*
G75*
G02*
X129645000Y-85228000I0J51000D01*
G01*
X129645000Y-83428000D01*
G75*
G02*
X129696000Y-83377000I51000J0D01*
G01*
X131496000Y-83377000D01*
G75*
G02*
X131547000Y-83428000I0J-51000D01*
G01*
G37*
D15*
X133096000Y-84328000D03*
X135596000Y-84328000D03*
D19*
X146558000Y-73112000D03*
X146558000Y-68112000D03*
G36*
G01*
X143040000Y-52413000D02*
X141440000Y-52413000D01*
G75*
G02*
X141389000Y-52362000I0J51000D01*
G01*
X141389000Y-50762000D01*
G75*
G02*
X141440000Y-50711000I51000J0D01*
G01*
X143040000Y-50711000D01*
G75*
G02*
X143091000Y-50762000I0J-51000D01*
G01*
X143091000Y-52362000D01*
G75*
G02*
X143040000Y-52413000I-51000J0D01*
G01*
G37*
X142240000Y-49062000D03*
X128778000Y-133350000D03*
X133778000Y-133350000D03*
G36*
G01*
X154571000Y-49188000D02*
X154571000Y-50888000D01*
G75*
G02*
X154520000Y-50939000I-51000J0D01*
G01*
X152820000Y-50939000D01*
G75*
G02*
X152769000Y-50888000I0J51000D01*
G01*
X152769000Y-49188000D01*
G75*
G02*
X152820000Y-49137000I51000J0D01*
G01*
X154520000Y-49137000D01*
G75*
G02*
X154571000Y-49188000I0J-51000D01*
G01*
G37*
D20*
X151130000Y-50038000D03*
X153670000Y-52578000D03*
X151130000Y-52578000D03*
X153670000Y-55118000D03*
X151130000Y-55118000D03*
X153670000Y-57658000D03*
X151130000Y-57658000D03*
X153670000Y-60198000D03*
X151130000Y-60198000D03*
D21*
X134874000Y-89916000D03*
X127254000Y-89916000D03*
D22*
X138176000Y-125222000D03*
X138176000Y-127762000D03*
X138176000Y-130302000D03*
G36*
G01*
X143040000Y-59525000D02*
X141440000Y-59525000D01*
G75*
G02*
X141389000Y-59474000I0J51000D01*
G01*
X141389000Y-57874000D01*
G75*
G02*
X141440000Y-57823000I51000J0D01*
G01*
X143040000Y-57823000D01*
G75*
G02*
X143091000Y-57874000I0J-51000D01*
G01*
X143091000Y-59474000D01*
G75*
G02*
X143040000Y-59525000I-51000J0D01*
G01*
G37*
D19*
X142240000Y-56174000D03*
X143216000Y-93218000D03*
X138216000Y-93218000D03*
M02*
