M48
; DRILL file {KiCad 6.0.5+dfsg-1~bpo11+1} date Thu Dec 29 14:19:14 2022
; FORMAT={-:-/ absolute / metric / decimal}
; #@! TF.CreationDate,2022-12-29T14:19:14+00:00
; #@! TF.GenerationSoftware,Kicad,Pcbnew,6.0.5+dfsg-1~bpo11+1
; #@! TF.FileFunction,Plated,1,2,PTH
FMAT,2
METRIC
; #@! TA.AperFunction,Plated,PTH,ViaDrill
T1C0.500
; #@! TA.AperFunction,Plated,PTH,ViaDrill
T2C0.800
; #@! TA.AperFunction,Plated,PTH,ComponentDrill
T3C0.800
; #@! TA.AperFunction,Plated,PTH,ComponentDrill
T4C0.900
; #@! TA.AperFunction,Plated,PTH,ComponentDrill
T5C1.000
; #@! TA.AperFunction,Plated,PTH,ComponentDrill
T6C1.100
; #@! TA.AperFunction,Plated,PTH,ComponentDrill
T7C1.300
; #@! TA.AperFunction,Plated,PTH,ComponentDrill
T8C1.600
; #@! TA.AperFunction,Plated,PTH,ComponentDrill
T9C2.000
%
G90
G05
T1
X123.698Y-108.712
X125.476Y-108.712
X125.73Y-122.174
X129.794Y-67.564
X132.842Y-111.252
X134.112Y-122.174
X134.62Y-124.206
X138.43Y-67.564
X138.43Y-69.596
X138.684Y-96.52
X138.938Y-81.534
X139.192Y-83.566
X140.462Y-130.556
X140.803Y-104.409
X140.97Y-96.52
X140.97Y-100.076
X140.97Y-113.03
X141.058Y-119.649
X141.19Y-132.368
X141.224Y-125.984
X144.018Y-78.486
X144.272Y-82.042
X145.067Y-132.875
X147.162Y-120.65
X147.32Y-92.964
X147.32Y-107.696
X148.844Y-70.104
X149.86Y-102.362
X149.86Y-115.062
X149.86Y-121.412
X149.86Y-128.016
X150.187Y-108.966
X150.368Y-92.964
X150.368Y-100.076
X151.892Y-70.104
X151.892Y-73.152
X152.4Y-109.22
X152.4Y-114.046
X152.4Y-122.682
X152.4Y-135.382
X152.654Y-127.0
X153.086Y-133.495
X153.162Y-77.47
X154.057Y-107.807
X154.057Y-120.994
X155.194Y-131.572
X155.346Y-133.706
X155.702Y-114.808
X155.79Y-128.332
X155.956Y-107.95
X155.956Y-120.904
X158.75Y-101.346
X159.258Y-110.744
X159.258Y-113.538
X159.258Y-123.952
X159.258Y-126.746
X163.576Y-109.728
X163.576Y-122.936
X163.576Y-127.0
X167.806Y-100.33
X167.806Y-109.967
X167.806Y-113.015
X167.894Y-122.936
X167.894Y-125.984
X168.148Y-135.89
X168.656Y-70.358
X168.656Y-127.762
T2
X150.876Y-97.536
X153.162Y-96.774
T3
X128.778Y-133.35
X133.778Y-133.35
X138.176Y-125.222
X138.176Y-127.762
X138.176Y-130.302
X138.216Y-93.218
X142.24Y-49.062
X142.24Y-51.562
X142.24Y-56.174
X142.24Y-58.674
X143.216Y-93.218
X146.558Y-68.112
X146.558Y-73.112
T4
X154.766Y-78.988
X154.766Y-97.288
X157.266Y-78.988
X157.266Y-97.288
X159.766Y-78.988
X159.766Y-97.288
X162.266Y-78.988
X162.266Y-97.288
X164.766Y-78.988
X164.766Y-97.288
T5
X130.596Y-61.468
X130.596Y-84.328
X130.596Y-107.188
X133.096Y-61.468
X133.096Y-84.328
X133.096Y-107.188
X135.596Y-61.468
X135.596Y-84.328
X135.596Y-107.188
X151.13Y-50.038
X151.13Y-52.578
X151.13Y-55.118
X151.13Y-57.658
X151.13Y-60.198
X153.67Y-50.038
X153.67Y-52.578
X153.67Y-55.118
X153.67Y-57.658
X153.67Y-60.198
X157.266Y-72.273
X159.766Y-72.273
X162.266Y-72.273
T7
X127.254Y-89.916
X134.874Y-89.916
T8
X124.076Y-138.938
X127.176Y-138.938
X135.476Y-138.938
X139.951Y-138.938
X143.051Y-138.938
X151.351Y-138.938
X155.826Y-138.938
X158.926Y-138.938
X167.226Y-138.938
T9
X151.766Y-89.238
X167.766Y-89.238
T6
X128.296Y-54.318G85X128.296Y-53.618
G05
X128.296Y-77.178G85X128.296Y-76.478
G05
X128.296Y-100.038G85X128.296Y-99.338
G05
X137.896Y-54.318G85X137.896Y-53.618
G05
X137.896Y-77.178G85X137.896Y-76.478
G05
X137.896Y-100.038G85X137.896Y-99.338
G05
X154.966Y-65.123G85X154.966Y-64.423
G05
X164.566Y-65.123G85X164.566Y-64.423
G05
T0
M30
