G04 #@! TF.GenerationSoftware,KiCad,Pcbnew,6.0.5+dfsg-1~bpo11+1*
G04 #@! TF.CreationDate,2022-12-29T14:19:14+00:00*
G04 #@! TF.ProjectId,SSI2140_phase_shifter,53534932-3134-4305-9f70-686173655f73,0*
G04 #@! TF.SameCoordinates,Original*
G04 #@! TF.FileFunction,Soldermask,Top*
G04 #@! TF.FilePolarity,Negative*
%FSLAX46Y46*%
G04 Gerber Fmt 4.6, Leading zero omitted, Abs format (unit mm)*
G04 Created by KiCad (PCBNEW 6.0.5+dfsg-1~bpo11+1) date 2022-12-29 14:19:14*
%MOMM*%
%LPD*%
G01*
G04 APERTURE LIST*
%ADD10C,1.902000*%
%ADD11O,2.822000X3.342000*%
%ADD12C,3.102000*%
%ADD13C,1.451600*%
%ADD14C,1.702000*%
%ADD15O,1.802000X1.802000*%
%ADD16C,2.702000*%
%ADD17C,1.542000*%
G04 APERTURE END LIST*
D10*
X124076000Y-138938000D03*
X127176000Y-138938000D03*
X135476000Y-138938000D03*
D11*
X137896000Y-99688000D03*
X128296000Y-99688000D03*
G36*
G01*
X131547000Y-106288000D02*
X131547000Y-108088000D01*
G75*
G02*
X131496000Y-108139000I-51000J0D01*
G01*
X129696000Y-108139000D01*
G75*
G02*
X129645000Y-108088000I0J51000D01*
G01*
X129645000Y-106288000D01*
G75*
G02*
X129696000Y-106237000I51000J0D01*
G01*
X131496000Y-106237000D01*
G75*
G02*
X131547000Y-106288000I0J-51000D01*
G01*
G37*
D10*
X133096000Y-107188000D03*
X135596000Y-107188000D03*
D11*
X154966000Y-64773000D03*
X164566000Y-64773000D03*
G36*
G01*
X158217000Y-71373000D02*
X158217000Y-73173000D01*
G75*
G02*
X158166000Y-73224000I-51000J0D01*
G01*
X156366000Y-73224000D01*
G75*
G02*
X156315000Y-73173000I0J51000D01*
G01*
X156315000Y-71373000D01*
G75*
G02*
X156366000Y-71322000I51000J0D01*
G01*
X158166000Y-71322000D01*
G75*
G02*
X158217000Y-71373000I0J-51000D01*
G01*
G37*
D10*
X159766000Y-72273000D03*
X162266000Y-72273000D03*
D11*
X137896000Y-53968000D03*
X128296000Y-53968000D03*
G36*
G01*
X131547000Y-60568000D02*
X131547000Y-62368000D01*
G75*
G02*
X131496000Y-62419000I-51000J0D01*
G01*
X129696000Y-62419000D01*
G75*
G02*
X129645000Y-62368000I0J51000D01*
G01*
X129645000Y-60568000D01*
G75*
G02*
X129696000Y-60517000I51000J0D01*
G01*
X131496000Y-60517000D01*
G75*
G02*
X131547000Y-60568000I0J-51000D01*
G01*
G37*
D10*
X133096000Y-61468000D03*
X135596000Y-61468000D03*
D12*
X167766000Y-89238000D03*
X151766000Y-89238000D03*
D13*
X154766000Y-78988000D03*
X157266000Y-78988000D03*
X159766000Y-78988000D03*
X162266000Y-78988000D03*
X164766000Y-78988000D03*
X164766000Y-97288000D03*
X162266000Y-97288000D03*
X159766000Y-97288000D03*
X157266000Y-97288000D03*
X154766000Y-97288000D03*
D10*
X155826000Y-138938000D03*
X158926000Y-138938000D03*
X167226000Y-138938000D03*
X139951000Y-138938000D03*
X143051000Y-138938000D03*
X151351000Y-138938000D03*
D11*
X128296000Y-76828000D03*
X137896000Y-76828000D03*
G36*
G01*
X131547000Y-83428000D02*
X131547000Y-85228000D01*
G75*
G02*
X131496000Y-85279000I-51000J0D01*
G01*
X129696000Y-85279000D01*
G75*
G02*
X129645000Y-85228000I0J51000D01*
G01*
X129645000Y-83428000D01*
G75*
G02*
X129696000Y-83377000I51000J0D01*
G01*
X131496000Y-83377000D01*
G75*
G02*
X131547000Y-83428000I0J-51000D01*
G01*
G37*
D10*
X133096000Y-84328000D03*
X135596000Y-84328000D03*
D14*
X146558000Y-73112000D03*
X146558000Y-68112000D03*
G36*
G01*
X143040000Y-52413000D02*
X141440000Y-52413000D01*
G75*
G02*
X141389000Y-52362000I0J51000D01*
G01*
X141389000Y-50762000D01*
G75*
G02*
X141440000Y-50711000I51000J0D01*
G01*
X143040000Y-50711000D01*
G75*
G02*
X143091000Y-50762000I0J-51000D01*
G01*
X143091000Y-52362000D01*
G75*
G02*
X143040000Y-52413000I-51000J0D01*
G01*
G37*
X142240000Y-49062000D03*
X128778000Y-133350000D03*
X133778000Y-133350000D03*
G36*
G01*
X154571000Y-49188000D02*
X154571000Y-50888000D01*
G75*
G02*
X154520000Y-50939000I-51000J0D01*
G01*
X152820000Y-50939000D01*
G75*
G02*
X152769000Y-50888000I0J51000D01*
G01*
X152769000Y-49188000D01*
G75*
G02*
X152820000Y-49137000I51000J0D01*
G01*
X154520000Y-49137000D01*
G75*
G02*
X154571000Y-49188000I0J-51000D01*
G01*
G37*
D15*
X151130000Y-50038000D03*
X153670000Y-52578000D03*
X151130000Y-52578000D03*
X153670000Y-55118000D03*
X151130000Y-55118000D03*
X153670000Y-57658000D03*
X151130000Y-57658000D03*
X153670000Y-60198000D03*
X151130000Y-60198000D03*
D16*
X134874000Y-89916000D03*
X127254000Y-89916000D03*
D17*
X138176000Y-125222000D03*
X138176000Y-127762000D03*
X138176000Y-130302000D03*
G36*
G01*
X143040000Y-59525000D02*
X141440000Y-59525000D01*
G75*
G02*
X141389000Y-59474000I0J51000D01*
G01*
X141389000Y-57874000D01*
G75*
G02*
X141440000Y-57823000I51000J0D01*
G01*
X143040000Y-57823000D01*
G75*
G02*
X143091000Y-57874000I0J-51000D01*
G01*
X143091000Y-59474000D01*
G75*
G02*
X143040000Y-59525000I-51000J0D01*
G01*
G37*
D14*
X142240000Y-56174000D03*
X143216000Y-93218000D03*
X138216000Y-93218000D03*
M02*
