G04 #@! TF.GenerationSoftware,KiCad,Pcbnew,6.0.5+dfsg-1~bpo11+1*
G04 #@! TF.CreationDate,2022-12-29T14:19:14+00:00*
G04 #@! TF.ProjectId,SSI2140_phase_shifter,53534932-3134-4305-9f70-686173655f73,0*
G04 #@! TF.SameCoordinates,Original*
G04 #@! TF.FileFunction,Soldermask,Bot*
G04 #@! TF.FilePolarity,Negative*
%FSLAX46Y46*%
G04 Gerber Fmt 4.6, Leading zero omitted, Abs format (unit mm)*
G04 Created by KiCad (PCBNEW 6.0.5+dfsg-1~bpo11+1) date 2022-12-29 14:19:14*
%MOMM*%
%LPD*%
G01*
G04 APERTURE LIST*
%ADD10C,1.902000*%
%ADD11O,2.822000X3.342000*%
%ADD12C,3.102000*%
%ADD13C,1.451600*%
%ADD14C,1.702000*%
%ADD15O,1.802000X1.802000*%
%ADD16C,2.702000*%
%ADD17C,1.542000*%
G04 APERTURE END LIST*
D10*
X124076000Y-138938000D03*
X127176000Y-138938000D03*
X135476000Y-138938000D03*
D11*
X137896000Y-99688000D03*
X128296000Y-99688000D03*
G36*
G01*
X131547000Y-106288000D02*
X131547000Y-108088000D01*
G75*
G02*
X131496000Y-108139000I-51000J0D01*
G01*
X129696000Y-108139000D01*
G75*
G02*
X129645000Y-108088000I0J51000D01*
G01*
X129645000Y-106288000D01*
G75*
G02*
X129696000Y-106237000I51000J0D01*
G01*
X131496000Y-106237000D01*
G75*
G02*
X131547000Y-106288000I0J-51000D01*
G01*
G37*
D10*
X133096000Y-107188000D03*
X135596000Y-107188000D03*
D11*
X154966000Y-64773000D03*
X164566000Y-64773000D03*
G36*
G01*
X158217000Y-71373000D02*
X158217000Y-73173000D01*
G75*
G02*
X158166000Y-73224000I-51000J0D01*
G01*
X156366000Y-73224000D01*
G75*
G02*
X156315000Y-73173000I0J51000D01*
G01*
X156315000Y-71373000D01*
G75*
G02*
X156366000Y-71322000I51000J0D01*
G01*
X158166000Y-71322000D01*
G75*
G02*
X158217000Y-71373000I0J-51000D01*
G01*
G37*
D10*
X159766000Y-72273000D03*
X162266000Y-72273000D03*
D11*
X137896000Y-53968000D03*
X128296000Y-53968000D03*
G36*
G01*
X131547000Y-60568000D02*
X131547000Y-62368000D01*
G75*
G02*
X131496000Y-62419000I-51000J0D01*
G01*
X129696000Y-62419000D01*
G75*
G02*
X129645000Y-62368000I0J51000D01*
G01*
X129645000Y-60568000D01*
G75*
G02*
X129696000Y-60517000I51000J0D01*
G01*
X131496000Y-60517000D01*
G75*
G02*
X131547000Y-60568000I0J-51000D01*
G01*
G37*
D10*
X133096000Y-61468000D03*
X135596000Y-61468000D03*
D12*
X167766000Y-89238000D03*
X151766000Y-89238000D03*
D13*
X154766000Y-78988000D03*
X157266000Y-78988000D03*
X159766000Y-78988000D03*
X162266000Y-78988000D03*
X164766000Y-78988000D03*
X164766000Y-97288000D03*
X162266000Y-97288000D03*
X159766000Y-97288000D03*
X157266000Y-97288000D03*
X154766000Y-97288000D03*
D10*
X155826000Y-138938000D03*
X158926000Y-138938000D03*
X167226000Y-138938000D03*
X139951000Y-138938000D03*
X143051000Y-138938000D03*
X151351000Y-138938000D03*
D11*
X128296000Y-76828000D03*
X137896000Y-76828000D03*
G36*
G01*
X131547000Y-83428000D02*
X131547000Y-85228000D01*
G75*
G02*
X131496000Y-85279000I-51000J0D01*
G01*
X129696000Y-85279000D01*
G75*
G02*
X129645000Y-85228000I0J51000D01*
G01*
X129645000Y-83428000D01*
G75*
G02*
X129696000Y-83377000I51000J0D01*
G01*
X131496000Y-83377000D01*
G75*
G02*
X131547000Y-83428000I0J-51000D01*
G01*
G37*
D10*
X133096000Y-84328000D03*
X135596000Y-84328000D03*
G36*
G01*
X149600000Y-78736000D02*
X149600000Y-78236000D01*
G75*
G02*
X149876000Y-77960000I276000J0D01*
G01*
X150326000Y-77960000D01*
G75*
G02*
X150602000Y-78236000I0J-276000D01*
G01*
X150602000Y-78736000D01*
G75*
G02*
X150326000Y-79012000I-276000J0D01*
G01*
X149876000Y-79012000D01*
G75*
G02*
X149600000Y-78736000I0J276000D01*
G01*
G37*
G36*
G01*
X151150000Y-78736000D02*
X151150000Y-78236000D01*
G75*
G02*
X151426000Y-77960000I276000J0D01*
G01*
X151876000Y-77960000D01*
G75*
G02*
X152152000Y-78236000I0J-276000D01*
G01*
X152152000Y-78736000D01*
G75*
G02*
X151876000Y-79012000I-276000J0D01*
G01*
X151426000Y-79012000D01*
G75*
G02*
X151150000Y-78736000I0J276000D01*
G01*
G37*
G36*
G01*
X148596000Y-112755000D02*
X148596000Y-113305000D01*
G75*
G02*
X148345000Y-113556000I-251000J0D01*
G01*
X147945000Y-113556000D01*
G75*
G02*
X147694000Y-113305000I0J251000D01*
G01*
X147694000Y-112755000D01*
G75*
G02*
X147945000Y-112504000I251000J0D01*
G01*
X148345000Y-112504000D01*
G75*
G02*
X148596000Y-112755000I0J-251000D01*
G01*
G37*
G36*
G01*
X146946000Y-112755000D02*
X146946000Y-113305000D01*
G75*
G02*
X146695000Y-113556000I-251000J0D01*
G01*
X146295000Y-113556000D01*
G75*
G02*
X146044000Y-113305000I0J251000D01*
G01*
X146044000Y-112755000D01*
G75*
G02*
X146295000Y-112504000I251000J0D01*
G01*
X146695000Y-112504000D01*
G75*
G02*
X146946000Y-112755000I0J-251000D01*
G01*
G37*
G36*
G01*
X150781000Y-108181000D02*
X150781000Y-107981000D01*
G75*
G02*
X150932000Y-107830000I151000J0D01*
G01*
X152207000Y-107830000D01*
G75*
G02*
X152358000Y-107981000I0J-151000D01*
G01*
X152358000Y-108181000D01*
G75*
G02*
X152207000Y-108332000I-151000J0D01*
G01*
X150932000Y-108332000D01*
G75*
G02*
X150781000Y-108181000I0J151000D01*
G01*
G37*
G36*
G01*
X150781000Y-107531000D02*
X150781000Y-107331000D01*
G75*
G02*
X150932000Y-107180000I151000J0D01*
G01*
X152207000Y-107180000D01*
G75*
G02*
X152358000Y-107331000I0J-151000D01*
G01*
X152358000Y-107531000D01*
G75*
G02*
X152207000Y-107682000I-151000J0D01*
G01*
X150932000Y-107682000D01*
G75*
G02*
X150781000Y-107531000I0J151000D01*
G01*
G37*
G36*
G01*
X150781000Y-106881000D02*
X150781000Y-106681000D01*
G75*
G02*
X150932000Y-106530000I151000J0D01*
G01*
X152207000Y-106530000D01*
G75*
G02*
X152358000Y-106681000I0J-151000D01*
G01*
X152358000Y-106881000D01*
G75*
G02*
X152207000Y-107032000I-151000J0D01*
G01*
X150932000Y-107032000D01*
G75*
G02*
X150781000Y-106881000I0J151000D01*
G01*
G37*
G36*
G01*
X150781000Y-106231000D02*
X150781000Y-106031000D01*
G75*
G02*
X150932000Y-105880000I151000J0D01*
G01*
X152207000Y-105880000D01*
G75*
G02*
X152358000Y-106031000I0J-151000D01*
G01*
X152358000Y-106231000D01*
G75*
G02*
X152207000Y-106382000I-151000J0D01*
G01*
X150932000Y-106382000D01*
G75*
G02*
X150781000Y-106231000I0J151000D01*
G01*
G37*
G36*
G01*
X150781000Y-105581000D02*
X150781000Y-105381000D01*
G75*
G02*
X150932000Y-105230000I151000J0D01*
G01*
X152207000Y-105230000D01*
G75*
G02*
X152358000Y-105381000I0J-151000D01*
G01*
X152358000Y-105581000D01*
G75*
G02*
X152207000Y-105732000I-151000J0D01*
G01*
X150932000Y-105732000D01*
G75*
G02*
X150781000Y-105581000I0J151000D01*
G01*
G37*
G36*
G01*
X150781000Y-104931000D02*
X150781000Y-104731000D01*
G75*
G02*
X150932000Y-104580000I151000J0D01*
G01*
X152207000Y-104580000D01*
G75*
G02*
X152358000Y-104731000I0J-151000D01*
G01*
X152358000Y-104931000D01*
G75*
G02*
X152207000Y-105082000I-151000J0D01*
G01*
X150932000Y-105082000D01*
G75*
G02*
X150781000Y-104931000I0J151000D01*
G01*
G37*
G36*
G01*
X150781000Y-104281000D02*
X150781000Y-104081000D01*
G75*
G02*
X150932000Y-103930000I151000J0D01*
G01*
X152207000Y-103930000D01*
G75*
G02*
X152358000Y-104081000I0J-151000D01*
G01*
X152358000Y-104281000D01*
G75*
G02*
X152207000Y-104432000I-151000J0D01*
G01*
X150932000Y-104432000D01*
G75*
G02*
X150781000Y-104281000I0J151000D01*
G01*
G37*
G36*
G01*
X150781000Y-103631000D02*
X150781000Y-103431000D01*
G75*
G02*
X150932000Y-103280000I151000J0D01*
G01*
X152207000Y-103280000D01*
G75*
G02*
X152358000Y-103431000I0J-151000D01*
G01*
X152358000Y-103631000D01*
G75*
G02*
X152207000Y-103782000I-151000J0D01*
G01*
X150932000Y-103782000D01*
G75*
G02*
X150781000Y-103631000I0J151000D01*
G01*
G37*
G36*
G01*
X150781000Y-102981000D02*
X150781000Y-102781000D01*
G75*
G02*
X150932000Y-102630000I151000J0D01*
G01*
X152207000Y-102630000D01*
G75*
G02*
X152358000Y-102781000I0J-151000D01*
G01*
X152358000Y-102981000D01*
G75*
G02*
X152207000Y-103132000I-151000J0D01*
G01*
X150932000Y-103132000D01*
G75*
G02*
X150781000Y-102981000I0J151000D01*
G01*
G37*
G36*
G01*
X150781000Y-102331000D02*
X150781000Y-102131000D01*
G75*
G02*
X150932000Y-101980000I151000J0D01*
G01*
X152207000Y-101980000D01*
G75*
G02*
X152358000Y-102131000I0J-151000D01*
G01*
X152358000Y-102331000D01*
G75*
G02*
X152207000Y-102482000I-151000J0D01*
G01*
X150932000Y-102482000D01*
G75*
G02*
X150781000Y-102331000I0J151000D01*
G01*
G37*
G36*
G01*
X156506000Y-102331000D02*
X156506000Y-102131000D01*
G75*
G02*
X156657000Y-101980000I151000J0D01*
G01*
X157932000Y-101980000D01*
G75*
G02*
X158083000Y-102131000I0J-151000D01*
G01*
X158083000Y-102331000D01*
G75*
G02*
X157932000Y-102482000I-151000J0D01*
G01*
X156657000Y-102482000D01*
G75*
G02*
X156506000Y-102331000I0J151000D01*
G01*
G37*
G36*
G01*
X156506000Y-102981000D02*
X156506000Y-102781000D01*
G75*
G02*
X156657000Y-102630000I151000J0D01*
G01*
X157932000Y-102630000D01*
G75*
G02*
X158083000Y-102781000I0J-151000D01*
G01*
X158083000Y-102981000D01*
G75*
G02*
X157932000Y-103132000I-151000J0D01*
G01*
X156657000Y-103132000D01*
G75*
G02*
X156506000Y-102981000I0J151000D01*
G01*
G37*
G36*
G01*
X156506000Y-103631000D02*
X156506000Y-103431000D01*
G75*
G02*
X156657000Y-103280000I151000J0D01*
G01*
X157932000Y-103280000D01*
G75*
G02*
X158083000Y-103431000I0J-151000D01*
G01*
X158083000Y-103631000D01*
G75*
G02*
X157932000Y-103782000I-151000J0D01*
G01*
X156657000Y-103782000D01*
G75*
G02*
X156506000Y-103631000I0J151000D01*
G01*
G37*
G36*
G01*
X156506000Y-104281000D02*
X156506000Y-104081000D01*
G75*
G02*
X156657000Y-103930000I151000J0D01*
G01*
X157932000Y-103930000D01*
G75*
G02*
X158083000Y-104081000I0J-151000D01*
G01*
X158083000Y-104281000D01*
G75*
G02*
X157932000Y-104432000I-151000J0D01*
G01*
X156657000Y-104432000D01*
G75*
G02*
X156506000Y-104281000I0J151000D01*
G01*
G37*
G36*
G01*
X156506000Y-104931000D02*
X156506000Y-104731000D01*
G75*
G02*
X156657000Y-104580000I151000J0D01*
G01*
X157932000Y-104580000D01*
G75*
G02*
X158083000Y-104731000I0J-151000D01*
G01*
X158083000Y-104931000D01*
G75*
G02*
X157932000Y-105082000I-151000J0D01*
G01*
X156657000Y-105082000D01*
G75*
G02*
X156506000Y-104931000I0J151000D01*
G01*
G37*
G36*
G01*
X156506000Y-105581000D02*
X156506000Y-105381000D01*
G75*
G02*
X156657000Y-105230000I151000J0D01*
G01*
X157932000Y-105230000D01*
G75*
G02*
X158083000Y-105381000I0J-151000D01*
G01*
X158083000Y-105581000D01*
G75*
G02*
X157932000Y-105732000I-151000J0D01*
G01*
X156657000Y-105732000D01*
G75*
G02*
X156506000Y-105581000I0J151000D01*
G01*
G37*
G36*
G01*
X156506000Y-106231000D02*
X156506000Y-106031000D01*
G75*
G02*
X156657000Y-105880000I151000J0D01*
G01*
X157932000Y-105880000D01*
G75*
G02*
X158083000Y-106031000I0J-151000D01*
G01*
X158083000Y-106231000D01*
G75*
G02*
X157932000Y-106382000I-151000J0D01*
G01*
X156657000Y-106382000D01*
G75*
G02*
X156506000Y-106231000I0J151000D01*
G01*
G37*
G36*
G01*
X156506000Y-106881000D02*
X156506000Y-106681000D01*
G75*
G02*
X156657000Y-106530000I151000J0D01*
G01*
X157932000Y-106530000D01*
G75*
G02*
X158083000Y-106681000I0J-151000D01*
G01*
X158083000Y-106881000D01*
G75*
G02*
X157932000Y-107032000I-151000J0D01*
G01*
X156657000Y-107032000D01*
G75*
G02*
X156506000Y-106881000I0J151000D01*
G01*
G37*
G36*
G01*
X156506000Y-107531000D02*
X156506000Y-107331000D01*
G75*
G02*
X156657000Y-107180000I151000J0D01*
G01*
X157932000Y-107180000D01*
G75*
G02*
X158083000Y-107331000I0J-151000D01*
G01*
X158083000Y-107531000D01*
G75*
G02*
X157932000Y-107682000I-151000J0D01*
G01*
X156657000Y-107682000D01*
G75*
G02*
X156506000Y-107531000I0J151000D01*
G01*
G37*
G36*
G01*
X156506000Y-108181000D02*
X156506000Y-107981000D01*
G75*
G02*
X156657000Y-107830000I151000J0D01*
G01*
X157932000Y-107830000D01*
G75*
G02*
X158083000Y-107981000I0J-151000D01*
G01*
X158083000Y-108181000D01*
G75*
G02*
X157932000Y-108332000I-151000J0D01*
G01*
X156657000Y-108332000D01*
G75*
G02*
X156506000Y-108181000I0J151000D01*
G01*
G37*
G36*
G01*
X145089000Y-84605000D02*
X145089000Y-84305000D01*
G75*
G02*
X145290000Y-84104000I201000J0D01*
G01*
X146940000Y-84104000D01*
G75*
G02*
X147141000Y-84305000I0J-201000D01*
G01*
X147141000Y-84605000D01*
G75*
G02*
X146940000Y-84806000I-201000J0D01*
G01*
X145290000Y-84806000D01*
G75*
G02*
X145089000Y-84605000I0J201000D01*
G01*
G37*
G36*
G01*
X145089000Y-83335000D02*
X145089000Y-83035000D01*
G75*
G02*
X145290000Y-82834000I201000J0D01*
G01*
X146940000Y-82834000D01*
G75*
G02*
X147141000Y-83035000I0J-201000D01*
G01*
X147141000Y-83335000D01*
G75*
G02*
X146940000Y-83536000I-201000J0D01*
G01*
X145290000Y-83536000D01*
G75*
G02*
X145089000Y-83335000I0J201000D01*
G01*
G37*
G36*
G01*
X145089000Y-82065000D02*
X145089000Y-81765000D01*
G75*
G02*
X145290000Y-81564000I201000J0D01*
G01*
X146940000Y-81564000D01*
G75*
G02*
X147141000Y-81765000I0J-201000D01*
G01*
X147141000Y-82065000D01*
G75*
G02*
X146940000Y-82266000I-201000J0D01*
G01*
X145290000Y-82266000D01*
G75*
G02*
X145089000Y-82065000I0J201000D01*
G01*
G37*
G36*
G01*
X145089000Y-80795000D02*
X145089000Y-80495000D01*
G75*
G02*
X145290000Y-80294000I201000J0D01*
G01*
X146940000Y-80294000D01*
G75*
G02*
X147141000Y-80495000I0J-201000D01*
G01*
X147141000Y-80795000D01*
G75*
G02*
X146940000Y-80996000I-201000J0D01*
G01*
X145290000Y-80996000D01*
G75*
G02*
X145089000Y-80795000I0J201000D01*
G01*
G37*
G36*
G01*
X150039000Y-80795000D02*
X150039000Y-80495000D01*
G75*
G02*
X150240000Y-80294000I201000J0D01*
G01*
X151890000Y-80294000D01*
G75*
G02*
X152091000Y-80495000I0J-201000D01*
G01*
X152091000Y-80795000D01*
G75*
G02*
X151890000Y-80996000I-201000J0D01*
G01*
X150240000Y-80996000D01*
G75*
G02*
X150039000Y-80795000I0J201000D01*
G01*
G37*
G36*
G01*
X150039000Y-82065000D02*
X150039000Y-81765000D01*
G75*
G02*
X150240000Y-81564000I201000J0D01*
G01*
X151890000Y-81564000D01*
G75*
G02*
X152091000Y-81765000I0J-201000D01*
G01*
X152091000Y-82065000D01*
G75*
G02*
X151890000Y-82266000I-201000J0D01*
G01*
X150240000Y-82266000D01*
G75*
G02*
X150039000Y-82065000I0J201000D01*
G01*
G37*
G36*
G01*
X150039000Y-83335000D02*
X150039000Y-83035000D01*
G75*
G02*
X150240000Y-82834000I201000J0D01*
G01*
X151890000Y-82834000D01*
G75*
G02*
X152091000Y-83035000I0J-201000D01*
G01*
X152091000Y-83335000D01*
G75*
G02*
X151890000Y-83536000I-201000J0D01*
G01*
X150240000Y-83536000D01*
G75*
G02*
X150039000Y-83335000I0J201000D01*
G01*
G37*
G36*
G01*
X150039000Y-84605000D02*
X150039000Y-84305000D01*
G75*
G02*
X150240000Y-84104000I201000J0D01*
G01*
X151890000Y-84104000D01*
G75*
G02*
X152091000Y-84305000I0J-201000D01*
G01*
X152091000Y-84605000D01*
G75*
G02*
X151890000Y-84806000I-201000J0D01*
G01*
X150240000Y-84806000D01*
G75*
G02*
X150039000Y-84605000I0J201000D01*
G01*
G37*
G36*
G01*
X160268000Y-100605000D02*
X160268000Y-100055000D01*
G75*
G02*
X160519000Y-99804000I251000J0D01*
G01*
X160919000Y-99804000D01*
G75*
G02*
X161170000Y-100055000I0J-251000D01*
G01*
X161170000Y-100605000D01*
G75*
G02*
X160919000Y-100856000I-251000J0D01*
G01*
X160519000Y-100856000D01*
G75*
G02*
X160268000Y-100605000I0J251000D01*
G01*
G37*
G36*
G01*
X161918000Y-100605000D02*
X161918000Y-100055000D01*
G75*
G02*
X162169000Y-99804000I251000J0D01*
G01*
X162569000Y-99804000D01*
G75*
G02*
X162820000Y-100055000I0J-251000D01*
G01*
X162820000Y-100605000D01*
G75*
G02*
X162569000Y-100856000I-251000J0D01*
G01*
X162169000Y-100856000D01*
G75*
G02*
X161918000Y-100605000I0J251000D01*
G01*
G37*
G36*
G01*
X164586000Y-136165000D02*
X164586000Y-135615000D01*
G75*
G02*
X164837000Y-135364000I251000J0D01*
G01*
X165237000Y-135364000D01*
G75*
G02*
X165488000Y-135615000I0J-251000D01*
G01*
X165488000Y-136165000D01*
G75*
G02*
X165237000Y-136416000I-251000J0D01*
G01*
X164837000Y-136416000D01*
G75*
G02*
X164586000Y-136165000I0J251000D01*
G01*
G37*
G36*
G01*
X166236000Y-136165000D02*
X166236000Y-135615000D01*
G75*
G02*
X166487000Y-135364000I251000J0D01*
G01*
X166887000Y-135364000D01*
G75*
G02*
X167138000Y-135615000I0J-251000D01*
G01*
X167138000Y-136165000D01*
G75*
G02*
X166887000Y-136416000I-251000J0D01*
G01*
X166487000Y-136416000D01*
G75*
G02*
X166236000Y-136165000I0J251000D01*
G01*
G37*
G36*
G01*
X148596000Y-135615000D02*
X148596000Y-136165000D01*
G75*
G02*
X148345000Y-136416000I-251000J0D01*
G01*
X147945000Y-136416000D01*
G75*
G02*
X147694000Y-136165000I0J251000D01*
G01*
X147694000Y-135615000D01*
G75*
G02*
X147945000Y-135364000I251000J0D01*
G01*
X148345000Y-135364000D01*
G75*
G02*
X148596000Y-135615000I0J-251000D01*
G01*
G37*
G36*
G01*
X146946000Y-135615000D02*
X146946000Y-136165000D01*
G75*
G02*
X146695000Y-136416000I-251000J0D01*
G01*
X146295000Y-136416000D01*
G75*
G02*
X146044000Y-136165000I0J251000D01*
G01*
X146044000Y-135615000D01*
G75*
G02*
X146295000Y-135364000I251000J0D01*
G01*
X146695000Y-135364000D01*
G75*
G02*
X146946000Y-135615000I0J-251000D01*
G01*
G37*
G36*
G01*
X164586000Y-100605000D02*
X164586000Y-100055000D01*
G75*
G02*
X164837000Y-99804000I251000J0D01*
G01*
X165237000Y-99804000D01*
G75*
G02*
X165488000Y-100055000I0J-251000D01*
G01*
X165488000Y-100605000D01*
G75*
G02*
X165237000Y-100856000I-251000J0D01*
G01*
X164837000Y-100856000D01*
G75*
G02*
X164586000Y-100605000I0J251000D01*
G01*
G37*
G36*
G01*
X166236000Y-100605000D02*
X166236000Y-100055000D01*
G75*
G02*
X166487000Y-99804000I251000J0D01*
G01*
X166887000Y-99804000D01*
G75*
G02*
X167138000Y-100055000I0J-251000D01*
G01*
X167138000Y-100605000D01*
G75*
G02*
X166887000Y-100856000I-251000J0D01*
G01*
X166487000Y-100856000D01*
G75*
G02*
X166236000Y-100605000I0J251000D01*
G01*
G37*
D14*
X146558000Y-73112000D03*
X146558000Y-68112000D03*
G36*
G01*
X148596000Y-129011000D02*
X148596000Y-129561000D01*
G75*
G02*
X148345000Y-129812000I-251000J0D01*
G01*
X147945000Y-129812000D01*
G75*
G02*
X147694000Y-129561000I0J251000D01*
G01*
X147694000Y-129011000D01*
G75*
G02*
X147945000Y-128760000I251000J0D01*
G01*
X148345000Y-128760000D01*
G75*
G02*
X148596000Y-129011000I0J-251000D01*
G01*
G37*
G36*
G01*
X146946000Y-129011000D02*
X146946000Y-129561000D01*
G75*
G02*
X146695000Y-129812000I-251000J0D01*
G01*
X146295000Y-129812000D01*
G75*
G02*
X146044000Y-129561000I0J251000D01*
G01*
X146044000Y-129011000D01*
G75*
G02*
X146295000Y-128760000I251000J0D01*
G01*
X146695000Y-128760000D01*
G75*
G02*
X146946000Y-129011000I0J-251000D01*
G01*
G37*
G36*
G01*
X160268000Y-126259000D02*
X160268000Y-125709000D01*
G75*
G02*
X160519000Y-125458000I251000J0D01*
G01*
X160919000Y-125458000D01*
G75*
G02*
X161170000Y-125709000I0J-251000D01*
G01*
X161170000Y-126259000D01*
G75*
G02*
X160919000Y-126510000I-251000J0D01*
G01*
X160519000Y-126510000D01*
G75*
G02*
X160268000Y-126259000I0J251000D01*
G01*
G37*
G36*
G01*
X161918000Y-126259000D02*
X161918000Y-125709000D01*
G75*
G02*
X162169000Y-125458000I251000J0D01*
G01*
X162569000Y-125458000D01*
G75*
G02*
X162820000Y-125709000I0J-251000D01*
G01*
X162820000Y-126259000D01*
G75*
G02*
X162569000Y-126510000I-251000J0D01*
G01*
X162169000Y-126510000D01*
G75*
G02*
X161918000Y-126259000I0J251000D01*
G01*
G37*
G36*
G01*
X164361000Y-120109000D02*
X164361000Y-119159000D01*
G75*
G02*
X164662000Y-118858000I301000J0D01*
G01*
X165162000Y-118858000D01*
G75*
G02*
X165463000Y-119159000I0J-301000D01*
G01*
X165463000Y-120109000D01*
G75*
G02*
X165162000Y-120410000I-301000J0D01*
G01*
X164662000Y-120410000D01*
G75*
G02*
X164361000Y-120109000I0J301000D01*
G01*
G37*
G36*
G01*
X166261000Y-120109000D02*
X166261000Y-119159000D01*
G75*
G02*
X166562000Y-118858000I301000J0D01*
G01*
X167062000Y-118858000D01*
G75*
G02*
X167363000Y-119159000I0J-301000D01*
G01*
X167363000Y-120109000D01*
G75*
G02*
X167062000Y-120410000I-301000J0D01*
G01*
X166562000Y-120410000D01*
G75*
G02*
X166261000Y-120109000I0J301000D01*
G01*
G37*
G36*
G01*
X148596000Y-109707000D02*
X148596000Y-110257000D01*
G75*
G02*
X148345000Y-110508000I-251000J0D01*
G01*
X147945000Y-110508000D01*
G75*
G02*
X147694000Y-110257000I0J251000D01*
G01*
X147694000Y-109707000D01*
G75*
G02*
X147945000Y-109456000I251000J0D01*
G01*
X148345000Y-109456000D01*
G75*
G02*
X148596000Y-109707000I0J-251000D01*
G01*
G37*
G36*
G01*
X146946000Y-109707000D02*
X146946000Y-110257000D01*
G75*
G02*
X146695000Y-110508000I-251000J0D01*
G01*
X146295000Y-110508000D01*
G75*
G02*
X146044000Y-110257000I0J251000D01*
G01*
X146044000Y-109707000D01*
G75*
G02*
X146295000Y-109456000I251000J0D01*
G01*
X146695000Y-109456000D01*
G75*
G02*
X146946000Y-109707000I0J-251000D01*
G01*
G37*
G36*
G01*
X134993000Y-113954000D02*
X134993000Y-115154000D01*
G75*
G02*
X134942000Y-115205000I-51000J0D01*
G01*
X134042000Y-115205000D01*
G75*
G02*
X133991000Y-115154000I0J51000D01*
G01*
X133991000Y-113954000D01*
G75*
G02*
X134042000Y-113903000I51000J0D01*
G01*
X134942000Y-113903000D01*
G75*
G02*
X134993000Y-113954000I0J-51000D01*
G01*
G37*
G36*
G01*
X131693000Y-113954000D02*
X131693000Y-115154000D01*
G75*
G02*
X131642000Y-115205000I-51000J0D01*
G01*
X130742000Y-115205000D01*
G75*
G02*
X130691000Y-115154000I0J51000D01*
G01*
X130691000Y-113954000D01*
G75*
G02*
X130742000Y-113903000I51000J0D01*
G01*
X131642000Y-113903000D01*
G75*
G02*
X131693000Y-113954000I0J-51000D01*
G01*
G37*
G36*
G01*
X138944000Y-114025000D02*
X138944000Y-114575000D01*
G75*
G02*
X138693000Y-114826000I-251000J0D01*
G01*
X138293000Y-114826000D01*
G75*
G02*
X138042000Y-114575000I0J251000D01*
G01*
X138042000Y-114025000D01*
G75*
G02*
X138293000Y-113774000I251000J0D01*
G01*
X138693000Y-113774000D01*
G75*
G02*
X138944000Y-114025000I0J-251000D01*
G01*
G37*
G36*
G01*
X137294000Y-114025000D02*
X137294000Y-114575000D01*
G75*
G02*
X137043000Y-114826000I-251000J0D01*
G01*
X136643000Y-114826000D01*
G75*
G02*
X136392000Y-114575000I0J251000D01*
G01*
X136392000Y-114025000D01*
G75*
G02*
X136643000Y-113774000I251000J0D01*
G01*
X137043000Y-113774000D01*
G75*
G02*
X137294000Y-114025000I0J-251000D01*
G01*
G37*
G36*
G01*
X154934000Y-82825000D02*
X154934000Y-82275000D01*
G75*
G02*
X155185000Y-82024000I251000J0D01*
G01*
X155585000Y-82024000D01*
G75*
G02*
X155836000Y-82275000I0J-251000D01*
G01*
X155836000Y-82825000D01*
G75*
G02*
X155585000Y-83076000I-251000J0D01*
G01*
X155185000Y-83076000D01*
G75*
G02*
X154934000Y-82825000I0J251000D01*
G01*
G37*
G36*
G01*
X156584000Y-82825000D02*
X156584000Y-82275000D01*
G75*
G02*
X156835000Y-82024000I251000J0D01*
G01*
X157235000Y-82024000D01*
G75*
G02*
X157486000Y-82275000I0J-251000D01*
G01*
X157486000Y-82825000D01*
G75*
G02*
X157235000Y-83076000I-251000J0D01*
G01*
X156835000Y-83076000D01*
G75*
G02*
X156584000Y-82825000I0J251000D01*
G01*
G37*
G36*
G01*
X148596000Y-122661000D02*
X148596000Y-123211000D01*
G75*
G02*
X148345000Y-123462000I-251000J0D01*
G01*
X147945000Y-123462000D01*
G75*
G02*
X147694000Y-123211000I0J251000D01*
G01*
X147694000Y-122661000D01*
G75*
G02*
X147945000Y-122410000I251000J0D01*
G01*
X148345000Y-122410000D01*
G75*
G02*
X148596000Y-122661000I0J-251000D01*
G01*
G37*
G36*
G01*
X146946000Y-122661000D02*
X146946000Y-123211000D01*
G75*
G02*
X146695000Y-123462000I-251000J0D01*
G01*
X146295000Y-123462000D01*
G75*
G02*
X146044000Y-123211000I0J251000D01*
G01*
X146044000Y-122661000D01*
G75*
G02*
X146295000Y-122410000I251000J0D01*
G01*
X146695000Y-122410000D01*
G75*
G02*
X146946000Y-122661000I0J-251000D01*
G01*
G37*
G36*
G01*
X144278000Y-106405000D02*
X144278000Y-106955000D01*
G75*
G02*
X144027000Y-107206000I-251000J0D01*
G01*
X143627000Y-107206000D01*
G75*
G02*
X143376000Y-106955000I0J251000D01*
G01*
X143376000Y-106405000D01*
G75*
G02*
X143627000Y-106154000I251000J0D01*
G01*
X144027000Y-106154000D01*
G75*
G02*
X144278000Y-106405000I0J-251000D01*
G01*
G37*
G36*
G01*
X142628000Y-106405000D02*
X142628000Y-106955000D01*
G75*
G02*
X142377000Y-107206000I-251000J0D01*
G01*
X141977000Y-107206000D01*
G75*
G02*
X141726000Y-106955000I0J251000D01*
G01*
X141726000Y-106405000D01*
G75*
G02*
X141977000Y-106154000I251000J0D01*
G01*
X142377000Y-106154000D01*
G75*
G02*
X142628000Y-106405000I0J-251000D01*
G01*
G37*
G36*
G01*
X131832000Y-138663000D02*
X131832000Y-139213000D01*
G75*
G02*
X131581000Y-139464000I-251000J0D01*
G01*
X131181000Y-139464000D01*
G75*
G02*
X130930000Y-139213000I0J251000D01*
G01*
X130930000Y-138663000D01*
G75*
G02*
X131181000Y-138412000I251000J0D01*
G01*
X131581000Y-138412000D01*
G75*
G02*
X131832000Y-138663000I0J-251000D01*
G01*
G37*
G36*
G01*
X130182000Y-138663000D02*
X130182000Y-139213000D01*
G75*
G02*
X129931000Y-139464000I-251000J0D01*
G01*
X129531000Y-139464000D01*
G75*
G02*
X129280000Y-139213000I0J251000D01*
G01*
X129280000Y-138663000D01*
G75*
G02*
X129531000Y-138412000I251000J0D01*
G01*
X129931000Y-138412000D01*
G75*
G02*
X130182000Y-138663000I0J-251000D01*
G01*
G37*
G36*
G01*
X146044000Y-119909000D02*
X146044000Y-119359000D01*
G75*
G02*
X146295000Y-119108000I251000J0D01*
G01*
X146695000Y-119108000D01*
G75*
G02*
X146946000Y-119359000I0J-251000D01*
G01*
X146946000Y-119909000D01*
G75*
G02*
X146695000Y-120160000I-251000J0D01*
G01*
X146295000Y-120160000D01*
G75*
G02*
X146044000Y-119909000I0J251000D01*
G01*
G37*
G36*
G01*
X147694000Y-119909000D02*
X147694000Y-119359000D01*
G75*
G02*
X147945000Y-119108000I251000J0D01*
G01*
X148345000Y-119108000D01*
G75*
G02*
X148596000Y-119359000I0J-251000D01*
G01*
X148596000Y-119909000D01*
G75*
G02*
X148345000Y-120160000I-251000J0D01*
G01*
X147945000Y-120160000D01*
G75*
G02*
X147694000Y-119909000I0J251000D01*
G01*
G37*
G36*
G01*
X146044000Y-106955000D02*
X146044000Y-106405000D01*
G75*
G02*
X146295000Y-106154000I251000J0D01*
G01*
X146695000Y-106154000D01*
G75*
G02*
X146946000Y-106405000I0J-251000D01*
G01*
X146946000Y-106955000D01*
G75*
G02*
X146695000Y-107206000I-251000J0D01*
G01*
X146295000Y-107206000D01*
G75*
G02*
X146044000Y-106955000I0J251000D01*
G01*
G37*
G36*
G01*
X147694000Y-106955000D02*
X147694000Y-106405000D01*
G75*
G02*
X147945000Y-106154000I251000J0D01*
G01*
X148345000Y-106154000D01*
G75*
G02*
X148596000Y-106405000I0J-251000D01*
G01*
X148596000Y-106955000D01*
G75*
G02*
X148345000Y-107206000I-251000J0D01*
G01*
X147945000Y-107206000D01*
G75*
G02*
X147694000Y-106955000I0J251000D01*
G01*
G37*
G36*
G01*
X164361000Y-133317000D02*
X164361000Y-132367000D01*
G75*
G02*
X164662000Y-132066000I301000J0D01*
G01*
X165162000Y-132066000D01*
G75*
G02*
X165463000Y-132367000I0J-301000D01*
G01*
X165463000Y-133317000D01*
G75*
G02*
X165162000Y-133618000I-301000J0D01*
G01*
X164662000Y-133618000D01*
G75*
G02*
X164361000Y-133317000I0J301000D01*
G01*
G37*
G36*
G01*
X166261000Y-133317000D02*
X166261000Y-132367000D01*
G75*
G02*
X166562000Y-132066000I301000J0D01*
G01*
X167062000Y-132066000D01*
G75*
G02*
X167363000Y-132367000I0J-301000D01*
G01*
X167363000Y-133317000D01*
G75*
G02*
X167062000Y-133618000I-301000J0D01*
G01*
X166562000Y-133618000D01*
G75*
G02*
X166261000Y-133317000I0J301000D01*
G01*
G37*
G36*
G01*
X148596000Y-125709000D02*
X148596000Y-126259000D01*
G75*
G02*
X148345000Y-126510000I-251000J0D01*
G01*
X147945000Y-126510000D01*
G75*
G02*
X147694000Y-126259000I0J251000D01*
G01*
X147694000Y-125709000D01*
G75*
G02*
X147945000Y-125458000I251000J0D01*
G01*
X148345000Y-125458000D01*
G75*
G02*
X148596000Y-125709000I0J-251000D01*
G01*
G37*
G36*
G01*
X146946000Y-125709000D02*
X146946000Y-126259000D01*
G75*
G02*
X146695000Y-126510000I-251000J0D01*
G01*
X146295000Y-126510000D01*
G75*
G02*
X146044000Y-126259000I0J251000D01*
G01*
X146044000Y-125709000D01*
G75*
G02*
X146295000Y-125458000I251000J0D01*
G01*
X146695000Y-125458000D01*
G75*
G02*
X146946000Y-125709000I0J-251000D01*
G01*
G37*
G36*
G01*
X148596000Y-116057000D02*
X148596000Y-116607000D01*
G75*
G02*
X148345000Y-116858000I-251000J0D01*
G01*
X147945000Y-116858000D01*
G75*
G02*
X147694000Y-116607000I0J251000D01*
G01*
X147694000Y-116057000D01*
G75*
G02*
X147945000Y-115806000I251000J0D01*
G01*
X148345000Y-115806000D01*
G75*
G02*
X148596000Y-116057000I0J-251000D01*
G01*
G37*
G36*
G01*
X146946000Y-116057000D02*
X146946000Y-116607000D01*
G75*
G02*
X146695000Y-116858000I-251000J0D01*
G01*
X146295000Y-116858000D01*
G75*
G02*
X146044000Y-116607000I0J251000D01*
G01*
X146044000Y-116057000D01*
G75*
G02*
X146295000Y-115806000I251000J0D01*
G01*
X146695000Y-115806000D01*
G75*
G02*
X146946000Y-116057000I0J-251000D01*
G01*
G37*
G36*
G01*
X143040000Y-52413000D02*
X141440000Y-52413000D01*
G75*
G02*
X141389000Y-52362000I0J51000D01*
G01*
X141389000Y-50762000D01*
G75*
G02*
X141440000Y-50711000I51000J0D01*
G01*
X143040000Y-50711000D01*
G75*
G02*
X143091000Y-50762000I0J-51000D01*
G01*
X143091000Y-52362000D01*
G75*
G02*
X143040000Y-52413000I-51000J0D01*
G01*
G37*
X142240000Y-49062000D03*
G36*
G01*
X162820000Y-103103000D02*
X162820000Y-103653000D01*
G75*
G02*
X162569000Y-103904000I-251000J0D01*
G01*
X162169000Y-103904000D01*
G75*
G02*
X161918000Y-103653000I0J251000D01*
G01*
X161918000Y-103103000D01*
G75*
G02*
X162169000Y-102852000I251000J0D01*
G01*
X162569000Y-102852000D01*
G75*
G02*
X162820000Y-103103000I0J-251000D01*
G01*
G37*
G36*
G01*
X161170000Y-103103000D02*
X161170000Y-103653000D01*
G75*
G02*
X160919000Y-103904000I-251000J0D01*
G01*
X160519000Y-103904000D01*
G75*
G02*
X160268000Y-103653000I0J251000D01*
G01*
X160268000Y-103103000D01*
G75*
G02*
X160519000Y-102852000I251000J0D01*
G01*
X160919000Y-102852000D01*
G75*
G02*
X161170000Y-103103000I0J-251000D01*
G01*
G37*
G36*
G01*
X140202000Y-70633000D02*
X140202000Y-70083000D01*
G75*
G02*
X140453000Y-69832000I251000J0D01*
G01*
X140853000Y-69832000D01*
G75*
G02*
X141104000Y-70083000I0J-251000D01*
G01*
X141104000Y-70633000D01*
G75*
G02*
X140853000Y-70884000I-251000J0D01*
G01*
X140453000Y-70884000D01*
G75*
G02*
X140202000Y-70633000I0J251000D01*
G01*
G37*
G36*
G01*
X141852000Y-70633000D02*
X141852000Y-70083000D01*
G75*
G02*
X142103000Y-69832000I251000J0D01*
G01*
X142503000Y-69832000D01*
G75*
G02*
X142754000Y-70083000I0J-251000D01*
G01*
X142754000Y-70633000D01*
G75*
G02*
X142503000Y-70884000I-251000J0D01*
G01*
X142103000Y-70884000D01*
G75*
G02*
X141852000Y-70633000I0J251000D01*
G01*
G37*
X128778000Y-133350000D03*
X133778000Y-133350000D03*
G36*
G01*
X128022000Y-70083000D02*
X128022000Y-70633000D01*
G75*
G02*
X127771000Y-70884000I-251000J0D01*
G01*
X127371000Y-70884000D01*
G75*
G02*
X127120000Y-70633000I0J251000D01*
G01*
X127120000Y-70083000D01*
G75*
G02*
X127371000Y-69832000I251000J0D01*
G01*
X127771000Y-69832000D01*
G75*
G02*
X128022000Y-70083000I0J-251000D01*
G01*
G37*
G36*
G01*
X126372000Y-70083000D02*
X126372000Y-70633000D01*
G75*
G02*
X126121000Y-70884000I-251000J0D01*
G01*
X125721000Y-70884000D01*
G75*
G02*
X125470000Y-70633000I0J251000D01*
G01*
X125470000Y-70083000D01*
G75*
G02*
X125721000Y-69832000I251000J0D01*
G01*
X126121000Y-69832000D01*
G75*
G02*
X126372000Y-70083000I0J-251000D01*
G01*
G37*
G36*
G01*
X160268000Y-106955000D02*
X160268000Y-106405000D01*
G75*
G02*
X160519000Y-106154000I251000J0D01*
G01*
X160919000Y-106154000D01*
G75*
G02*
X161170000Y-106405000I0J-251000D01*
G01*
X161170000Y-106955000D01*
G75*
G02*
X160919000Y-107206000I-251000J0D01*
G01*
X160519000Y-107206000D01*
G75*
G02*
X160268000Y-106955000I0J251000D01*
G01*
G37*
G36*
G01*
X161918000Y-106955000D02*
X161918000Y-106405000D01*
G75*
G02*
X162169000Y-106154000I251000J0D01*
G01*
X162569000Y-106154000D01*
G75*
G02*
X162820000Y-106405000I0J-251000D01*
G01*
X162820000Y-106955000D01*
G75*
G02*
X162569000Y-107206000I-251000J0D01*
G01*
X162169000Y-107206000D01*
G75*
G02*
X161918000Y-106955000I0J251000D01*
G01*
G37*
G36*
G01*
X138944000Y-110977000D02*
X138944000Y-111527000D01*
G75*
G02*
X138693000Y-111778000I-251000J0D01*
G01*
X138293000Y-111778000D01*
G75*
G02*
X138042000Y-111527000I0J251000D01*
G01*
X138042000Y-110977000D01*
G75*
G02*
X138293000Y-110726000I251000J0D01*
G01*
X138693000Y-110726000D01*
G75*
G02*
X138944000Y-110977000I0J-251000D01*
G01*
G37*
G36*
G01*
X137294000Y-110977000D02*
X137294000Y-111527000D01*
G75*
G02*
X137043000Y-111778000I-251000J0D01*
G01*
X136643000Y-111778000D01*
G75*
G02*
X136392000Y-111527000I0J251000D01*
G01*
X136392000Y-110977000D01*
G75*
G02*
X136643000Y-110726000I251000J0D01*
G01*
X137043000Y-110726000D01*
G75*
G02*
X137294000Y-110977000I0J-251000D01*
G01*
G37*
G36*
G01*
X140202000Y-89404000D02*
X140202000Y-88904000D01*
G75*
G02*
X140478000Y-88628000I276000J0D01*
G01*
X140928000Y-88628000D01*
G75*
G02*
X141204000Y-88904000I0J-276000D01*
G01*
X141204000Y-89404000D01*
G75*
G02*
X140928000Y-89680000I-276000J0D01*
G01*
X140478000Y-89680000D01*
G75*
G02*
X140202000Y-89404000I0J276000D01*
G01*
G37*
G36*
G01*
X141752000Y-89404000D02*
X141752000Y-88904000D01*
G75*
G02*
X142028000Y-88628000I276000J0D01*
G01*
X142478000Y-88628000D01*
G75*
G02*
X142754000Y-88904000I0J-276000D01*
G01*
X142754000Y-89404000D01*
G75*
G02*
X142478000Y-89680000I-276000J0D01*
G01*
X142028000Y-89680000D01*
G75*
G02*
X141752000Y-89404000I0J276000D01*
G01*
G37*
G36*
G01*
X142754000Y-82275000D02*
X142754000Y-82825000D01*
G75*
G02*
X142503000Y-83076000I-251000J0D01*
G01*
X142103000Y-83076000D01*
G75*
G02*
X141852000Y-82825000I0J251000D01*
G01*
X141852000Y-82275000D01*
G75*
G02*
X142103000Y-82024000I251000J0D01*
G01*
X142503000Y-82024000D01*
G75*
G02*
X142754000Y-82275000I0J-251000D01*
G01*
G37*
G36*
G01*
X141104000Y-82275000D02*
X141104000Y-82825000D01*
G75*
G02*
X140853000Y-83076000I-251000J0D01*
G01*
X140453000Y-83076000D01*
G75*
G02*
X140202000Y-82825000I0J251000D01*
G01*
X140202000Y-82275000D01*
G75*
G02*
X140453000Y-82024000I251000J0D01*
G01*
X140853000Y-82024000D01*
G75*
G02*
X141104000Y-82275000I0J-251000D01*
G01*
G37*
G36*
G01*
X126486000Y-122424000D02*
X126486000Y-121924000D01*
G75*
G02*
X126762000Y-121648000I276000J0D01*
G01*
X127212000Y-121648000D01*
G75*
G02*
X127488000Y-121924000I0J-276000D01*
G01*
X127488000Y-122424000D01*
G75*
G02*
X127212000Y-122700000I-276000J0D01*
G01*
X126762000Y-122700000D01*
G75*
G02*
X126486000Y-122424000I0J276000D01*
G01*
G37*
G36*
G01*
X128036000Y-122424000D02*
X128036000Y-121924000D01*
G75*
G02*
X128312000Y-121648000I276000J0D01*
G01*
X128762000Y-121648000D01*
G75*
G02*
X129038000Y-121924000I0J-276000D01*
G01*
X129038000Y-122424000D01*
G75*
G02*
X128762000Y-122700000I-276000J0D01*
G01*
X128312000Y-122700000D01*
G75*
G02*
X128036000Y-122424000I0J276000D01*
G01*
G37*
G36*
G01*
X144503000Y-122461000D02*
X144503000Y-123411000D01*
G75*
G02*
X144202000Y-123712000I-301000J0D01*
G01*
X143702000Y-123712000D01*
G75*
G02*
X143401000Y-123411000I0J301000D01*
G01*
X143401000Y-122461000D01*
G75*
G02*
X143702000Y-122160000I301000J0D01*
G01*
X144202000Y-122160000D01*
G75*
G02*
X144503000Y-122461000I0J-301000D01*
G01*
G37*
G36*
G01*
X142603000Y-122461000D02*
X142603000Y-123411000D01*
G75*
G02*
X142302000Y-123712000I-301000J0D01*
G01*
X141802000Y-123712000D01*
G75*
G02*
X141501000Y-123411000I0J301000D01*
G01*
X141501000Y-122461000D01*
G75*
G02*
X141802000Y-122160000I301000J0D01*
G01*
X142302000Y-122160000D01*
G75*
G02*
X142603000Y-122461000I0J-301000D01*
G01*
G37*
G36*
G01*
X130550000Y-67814000D02*
X130550000Y-67314000D01*
G75*
G02*
X130826000Y-67038000I276000J0D01*
G01*
X131276000Y-67038000D01*
G75*
G02*
X131552000Y-67314000I0J-276000D01*
G01*
X131552000Y-67814000D01*
G75*
G02*
X131276000Y-68090000I-276000J0D01*
G01*
X130826000Y-68090000D01*
G75*
G02*
X130550000Y-67814000I0J276000D01*
G01*
G37*
G36*
G01*
X132100000Y-67814000D02*
X132100000Y-67314000D01*
G75*
G02*
X132376000Y-67038000I276000J0D01*
G01*
X132826000Y-67038000D01*
G75*
G02*
X133102000Y-67314000I0J-276000D01*
G01*
X133102000Y-67814000D01*
G75*
G02*
X132826000Y-68090000I-276000J0D01*
G01*
X132376000Y-68090000D01*
G75*
G02*
X132100000Y-67814000I0J276000D01*
G01*
G37*
G36*
G01*
X126740000Y-111019000D02*
X126740000Y-110469000D01*
G75*
G02*
X126991000Y-110218000I251000J0D01*
G01*
X127391000Y-110218000D01*
G75*
G02*
X127642000Y-110469000I0J-251000D01*
G01*
X127642000Y-111019000D01*
G75*
G02*
X127391000Y-111270000I-251000J0D01*
G01*
X126991000Y-111270000D01*
G75*
G02*
X126740000Y-111019000I0J251000D01*
G01*
G37*
G36*
G01*
X128390000Y-111019000D02*
X128390000Y-110469000D01*
G75*
G02*
X128641000Y-110218000I251000J0D01*
G01*
X129041000Y-110218000D01*
G75*
G02*
X129292000Y-110469000I0J-251000D01*
G01*
X129292000Y-111019000D01*
G75*
G02*
X129041000Y-111270000I-251000J0D01*
G01*
X128641000Y-111270000D01*
G75*
G02*
X128390000Y-111019000I0J251000D01*
G01*
G37*
G36*
G01*
X144503000Y-109507000D02*
X144503000Y-110457000D01*
G75*
G02*
X144202000Y-110758000I-301000J0D01*
G01*
X143702000Y-110758000D01*
G75*
G02*
X143401000Y-110457000I0J301000D01*
G01*
X143401000Y-109507000D01*
G75*
G02*
X143702000Y-109206000I301000J0D01*
G01*
X144202000Y-109206000D01*
G75*
G02*
X144503000Y-109507000I0J-301000D01*
G01*
G37*
G36*
G01*
X142603000Y-109507000D02*
X142603000Y-110457000D01*
G75*
G02*
X142302000Y-110758000I-301000J0D01*
G01*
X141802000Y-110758000D01*
G75*
G02*
X141501000Y-110457000I0J301000D01*
G01*
X141501000Y-109507000D01*
G75*
G02*
X141802000Y-109206000I301000J0D01*
G01*
X142302000Y-109206000D01*
G75*
G02*
X142603000Y-109507000I0J-301000D01*
G01*
G37*
G36*
G01*
X140202000Y-76475000D02*
X140202000Y-75925000D01*
G75*
G02*
X140453000Y-75674000I251000J0D01*
G01*
X140853000Y-75674000D01*
G75*
G02*
X141104000Y-75925000I0J-251000D01*
G01*
X141104000Y-76475000D01*
G75*
G02*
X140853000Y-76726000I-251000J0D01*
G01*
X140453000Y-76726000D01*
G75*
G02*
X140202000Y-76475000I0J251000D01*
G01*
G37*
G36*
G01*
X141852000Y-76475000D02*
X141852000Y-75925000D01*
G75*
G02*
X142103000Y-75674000I251000J0D01*
G01*
X142503000Y-75674000D01*
G75*
G02*
X142754000Y-75925000I0J-251000D01*
G01*
X142754000Y-76475000D01*
G75*
G02*
X142503000Y-76726000I-251000J0D01*
G01*
X142103000Y-76726000D01*
G75*
G02*
X141852000Y-76475000I0J251000D01*
G01*
G37*
G36*
G01*
X160268000Y-119909000D02*
X160268000Y-119359000D01*
G75*
G02*
X160519000Y-119108000I251000J0D01*
G01*
X160919000Y-119108000D01*
G75*
G02*
X161170000Y-119359000I0J-251000D01*
G01*
X161170000Y-119909000D01*
G75*
G02*
X160919000Y-120160000I-251000J0D01*
G01*
X160519000Y-120160000D01*
G75*
G02*
X160268000Y-119909000I0J251000D01*
G01*
G37*
G36*
G01*
X161918000Y-119909000D02*
X161918000Y-119359000D01*
G75*
G02*
X162169000Y-119108000I251000J0D01*
G01*
X162569000Y-119108000D01*
G75*
G02*
X162820000Y-119359000I0J-251000D01*
G01*
X162820000Y-119909000D01*
G75*
G02*
X162569000Y-120160000I-251000J0D01*
G01*
X162169000Y-120160000D01*
G75*
G02*
X161918000Y-119909000I0J251000D01*
G01*
G37*
G36*
G01*
X158502000Y-113288000D02*
X158502000Y-113788000D01*
G75*
G02*
X158226000Y-114064000I-276000J0D01*
G01*
X157776000Y-114064000D01*
G75*
G02*
X157500000Y-113788000I0J276000D01*
G01*
X157500000Y-113288000D01*
G75*
G02*
X157776000Y-113012000I276000J0D01*
G01*
X158226000Y-113012000D01*
G75*
G02*
X158502000Y-113288000I0J-276000D01*
G01*
G37*
G36*
G01*
X156952000Y-113288000D02*
X156952000Y-113788000D01*
G75*
G02*
X156676000Y-114064000I-276000J0D01*
G01*
X156226000Y-114064000D01*
G75*
G02*
X155950000Y-113788000I0J276000D01*
G01*
X155950000Y-113288000D01*
G75*
G02*
X156226000Y-113012000I276000J0D01*
G01*
X156676000Y-113012000D01*
G75*
G02*
X156952000Y-113288000I0J-276000D01*
G01*
G37*
G36*
G01*
X124263000Y-133371000D02*
X124263000Y-132821000D01*
G75*
G02*
X124514000Y-132570000I251000J0D01*
G01*
X124914000Y-132570000D01*
G75*
G02*
X125165000Y-132821000I0J-251000D01*
G01*
X125165000Y-133371000D01*
G75*
G02*
X124914000Y-133622000I-251000J0D01*
G01*
X124514000Y-133622000D01*
G75*
G02*
X124263000Y-133371000I0J251000D01*
G01*
G37*
G36*
G01*
X125913000Y-133371000D02*
X125913000Y-132821000D01*
G75*
G02*
X126164000Y-132570000I251000J0D01*
G01*
X126564000Y-132570000D01*
G75*
G02*
X126815000Y-132821000I0J-251000D01*
G01*
X126815000Y-133371000D01*
G75*
G02*
X126564000Y-133622000I-251000J0D01*
G01*
X126164000Y-133622000D01*
G75*
G02*
X125913000Y-133371000I0J251000D01*
G01*
G37*
G36*
G01*
X144503000Y-115857000D02*
X144503000Y-116807000D01*
G75*
G02*
X144202000Y-117108000I-301000J0D01*
G01*
X143702000Y-117108000D01*
G75*
G02*
X143401000Y-116807000I0J301000D01*
G01*
X143401000Y-115857000D01*
G75*
G02*
X143702000Y-115556000I301000J0D01*
G01*
X144202000Y-115556000D01*
G75*
G02*
X144503000Y-115857000I0J-301000D01*
G01*
G37*
G36*
G01*
X142603000Y-115857000D02*
X142603000Y-116807000D01*
G75*
G02*
X142302000Y-117108000I-301000J0D01*
G01*
X141802000Y-117108000D01*
G75*
G02*
X141501000Y-116807000I0J301000D01*
G01*
X141501000Y-115857000D01*
G75*
G02*
X141802000Y-115556000I301000J0D01*
G01*
X142302000Y-115556000D01*
G75*
G02*
X142603000Y-115857000I0J-301000D01*
G01*
G37*
G36*
G01*
X155950000Y-110994000D02*
X155950000Y-110494000D01*
G75*
G02*
X156226000Y-110218000I276000J0D01*
G01*
X156676000Y-110218000D01*
G75*
G02*
X156952000Y-110494000I0J-276000D01*
G01*
X156952000Y-110994000D01*
G75*
G02*
X156676000Y-111270000I-276000J0D01*
G01*
X156226000Y-111270000D01*
G75*
G02*
X155950000Y-110994000I0J276000D01*
G01*
G37*
G36*
G01*
X157500000Y-110994000D02*
X157500000Y-110494000D01*
G75*
G02*
X157776000Y-110218000I276000J0D01*
G01*
X158226000Y-110218000D01*
G75*
G02*
X158502000Y-110494000I0J-276000D01*
G01*
X158502000Y-110994000D01*
G75*
G02*
X158226000Y-111270000I-276000J0D01*
G01*
X157776000Y-111270000D01*
G75*
G02*
X157500000Y-110994000I0J276000D01*
G01*
G37*
G36*
G01*
X154571000Y-49188000D02*
X154571000Y-50888000D01*
G75*
G02*
X154520000Y-50939000I-51000J0D01*
G01*
X152820000Y-50939000D01*
G75*
G02*
X152769000Y-50888000I0J51000D01*
G01*
X152769000Y-49188000D01*
G75*
G02*
X152820000Y-49137000I51000J0D01*
G01*
X154520000Y-49137000D01*
G75*
G02*
X154571000Y-49188000I0J-51000D01*
G01*
G37*
D15*
X151130000Y-50038000D03*
X153670000Y-52578000D03*
X151130000Y-52578000D03*
X153670000Y-55118000D03*
X151130000Y-55118000D03*
X153670000Y-57658000D03*
X151130000Y-57658000D03*
X153670000Y-60198000D03*
X151130000Y-60198000D03*
G36*
G01*
X150781000Y-134089000D02*
X150781000Y-133889000D01*
G75*
G02*
X150932000Y-133738000I151000J0D01*
G01*
X152207000Y-133738000D01*
G75*
G02*
X152358000Y-133889000I0J-151000D01*
G01*
X152358000Y-134089000D01*
G75*
G02*
X152207000Y-134240000I-151000J0D01*
G01*
X150932000Y-134240000D01*
G75*
G02*
X150781000Y-134089000I0J151000D01*
G01*
G37*
G36*
G01*
X150781000Y-133439000D02*
X150781000Y-133239000D01*
G75*
G02*
X150932000Y-133088000I151000J0D01*
G01*
X152207000Y-133088000D01*
G75*
G02*
X152358000Y-133239000I0J-151000D01*
G01*
X152358000Y-133439000D01*
G75*
G02*
X152207000Y-133590000I-151000J0D01*
G01*
X150932000Y-133590000D01*
G75*
G02*
X150781000Y-133439000I0J151000D01*
G01*
G37*
G36*
G01*
X150781000Y-132789000D02*
X150781000Y-132589000D01*
G75*
G02*
X150932000Y-132438000I151000J0D01*
G01*
X152207000Y-132438000D01*
G75*
G02*
X152358000Y-132589000I0J-151000D01*
G01*
X152358000Y-132789000D01*
G75*
G02*
X152207000Y-132940000I-151000J0D01*
G01*
X150932000Y-132940000D01*
G75*
G02*
X150781000Y-132789000I0J151000D01*
G01*
G37*
G36*
G01*
X150781000Y-132139000D02*
X150781000Y-131939000D01*
G75*
G02*
X150932000Y-131788000I151000J0D01*
G01*
X152207000Y-131788000D01*
G75*
G02*
X152358000Y-131939000I0J-151000D01*
G01*
X152358000Y-132139000D01*
G75*
G02*
X152207000Y-132290000I-151000J0D01*
G01*
X150932000Y-132290000D01*
G75*
G02*
X150781000Y-132139000I0J151000D01*
G01*
G37*
G36*
G01*
X150781000Y-131489000D02*
X150781000Y-131289000D01*
G75*
G02*
X150932000Y-131138000I151000J0D01*
G01*
X152207000Y-131138000D01*
G75*
G02*
X152358000Y-131289000I0J-151000D01*
G01*
X152358000Y-131489000D01*
G75*
G02*
X152207000Y-131640000I-151000J0D01*
G01*
X150932000Y-131640000D01*
G75*
G02*
X150781000Y-131489000I0J151000D01*
G01*
G37*
G36*
G01*
X150781000Y-130839000D02*
X150781000Y-130639000D01*
G75*
G02*
X150932000Y-130488000I151000J0D01*
G01*
X152207000Y-130488000D01*
G75*
G02*
X152358000Y-130639000I0J-151000D01*
G01*
X152358000Y-130839000D01*
G75*
G02*
X152207000Y-130990000I-151000J0D01*
G01*
X150932000Y-130990000D01*
G75*
G02*
X150781000Y-130839000I0J151000D01*
G01*
G37*
G36*
G01*
X150781000Y-130189000D02*
X150781000Y-129989000D01*
G75*
G02*
X150932000Y-129838000I151000J0D01*
G01*
X152207000Y-129838000D01*
G75*
G02*
X152358000Y-129989000I0J-151000D01*
G01*
X152358000Y-130189000D01*
G75*
G02*
X152207000Y-130340000I-151000J0D01*
G01*
X150932000Y-130340000D01*
G75*
G02*
X150781000Y-130189000I0J151000D01*
G01*
G37*
G36*
G01*
X150781000Y-129539000D02*
X150781000Y-129339000D01*
G75*
G02*
X150932000Y-129188000I151000J0D01*
G01*
X152207000Y-129188000D01*
G75*
G02*
X152358000Y-129339000I0J-151000D01*
G01*
X152358000Y-129539000D01*
G75*
G02*
X152207000Y-129690000I-151000J0D01*
G01*
X150932000Y-129690000D01*
G75*
G02*
X150781000Y-129539000I0J151000D01*
G01*
G37*
G36*
G01*
X150781000Y-128889000D02*
X150781000Y-128689000D01*
G75*
G02*
X150932000Y-128538000I151000J0D01*
G01*
X152207000Y-128538000D01*
G75*
G02*
X152358000Y-128689000I0J-151000D01*
G01*
X152358000Y-128889000D01*
G75*
G02*
X152207000Y-129040000I-151000J0D01*
G01*
X150932000Y-129040000D01*
G75*
G02*
X150781000Y-128889000I0J151000D01*
G01*
G37*
G36*
G01*
X150781000Y-128239000D02*
X150781000Y-128039000D01*
G75*
G02*
X150932000Y-127888000I151000J0D01*
G01*
X152207000Y-127888000D01*
G75*
G02*
X152358000Y-128039000I0J-151000D01*
G01*
X152358000Y-128239000D01*
G75*
G02*
X152207000Y-128390000I-151000J0D01*
G01*
X150932000Y-128390000D01*
G75*
G02*
X150781000Y-128239000I0J151000D01*
G01*
G37*
G36*
G01*
X156506000Y-128239000D02*
X156506000Y-128039000D01*
G75*
G02*
X156657000Y-127888000I151000J0D01*
G01*
X157932000Y-127888000D01*
G75*
G02*
X158083000Y-128039000I0J-151000D01*
G01*
X158083000Y-128239000D01*
G75*
G02*
X157932000Y-128390000I-151000J0D01*
G01*
X156657000Y-128390000D01*
G75*
G02*
X156506000Y-128239000I0J151000D01*
G01*
G37*
G36*
G01*
X156506000Y-128889000D02*
X156506000Y-128689000D01*
G75*
G02*
X156657000Y-128538000I151000J0D01*
G01*
X157932000Y-128538000D01*
G75*
G02*
X158083000Y-128689000I0J-151000D01*
G01*
X158083000Y-128889000D01*
G75*
G02*
X157932000Y-129040000I-151000J0D01*
G01*
X156657000Y-129040000D01*
G75*
G02*
X156506000Y-128889000I0J151000D01*
G01*
G37*
G36*
G01*
X156506000Y-129539000D02*
X156506000Y-129339000D01*
G75*
G02*
X156657000Y-129188000I151000J0D01*
G01*
X157932000Y-129188000D01*
G75*
G02*
X158083000Y-129339000I0J-151000D01*
G01*
X158083000Y-129539000D01*
G75*
G02*
X157932000Y-129690000I-151000J0D01*
G01*
X156657000Y-129690000D01*
G75*
G02*
X156506000Y-129539000I0J151000D01*
G01*
G37*
G36*
G01*
X156506000Y-130189000D02*
X156506000Y-129989000D01*
G75*
G02*
X156657000Y-129838000I151000J0D01*
G01*
X157932000Y-129838000D01*
G75*
G02*
X158083000Y-129989000I0J-151000D01*
G01*
X158083000Y-130189000D01*
G75*
G02*
X157932000Y-130340000I-151000J0D01*
G01*
X156657000Y-130340000D01*
G75*
G02*
X156506000Y-130189000I0J151000D01*
G01*
G37*
G36*
G01*
X156506000Y-130839000D02*
X156506000Y-130639000D01*
G75*
G02*
X156657000Y-130488000I151000J0D01*
G01*
X157932000Y-130488000D01*
G75*
G02*
X158083000Y-130639000I0J-151000D01*
G01*
X158083000Y-130839000D01*
G75*
G02*
X157932000Y-130990000I-151000J0D01*
G01*
X156657000Y-130990000D01*
G75*
G02*
X156506000Y-130839000I0J151000D01*
G01*
G37*
G36*
G01*
X156506000Y-131489000D02*
X156506000Y-131289000D01*
G75*
G02*
X156657000Y-131138000I151000J0D01*
G01*
X157932000Y-131138000D01*
G75*
G02*
X158083000Y-131289000I0J-151000D01*
G01*
X158083000Y-131489000D01*
G75*
G02*
X157932000Y-131640000I-151000J0D01*
G01*
X156657000Y-131640000D01*
G75*
G02*
X156506000Y-131489000I0J151000D01*
G01*
G37*
G36*
G01*
X156506000Y-132139000D02*
X156506000Y-131939000D01*
G75*
G02*
X156657000Y-131788000I151000J0D01*
G01*
X157932000Y-131788000D01*
G75*
G02*
X158083000Y-131939000I0J-151000D01*
G01*
X158083000Y-132139000D01*
G75*
G02*
X157932000Y-132290000I-151000J0D01*
G01*
X156657000Y-132290000D01*
G75*
G02*
X156506000Y-132139000I0J151000D01*
G01*
G37*
G36*
G01*
X156506000Y-132789000D02*
X156506000Y-132589000D01*
G75*
G02*
X156657000Y-132438000I151000J0D01*
G01*
X157932000Y-132438000D01*
G75*
G02*
X158083000Y-132589000I0J-151000D01*
G01*
X158083000Y-132789000D01*
G75*
G02*
X157932000Y-132940000I-151000J0D01*
G01*
X156657000Y-132940000D01*
G75*
G02*
X156506000Y-132789000I0J151000D01*
G01*
G37*
G36*
G01*
X156506000Y-133439000D02*
X156506000Y-133239000D01*
G75*
G02*
X156657000Y-133088000I151000J0D01*
G01*
X157932000Y-133088000D01*
G75*
G02*
X158083000Y-133239000I0J-151000D01*
G01*
X158083000Y-133439000D01*
G75*
G02*
X157932000Y-133590000I-151000J0D01*
G01*
X156657000Y-133590000D01*
G75*
G02*
X156506000Y-133439000I0J151000D01*
G01*
G37*
G36*
G01*
X156506000Y-134089000D02*
X156506000Y-133889000D01*
G75*
G02*
X156657000Y-133738000I151000J0D01*
G01*
X157932000Y-133738000D01*
G75*
G02*
X158083000Y-133889000I0J-151000D01*
G01*
X158083000Y-134089000D01*
G75*
G02*
X157932000Y-134240000I-151000J0D01*
G01*
X156657000Y-134240000D01*
G75*
G02*
X156506000Y-134089000I0J151000D01*
G01*
G37*
G36*
G01*
X148596000Y-103103000D02*
X148596000Y-103653000D01*
G75*
G02*
X148345000Y-103904000I-251000J0D01*
G01*
X147945000Y-103904000D01*
G75*
G02*
X147694000Y-103653000I0J251000D01*
G01*
X147694000Y-103103000D01*
G75*
G02*
X147945000Y-102852000I251000J0D01*
G01*
X148345000Y-102852000D01*
G75*
G02*
X148596000Y-103103000I0J-251000D01*
G01*
G37*
G36*
G01*
X146946000Y-103103000D02*
X146946000Y-103653000D01*
G75*
G02*
X146695000Y-103904000I-251000J0D01*
G01*
X146295000Y-103904000D01*
G75*
G02*
X146044000Y-103653000I0J251000D01*
G01*
X146044000Y-103103000D01*
G75*
G02*
X146295000Y-102852000I251000J0D01*
G01*
X146695000Y-102852000D01*
G75*
G02*
X146946000Y-103103000I0J-251000D01*
G01*
G37*
G36*
G01*
X164586000Y-123211000D02*
X164586000Y-122661000D01*
G75*
G02*
X164837000Y-122410000I251000J0D01*
G01*
X165237000Y-122410000D01*
G75*
G02*
X165488000Y-122661000I0J-251000D01*
G01*
X165488000Y-123211000D01*
G75*
G02*
X165237000Y-123462000I-251000J0D01*
G01*
X164837000Y-123462000D01*
G75*
G02*
X164586000Y-123211000I0J251000D01*
G01*
G37*
G36*
G01*
X166236000Y-123211000D02*
X166236000Y-122661000D01*
G75*
G02*
X166487000Y-122410000I251000J0D01*
G01*
X166887000Y-122410000D01*
G75*
G02*
X167138000Y-122661000I0J-251000D01*
G01*
X167138000Y-123211000D01*
G75*
G02*
X166887000Y-123462000I-251000J0D01*
G01*
X166487000Y-123462000D01*
G75*
G02*
X166236000Y-123211000I0J251000D01*
G01*
G37*
G36*
G01*
X135122000Y-67814000D02*
X135122000Y-67314000D01*
G75*
G02*
X135398000Y-67038000I276000J0D01*
G01*
X135848000Y-67038000D01*
G75*
G02*
X136124000Y-67314000I0J-276000D01*
G01*
X136124000Y-67814000D01*
G75*
G02*
X135848000Y-68090000I-276000J0D01*
G01*
X135398000Y-68090000D01*
G75*
G02*
X135122000Y-67814000I0J276000D01*
G01*
G37*
G36*
G01*
X136672000Y-67814000D02*
X136672000Y-67314000D01*
G75*
G02*
X136948000Y-67038000I276000J0D01*
G01*
X137398000Y-67038000D01*
G75*
G02*
X137674000Y-67314000I0J-276000D01*
G01*
X137674000Y-67814000D01*
G75*
G02*
X137398000Y-68090000I-276000J0D01*
G01*
X136948000Y-68090000D01*
G75*
G02*
X136672000Y-67814000I0J276000D01*
G01*
G37*
G36*
G01*
X134118000Y-117581000D02*
X134118000Y-118131000D01*
G75*
G02*
X133867000Y-118382000I-251000J0D01*
G01*
X133467000Y-118382000D01*
G75*
G02*
X133216000Y-118131000I0J251000D01*
G01*
X133216000Y-117581000D01*
G75*
G02*
X133467000Y-117330000I251000J0D01*
G01*
X133867000Y-117330000D01*
G75*
G02*
X134118000Y-117581000I0J-251000D01*
G01*
G37*
G36*
G01*
X132468000Y-117581000D02*
X132468000Y-118131000D01*
G75*
G02*
X132217000Y-118382000I-251000J0D01*
G01*
X131817000Y-118382000D01*
G75*
G02*
X131566000Y-118131000I0J251000D01*
G01*
X131566000Y-117581000D01*
G75*
G02*
X131817000Y-117330000I251000J0D01*
G01*
X132217000Y-117330000D01*
G75*
G02*
X132468000Y-117581000I0J-251000D01*
G01*
G37*
G36*
G01*
X134993000Y-110144000D02*
X134993000Y-111344000D01*
G75*
G02*
X134942000Y-111395000I-51000J0D01*
G01*
X134042000Y-111395000D01*
G75*
G02*
X133991000Y-111344000I0J51000D01*
G01*
X133991000Y-110144000D01*
G75*
G02*
X134042000Y-110093000I51000J0D01*
G01*
X134942000Y-110093000D01*
G75*
G02*
X134993000Y-110144000I0J-51000D01*
G01*
G37*
G36*
G01*
X131693000Y-110144000D02*
X131693000Y-111344000D01*
G75*
G02*
X131642000Y-111395000I-51000J0D01*
G01*
X130742000Y-111395000D01*
G75*
G02*
X130691000Y-111344000I0J51000D01*
G01*
X130691000Y-110144000D01*
G75*
G02*
X130742000Y-110093000I51000J0D01*
G01*
X131642000Y-110093000D01*
G75*
G02*
X131693000Y-110144000I0J-51000D01*
G01*
G37*
G36*
G01*
X126547000Y-128293000D02*
X126547000Y-127993000D01*
G75*
G02*
X126748000Y-127792000I201000J0D01*
G01*
X128398000Y-127792000D01*
G75*
G02*
X128599000Y-127993000I0J-201000D01*
G01*
X128599000Y-128293000D01*
G75*
G02*
X128398000Y-128494000I-201000J0D01*
G01*
X126748000Y-128494000D01*
G75*
G02*
X126547000Y-128293000I0J201000D01*
G01*
G37*
G36*
G01*
X126547000Y-127023000D02*
X126547000Y-126723000D01*
G75*
G02*
X126748000Y-126522000I201000J0D01*
G01*
X128398000Y-126522000D01*
G75*
G02*
X128599000Y-126723000I0J-201000D01*
G01*
X128599000Y-127023000D01*
G75*
G02*
X128398000Y-127224000I-201000J0D01*
G01*
X126748000Y-127224000D01*
G75*
G02*
X126547000Y-127023000I0J201000D01*
G01*
G37*
G36*
G01*
X126547000Y-125753000D02*
X126547000Y-125453000D01*
G75*
G02*
X126748000Y-125252000I201000J0D01*
G01*
X128398000Y-125252000D01*
G75*
G02*
X128599000Y-125453000I0J-201000D01*
G01*
X128599000Y-125753000D01*
G75*
G02*
X128398000Y-125954000I-201000J0D01*
G01*
X126748000Y-125954000D01*
G75*
G02*
X126547000Y-125753000I0J201000D01*
G01*
G37*
G36*
G01*
X126547000Y-124483000D02*
X126547000Y-124183000D01*
G75*
G02*
X126748000Y-123982000I201000J0D01*
G01*
X128398000Y-123982000D01*
G75*
G02*
X128599000Y-124183000I0J-201000D01*
G01*
X128599000Y-124483000D01*
G75*
G02*
X128398000Y-124684000I-201000J0D01*
G01*
X126748000Y-124684000D01*
G75*
G02*
X126547000Y-124483000I0J201000D01*
G01*
G37*
G36*
G01*
X131497000Y-124483000D02*
X131497000Y-124183000D01*
G75*
G02*
X131698000Y-123982000I201000J0D01*
G01*
X133348000Y-123982000D01*
G75*
G02*
X133549000Y-124183000I0J-201000D01*
G01*
X133549000Y-124483000D01*
G75*
G02*
X133348000Y-124684000I-201000J0D01*
G01*
X131698000Y-124684000D01*
G75*
G02*
X131497000Y-124483000I0J201000D01*
G01*
G37*
G36*
G01*
X131497000Y-125753000D02*
X131497000Y-125453000D01*
G75*
G02*
X131698000Y-125252000I201000J0D01*
G01*
X133348000Y-125252000D01*
G75*
G02*
X133549000Y-125453000I0J-201000D01*
G01*
X133549000Y-125753000D01*
G75*
G02*
X133348000Y-125954000I-201000J0D01*
G01*
X131698000Y-125954000D01*
G75*
G02*
X131497000Y-125753000I0J201000D01*
G01*
G37*
G36*
G01*
X131497000Y-127023000D02*
X131497000Y-126723000D01*
G75*
G02*
X131698000Y-126522000I201000J0D01*
G01*
X133348000Y-126522000D01*
G75*
G02*
X133549000Y-126723000I0J-201000D01*
G01*
X133549000Y-127023000D01*
G75*
G02*
X133348000Y-127224000I-201000J0D01*
G01*
X131698000Y-127224000D01*
G75*
G02*
X131497000Y-127023000I0J201000D01*
G01*
G37*
G36*
G01*
X131497000Y-128293000D02*
X131497000Y-127993000D01*
G75*
G02*
X131698000Y-127792000I201000J0D01*
G01*
X133348000Y-127792000D01*
G75*
G02*
X133549000Y-127993000I0J-201000D01*
G01*
X133549000Y-128293000D01*
G75*
G02*
X133348000Y-128494000I-201000J0D01*
G01*
X131698000Y-128494000D01*
G75*
G02*
X131497000Y-128293000I0J201000D01*
G01*
G37*
G36*
G01*
X162820000Y-116057000D02*
X162820000Y-116607000D01*
G75*
G02*
X162569000Y-116858000I-251000J0D01*
G01*
X162169000Y-116858000D01*
G75*
G02*
X161918000Y-116607000I0J251000D01*
G01*
X161918000Y-116057000D01*
G75*
G02*
X162169000Y-115806000I251000J0D01*
G01*
X162569000Y-115806000D01*
G75*
G02*
X162820000Y-116057000I0J-251000D01*
G01*
G37*
G36*
G01*
X161170000Y-116057000D02*
X161170000Y-116607000D01*
G75*
G02*
X160919000Y-116858000I-251000J0D01*
G01*
X160519000Y-116858000D01*
G75*
G02*
X160268000Y-116607000I0J251000D01*
G01*
X160268000Y-116057000D01*
G75*
G02*
X160519000Y-115806000I251000J0D01*
G01*
X160919000Y-115806000D01*
G75*
G02*
X161170000Y-116057000I0J-251000D01*
G01*
G37*
G36*
G01*
X160268000Y-113305000D02*
X160268000Y-112755000D01*
G75*
G02*
X160519000Y-112504000I251000J0D01*
G01*
X160919000Y-112504000D01*
G75*
G02*
X161170000Y-112755000I0J-251000D01*
G01*
X161170000Y-113305000D01*
G75*
G02*
X160919000Y-113556000I-251000J0D01*
G01*
X160519000Y-113556000D01*
G75*
G02*
X160268000Y-113305000I0J251000D01*
G01*
G37*
G36*
G01*
X161918000Y-113305000D02*
X161918000Y-112755000D01*
G75*
G02*
X162169000Y-112504000I251000J0D01*
G01*
X162569000Y-112504000D01*
G75*
G02*
X162820000Y-112755000I0J-251000D01*
G01*
X162820000Y-113305000D01*
G75*
G02*
X162569000Y-113556000I-251000J0D01*
G01*
X162169000Y-113556000D01*
G75*
G02*
X161918000Y-113305000I0J251000D01*
G01*
G37*
G36*
G01*
X136392000Y-117623000D02*
X136392000Y-117073000D01*
G75*
G02*
X136643000Y-116822000I251000J0D01*
G01*
X137043000Y-116822000D01*
G75*
G02*
X137294000Y-117073000I0J-251000D01*
G01*
X137294000Y-117623000D01*
G75*
G02*
X137043000Y-117874000I-251000J0D01*
G01*
X136643000Y-117874000D01*
G75*
G02*
X136392000Y-117623000I0J251000D01*
G01*
G37*
G36*
G01*
X138042000Y-117623000D02*
X138042000Y-117073000D01*
G75*
G02*
X138293000Y-116822000I251000J0D01*
G01*
X138693000Y-116822000D01*
G75*
G02*
X138944000Y-117073000I0J-251000D01*
G01*
X138944000Y-117623000D01*
G75*
G02*
X138693000Y-117874000I-251000J0D01*
G01*
X138293000Y-117874000D01*
G75*
G02*
X138042000Y-117623000I0J251000D01*
G01*
G37*
G36*
G01*
X144278000Y-112755000D02*
X144278000Y-113305000D01*
G75*
G02*
X144027000Y-113556000I-251000J0D01*
G01*
X143627000Y-113556000D01*
G75*
G02*
X143376000Y-113305000I0J251000D01*
G01*
X143376000Y-112755000D01*
G75*
G02*
X143627000Y-112504000I251000J0D01*
G01*
X144027000Y-112504000D01*
G75*
G02*
X144278000Y-112755000I0J-251000D01*
G01*
G37*
G36*
G01*
X142628000Y-112755000D02*
X142628000Y-113305000D01*
G75*
G02*
X142377000Y-113556000I-251000J0D01*
G01*
X141977000Y-113556000D01*
G75*
G02*
X141726000Y-113305000I0J251000D01*
G01*
X141726000Y-112755000D01*
G75*
G02*
X141977000Y-112504000I251000J0D01*
G01*
X142377000Y-112504000D01*
G75*
G02*
X142628000Y-112755000I0J-251000D01*
G01*
G37*
G36*
G01*
X162820000Y-122661000D02*
X162820000Y-123211000D01*
G75*
G02*
X162569000Y-123462000I-251000J0D01*
G01*
X162169000Y-123462000D01*
G75*
G02*
X161918000Y-123211000I0J251000D01*
G01*
X161918000Y-122661000D01*
G75*
G02*
X162169000Y-122410000I251000J0D01*
G01*
X162569000Y-122410000D01*
G75*
G02*
X162820000Y-122661000I0J-251000D01*
G01*
G37*
G36*
G01*
X161170000Y-122661000D02*
X161170000Y-123211000D01*
G75*
G02*
X160919000Y-123462000I-251000J0D01*
G01*
X160519000Y-123462000D01*
G75*
G02*
X160268000Y-123211000I0J251000D01*
G01*
X160268000Y-122661000D01*
G75*
G02*
X160519000Y-122410000I251000J0D01*
G01*
X160919000Y-122410000D01*
G75*
G02*
X161170000Y-122661000I0J-251000D01*
G01*
G37*
G36*
G01*
X140202000Y-67839000D02*
X140202000Y-67289000D01*
G75*
G02*
X140453000Y-67038000I251000J0D01*
G01*
X140853000Y-67038000D01*
G75*
G02*
X141104000Y-67289000I0J-251000D01*
G01*
X141104000Y-67839000D01*
G75*
G02*
X140853000Y-68090000I-251000J0D01*
G01*
X140453000Y-68090000D01*
G75*
G02*
X140202000Y-67839000I0J251000D01*
G01*
G37*
G36*
G01*
X141852000Y-67839000D02*
X141852000Y-67289000D01*
G75*
G02*
X142103000Y-67038000I251000J0D01*
G01*
X142503000Y-67038000D01*
G75*
G02*
X142754000Y-67289000I0J-251000D01*
G01*
X142754000Y-67839000D01*
G75*
G02*
X142503000Y-68090000I-251000J0D01*
G01*
X142103000Y-68090000D01*
G75*
G02*
X141852000Y-67839000I0J251000D01*
G01*
G37*
G36*
G01*
X150781000Y-121135000D02*
X150781000Y-120935000D01*
G75*
G02*
X150932000Y-120784000I151000J0D01*
G01*
X152207000Y-120784000D01*
G75*
G02*
X152358000Y-120935000I0J-151000D01*
G01*
X152358000Y-121135000D01*
G75*
G02*
X152207000Y-121286000I-151000J0D01*
G01*
X150932000Y-121286000D01*
G75*
G02*
X150781000Y-121135000I0J151000D01*
G01*
G37*
G36*
G01*
X150781000Y-120485000D02*
X150781000Y-120285000D01*
G75*
G02*
X150932000Y-120134000I151000J0D01*
G01*
X152207000Y-120134000D01*
G75*
G02*
X152358000Y-120285000I0J-151000D01*
G01*
X152358000Y-120485000D01*
G75*
G02*
X152207000Y-120636000I-151000J0D01*
G01*
X150932000Y-120636000D01*
G75*
G02*
X150781000Y-120485000I0J151000D01*
G01*
G37*
G36*
G01*
X150781000Y-119835000D02*
X150781000Y-119635000D01*
G75*
G02*
X150932000Y-119484000I151000J0D01*
G01*
X152207000Y-119484000D01*
G75*
G02*
X152358000Y-119635000I0J-151000D01*
G01*
X152358000Y-119835000D01*
G75*
G02*
X152207000Y-119986000I-151000J0D01*
G01*
X150932000Y-119986000D01*
G75*
G02*
X150781000Y-119835000I0J151000D01*
G01*
G37*
G36*
G01*
X150781000Y-119185000D02*
X150781000Y-118985000D01*
G75*
G02*
X150932000Y-118834000I151000J0D01*
G01*
X152207000Y-118834000D01*
G75*
G02*
X152358000Y-118985000I0J-151000D01*
G01*
X152358000Y-119185000D01*
G75*
G02*
X152207000Y-119336000I-151000J0D01*
G01*
X150932000Y-119336000D01*
G75*
G02*
X150781000Y-119185000I0J151000D01*
G01*
G37*
G36*
G01*
X150781000Y-118535000D02*
X150781000Y-118335000D01*
G75*
G02*
X150932000Y-118184000I151000J0D01*
G01*
X152207000Y-118184000D01*
G75*
G02*
X152358000Y-118335000I0J-151000D01*
G01*
X152358000Y-118535000D01*
G75*
G02*
X152207000Y-118686000I-151000J0D01*
G01*
X150932000Y-118686000D01*
G75*
G02*
X150781000Y-118535000I0J151000D01*
G01*
G37*
G36*
G01*
X150781000Y-117885000D02*
X150781000Y-117685000D01*
G75*
G02*
X150932000Y-117534000I151000J0D01*
G01*
X152207000Y-117534000D01*
G75*
G02*
X152358000Y-117685000I0J-151000D01*
G01*
X152358000Y-117885000D01*
G75*
G02*
X152207000Y-118036000I-151000J0D01*
G01*
X150932000Y-118036000D01*
G75*
G02*
X150781000Y-117885000I0J151000D01*
G01*
G37*
G36*
G01*
X150781000Y-117235000D02*
X150781000Y-117035000D01*
G75*
G02*
X150932000Y-116884000I151000J0D01*
G01*
X152207000Y-116884000D01*
G75*
G02*
X152358000Y-117035000I0J-151000D01*
G01*
X152358000Y-117235000D01*
G75*
G02*
X152207000Y-117386000I-151000J0D01*
G01*
X150932000Y-117386000D01*
G75*
G02*
X150781000Y-117235000I0J151000D01*
G01*
G37*
G36*
G01*
X150781000Y-116585000D02*
X150781000Y-116385000D01*
G75*
G02*
X150932000Y-116234000I151000J0D01*
G01*
X152207000Y-116234000D01*
G75*
G02*
X152358000Y-116385000I0J-151000D01*
G01*
X152358000Y-116585000D01*
G75*
G02*
X152207000Y-116736000I-151000J0D01*
G01*
X150932000Y-116736000D01*
G75*
G02*
X150781000Y-116585000I0J151000D01*
G01*
G37*
G36*
G01*
X150781000Y-115935000D02*
X150781000Y-115735000D01*
G75*
G02*
X150932000Y-115584000I151000J0D01*
G01*
X152207000Y-115584000D01*
G75*
G02*
X152358000Y-115735000I0J-151000D01*
G01*
X152358000Y-115935000D01*
G75*
G02*
X152207000Y-116086000I-151000J0D01*
G01*
X150932000Y-116086000D01*
G75*
G02*
X150781000Y-115935000I0J151000D01*
G01*
G37*
G36*
G01*
X150781000Y-115285000D02*
X150781000Y-115085000D01*
G75*
G02*
X150932000Y-114934000I151000J0D01*
G01*
X152207000Y-114934000D01*
G75*
G02*
X152358000Y-115085000I0J-151000D01*
G01*
X152358000Y-115285000D01*
G75*
G02*
X152207000Y-115436000I-151000J0D01*
G01*
X150932000Y-115436000D01*
G75*
G02*
X150781000Y-115285000I0J151000D01*
G01*
G37*
G36*
G01*
X156506000Y-115285000D02*
X156506000Y-115085000D01*
G75*
G02*
X156657000Y-114934000I151000J0D01*
G01*
X157932000Y-114934000D01*
G75*
G02*
X158083000Y-115085000I0J-151000D01*
G01*
X158083000Y-115285000D01*
G75*
G02*
X157932000Y-115436000I-151000J0D01*
G01*
X156657000Y-115436000D01*
G75*
G02*
X156506000Y-115285000I0J151000D01*
G01*
G37*
G36*
G01*
X156506000Y-115935000D02*
X156506000Y-115735000D01*
G75*
G02*
X156657000Y-115584000I151000J0D01*
G01*
X157932000Y-115584000D01*
G75*
G02*
X158083000Y-115735000I0J-151000D01*
G01*
X158083000Y-115935000D01*
G75*
G02*
X157932000Y-116086000I-151000J0D01*
G01*
X156657000Y-116086000D01*
G75*
G02*
X156506000Y-115935000I0J151000D01*
G01*
G37*
G36*
G01*
X156506000Y-116585000D02*
X156506000Y-116385000D01*
G75*
G02*
X156657000Y-116234000I151000J0D01*
G01*
X157932000Y-116234000D01*
G75*
G02*
X158083000Y-116385000I0J-151000D01*
G01*
X158083000Y-116585000D01*
G75*
G02*
X157932000Y-116736000I-151000J0D01*
G01*
X156657000Y-116736000D01*
G75*
G02*
X156506000Y-116585000I0J151000D01*
G01*
G37*
G36*
G01*
X156506000Y-117235000D02*
X156506000Y-117035000D01*
G75*
G02*
X156657000Y-116884000I151000J0D01*
G01*
X157932000Y-116884000D01*
G75*
G02*
X158083000Y-117035000I0J-151000D01*
G01*
X158083000Y-117235000D01*
G75*
G02*
X157932000Y-117386000I-151000J0D01*
G01*
X156657000Y-117386000D01*
G75*
G02*
X156506000Y-117235000I0J151000D01*
G01*
G37*
G36*
G01*
X156506000Y-117885000D02*
X156506000Y-117685000D01*
G75*
G02*
X156657000Y-117534000I151000J0D01*
G01*
X157932000Y-117534000D01*
G75*
G02*
X158083000Y-117685000I0J-151000D01*
G01*
X158083000Y-117885000D01*
G75*
G02*
X157932000Y-118036000I-151000J0D01*
G01*
X156657000Y-118036000D01*
G75*
G02*
X156506000Y-117885000I0J151000D01*
G01*
G37*
G36*
G01*
X156506000Y-118535000D02*
X156506000Y-118335000D01*
G75*
G02*
X156657000Y-118184000I151000J0D01*
G01*
X157932000Y-118184000D01*
G75*
G02*
X158083000Y-118335000I0J-151000D01*
G01*
X158083000Y-118535000D01*
G75*
G02*
X157932000Y-118686000I-151000J0D01*
G01*
X156657000Y-118686000D01*
G75*
G02*
X156506000Y-118535000I0J151000D01*
G01*
G37*
G36*
G01*
X156506000Y-119185000D02*
X156506000Y-118985000D01*
G75*
G02*
X156657000Y-118834000I151000J0D01*
G01*
X157932000Y-118834000D01*
G75*
G02*
X158083000Y-118985000I0J-151000D01*
G01*
X158083000Y-119185000D01*
G75*
G02*
X157932000Y-119336000I-151000J0D01*
G01*
X156657000Y-119336000D01*
G75*
G02*
X156506000Y-119185000I0J151000D01*
G01*
G37*
G36*
G01*
X156506000Y-119835000D02*
X156506000Y-119635000D01*
G75*
G02*
X156657000Y-119484000I151000J0D01*
G01*
X157932000Y-119484000D01*
G75*
G02*
X158083000Y-119635000I0J-151000D01*
G01*
X158083000Y-119835000D01*
G75*
G02*
X157932000Y-119986000I-151000J0D01*
G01*
X156657000Y-119986000D01*
G75*
G02*
X156506000Y-119835000I0J151000D01*
G01*
G37*
G36*
G01*
X156506000Y-120485000D02*
X156506000Y-120285000D01*
G75*
G02*
X156657000Y-120134000I151000J0D01*
G01*
X157932000Y-120134000D01*
G75*
G02*
X158083000Y-120285000I0J-151000D01*
G01*
X158083000Y-120485000D01*
G75*
G02*
X157932000Y-120636000I-151000J0D01*
G01*
X156657000Y-120636000D01*
G75*
G02*
X156506000Y-120485000I0J151000D01*
G01*
G37*
G36*
G01*
X156506000Y-121135000D02*
X156506000Y-120935000D01*
G75*
G02*
X156657000Y-120784000I151000J0D01*
G01*
X157932000Y-120784000D01*
G75*
G02*
X158083000Y-120935000I0J-151000D01*
G01*
X158083000Y-121135000D01*
G75*
G02*
X157932000Y-121286000I-151000J0D01*
G01*
X156657000Y-121286000D01*
G75*
G02*
X156506000Y-121135000I0J151000D01*
G01*
G37*
G36*
G01*
X144503000Y-102903000D02*
X144503000Y-103853000D01*
G75*
G02*
X144202000Y-104154000I-301000J0D01*
G01*
X143702000Y-104154000D01*
G75*
G02*
X143401000Y-103853000I0J301000D01*
G01*
X143401000Y-102903000D01*
G75*
G02*
X143702000Y-102602000I301000J0D01*
G01*
X144202000Y-102602000D01*
G75*
G02*
X144503000Y-102903000I0J-301000D01*
G01*
G37*
G36*
G01*
X142603000Y-102903000D02*
X142603000Y-103853000D01*
G75*
G02*
X142302000Y-104154000I-301000J0D01*
G01*
X141802000Y-104154000D01*
G75*
G02*
X141501000Y-103853000I0J301000D01*
G01*
X141501000Y-102903000D01*
G75*
G02*
X141802000Y-102602000I301000J0D01*
G01*
X142302000Y-102602000D01*
G75*
G02*
X142603000Y-102903000I0J-301000D01*
G01*
G37*
G36*
G01*
X145028000Y-78736000D02*
X145028000Y-78236000D01*
G75*
G02*
X145304000Y-77960000I276000J0D01*
G01*
X145754000Y-77960000D01*
G75*
G02*
X146030000Y-78236000I0J-276000D01*
G01*
X146030000Y-78736000D01*
G75*
G02*
X145754000Y-79012000I-276000J0D01*
G01*
X145304000Y-79012000D01*
G75*
G02*
X145028000Y-78736000I0J276000D01*
G01*
G37*
G36*
G01*
X146578000Y-78736000D02*
X146578000Y-78236000D01*
G75*
G02*
X146854000Y-77960000I276000J0D01*
G01*
X147304000Y-77960000D01*
G75*
G02*
X147580000Y-78236000I0J-276000D01*
G01*
X147580000Y-78736000D01*
G75*
G02*
X147304000Y-79012000I-276000J0D01*
G01*
X146854000Y-79012000D01*
G75*
G02*
X146578000Y-78736000I0J276000D01*
G01*
G37*
G36*
G01*
X164361000Y-116807000D02*
X164361000Y-115857000D01*
G75*
G02*
X164662000Y-115556000I301000J0D01*
G01*
X165162000Y-115556000D01*
G75*
G02*
X165463000Y-115857000I0J-301000D01*
G01*
X165463000Y-116807000D01*
G75*
G02*
X165162000Y-117108000I-301000J0D01*
G01*
X164662000Y-117108000D01*
G75*
G02*
X164361000Y-116807000I0J301000D01*
G01*
G37*
G36*
G01*
X166261000Y-116807000D02*
X166261000Y-115857000D01*
G75*
G02*
X166562000Y-115556000I301000J0D01*
G01*
X167062000Y-115556000D01*
G75*
G02*
X167363000Y-115857000I0J-301000D01*
G01*
X167363000Y-116807000D01*
G75*
G02*
X167062000Y-117108000I-301000J0D01*
G01*
X166562000Y-117108000D01*
G75*
G02*
X166261000Y-116807000I0J301000D01*
G01*
G37*
G36*
G01*
X140202000Y-65045000D02*
X140202000Y-64495000D01*
G75*
G02*
X140453000Y-64244000I251000J0D01*
G01*
X140853000Y-64244000D01*
G75*
G02*
X141104000Y-64495000I0J-251000D01*
G01*
X141104000Y-65045000D01*
G75*
G02*
X140853000Y-65296000I-251000J0D01*
G01*
X140453000Y-65296000D01*
G75*
G02*
X140202000Y-65045000I0J251000D01*
G01*
G37*
G36*
G01*
X141852000Y-65045000D02*
X141852000Y-64495000D01*
G75*
G02*
X142103000Y-64244000I251000J0D01*
G01*
X142503000Y-64244000D01*
G75*
G02*
X142754000Y-64495000I0J-251000D01*
G01*
X142754000Y-65045000D01*
G75*
G02*
X142503000Y-65296000I-251000J0D01*
G01*
X142103000Y-65296000D01*
G75*
G02*
X141852000Y-65045000I0J251000D01*
G01*
G37*
G36*
G01*
X157486000Y-88904000D02*
X157486000Y-89404000D01*
G75*
G02*
X157210000Y-89680000I-276000J0D01*
G01*
X156760000Y-89680000D01*
G75*
G02*
X156484000Y-89404000I0J276000D01*
G01*
X156484000Y-88904000D01*
G75*
G02*
X156760000Y-88628000I276000J0D01*
G01*
X157210000Y-88628000D01*
G75*
G02*
X157486000Y-88904000I0J-276000D01*
G01*
G37*
G36*
G01*
X155936000Y-88904000D02*
X155936000Y-89404000D01*
G75*
G02*
X155660000Y-89680000I-276000J0D01*
G01*
X155210000Y-89680000D01*
G75*
G02*
X154934000Y-89404000I0J276000D01*
G01*
X154934000Y-88904000D01*
G75*
G02*
X155210000Y-88628000I276000J0D01*
G01*
X155660000Y-88628000D01*
G75*
G02*
X155936000Y-88904000I0J-276000D01*
G01*
G37*
G36*
G01*
X153676000Y-99826000D02*
X153676000Y-100326000D01*
G75*
G02*
X153400000Y-100602000I-276000J0D01*
G01*
X152950000Y-100602000D01*
G75*
G02*
X152674000Y-100326000I0J276000D01*
G01*
X152674000Y-99826000D01*
G75*
G02*
X152950000Y-99550000I276000J0D01*
G01*
X153400000Y-99550000D01*
G75*
G02*
X153676000Y-99826000I0J-276000D01*
G01*
G37*
G36*
G01*
X152126000Y-99826000D02*
X152126000Y-100326000D01*
G75*
G02*
X151850000Y-100602000I-276000J0D01*
G01*
X151400000Y-100602000D01*
G75*
G02*
X151124000Y-100326000I0J276000D01*
G01*
X151124000Y-99826000D01*
G75*
G02*
X151400000Y-99550000I276000J0D01*
G01*
X151850000Y-99550000D01*
G75*
G02*
X152126000Y-99826000I0J-276000D01*
G01*
G37*
G36*
G01*
X155950000Y-124202000D02*
X155950000Y-123702000D01*
G75*
G02*
X156226000Y-123426000I276000J0D01*
G01*
X156676000Y-123426000D01*
G75*
G02*
X156952000Y-123702000I0J-276000D01*
G01*
X156952000Y-124202000D01*
G75*
G02*
X156676000Y-124478000I-276000J0D01*
G01*
X156226000Y-124478000D01*
G75*
G02*
X155950000Y-124202000I0J276000D01*
G01*
G37*
G36*
G01*
X157500000Y-124202000D02*
X157500000Y-123702000D01*
G75*
G02*
X157776000Y-123426000I276000J0D01*
G01*
X158226000Y-123426000D01*
G75*
G02*
X158502000Y-123702000I0J-276000D01*
G01*
X158502000Y-124202000D01*
G75*
G02*
X158226000Y-124478000I-276000J0D01*
G01*
X157776000Y-124478000D01*
G75*
G02*
X157500000Y-124202000I0J276000D01*
G01*
G37*
D16*
X134874000Y-89916000D03*
X127254000Y-89916000D03*
G36*
G01*
X164586000Y-113305000D02*
X164586000Y-112755000D01*
G75*
G02*
X164837000Y-112504000I251000J0D01*
G01*
X165237000Y-112504000D01*
G75*
G02*
X165488000Y-112755000I0J-251000D01*
G01*
X165488000Y-113305000D01*
G75*
G02*
X165237000Y-113556000I-251000J0D01*
G01*
X164837000Y-113556000D01*
G75*
G02*
X164586000Y-113305000I0J251000D01*
G01*
G37*
G36*
G01*
X166236000Y-113305000D02*
X166236000Y-112755000D01*
G75*
G02*
X166487000Y-112504000I251000J0D01*
G01*
X166887000Y-112504000D01*
G75*
G02*
X167138000Y-112755000I0J-251000D01*
G01*
X167138000Y-113305000D01*
G75*
G02*
X166887000Y-113556000I-251000J0D01*
G01*
X166487000Y-113556000D01*
G75*
G02*
X166236000Y-113305000I0J251000D01*
G01*
G37*
G36*
G01*
X164586000Y-110257000D02*
X164586000Y-109707000D01*
G75*
G02*
X164837000Y-109456000I251000J0D01*
G01*
X165237000Y-109456000D01*
G75*
G02*
X165488000Y-109707000I0J-251000D01*
G01*
X165488000Y-110257000D01*
G75*
G02*
X165237000Y-110508000I-251000J0D01*
G01*
X164837000Y-110508000D01*
G75*
G02*
X164586000Y-110257000I0J251000D01*
G01*
G37*
G36*
G01*
X166236000Y-110257000D02*
X166236000Y-109707000D01*
G75*
G02*
X166487000Y-109456000I251000J0D01*
G01*
X166887000Y-109456000D01*
G75*
G02*
X167138000Y-109707000I0J-251000D01*
G01*
X167138000Y-110257000D01*
G75*
G02*
X166887000Y-110508000I-251000J0D01*
G01*
X166487000Y-110508000D01*
G75*
G02*
X166236000Y-110257000I0J251000D01*
G01*
G37*
G36*
G01*
X128022000Y-67289000D02*
X128022000Y-67839000D01*
G75*
G02*
X127771000Y-68090000I-251000J0D01*
G01*
X127371000Y-68090000D01*
G75*
G02*
X127120000Y-67839000I0J251000D01*
G01*
X127120000Y-67289000D01*
G75*
G02*
X127371000Y-67038000I251000J0D01*
G01*
X127771000Y-67038000D01*
G75*
G02*
X128022000Y-67289000I0J-251000D01*
G01*
G37*
G36*
G01*
X126372000Y-67289000D02*
X126372000Y-67839000D01*
G75*
G02*
X126121000Y-68090000I-251000J0D01*
G01*
X125721000Y-68090000D01*
G75*
G02*
X125470000Y-67839000I0J251000D01*
G01*
X125470000Y-67289000D01*
G75*
G02*
X125721000Y-67038000I251000J0D01*
G01*
X126121000Y-67038000D01*
G75*
G02*
X126372000Y-67289000I0J-251000D01*
G01*
G37*
G36*
G01*
X148596000Y-99801000D02*
X148596000Y-100351000D01*
G75*
G02*
X148345000Y-100602000I-251000J0D01*
G01*
X147945000Y-100602000D01*
G75*
G02*
X147694000Y-100351000I0J251000D01*
G01*
X147694000Y-99801000D01*
G75*
G02*
X147945000Y-99550000I251000J0D01*
G01*
X148345000Y-99550000D01*
G75*
G02*
X148596000Y-99801000I0J-251000D01*
G01*
G37*
G36*
G01*
X146946000Y-99801000D02*
X146946000Y-100351000D01*
G75*
G02*
X146695000Y-100602000I-251000J0D01*
G01*
X146295000Y-100602000D01*
G75*
G02*
X146044000Y-100351000I0J251000D01*
G01*
X146044000Y-99801000D01*
G75*
G02*
X146295000Y-99550000I251000J0D01*
G01*
X146695000Y-99550000D01*
G75*
G02*
X146946000Y-99801000I0J-251000D01*
G01*
G37*
G36*
G01*
X144278000Y-119359000D02*
X144278000Y-119909000D01*
G75*
G02*
X144027000Y-120160000I-251000J0D01*
G01*
X143627000Y-120160000D01*
G75*
G02*
X143376000Y-119909000I0J251000D01*
G01*
X143376000Y-119359000D01*
G75*
G02*
X143627000Y-119108000I251000J0D01*
G01*
X144027000Y-119108000D01*
G75*
G02*
X144278000Y-119359000I0J-251000D01*
G01*
G37*
G36*
G01*
X142628000Y-119359000D02*
X142628000Y-119909000D01*
G75*
G02*
X142377000Y-120160000I-251000J0D01*
G01*
X141977000Y-120160000D01*
G75*
G02*
X141726000Y-119909000I0J251000D01*
G01*
X141726000Y-119359000D01*
G75*
G02*
X141977000Y-119108000I251000J0D01*
G01*
X142377000Y-119108000D01*
G75*
G02*
X142628000Y-119359000I0J-251000D01*
G01*
G37*
G36*
G01*
X164361000Y-129761000D02*
X164361000Y-128811000D01*
G75*
G02*
X164662000Y-128510000I301000J0D01*
G01*
X165162000Y-128510000D01*
G75*
G02*
X165463000Y-128811000I0J-301000D01*
G01*
X165463000Y-129761000D01*
G75*
G02*
X165162000Y-130062000I-301000J0D01*
G01*
X164662000Y-130062000D01*
G75*
G02*
X164361000Y-129761000I0J301000D01*
G01*
G37*
G36*
G01*
X166261000Y-129761000D02*
X166261000Y-128811000D01*
G75*
G02*
X166562000Y-128510000I301000J0D01*
G01*
X167062000Y-128510000D01*
G75*
G02*
X167363000Y-128811000I0J-301000D01*
G01*
X167363000Y-129761000D01*
G75*
G02*
X167062000Y-130062000I-301000J0D01*
G01*
X166562000Y-130062000D01*
G75*
G02*
X166261000Y-129761000I0J301000D01*
G01*
G37*
G36*
G01*
X144532000Y-125709000D02*
X144532000Y-126259000D01*
G75*
G02*
X144281000Y-126510000I-251000J0D01*
G01*
X143881000Y-126510000D01*
G75*
G02*
X143630000Y-126259000I0J251000D01*
G01*
X143630000Y-125709000D01*
G75*
G02*
X143881000Y-125458000I251000J0D01*
G01*
X144281000Y-125458000D01*
G75*
G02*
X144532000Y-125709000I0J-251000D01*
G01*
G37*
G36*
G01*
X142882000Y-125709000D02*
X142882000Y-126259000D01*
G75*
G02*
X142631000Y-126510000I-251000J0D01*
G01*
X142231000Y-126510000D01*
G75*
G02*
X141980000Y-126259000I0J251000D01*
G01*
X141980000Y-125709000D01*
G75*
G02*
X142231000Y-125458000I251000J0D01*
G01*
X142631000Y-125458000D01*
G75*
G02*
X142882000Y-125709000I0J-251000D01*
G01*
G37*
D17*
X138176000Y-125222000D03*
X138176000Y-127762000D03*
X138176000Y-130302000D03*
G36*
G01*
X143040000Y-59525000D02*
X141440000Y-59525000D01*
G75*
G02*
X141389000Y-59474000I0J51000D01*
G01*
X141389000Y-57874000D01*
G75*
G02*
X141440000Y-57823000I51000J0D01*
G01*
X143040000Y-57823000D01*
G75*
G02*
X143091000Y-57874000I0J-51000D01*
G01*
X143091000Y-59474000D01*
G75*
G02*
X143040000Y-59525000I-51000J0D01*
G01*
G37*
D14*
X142240000Y-56174000D03*
G36*
G01*
X162820000Y-109707000D02*
X162820000Y-110257000D01*
G75*
G02*
X162569000Y-110508000I-251000J0D01*
G01*
X162169000Y-110508000D01*
G75*
G02*
X161918000Y-110257000I0J251000D01*
G01*
X161918000Y-109707000D01*
G75*
G02*
X162169000Y-109456000I251000J0D01*
G01*
X162569000Y-109456000D01*
G75*
G02*
X162820000Y-109707000I0J-251000D01*
G01*
G37*
G36*
G01*
X161170000Y-109707000D02*
X161170000Y-110257000D01*
G75*
G02*
X160919000Y-110508000I-251000J0D01*
G01*
X160519000Y-110508000D01*
G75*
G02*
X160268000Y-110257000I0J251000D01*
G01*
X160268000Y-109707000D01*
G75*
G02*
X160519000Y-109456000I251000J0D01*
G01*
X160919000Y-109456000D01*
G75*
G02*
X161170000Y-109707000I0J-251000D01*
G01*
G37*
G36*
G01*
X164586000Y-126259000D02*
X164586000Y-125709000D01*
G75*
G02*
X164837000Y-125458000I251000J0D01*
G01*
X165237000Y-125458000D01*
G75*
G02*
X165488000Y-125709000I0J-251000D01*
G01*
X165488000Y-126259000D01*
G75*
G02*
X165237000Y-126510000I-251000J0D01*
G01*
X164837000Y-126510000D01*
G75*
G02*
X164586000Y-126259000I0J251000D01*
G01*
G37*
G36*
G01*
X166236000Y-126259000D02*
X166236000Y-125709000D01*
G75*
G02*
X166487000Y-125458000I251000J0D01*
G01*
X166887000Y-125458000D01*
G75*
G02*
X167138000Y-125709000I0J-251000D01*
G01*
X167138000Y-126259000D01*
G75*
G02*
X166887000Y-126510000I-251000J0D01*
G01*
X166487000Y-126510000D01*
G75*
G02*
X166236000Y-126259000I0J251000D01*
G01*
G37*
G36*
G01*
X158502000Y-126496000D02*
X158502000Y-126996000D01*
G75*
G02*
X158226000Y-127272000I-276000J0D01*
G01*
X157776000Y-127272000D01*
G75*
G02*
X157500000Y-126996000I0J276000D01*
G01*
X157500000Y-126496000D01*
G75*
G02*
X157776000Y-126220000I276000J0D01*
G01*
X158226000Y-126220000D01*
G75*
G02*
X158502000Y-126496000I0J-276000D01*
G01*
G37*
G36*
G01*
X156952000Y-126496000D02*
X156952000Y-126996000D01*
G75*
G02*
X156676000Y-127272000I-276000J0D01*
G01*
X156226000Y-127272000D01*
G75*
G02*
X155950000Y-126996000I0J276000D01*
G01*
X155950000Y-126496000D01*
G75*
G02*
X156226000Y-126220000I276000J0D01*
G01*
X156676000Y-126220000D01*
G75*
G02*
X156952000Y-126496000I0J-276000D01*
G01*
G37*
G36*
G01*
X146044000Y-132863000D02*
X146044000Y-132313000D01*
G75*
G02*
X146295000Y-132062000I251000J0D01*
G01*
X146695000Y-132062000D01*
G75*
G02*
X146946000Y-132313000I0J-251000D01*
G01*
X146946000Y-132863000D01*
G75*
G02*
X146695000Y-133114000I-251000J0D01*
G01*
X146295000Y-133114000D01*
G75*
G02*
X146044000Y-132863000I0J251000D01*
G01*
G37*
G36*
G01*
X147694000Y-132863000D02*
X147694000Y-132313000D01*
G75*
G02*
X147945000Y-132062000I251000J0D01*
G01*
X148345000Y-132062000D01*
G75*
G02*
X148596000Y-132313000I0J-251000D01*
G01*
X148596000Y-132863000D01*
G75*
G02*
X148345000Y-133114000I-251000J0D01*
G01*
X147945000Y-133114000D01*
G75*
G02*
X147694000Y-132863000I0J251000D01*
G01*
G37*
G36*
G01*
X160268000Y-133117000D02*
X160268000Y-132567000D01*
G75*
G02*
X160519000Y-132316000I251000J0D01*
G01*
X160919000Y-132316000D01*
G75*
G02*
X161170000Y-132567000I0J-251000D01*
G01*
X161170000Y-133117000D01*
G75*
G02*
X160919000Y-133368000I-251000J0D01*
G01*
X160519000Y-133368000D01*
G75*
G02*
X160268000Y-133117000I0J251000D01*
G01*
G37*
G36*
G01*
X161918000Y-133117000D02*
X161918000Y-132567000D01*
G75*
G02*
X162169000Y-132316000I251000J0D01*
G01*
X162569000Y-132316000D01*
G75*
G02*
X162820000Y-132567000I0J-251000D01*
G01*
X162820000Y-133117000D01*
G75*
G02*
X162569000Y-133368000I-251000J0D01*
G01*
X162169000Y-133368000D01*
G75*
G02*
X161918000Y-133117000I0J251000D01*
G01*
G37*
G36*
G01*
X142754000Y-85577000D02*
X142754000Y-86127000D01*
G75*
G02*
X142503000Y-86378000I-251000J0D01*
G01*
X142103000Y-86378000D01*
G75*
G02*
X141852000Y-86127000I0J251000D01*
G01*
X141852000Y-85577000D01*
G75*
G02*
X142103000Y-85326000I251000J0D01*
G01*
X142503000Y-85326000D01*
G75*
G02*
X142754000Y-85577000I0J-251000D01*
G01*
G37*
G36*
G01*
X141104000Y-85577000D02*
X141104000Y-86127000D01*
G75*
G02*
X140853000Y-86378000I-251000J0D01*
G01*
X140453000Y-86378000D01*
G75*
G02*
X140202000Y-86127000I0J251000D01*
G01*
X140202000Y-85577000D01*
G75*
G02*
X140453000Y-85326000I251000J0D01*
G01*
X140853000Y-85326000D01*
G75*
G02*
X141104000Y-85577000I0J-251000D01*
G01*
G37*
G36*
G01*
X125470000Y-73402000D02*
X125470000Y-72902000D01*
G75*
G02*
X125746000Y-72626000I276000J0D01*
G01*
X126196000Y-72626000D01*
G75*
G02*
X126472000Y-72902000I0J-276000D01*
G01*
X126472000Y-73402000D01*
G75*
G02*
X126196000Y-73678000I-276000J0D01*
G01*
X125746000Y-73678000D01*
G75*
G02*
X125470000Y-73402000I0J276000D01*
G01*
G37*
G36*
G01*
X127020000Y-73402000D02*
X127020000Y-72902000D01*
G75*
G02*
X127296000Y-72626000I276000J0D01*
G01*
X127746000Y-72626000D01*
G75*
G02*
X128022000Y-72902000I0J-276000D01*
G01*
X128022000Y-73402000D01*
G75*
G02*
X127746000Y-73678000I-276000J0D01*
G01*
X127296000Y-73678000D01*
G75*
G02*
X127020000Y-73402000I0J276000D01*
G01*
G37*
G36*
G01*
X126752000Y-136402000D02*
X126752000Y-136902000D01*
G75*
G02*
X126476000Y-137178000I-276000J0D01*
G01*
X126026000Y-137178000D01*
G75*
G02*
X125750000Y-136902000I0J276000D01*
G01*
X125750000Y-136402000D01*
G75*
G02*
X126026000Y-136126000I276000J0D01*
G01*
X126476000Y-136126000D01*
G75*
G02*
X126752000Y-136402000I0J-276000D01*
G01*
G37*
G36*
G01*
X125202000Y-136402000D02*
X125202000Y-136902000D01*
G75*
G02*
X124926000Y-137178000I-276000J0D01*
G01*
X124476000Y-137178000D01*
G75*
G02*
X124200000Y-136902000I0J276000D01*
G01*
X124200000Y-136402000D01*
G75*
G02*
X124476000Y-136126000I276000J0D01*
G01*
X124926000Y-136126000D01*
G75*
G02*
X125202000Y-136402000I0J-276000D01*
G01*
G37*
G36*
G01*
X130611000Y-73429000D02*
X130611000Y-73129000D01*
G75*
G02*
X130812000Y-72928000I201000J0D01*
G01*
X132462000Y-72928000D01*
G75*
G02*
X132663000Y-73129000I0J-201000D01*
G01*
X132663000Y-73429000D01*
G75*
G02*
X132462000Y-73630000I-201000J0D01*
G01*
X130812000Y-73630000D01*
G75*
G02*
X130611000Y-73429000I0J201000D01*
G01*
G37*
G36*
G01*
X130611000Y-72159000D02*
X130611000Y-71859000D01*
G75*
G02*
X130812000Y-71658000I201000J0D01*
G01*
X132462000Y-71658000D01*
G75*
G02*
X132663000Y-71859000I0J-201000D01*
G01*
X132663000Y-72159000D01*
G75*
G02*
X132462000Y-72360000I-201000J0D01*
G01*
X130812000Y-72360000D01*
G75*
G02*
X130611000Y-72159000I0J201000D01*
G01*
G37*
G36*
G01*
X130611000Y-70889000D02*
X130611000Y-70589000D01*
G75*
G02*
X130812000Y-70388000I201000J0D01*
G01*
X132462000Y-70388000D01*
G75*
G02*
X132663000Y-70589000I0J-201000D01*
G01*
X132663000Y-70889000D01*
G75*
G02*
X132462000Y-71090000I-201000J0D01*
G01*
X130812000Y-71090000D01*
G75*
G02*
X130611000Y-70889000I0J201000D01*
G01*
G37*
G36*
G01*
X130611000Y-69619000D02*
X130611000Y-69319000D01*
G75*
G02*
X130812000Y-69118000I201000J0D01*
G01*
X132462000Y-69118000D01*
G75*
G02*
X132663000Y-69319000I0J-201000D01*
G01*
X132663000Y-69619000D01*
G75*
G02*
X132462000Y-69820000I-201000J0D01*
G01*
X130812000Y-69820000D01*
G75*
G02*
X130611000Y-69619000I0J201000D01*
G01*
G37*
G36*
G01*
X135561000Y-69619000D02*
X135561000Y-69319000D01*
G75*
G02*
X135762000Y-69118000I201000J0D01*
G01*
X137412000Y-69118000D01*
G75*
G02*
X137613000Y-69319000I0J-201000D01*
G01*
X137613000Y-69619000D01*
G75*
G02*
X137412000Y-69820000I-201000J0D01*
G01*
X135762000Y-69820000D01*
G75*
G02*
X135561000Y-69619000I0J201000D01*
G01*
G37*
G36*
G01*
X135561000Y-70889000D02*
X135561000Y-70589000D01*
G75*
G02*
X135762000Y-70388000I201000J0D01*
G01*
X137412000Y-70388000D01*
G75*
G02*
X137613000Y-70589000I0J-201000D01*
G01*
X137613000Y-70889000D01*
G75*
G02*
X137412000Y-71090000I-201000J0D01*
G01*
X135762000Y-71090000D01*
G75*
G02*
X135561000Y-70889000I0J201000D01*
G01*
G37*
G36*
G01*
X135561000Y-72159000D02*
X135561000Y-71859000D01*
G75*
G02*
X135762000Y-71658000I201000J0D01*
G01*
X137412000Y-71658000D01*
G75*
G02*
X137613000Y-71859000I0J-201000D01*
G01*
X137613000Y-72159000D01*
G75*
G02*
X137412000Y-72360000I-201000J0D01*
G01*
X135762000Y-72360000D01*
G75*
G02*
X135561000Y-72159000I0J201000D01*
G01*
G37*
G36*
G01*
X135561000Y-73429000D02*
X135561000Y-73129000D01*
G75*
G02*
X135762000Y-72928000I201000J0D01*
G01*
X137412000Y-72928000D01*
G75*
G02*
X137613000Y-73129000I0J-201000D01*
G01*
X137613000Y-73429000D01*
G75*
G02*
X137412000Y-73630000I-201000J0D01*
G01*
X135762000Y-73630000D01*
G75*
G02*
X135561000Y-73429000I0J201000D01*
G01*
G37*
G36*
G01*
X154934000Y-86127000D02*
X154934000Y-85577000D01*
G75*
G02*
X155185000Y-85326000I251000J0D01*
G01*
X155585000Y-85326000D01*
G75*
G02*
X155836000Y-85577000I0J-251000D01*
G01*
X155836000Y-86127000D01*
G75*
G02*
X155585000Y-86378000I-251000J0D01*
G01*
X155185000Y-86378000D01*
G75*
G02*
X154934000Y-86127000I0J251000D01*
G01*
G37*
G36*
G01*
X156584000Y-86127000D02*
X156584000Y-85577000D01*
G75*
G02*
X156835000Y-85326000I251000J0D01*
G01*
X157235000Y-85326000D01*
G75*
G02*
X157486000Y-85577000I0J-251000D01*
G01*
X157486000Y-86127000D01*
G75*
G02*
X157235000Y-86378000I-251000J0D01*
G01*
X156835000Y-86378000D01*
G75*
G02*
X156584000Y-86127000I0J251000D01*
G01*
G37*
G36*
G01*
X144503000Y-135415000D02*
X144503000Y-136365000D01*
G75*
G02*
X144202000Y-136666000I-301000J0D01*
G01*
X143702000Y-136666000D01*
G75*
G02*
X143401000Y-136365000I0J301000D01*
G01*
X143401000Y-135415000D01*
G75*
G02*
X143702000Y-135114000I301000J0D01*
G01*
X144202000Y-135114000D01*
G75*
G02*
X144503000Y-135415000I0J-301000D01*
G01*
G37*
G36*
G01*
X142603000Y-135415000D02*
X142603000Y-136365000D01*
G75*
G02*
X142302000Y-136666000I-301000J0D01*
G01*
X141802000Y-136666000D01*
G75*
G02*
X141501000Y-136365000I0J301000D01*
G01*
X141501000Y-135415000D01*
G75*
G02*
X141802000Y-135114000I301000J0D01*
G01*
X142302000Y-135114000D01*
G75*
G02*
X142603000Y-135415000I0J-301000D01*
G01*
G37*
G36*
G01*
X164361000Y-107155000D02*
X164361000Y-106205000D01*
G75*
G02*
X164662000Y-105904000I301000J0D01*
G01*
X165162000Y-105904000D01*
G75*
G02*
X165463000Y-106205000I0J-301000D01*
G01*
X165463000Y-107155000D01*
G75*
G02*
X165162000Y-107456000I-301000J0D01*
G01*
X164662000Y-107456000D01*
G75*
G02*
X164361000Y-107155000I0J301000D01*
G01*
G37*
G36*
G01*
X166261000Y-107155000D02*
X166261000Y-106205000D01*
G75*
G02*
X166562000Y-105904000I301000J0D01*
G01*
X167062000Y-105904000D01*
G75*
G02*
X167363000Y-106205000I0J-301000D01*
G01*
X167363000Y-107155000D01*
G75*
G02*
X167062000Y-107456000I-301000J0D01*
G01*
X166562000Y-107456000D01*
G75*
G02*
X166261000Y-107155000I0J301000D01*
G01*
G37*
G36*
G01*
X157740000Y-99826000D02*
X157740000Y-100326000D01*
G75*
G02*
X157464000Y-100602000I-276000J0D01*
G01*
X157014000Y-100602000D01*
G75*
G02*
X156738000Y-100326000I0J276000D01*
G01*
X156738000Y-99826000D01*
G75*
G02*
X157014000Y-99550000I276000J0D01*
G01*
X157464000Y-99550000D01*
G75*
G02*
X157740000Y-99826000I0J-276000D01*
G01*
G37*
G36*
G01*
X156190000Y-99826000D02*
X156190000Y-100326000D01*
G75*
G02*
X155914000Y-100602000I-276000J0D01*
G01*
X155464000Y-100602000D01*
G75*
G02*
X155188000Y-100326000I0J276000D01*
G01*
X155188000Y-99826000D01*
G75*
G02*
X155464000Y-99550000I276000J0D01*
G01*
X155914000Y-99550000D01*
G75*
G02*
X156190000Y-99826000I0J-276000D01*
G01*
G37*
G36*
G01*
X144278000Y-132313000D02*
X144278000Y-132863000D01*
G75*
G02*
X144027000Y-133114000I-251000J0D01*
G01*
X143627000Y-133114000D01*
G75*
G02*
X143376000Y-132863000I0J251000D01*
G01*
X143376000Y-132313000D01*
G75*
G02*
X143627000Y-132062000I251000J0D01*
G01*
X144027000Y-132062000D01*
G75*
G02*
X144278000Y-132313000I0J-251000D01*
G01*
G37*
G36*
G01*
X142628000Y-132313000D02*
X142628000Y-132863000D01*
G75*
G02*
X142377000Y-133114000I-251000J0D01*
G01*
X141977000Y-133114000D01*
G75*
G02*
X141726000Y-132863000I0J251000D01*
G01*
X141726000Y-132313000D01*
G75*
G02*
X141977000Y-132062000I251000J0D01*
G01*
X142377000Y-132062000D01*
G75*
G02*
X142628000Y-132313000I0J-251000D01*
G01*
G37*
G36*
G01*
X130804000Y-122424000D02*
X130804000Y-121924000D01*
G75*
G02*
X131080000Y-121648000I276000J0D01*
G01*
X131530000Y-121648000D01*
G75*
G02*
X131806000Y-121924000I0J-276000D01*
G01*
X131806000Y-122424000D01*
G75*
G02*
X131530000Y-122700000I-276000J0D01*
G01*
X131080000Y-122700000D01*
G75*
G02*
X130804000Y-122424000I0J276000D01*
G01*
G37*
G36*
G01*
X132354000Y-122424000D02*
X132354000Y-121924000D01*
G75*
G02*
X132630000Y-121648000I276000J0D01*
G01*
X133080000Y-121648000D01*
G75*
G02*
X133356000Y-121924000I0J-276000D01*
G01*
X133356000Y-122424000D01*
G75*
G02*
X133080000Y-122700000I-276000J0D01*
G01*
X132630000Y-122700000D01*
G75*
G02*
X132354000Y-122424000I0J276000D01*
G01*
G37*
G36*
G01*
X162820000Y-129011000D02*
X162820000Y-129561000D01*
G75*
G02*
X162569000Y-129812000I-251000J0D01*
G01*
X162169000Y-129812000D01*
G75*
G02*
X161918000Y-129561000I0J251000D01*
G01*
X161918000Y-129011000D01*
G75*
G02*
X162169000Y-128760000I251000J0D01*
G01*
X162569000Y-128760000D01*
G75*
G02*
X162820000Y-129011000I0J-251000D01*
G01*
G37*
G36*
G01*
X161170000Y-129011000D02*
X161170000Y-129561000D01*
G75*
G02*
X160919000Y-129812000I-251000J0D01*
G01*
X160519000Y-129812000D01*
G75*
G02*
X160268000Y-129561000I0J251000D01*
G01*
X160268000Y-129011000D01*
G75*
G02*
X160519000Y-128760000I251000J0D01*
G01*
X160919000Y-128760000D01*
G75*
G02*
X161170000Y-129011000I0J-251000D01*
G01*
G37*
G36*
G01*
X162820000Y-135615000D02*
X162820000Y-136165000D01*
G75*
G02*
X162569000Y-136416000I-251000J0D01*
G01*
X162169000Y-136416000D01*
G75*
G02*
X161918000Y-136165000I0J251000D01*
G01*
X161918000Y-135615000D01*
G75*
G02*
X162169000Y-135364000I251000J0D01*
G01*
X162569000Y-135364000D01*
G75*
G02*
X162820000Y-135615000I0J-251000D01*
G01*
G37*
G36*
G01*
X161170000Y-135615000D02*
X161170000Y-136165000D01*
G75*
G02*
X160919000Y-136416000I-251000J0D01*
G01*
X160519000Y-136416000D01*
G75*
G02*
X160268000Y-136165000I0J251000D01*
G01*
X160268000Y-135615000D01*
G75*
G02*
X160519000Y-135364000I251000J0D01*
G01*
X160919000Y-135364000D01*
G75*
G02*
X161170000Y-135615000I0J-251000D01*
G01*
G37*
G36*
G01*
X142754000Y-72902000D02*
X142754000Y-73402000D01*
G75*
G02*
X142478000Y-73678000I-276000J0D01*
G01*
X142028000Y-73678000D01*
G75*
G02*
X141752000Y-73402000I0J276000D01*
G01*
X141752000Y-72902000D01*
G75*
G02*
X142028000Y-72626000I276000J0D01*
G01*
X142478000Y-72626000D01*
G75*
G02*
X142754000Y-72902000I0J-276000D01*
G01*
G37*
G36*
G01*
X141204000Y-72902000D02*
X141204000Y-73402000D01*
G75*
G02*
X140928000Y-73678000I-276000J0D01*
G01*
X140478000Y-73678000D01*
G75*
G02*
X140202000Y-73402000I0J276000D01*
G01*
X140202000Y-72902000D01*
G75*
G02*
X140478000Y-72626000I276000J0D01*
G01*
X140928000Y-72626000D01*
G75*
G02*
X141204000Y-72902000I0J-276000D01*
G01*
G37*
G36*
G01*
X144278000Y-99801000D02*
X144278000Y-100351000D01*
G75*
G02*
X144027000Y-100602000I-251000J0D01*
G01*
X143627000Y-100602000D01*
G75*
G02*
X143376000Y-100351000I0J251000D01*
G01*
X143376000Y-99801000D01*
G75*
G02*
X143627000Y-99550000I251000J0D01*
G01*
X144027000Y-99550000D01*
G75*
G02*
X144278000Y-99801000I0J-251000D01*
G01*
G37*
G36*
G01*
X142628000Y-99801000D02*
X142628000Y-100351000D01*
G75*
G02*
X142377000Y-100602000I-251000J0D01*
G01*
X141977000Y-100602000D01*
G75*
G02*
X141726000Y-100351000I0J251000D01*
G01*
X141726000Y-99801000D01*
G75*
G02*
X141977000Y-99550000I251000J0D01*
G01*
X142377000Y-99550000D01*
G75*
G02*
X142628000Y-99801000I0J-251000D01*
G01*
G37*
G36*
G01*
X139960000Y-107421000D02*
X139960000Y-107971000D01*
G75*
G02*
X139709000Y-108222000I-251000J0D01*
G01*
X139309000Y-108222000D01*
G75*
G02*
X139058000Y-107971000I0J251000D01*
G01*
X139058000Y-107421000D01*
G75*
G02*
X139309000Y-107170000I251000J0D01*
G01*
X139709000Y-107170000D01*
G75*
G02*
X139960000Y-107421000I0J-251000D01*
G01*
G37*
G36*
G01*
X138310000Y-107421000D02*
X138310000Y-107971000D01*
G75*
G02*
X138059000Y-108222000I-251000J0D01*
G01*
X137659000Y-108222000D01*
G75*
G02*
X137408000Y-107971000I0J251000D01*
G01*
X137408000Y-107421000D01*
G75*
G02*
X137659000Y-107170000I251000J0D01*
G01*
X138059000Y-107170000D01*
G75*
G02*
X138310000Y-107421000I0J-251000D01*
G01*
G37*
G36*
G01*
X142754000Y-78973000D02*
X142754000Y-79523000D01*
G75*
G02*
X142503000Y-79774000I-251000J0D01*
G01*
X142103000Y-79774000D01*
G75*
G02*
X141852000Y-79523000I0J251000D01*
G01*
X141852000Y-78973000D01*
G75*
G02*
X142103000Y-78722000I251000J0D01*
G01*
X142503000Y-78722000D01*
G75*
G02*
X142754000Y-78973000I0J-251000D01*
G01*
G37*
G36*
G01*
X141104000Y-78973000D02*
X141104000Y-79523000D01*
G75*
G02*
X140853000Y-79774000I-251000J0D01*
G01*
X140453000Y-79774000D01*
G75*
G02*
X140202000Y-79523000I0J251000D01*
G01*
X140202000Y-78973000D01*
G75*
G02*
X140453000Y-78722000I251000J0D01*
G01*
X140853000Y-78722000D01*
G75*
G02*
X141104000Y-78973000I0J-251000D01*
G01*
G37*
G36*
G01*
X144757000Y-128811000D02*
X144757000Y-129761000D01*
G75*
G02*
X144456000Y-130062000I-301000J0D01*
G01*
X143956000Y-130062000D01*
G75*
G02*
X143655000Y-129761000I0J301000D01*
G01*
X143655000Y-128811000D01*
G75*
G02*
X143956000Y-128510000I301000J0D01*
G01*
X144456000Y-128510000D01*
G75*
G02*
X144757000Y-128811000I0J-301000D01*
G01*
G37*
G36*
G01*
X142857000Y-128811000D02*
X142857000Y-129761000D01*
G75*
G02*
X142556000Y-130062000I-301000J0D01*
G01*
X142056000Y-130062000D01*
G75*
G02*
X141755000Y-129761000I0J301000D01*
G01*
X141755000Y-128811000D01*
G75*
G02*
X142056000Y-128510000I301000J0D01*
G01*
X142556000Y-128510000D01*
G75*
G02*
X142857000Y-128811000I0J-301000D01*
G01*
G37*
G36*
G01*
X164361000Y-103853000D02*
X164361000Y-102903000D01*
G75*
G02*
X164662000Y-102602000I301000J0D01*
G01*
X165162000Y-102602000D01*
G75*
G02*
X165463000Y-102903000I0J-301000D01*
G01*
X165463000Y-103853000D01*
G75*
G02*
X165162000Y-104154000I-301000J0D01*
G01*
X164662000Y-104154000D01*
G75*
G02*
X164361000Y-103853000I0J301000D01*
G01*
G37*
G36*
G01*
X166261000Y-103853000D02*
X166261000Y-102903000D01*
G75*
G02*
X166562000Y-102602000I301000J0D01*
G01*
X167062000Y-102602000D01*
G75*
G02*
X167363000Y-102903000I0J-301000D01*
G01*
X167363000Y-103853000D01*
G75*
G02*
X167062000Y-104154000I-301000J0D01*
G01*
X166562000Y-104154000D01*
G75*
G02*
X166261000Y-103853000I0J301000D01*
G01*
G37*
G36*
G01*
X136392000Y-120646000D02*
X136392000Y-120146000D01*
G75*
G02*
X136668000Y-119870000I276000J0D01*
G01*
X137118000Y-119870000D01*
G75*
G02*
X137394000Y-120146000I0J-276000D01*
G01*
X137394000Y-120646000D01*
G75*
G02*
X137118000Y-120922000I-276000J0D01*
G01*
X136668000Y-120922000D01*
G75*
G02*
X136392000Y-120646000I0J276000D01*
G01*
G37*
G36*
G01*
X137942000Y-120646000D02*
X137942000Y-120146000D01*
G75*
G02*
X138218000Y-119870000I276000J0D01*
G01*
X138668000Y-119870000D01*
G75*
G02*
X138944000Y-120146000I0J-276000D01*
G01*
X138944000Y-120646000D01*
G75*
G02*
X138668000Y-120922000I-276000J0D01*
G01*
X138218000Y-120922000D01*
G75*
G02*
X137942000Y-120646000I0J276000D01*
G01*
G37*
X143216000Y-93218000D03*
X138216000Y-93218000D03*
G36*
X152284587Y-133566477D02*
G01*
X152284126Y-133567891D01*
X152244803Y-133614944D01*
X152236170Y-133683660D01*
X152266133Y-133746289D01*
X152274803Y-133753800D01*
X152275457Y-133755690D01*
X152274147Y-133757202D01*
X152272382Y-133756975D01*
X152264006Y-133751379D01*
X152206801Y-133740000D01*
X150932199Y-133740000D01*
X150874994Y-133751379D01*
X150857520Y-133763055D01*
X150855524Y-133763186D01*
X150854413Y-133761523D01*
X150854874Y-133760109D01*
X150894197Y-133713056D01*
X150902830Y-133644340D01*
X150872867Y-133581711D01*
X150864197Y-133574200D01*
X150863543Y-133572310D01*
X150864853Y-133570798D01*
X150866618Y-133571025D01*
X150874994Y-133576621D01*
X150932199Y-133588000D01*
X152206801Y-133588000D01*
X152264006Y-133576621D01*
X152281480Y-133564945D01*
X152283476Y-133564814D01*
X152284587Y-133566477D01*
G37*
G36*
X158009587Y-133566477D02*
G01*
X158009126Y-133567891D01*
X157969803Y-133614944D01*
X157961170Y-133683660D01*
X157991133Y-133746289D01*
X157999803Y-133753800D01*
X158000457Y-133755690D01*
X157999147Y-133757202D01*
X157997382Y-133756975D01*
X157989006Y-133751379D01*
X157931801Y-133740000D01*
X156657199Y-133740000D01*
X156599994Y-133751379D01*
X156582520Y-133763055D01*
X156580524Y-133763186D01*
X156579413Y-133761523D01*
X156579874Y-133760109D01*
X156619197Y-133713056D01*
X156627830Y-133644340D01*
X156597867Y-133581711D01*
X156589197Y-133574200D01*
X156588543Y-133572310D01*
X156589853Y-133570798D01*
X156591618Y-133571025D01*
X156599994Y-133576621D01*
X156657199Y-133588000D01*
X157931801Y-133588000D01*
X157989006Y-133576621D01*
X158006480Y-133564945D01*
X158008476Y-133564814D01*
X158009587Y-133566477D01*
G37*
G36*
X158009587Y-132916477D02*
G01*
X158009126Y-132917891D01*
X157969803Y-132964944D01*
X157961170Y-133033660D01*
X157991133Y-133096289D01*
X157999803Y-133103800D01*
X158000457Y-133105690D01*
X157999147Y-133107202D01*
X157997382Y-133106975D01*
X157989006Y-133101379D01*
X157931801Y-133090000D01*
X156657199Y-133090000D01*
X156599994Y-133101379D01*
X156582520Y-133113055D01*
X156580524Y-133113186D01*
X156579413Y-133111523D01*
X156579874Y-133110109D01*
X156619197Y-133063056D01*
X156627830Y-132994340D01*
X156597867Y-132931711D01*
X156589197Y-132924200D01*
X156588543Y-132922310D01*
X156589853Y-132920798D01*
X156591618Y-132921025D01*
X156599994Y-132926621D01*
X156657199Y-132938000D01*
X157931801Y-132938000D01*
X157989006Y-132926621D01*
X158006480Y-132914945D01*
X158008476Y-132914814D01*
X158009587Y-132916477D01*
G37*
G36*
X152284587Y-132916477D02*
G01*
X152284126Y-132917891D01*
X152244803Y-132964944D01*
X152236170Y-133033660D01*
X152266133Y-133096289D01*
X152274803Y-133103800D01*
X152275457Y-133105690D01*
X152274147Y-133107202D01*
X152272382Y-133106975D01*
X152264006Y-133101379D01*
X152206801Y-133090000D01*
X150932199Y-133090000D01*
X150874994Y-133101379D01*
X150857520Y-133113055D01*
X150855524Y-133113186D01*
X150854413Y-133111523D01*
X150854874Y-133110109D01*
X150894197Y-133063056D01*
X150902830Y-132994340D01*
X150872867Y-132931711D01*
X150864197Y-132924200D01*
X150863543Y-132922310D01*
X150864853Y-132920798D01*
X150866618Y-132921025D01*
X150874994Y-132926621D01*
X150932199Y-132938000D01*
X152206801Y-132938000D01*
X152264006Y-132926621D01*
X152281480Y-132914945D01*
X152283476Y-132914814D01*
X152284587Y-132916477D01*
G37*
G36*
X152284587Y-132266477D02*
G01*
X152284126Y-132267891D01*
X152244803Y-132314944D01*
X152236170Y-132383660D01*
X152266133Y-132446289D01*
X152274803Y-132453800D01*
X152275457Y-132455690D01*
X152274147Y-132457202D01*
X152272382Y-132456975D01*
X152264006Y-132451379D01*
X152206801Y-132440000D01*
X150932199Y-132440000D01*
X150874994Y-132451379D01*
X150857520Y-132463055D01*
X150855524Y-132463186D01*
X150854413Y-132461523D01*
X150854874Y-132460109D01*
X150894197Y-132413056D01*
X150902830Y-132344340D01*
X150872867Y-132281711D01*
X150864197Y-132274200D01*
X150863543Y-132272310D01*
X150864853Y-132270798D01*
X150866618Y-132271025D01*
X150874994Y-132276621D01*
X150932199Y-132288000D01*
X152206801Y-132288000D01*
X152264006Y-132276621D01*
X152281480Y-132264945D01*
X152283476Y-132264814D01*
X152284587Y-132266477D01*
G37*
G36*
X158009587Y-132266477D02*
G01*
X158009126Y-132267891D01*
X157969803Y-132314944D01*
X157961170Y-132383660D01*
X157991133Y-132446289D01*
X157999803Y-132453800D01*
X158000457Y-132455690D01*
X157999147Y-132457202D01*
X157997382Y-132456975D01*
X157989006Y-132451379D01*
X157931801Y-132440000D01*
X156657199Y-132440000D01*
X156599994Y-132451379D01*
X156582520Y-132463055D01*
X156580524Y-132463186D01*
X156579413Y-132461523D01*
X156579874Y-132460109D01*
X156619197Y-132413056D01*
X156627830Y-132344340D01*
X156597867Y-132281711D01*
X156589197Y-132274200D01*
X156588543Y-132272310D01*
X156589853Y-132270798D01*
X156591618Y-132271025D01*
X156599994Y-132276621D01*
X156657199Y-132288000D01*
X157931801Y-132288000D01*
X157989006Y-132276621D01*
X158006480Y-132264945D01*
X158008476Y-132264814D01*
X158009587Y-132266477D01*
G37*
G36*
X152284587Y-131616477D02*
G01*
X152284126Y-131617891D01*
X152244803Y-131664944D01*
X152236170Y-131733660D01*
X152266133Y-131796289D01*
X152274803Y-131803800D01*
X152275457Y-131805690D01*
X152274147Y-131807202D01*
X152272382Y-131806975D01*
X152264006Y-131801379D01*
X152206801Y-131790000D01*
X150932199Y-131790000D01*
X150874994Y-131801379D01*
X150857520Y-131813055D01*
X150855524Y-131813186D01*
X150854413Y-131811523D01*
X150854874Y-131810109D01*
X150894197Y-131763056D01*
X150902830Y-131694340D01*
X150872867Y-131631711D01*
X150864197Y-131624200D01*
X150863543Y-131622310D01*
X150864853Y-131620798D01*
X150866618Y-131621025D01*
X150874994Y-131626621D01*
X150932199Y-131638000D01*
X152206801Y-131638000D01*
X152264006Y-131626621D01*
X152281480Y-131614945D01*
X152283476Y-131614814D01*
X152284587Y-131616477D01*
G37*
G36*
X158009587Y-131616477D02*
G01*
X158009126Y-131617891D01*
X157969803Y-131664944D01*
X157961170Y-131733660D01*
X157991133Y-131796289D01*
X157999803Y-131803800D01*
X158000457Y-131805690D01*
X157999147Y-131807202D01*
X157997382Y-131806975D01*
X157989006Y-131801379D01*
X157931801Y-131790000D01*
X156657199Y-131790000D01*
X156599994Y-131801379D01*
X156582520Y-131813055D01*
X156580524Y-131813186D01*
X156579413Y-131811523D01*
X156579874Y-131810109D01*
X156619197Y-131763056D01*
X156627830Y-131694340D01*
X156597867Y-131631711D01*
X156589197Y-131624200D01*
X156588543Y-131622310D01*
X156589853Y-131620798D01*
X156591618Y-131621025D01*
X156599994Y-131626621D01*
X156657199Y-131638000D01*
X157931801Y-131638000D01*
X157989006Y-131626621D01*
X158006480Y-131614945D01*
X158008476Y-131614814D01*
X158009587Y-131616477D01*
G37*
G36*
X158009587Y-130966477D02*
G01*
X158009126Y-130967891D01*
X157969803Y-131014944D01*
X157961170Y-131083660D01*
X157991133Y-131146289D01*
X157999803Y-131153800D01*
X158000457Y-131155690D01*
X157999147Y-131157202D01*
X157997382Y-131156975D01*
X157989006Y-131151379D01*
X157931801Y-131140000D01*
X156657199Y-131140000D01*
X156599994Y-131151379D01*
X156582520Y-131163055D01*
X156580524Y-131163186D01*
X156579413Y-131161523D01*
X156579874Y-131160109D01*
X156619197Y-131113056D01*
X156627830Y-131044340D01*
X156597867Y-130981711D01*
X156589197Y-130974200D01*
X156588543Y-130972310D01*
X156589853Y-130970798D01*
X156591618Y-130971025D01*
X156599994Y-130976621D01*
X156657199Y-130988000D01*
X157931801Y-130988000D01*
X157989006Y-130976621D01*
X158006480Y-130964945D01*
X158008476Y-130964814D01*
X158009587Y-130966477D01*
G37*
G36*
X152284587Y-130966477D02*
G01*
X152284126Y-130967891D01*
X152244803Y-131014944D01*
X152236170Y-131083660D01*
X152266133Y-131146289D01*
X152274803Y-131153800D01*
X152275457Y-131155690D01*
X152274147Y-131157202D01*
X152272382Y-131156975D01*
X152264006Y-131151379D01*
X152206801Y-131140000D01*
X150932199Y-131140000D01*
X150874994Y-131151379D01*
X150857520Y-131163055D01*
X150855524Y-131163186D01*
X150854413Y-131161523D01*
X150854874Y-131160109D01*
X150894197Y-131113056D01*
X150902830Y-131044340D01*
X150872867Y-130981711D01*
X150864197Y-130974200D01*
X150863543Y-130972310D01*
X150864853Y-130970798D01*
X150866618Y-130971025D01*
X150874994Y-130976621D01*
X150932199Y-130988000D01*
X152206801Y-130988000D01*
X152264006Y-130976621D01*
X152281480Y-130964945D01*
X152283476Y-130964814D01*
X152284587Y-130966477D01*
G37*
G36*
X158009587Y-130316477D02*
G01*
X158009126Y-130317891D01*
X157969803Y-130364944D01*
X157961170Y-130433660D01*
X157991133Y-130496289D01*
X157999803Y-130503800D01*
X158000457Y-130505690D01*
X157999147Y-130507202D01*
X157997382Y-130506975D01*
X157989006Y-130501379D01*
X157931801Y-130490000D01*
X156657199Y-130490000D01*
X156599994Y-130501379D01*
X156582520Y-130513055D01*
X156580524Y-130513186D01*
X156579413Y-130511523D01*
X156579874Y-130510109D01*
X156619197Y-130463056D01*
X156627830Y-130394340D01*
X156597867Y-130331711D01*
X156589197Y-130324200D01*
X156588543Y-130322310D01*
X156589853Y-130320798D01*
X156591618Y-130321025D01*
X156599994Y-130326621D01*
X156657199Y-130338000D01*
X157931801Y-130338000D01*
X157989006Y-130326621D01*
X158006480Y-130314945D01*
X158008476Y-130314814D01*
X158009587Y-130316477D01*
G37*
G36*
X152284587Y-130316477D02*
G01*
X152284126Y-130317891D01*
X152244803Y-130364944D01*
X152236170Y-130433660D01*
X152266133Y-130496289D01*
X152274803Y-130503800D01*
X152275457Y-130505690D01*
X152274147Y-130507202D01*
X152272382Y-130506975D01*
X152264006Y-130501379D01*
X152206801Y-130490000D01*
X150932199Y-130490000D01*
X150874994Y-130501379D01*
X150857520Y-130513055D01*
X150855524Y-130513186D01*
X150854413Y-130511523D01*
X150854874Y-130510109D01*
X150894197Y-130463056D01*
X150902830Y-130394340D01*
X150872867Y-130331711D01*
X150864197Y-130324200D01*
X150863543Y-130322310D01*
X150864853Y-130320798D01*
X150866618Y-130321025D01*
X150874994Y-130326621D01*
X150932199Y-130338000D01*
X152206801Y-130338000D01*
X152264006Y-130326621D01*
X152281480Y-130314945D01*
X152283476Y-130314814D01*
X152284587Y-130316477D01*
G37*
G36*
X158009587Y-129666477D02*
G01*
X158009126Y-129667891D01*
X157969803Y-129714944D01*
X157961170Y-129783660D01*
X157991133Y-129846289D01*
X157999803Y-129853800D01*
X158000457Y-129855690D01*
X157999147Y-129857202D01*
X157997382Y-129856975D01*
X157989006Y-129851379D01*
X157931801Y-129840000D01*
X156657199Y-129840000D01*
X156599994Y-129851379D01*
X156582520Y-129863055D01*
X156580524Y-129863186D01*
X156579413Y-129861523D01*
X156579874Y-129860109D01*
X156619197Y-129813056D01*
X156627830Y-129744340D01*
X156597867Y-129681711D01*
X156589197Y-129674200D01*
X156588543Y-129672310D01*
X156589853Y-129670798D01*
X156591618Y-129671025D01*
X156599994Y-129676621D01*
X156657199Y-129688000D01*
X157931801Y-129688000D01*
X157989006Y-129676621D01*
X158006480Y-129664945D01*
X158008476Y-129664814D01*
X158009587Y-129666477D01*
G37*
G36*
X152284587Y-129666477D02*
G01*
X152284126Y-129667891D01*
X152244803Y-129714944D01*
X152236170Y-129783660D01*
X152266133Y-129846289D01*
X152274803Y-129853800D01*
X152275457Y-129855690D01*
X152274147Y-129857202D01*
X152272382Y-129856975D01*
X152264006Y-129851379D01*
X152206801Y-129840000D01*
X150932199Y-129840000D01*
X150874994Y-129851379D01*
X150857520Y-129863055D01*
X150855524Y-129863186D01*
X150854413Y-129861523D01*
X150854874Y-129860109D01*
X150894197Y-129813056D01*
X150902830Y-129744340D01*
X150872867Y-129681711D01*
X150864197Y-129674200D01*
X150863543Y-129672310D01*
X150864853Y-129670798D01*
X150866618Y-129671025D01*
X150874994Y-129676621D01*
X150932199Y-129688000D01*
X152206801Y-129688000D01*
X152264006Y-129676621D01*
X152281480Y-129664945D01*
X152283476Y-129664814D01*
X152284587Y-129666477D01*
G37*
G36*
X158009587Y-129016477D02*
G01*
X158009126Y-129017891D01*
X157969803Y-129064944D01*
X157961170Y-129133660D01*
X157991133Y-129196289D01*
X157999803Y-129203800D01*
X158000457Y-129205690D01*
X157999147Y-129207202D01*
X157997382Y-129206975D01*
X157989006Y-129201379D01*
X157931801Y-129190000D01*
X156657199Y-129190000D01*
X156599994Y-129201379D01*
X156582520Y-129213055D01*
X156580524Y-129213186D01*
X156579413Y-129211523D01*
X156579874Y-129210109D01*
X156619197Y-129163056D01*
X156627830Y-129094340D01*
X156597867Y-129031711D01*
X156589197Y-129024200D01*
X156588543Y-129022310D01*
X156589853Y-129020798D01*
X156591618Y-129021025D01*
X156599994Y-129026621D01*
X156657199Y-129038000D01*
X157931801Y-129038000D01*
X157989006Y-129026621D01*
X158006480Y-129014945D01*
X158008476Y-129014814D01*
X158009587Y-129016477D01*
G37*
G36*
X152284587Y-129016477D02*
G01*
X152284126Y-129017891D01*
X152244803Y-129064944D01*
X152236170Y-129133660D01*
X152266133Y-129196289D01*
X152274803Y-129203800D01*
X152275457Y-129205690D01*
X152274147Y-129207202D01*
X152272382Y-129206975D01*
X152264006Y-129201379D01*
X152206801Y-129190000D01*
X150932199Y-129190000D01*
X150874994Y-129201379D01*
X150857520Y-129213055D01*
X150855524Y-129213186D01*
X150854413Y-129211523D01*
X150854874Y-129210109D01*
X150894197Y-129163056D01*
X150902830Y-129094340D01*
X150872867Y-129031711D01*
X150864197Y-129024200D01*
X150863543Y-129022310D01*
X150864853Y-129020798D01*
X150866618Y-129021025D01*
X150874994Y-129026621D01*
X150932199Y-129038000D01*
X152206801Y-129038000D01*
X152264006Y-129026621D01*
X152281480Y-129014945D01*
X152283476Y-129014814D01*
X152284587Y-129016477D01*
G37*
G36*
X152284587Y-128366477D02*
G01*
X152284126Y-128367891D01*
X152244803Y-128414944D01*
X152236170Y-128483660D01*
X152266133Y-128546289D01*
X152274803Y-128553800D01*
X152275457Y-128555690D01*
X152274147Y-128557202D01*
X152272382Y-128556975D01*
X152264006Y-128551379D01*
X152206801Y-128540000D01*
X150932199Y-128540000D01*
X150874994Y-128551379D01*
X150857520Y-128563055D01*
X150855524Y-128563186D01*
X150854413Y-128561523D01*
X150854874Y-128560109D01*
X150894197Y-128513056D01*
X150902830Y-128444340D01*
X150872867Y-128381711D01*
X150864197Y-128374200D01*
X150863543Y-128372310D01*
X150864853Y-128370798D01*
X150866618Y-128371025D01*
X150874994Y-128376621D01*
X150932199Y-128388000D01*
X152206801Y-128388000D01*
X152264006Y-128376621D01*
X152281480Y-128364945D01*
X152283476Y-128364814D01*
X152284587Y-128366477D01*
G37*
G36*
X158009587Y-128366477D02*
G01*
X158009126Y-128367891D01*
X157969803Y-128414944D01*
X157961170Y-128483660D01*
X157991133Y-128546289D01*
X157999803Y-128553800D01*
X158000457Y-128555690D01*
X157999147Y-128557202D01*
X157997382Y-128556975D01*
X157989006Y-128551379D01*
X157931801Y-128540000D01*
X156657199Y-128540000D01*
X156599994Y-128551379D01*
X156582520Y-128563055D01*
X156580524Y-128563186D01*
X156579413Y-128561523D01*
X156579874Y-128560109D01*
X156619197Y-128513056D01*
X156627830Y-128444340D01*
X156597867Y-128381711D01*
X156589197Y-128374200D01*
X156588543Y-128372310D01*
X156589853Y-128370798D01*
X156591618Y-128371025D01*
X156599994Y-128376621D01*
X156657199Y-128388000D01*
X157931801Y-128388000D01*
X157989006Y-128376621D01*
X158006480Y-128364945D01*
X158008476Y-128364814D01*
X158009587Y-128366477D01*
G37*
G36*
X152284587Y-120612477D02*
G01*
X152284126Y-120613891D01*
X152244803Y-120660944D01*
X152236170Y-120729660D01*
X152266133Y-120792289D01*
X152274803Y-120799800D01*
X152275457Y-120801690D01*
X152274147Y-120803202D01*
X152272382Y-120802975D01*
X152264006Y-120797379D01*
X152206801Y-120786000D01*
X150932199Y-120786000D01*
X150874994Y-120797379D01*
X150857520Y-120809055D01*
X150855524Y-120809186D01*
X150854413Y-120807523D01*
X150854874Y-120806109D01*
X150894197Y-120759056D01*
X150902830Y-120690340D01*
X150872867Y-120627711D01*
X150864197Y-120620200D01*
X150863543Y-120618310D01*
X150864853Y-120616798D01*
X150866618Y-120617025D01*
X150874994Y-120622621D01*
X150932199Y-120634000D01*
X152206801Y-120634000D01*
X152264006Y-120622621D01*
X152281480Y-120610945D01*
X152283476Y-120610814D01*
X152284587Y-120612477D01*
G37*
G36*
X158009587Y-120612477D02*
G01*
X158009126Y-120613891D01*
X157969803Y-120660944D01*
X157961170Y-120729660D01*
X157991133Y-120792289D01*
X157999803Y-120799800D01*
X158000457Y-120801690D01*
X157999147Y-120803202D01*
X157997382Y-120802975D01*
X157989006Y-120797379D01*
X157931801Y-120786000D01*
X156657199Y-120786000D01*
X156599994Y-120797379D01*
X156582520Y-120809055D01*
X156580524Y-120809186D01*
X156579413Y-120807523D01*
X156579874Y-120806109D01*
X156619197Y-120759056D01*
X156627830Y-120690340D01*
X156597867Y-120627711D01*
X156589197Y-120620200D01*
X156588543Y-120618310D01*
X156589853Y-120616798D01*
X156591618Y-120617025D01*
X156599994Y-120622621D01*
X156657199Y-120634000D01*
X157931801Y-120634000D01*
X157989006Y-120622621D01*
X158006480Y-120610945D01*
X158008476Y-120610814D01*
X158009587Y-120612477D01*
G37*
G36*
X158009587Y-119962477D02*
G01*
X158009126Y-119963891D01*
X157969803Y-120010944D01*
X157961170Y-120079660D01*
X157991133Y-120142289D01*
X157999803Y-120149800D01*
X158000457Y-120151690D01*
X157999147Y-120153202D01*
X157997382Y-120152975D01*
X157989006Y-120147379D01*
X157931801Y-120136000D01*
X156657199Y-120136000D01*
X156599994Y-120147379D01*
X156582520Y-120159055D01*
X156580524Y-120159186D01*
X156579413Y-120157523D01*
X156579874Y-120156109D01*
X156619197Y-120109056D01*
X156627830Y-120040340D01*
X156597867Y-119977711D01*
X156589197Y-119970200D01*
X156588543Y-119968310D01*
X156589853Y-119966798D01*
X156591618Y-119967025D01*
X156599994Y-119972621D01*
X156657199Y-119984000D01*
X157931801Y-119984000D01*
X157989006Y-119972621D01*
X158006480Y-119960945D01*
X158008476Y-119960814D01*
X158009587Y-119962477D01*
G37*
G36*
X152284587Y-119962477D02*
G01*
X152284126Y-119963891D01*
X152244803Y-120010944D01*
X152236170Y-120079660D01*
X152266133Y-120142289D01*
X152274803Y-120149800D01*
X152275457Y-120151690D01*
X152274147Y-120153202D01*
X152272382Y-120152975D01*
X152264006Y-120147379D01*
X152206801Y-120136000D01*
X150932199Y-120136000D01*
X150874994Y-120147379D01*
X150857520Y-120159055D01*
X150855524Y-120159186D01*
X150854413Y-120157523D01*
X150854874Y-120156109D01*
X150894197Y-120109056D01*
X150902830Y-120040340D01*
X150872867Y-119977711D01*
X150864197Y-119970200D01*
X150863543Y-119968310D01*
X150864853Y-119966798D01*
X150866618Y-119967025D01*
X150874994Y-119972621D01*
X150932199Y-119984000D01*
X152206801Y-119984000D01*
X152264006Y-119972621D01*
X152281480Y-119960945D01*
X152283476Y-119960814D01*
X152284587Y-119962477D01*
G37*
G36*
X158009587Y-119312477D02*
G01*
X158009126Y-119313891D01*
X157969803Y-119360944D01*
X157961170Y-119429660D01*
X157991133Y-119492289D01*
X157999803Y-119499800D01*
X158000457Y-119501690D01*
X157999147Y-119503202D01*
X157997382Y-119502975D01*
X157989006Y-119497379D01*
X157931801Y-119486000D01*
X156657199Y-119486000D01*
X156599994Y-119497379D01*
X156582520Y-119509055D01*
X156580524Y-119509186D01*
X156579413Y-119507523D01*
X156579874Y-119506109D01*
X156619197Y-119459056D01*
X156627830Y-119390340D01*
X156597867Y-119327711D01*
X156589197Y-119320200D01*
X156588543Y-119318310D01*
X156589853Y-119316798D01*
X156591618Y-119317025D01*
X156599994Y-119322621D01*
X156657199Y-119334000D01*
X157931801Y-119334000D01*
X157989006Y-119322621D01*
X158006480Y-119310945D01*
X158008476Y-119310814D01*
X158009587Y-119312477D01*
G37*
G36*
X152284587Y-119312477D02*
G01*
X152284126Y-119313891D01*
X152244803Y-119360944D01*
X152236170Y-119429660D01*
X152266133Y-119492289D01*
X152274803Y-119499800D01*
X152275457Y-119501690D01*
X152274147Y-119503202D01*
X152272382Y-119502975D01*
X152264006Y-119497379D01*
X152206801Y-119486000D01*
X150932199Y-119486000D01*
X150874994Y-119497379D01*
X150857520Y-119509055D01*
X150855524Y-119509186D01*
X150854413Y-119507523D01*
X150854874Y-119506109D01*
X150894197Y-119459056D01*
X150902830Y-119390340D01*
X150872867Y-119327711D01*
X150864197Y-119320200D01*
X150863543Y-119318310D01*
X150864853Y-119316798D01*
X150866618Y-119317025D01*
X150874994Y-119322621D01*
X150932199Y-119334000D01*
X152206801Y-119334000D01*
X152264006Y-119322621D01*
X152281480Y-119310945D01*
X152283476Y-119310814D01*
X152284587Y-119312477D01*
G37*
G36*
X158009587Y-118662477D02*
G01*
X158009126Y-118663891D01*
X157969803Y-118710944D01*
X157961170Y-118779660D01*
X157991133Y-118842289D01*
X157999803Y-118849800D01*
X158000457Y-118851690D01*
X157999147Y-118853202D01*
X157997382Y-118852975D01*
X157989006Y-118847379D01*
X157931801Y-118836000D01*
X156657199Y-118836000D01*
X156599994Y-118847379D01*
X156582520Y-118859055D01*
X156580524Y-118859186D01*
X156579413Y-118857523D01*
X156579874Y-118856109D01*
X156619197Y-118809056D01*
X156627830Y-118740340D01*
X156597867Y-118677711D01*
X156589197Y-118670200D01*
X156588543Y-118668310D01*
X156589853Y-118666798D01*
X156591618Y-118667025D01*
X156599994Y-118672621D01*
X156657199Y-118684000D01*
X157931801Y-118684000D01*
X157989006Y-118672621D01*
X158006480Y-118660945D01*
X158008476Y-118660814D01*
X158009587Y-118662477D01*
G37*
G36*
X152284587Y-118662477D02*
G01*
X152284126Y-118663891D01*
X152244803Y-118710944D01*
X152236170Y-118779660D01*
X152266133Y-118842289D01*
X152274803Y-118849800D01*
X152275457Y-118851690D01*
X152274147Y-118853202D01*
X152272382Y-118852975D01*
X152264006Y-118847379D01*
X152206801Y-118836000D01*
X150932199Y-118836000D01*
X150874994Y-118847379D01*
X150857520Y-118859055D01*
X150855524Y-118859186D01*
X150854413Y-118857523D01*
X150854874Y-118856109D01*
X150894197Y-118809056D01*
X150902830Y-118740340D01*
X150872867Y-118677711D01*
X150864197Y-118670200D01*
X150863543Y-118668310D01*
X150864853Y-118666798D01*
X150866618Y-118667025D01*
X150874994Y-118672621D01*
X150932199Y-118684000D01*
X152206801Y-118684000D01*
X152264006Y-118672621D01*
X152281480Y-118660945D01*
X152283476Y-118660814D01*
X152284587Y-118662477D01*
G37*
G36*
X158009587Y-118012477D02*
G01*
X158009126Y-118013891D01*
X157969803Y-118060944D01*
X157961170Y-118129660D01*
X157991133Y-118192289D01*
X157999803Y-118199800D01*
X158000457Y-118201690D01*
X157999147Y-118203202D01*
X157997382Y-118202975D01*
X157989006Y-118197379D01*
X157931801Y-118186000D01*
X156657199Y-118186000D01*
X156599994Y-118197379D01*
X156582520Y-118209055D01*
X156580524Y-118209186D01*
X156579413Y-118207523D01*
X156579874Y-118206109D01*
X156619197Y-118159056D01*
X156627830Y-118090340D01*
X156597867Y-118027711D01*
X156589197Y-118020200D01*
X156588543Y-118018310D01*
X156589853Y-118016798D01*
X156591618Y-118017025D01*
X156599994Y-118022621D01*
X156657199Y-118034000D01*
X157931801Y-118034000D01*
X157989006Y-118022621D01*
X158006480Y-118010945D01*
X158008476Y-118010814D01*
X158009587Y-118012477D01*
G37*
G36*
X152284587Y-118012477D02*
G01*
X152284126Y-118013891D01*
X152244803Y-118060944D01*
X152236170Y-118129660D01*
X152266133Y-118192289D01*
X152274803Y-118199800D01*
X152275457Y-118201690D01*
X152274147Y-118203202D01*
X152272382Y-118202975D01*
X152264006Y-118197379D01*
X152206801Y-118186000D01*
X150932199Y-118186000D01*
X150874994Y-118197379D01*
X150857520Y-118209055D01*
X150855524Y-118209186D01*
X150854413Y-118207523D01*
X150854874Y-118206109D01*
X150894197Y-118159056D01*
X150902830Y-118090340D01*
X150872867Y-118027711D01*
X150864197Y-118020200D01*
X150863543Y-118018310D01*
X150864853Y-118016798D01*
X150866618Y-118017025D01*
X150874994Y-118022621D01*
X150932199Y-118034000D01*
X152206801Y-118034000D01*
X152264006Y-118022621D01*
X152281480Y-118010945D01*
X152283476Y-118010814D01*
X152284587Y-118012477D01*
G37*
G36*
X158009587Y-117362477D02*
G01*
X158009126Y-117363891D01*
X157969803Y-117410944D01*
X157961170Y-117479660D01*
X157991133Y-117542289D01*
X157999803Y-117549800D01*
X158000457Y-117551690D01*
X157999147Y-117553202D01*
X157997382Y-117552975D01*
X157989006Y-117547379D01*
X157931801Y-117536000D01*
X156657199Y-117536000D01*
X156599994Y-117547379D01*
X156582520Y-117559055D01*
X156580524Y-117559186D01*
X156579413Y-117557523D01*
X156579874Y-117556109D01*
X156619197Y-117509056D01*
X156627830Y-117440340D01*
X156597867Y-117377711D01*
X156589197Y-117370200D01*
X156588543Y-117368310D01*
X156589853Y-117366798D01*
X156591618Y-117367025D01*
X156599994Y-117372621D01*
X156657199Y-117384000D01*
X157931801Y-117384000D01*
X157989006Y-117372621D01*
X158006480Y-117360945D01*
X158008476Y-117360814D01*
X158009587Y-117362477D01*
G37*
G36*
X152284587Y-117362477D02*
G01*
X152284126Y-117363891D01*
X152244803Y-117410944D01*
X152236170Y-117479660D01*
X152266133Y-117542289D01*
X152274803Y-117549800D01*
X152275457Y-117551690D01*
X152274147Y-117553202D01*
X152272382Y-117552975D01*
X152264006Y-117547379D01*
X152206801Y-117536000D01*
X150932199Y-117536000D01*
X150874994Y-117547379D01*
X150857520Y-117559055D01*
X150855524Y-117559186D01*
X150854413Y-117557523D01*
X150854874Y-117556109D01*
X150894197Y-117509056D01*
X150902830Y-117440340D01*
X150872867Y-117377711D01*
X150864197Y-117370200D01*
X150863543Y-117368310D01*
X150864853Y-117366798D01*
X150866618Y-117367025D01*
X150874994Y-117372621D01*
X150932199Y-117384000D01*
X152206801Y-117384000D01*
X152264006Y-117372621D01*
X152281480Y-117360945D01*
X152283476Y-117360814D01*
X152284587Y-117362477D01*
G37*
G36*
X158009587Y-116712477D02*
G01*
X158009126Y-116713891D01*
X157969803Y-116760944D01*
X157961170Y-116829660D01*
X157991133Y-116892289D01*
X157999803Y-116899800D01*
X158000457Y-116901690D01*
X157999147Y-116903202D01*
X157997382Y-116902975D01*
X157989006Y-116897379D01*
X157931801Y-116886000D01*
X156657199Y-116886000D01*
X156599994Y-116897379D01*
X156582520Y-116909055D01*
X156580524Y-116909186D01*
X156579413Y-116907523D01*
X156579874Y-116906109D01*
X156619197Y-116859056D01*
X156627830Y-116790340D01*
X156597867Y-116727711D01*
X156589197Y-116720200D01*
X156588543Y-116718310D01*
X156589853Y-116716798D01*
X156591618Y-116717025D01*
X156599994Y-116722621D01*
X156657199Y-116734000D01*
X157931801Y-116734000D01*
X157989006Y-116722621D01*
X158006480Y-116710945D01*
X158008476Y-116710814D01*
X158009587Y-116712477D01*
G37*
G36*
X152284587Y-116712477D02*
G01*
X152284126Y-116713891D01*
X152244803Y-116760944D01*
X152236170Y-116829660D01*
X152266133Y-116892289D01*
X152274803Y-116899800D01*
X152275457Y-116901690D01*
X152274147Y-116903202D01*
X152272382Y-116902975D01*
X152264006Y-116897379D01*
X152206801Y-116886000D01*
X150932199Y-116886000D01*
X150874994Y-116897379D01*
X150857520Y-116909055D01*
X150855524Y-116909186D01*
X150854413Y-116907523D01*
X150854874Y-116906109D01*
X150894197Y-116859056D01*
X150902830Y-116790340D01*
X150872867Y-116727711D01*
X150864197Y-116720200D01*
X150863543Y-116718310D01*
X150864853Y-116716798D01*
X150866618Y-116717025D01*
X150874994Y-116722621D01*
X150932199Y-116734000D01*
X152206801Y-116734000D01*
X152264006Y-116722621D01*
X152281480Y-116710945D01*
X152283476Y-116710814D01*
X152284587Y-116712477D01*
G37*
G36*
X158009587Y-116062477D02*
G01*
X158009126Y-116063891D01*
X157969803Y-116110944D01*
X157961170Y-116179660D01*
X157991133Y-116242289D01*
X157999803Y-116249800D01*
X158000457Y-116251690D01*
X157999147Y-116253202D01*
X157997382Y-116252975D01*
X157989006Y-116247379D01*
X157931801Y-116236000D01*
X156657199Y-116236000D01*
X156599994Y-116247379D01*
X156582520Y-116259055D01*
X156580524Y-116259186D01*
X156579413Y-116257523D01*
X156579874Y-116256109D01*
X156619197Y-116209056D01*
X156627830Y-116140340D01*
X156597867Y-116077711D01*
X156589197Y-116070200D01*
X156588543Y-116068310D01*
X156589853Y-116066798D01*
X156591618Y-116067025D01*
X156599994Y-116072621D01*
X156657199Y-116084000D01*
X157931801Y-116084000D01*
X157989006Y-116072621D01*
X158006480Y-116060945D01*
X158008476Y-116060814D01*
X158009587Y-116062477D01*
G37*
G36*
X152284587Y-116062477D02*
G01*
X152284126Y-116063891D01*
X152244803Y-116110944D01*
X152236170Y-116179660D01*
X152266133Y-116242289D01*
X152274803Y-116249800D01*
X152275457Y-116251690D01*
X152274147Y-116253202D01*
X152272382Y-116252975D01*
X152264006Y-116247379D01*
X152206801Y-116236000D01*
X150932199Y-116236000D01*
X150874994Y-116247379D01*
X150857520Y-116259055D01*
X150855524Y-116259186D01*
X150854413Y-116257523D01*
X150854874Y-116256109D01*
X150894197Y-116209056D01*
X150902830Y-116140340D01*
X150872867Y-116077711D01*
X150864197Y-116070200D01*
X150863543Y-116068310D01*
X150864853Y-116066798D01*
X150866618Y-116067025D01*
X150874994Y-116072621D01*
X150932199Y-116084000D01*
X152206801Y-116084000D01*
X152264006Y-116072621D01*
X152281480Y-116060945D01*
X152283476Y-116060814D01*
X152284587Y-116062477D01*
G37*
G36*
X158009587Y-115412477D02*
G01*
X158009126Y-115413891D01*
X157969803Y-115460944D01*
X157961170Y-115529660D01*
X157991133Y-115592289D01*
X157999803Y-115599800D01*
X158000457Y-115601690D01*
X157999147Y-115603202D01*
X157997382Y-115602975D01*
X157989006Y-115597379D01*
X157931801Y-115586000D01*
X156657199Y-115586000D01*
X156599994Y-115597379D01*
X156582520Y-115609055D01*
X156580524Y-115609186D01*
X156579413Y-115607523D01*
X156579874Y-115606109D01*
X156619197Y-115559056D01*
X156627830Y-115490340D01*
X156597867Y-115427711D01*
X156589197Y-115420200D01*
X156588543Y-115418310D01*
X156589853Y-115416798D01*
X156591618Y-115417025D01*
X156599994Y-115422621D01*
X156657199Y-115434000D01*
X157931801Y-115434000D01*
X157989006Y-115422621D01*
X158006480Y-115410945D01*
X158008476Y-115410814D01*
X158009587Y-115412477D01*
G37*
G36*
X152284587Y-115412477D02*
G01*
X152284126Y-115413891D01*
X152244803Y-115460944D01*
X152236170Y-115529660D01*
X152266133Y-115592289D01*
X152274803Y-115599800D01*
X152275457Y-115601690D01*
X152274147Y-115603202D01*
X152272382Y-115602975D01*
X152264006Y-115597379D01*
X152206801Y-115586000D01*
X150932199Y-115586000D01*
X150874994Y-115597379D01*
X150857520Y-115609055D01*
X150855524Y-115609186D01*
X150854413Y-115607523D01*
X150854874Y-115606109D01*
X150894197Y-115559056D01*
X150902830Y-115490340D01*
X150872867Y-115427711D01*
X150864197Y-115420200D01*
X150863543Y-115418310D01*
X150864853Y-115416798D01*
X150866618Y-115417025D01*
X150874994Y-115422621D01*
X150932199Y-115434000D01*
X152206801Y-115434000D01*
X152264006Y-115422621D01*
X152281480Y-115410945D01*
X152283476Y-115410814D01*
X152284587Y-115412477D01*
G37*
G36*
X158009587Y-107658477D02*
G01*
X158009126Y-107659891D01*
X157969803Y-107706944D01*
X157961170Y-107775660D01*
X157991133Y-107838289D01*
X157999803Y-107845800D01*
X158000457Y-107847690D01*
X157999147Y-107849202D01*
X157997382Y-107848975D01*
X157989006Y-107843379D01*
X157931801Y-107832000D01*
X156657199Y-107832000D01*
X156599994Y-107843379D01*
X156582520Y-107855055D01*
X156580524Y-107855186D01*
X156579413Y-107853523D01*
X156579874Y-107852109D01*
X156619197Y-107805056D01*
X156627830Y-107736340D01*
X156597867Y-107673711D01*
X156589197Y-107666200D01*
X156588543Y-107664310D01*
X156589853Y-107662798D01*
X156591618Y-107663025D01*
X156599994Y-107668621D01*
X156657199Y-107680000D01*
X157931801Y-107680000D01*
X157989006Y-107668621D01*
X158006480Y-107656945D01*
X158008476Y-107656814D01*
X158009587Y-107658477D01*
G37*
G36*
X152284587Y-107658477D02*
G01*
X152284126Y-107659891D01*
X152244803Y-107706944D01*
X152236170Y-107775660D01*
X152266133Y-107838289D01*
X152274803Y-107845800D01*
X152275457Y-107847690D01*
X152274147Y-107849202D01*
X152272382Y-107848975D01*
X152264006Y-107843379D01*
X152206801Y-107832000D01*
X150932199Y-107832000D01*
X150874994Y-107843379D01*
X150857520Y-107855055D01*
X150855524Y-107855186D01*
X150854413Y-107853523D01*
X150854874Y-107852109D01*
X150894197Y-107805056D01*
X150902830Y-107736340D01*
X150872867Y-107673711D01*
X150864197Y-107666200D01*
X150863543Y-107664310D01*
X150864853Y-107662798D01*
X150866618Y-107663025D01*
X150874994Y-107668621D01*
X150932199Y-107680000D01*
X152206801Y-107680000D01*
X152264006Y-107668621D01*
X152281480Y-107656945D01*
X152283476Y-107656814D01*
X152284587Y-107658477D01*
G37*
G36*
X158009587Y-107008477D02*
G01*
X158009126Y-107009891D01*
X157969803Y-107056944D01*
X157961170Y-107125660D01*
X157991133Y-107188289D01*
X157999803Y-107195800D01*
X158000457Y-107197690D01*
X157999147Y-107199202D01*
X157997382Y-107198975D01*
X157989006Y-107193379D01*
X157931801Y-107182000D01*
X156657199Y-107182000D01*
X156599994Y-107193379D01*
X156582520Y-107205055D01*
X156580524Y-107205186D01*
X156579413Y-107203523D01*
X156579874Y-107202109D01*
X156619197Y-107155056D01*
X156627830Y-107086340D01*
X156597867Y-107023711D01*
X156589197Y-107016200D01*
X156588543Y-107014310D01*
X156589853Y-107012798D01*
X156591618Y-107013025D01*
X156599994Y-107018621D01*
X156657199Y-107030000D01*
X157931801Y-107030000D01*
X157989006Y-107018621D01*
X158006480Y-107006945D01*
X158008476Y-107006814D01*
X158009587Y-107008477D01*
G37*
G36*
X152284587Y-107008477D02*
G01*
X152284126Y-107009891D01*
X152244803Y-107056944D01*
X152236170Y-107125660D01*
X152266133Y-107188289D01*
X152274803Y-107195800D01*
X152275457Y-107197690D01*
X152274147Y-107199202D01*
X152272382Y-107198975D01*
X152264006Y-107193379D01*
X152206801Y-107182000D01*
X150932199Y-107182000D01*
X150874994Y-107193379D01*
X150857520Y-107205055D01*
X150855524Y-107205186D01*
X150854413Y-107203523D01*
X150854874Y-107202109D01*
X150894197Y-107155056D01*
X150902830Y-107086340D01*
X150872867Y-107023711D01*
X150864197Y-107016200D01*
X150863543Y-107014310D01*
X150864853Y-107012798D01*
X150866618Y-107013025D01*
X150874994Y-107018621D01*
X150932199Y-107030000D01*
X152206801Y-107030000D01*
X152264006Y-107018621D01*
X152281480Y-107006945D01*
X152283476Y-107006814D01*
X152284587Y-107008477D01*
G37*
G36*
X152284587Y-106358477D02*
G01*
X152284126Y-106359891D01*
X152244803Y-106406944D01*
X152236170Y-106475660D01*
X152266133Y-106538289D01*
X152274803Y-106545800D01*
X152275457Y-106547690D01*
X152274147Y-106549202D01*
X152272382Y-106548975D01*
X152264006Y-106543379D01*
X152206801Y-106532000D01*
X150932199Y-106532000D01*
X150874994Y-106543379D01*
X150857520Y-106555055D01*
X150855524Y-106555186D01*
X150854413Y-106553523D01*
X150854874Y-106552109D01*
X150894197Y-106505056D01*
X150902830Y-106436340D01*
X150872867Y-106373711D01*
X150864197Y-106366200D01*
X150863543Y-106364310D01*
X150864853Y-106362798D01*
X150866618Y-106363025D01*
X150874994Y-106368621D01*
X150932199Y-106380000D01*
X152206801Y-106380000D01*
X152264006Y-106368621D01*
X152281480Y-106356945D01*
X152283476Y-106356814D01*
X152284587Y-106358477D01*
G37*
G36*
X158009587Y-106358477D02*
G01*
X158009126Y-106359891D01*
X157969803Y-106406944D01*
X157961170Y-106475660D01*
X157991133Y-106538289D01*
X157999803Y-106545800D01*
X158000457Y-106547690D01*
X157999147Y-106549202D01*
X157997382Y-106548975D01*
X157989006Y-106543379D01*
X157931801Y-106532000D01*
X156657199Y-106532000D01*
X156599994Y-106543379D01*
X156582520Y-106555055D01*
X156580524Y-106555186D01*
X156579413Y-106553523D01*
X156579874Y-106552109D01*
X156619197Y-106505056D01*
X156627830Y-106436340D01*
X156597867Y-106373711D01*
X156589197Y-106366200D01*
X156588543Y-106364310D01*
X156589853Y-106362798D01*
X156591618Y-106363025D01*
X156599994Y-106368621D01*
X156657199Y-106380000D01*
X157931801Y-106380000D01*
X157989006Y-106368621D01*
X158006480Y-106356945D01*
X158008476Y-106356814D01*
X158009587Y-106358477D01*
G37*
G36*
X158009587Y-105708477D02*
G01*
X158009126Y-105709891D01*
X157969803Y-105756944D01*
X157961170Y-105825660D01*
X157991133Y-105888289D01*
X157999803Y-105895800D01*
X158000457Y-105897690D01*
X157999147Y-105899202D01*
X157997382Y-105898975D01*
X157989006Y-105893379D01*
X157931801Y-105882000D01*
X156657199Y-105882000D01*
X156599994Y-105893379D01*
X156582520Y-105905055D01*
X156580524Y-105905186D01*
X156579413Y-105903523D01*
X156579874Y-105902109D01*
X156619197Y-105855056D01*
X156627830Y-105786340D01*
X156597867Y-105723711D01*
X156589197Y-105716200D01*
X156588543Y-105714310D01*
X156589853Y-105712798D01*
X156591618Y-105713025D01*
X156599994Y-105718621D01*
X156657199Y-105730000D01*
X157931801Y-105730000D01*
X157989006Y-105718621D01*
X158006480Y-105706945D01*
X158008476Y-105706814D01*
X158009587Y-105708477D01*
G37*
G36*
X152284587Y-105708477D02*
G01*
X152284126Y-105709891D01*
X152244803Y-105756944D01*
X152236170Y-105825660D01*
X152266133Y-105888289D01*
X152274803Y-105895800D01*
X152275457Y-105897690D01*
X152274147Y-105899202D01*
X152272382Y-105898975D01*
X152264006Y-105893379D01*
X152206801Y-105882000D01*
X150932199Y-105882000D01*
X150874994Y-105893379D01*
X150857520Y-105905055D01*
X150855524Y-105905186D01*
X150854413Y-105903523D01*
X150854874Y-105902109D01*
X150894197Y-105855056D01*
X150902830Y-105786340D01*
X150872867Y-105723711D01*
X150864197Y-105716200D01*
X150863543Y-105714310D01*
X150864853Y-105712798D01*
X150866618Y-105713025D01*
X150874994Y-105718621D01*
X150932199Y-105730000D01*
X152206801Y-105730000D01*
X152264006Y-105718621D01*
X152281480Y-105706945D01*
X152283476Y-105706814D01*
X152284587Y-105708477D01*
G37*
G36*
X152284587Y-105058477D02*
G01*
X152284126Y-105059891D01*
X152244803Y-105106944D01*
X152236170Y-105175660D01*
X152266133Y-105238289D01*
X152274803Y-105245800D01*
X152275457Y-105247690D01*
X152274147Y-105249202D01*
X152272382Y-105248975D01*
X152264006Y-105243379D01*
X152206801Y-105232000D01*
X150932199Y-105232000D01*
X150874994Y-105243379D01*
X150857520Y-105255055D01*
X150855524Y-105255186D01*
X150854413Y-105253523D01*
X150854874Y-105252109D01*
X150894197Y-105205056D01*
X150902830Y-105136340D01*
X150872867Y-105073711D01*
X150864197Y-105066200D01*
X150863543Y-105064310D01*
X150864853Y-105062798D01*
X150866618Y-105063025D01*
X150874994Y-105068621D01*
X150932199Y-105080000D01*
X152206801Y-105080000D01*
X152264006Y-105068621D01*
X152281480Y-105056945D01*
X152283476Y-105056814D01*
X152284587Y-105058477D01*
G37*
G36*
X158009587Y-105058477D02*
G01*
X158009126Y-105059891D01*
X157969803Y-105106944D01*
X157961170Y-105175660D01*
X157991133Y-105238289D01*
X157999803Y-105245800D01*
X158000457Y-105247690D01*
X157999147Y-105249202D01*
X157997382Y-105248975D01*
X157989006Y-105243379D01*
X157931801Y-105232000D01*
X156657199Y-105232000D01*
X156599994Y-105243379D01*
X156582520Y-105255055D01*
X156580524Y-105255186D01*
X156579413Y-105253523D01*
X156579874Y-105252109D01*
X156619197Y-105205056D01*
X156627830Y-105136340D01*
X156597867Y-105073711D01*
X156589197Y-105066200D01*
X156588543Y-105064310D01*
X156589853Y-105062798D01*
X156591618Y-105063025D01*
X156599994Y-105068621D01*
X156657199Y-105080000D01*
X157931801Y-105080000D01*
X157989006Y-105068621D01*
X158006480Y-105056945D01*
X158008476Y-105056814D01*
X158009587Y-105058477D01*
G37*
G36*
X158009587Y-104408477D02*
G01*
X158009126Y-104409891D01*
X157969803Y-104456944D01*
X157961170Y-104525660D01*
X157991133Y-104588289D01*
X157999803Y-104595800D01*
X158000457Y-104597690D01*
X157999147Y-104599202D01*
X157997382Y-104598975D01*
X157989006Y-104593379D01*
X157931801Y-104582000D01*
X156657199Y-104582000D01*
X156599994Y-104593379D01*
X156582520Y-104605055D01*
X156580524Y-104605186D01*
X156579413Y-104603523D01*
X156579874Y-104602109D01*
X156619197Y-104555056D01*
X156627830Y-104486340D01*
X156597867Y-104423711D01*
X156589197Y-104416200D01*
X156588543Y-104414310D01*
X156589853Y-104412798D01*
X156591618Y-104413025D01*
X156599994Y-104418621D01*
X156657199Y-104430000D01*
X157931801Y-104430000D01*
X157989006Y-104418621D01*
X158006480Y-104406945D01*
X158008476Y-104406814D01*
X158009587Y-104408477D01*
G37*
G36*
X152284587Y-104408477D02*
G01*
X152284126Y-104409891D01*
X152244803Y-104456944D01*
X152236170Y-104525660D01*
X152266133Y-104588289D01*
X152274803Y-104595800D01*
X152275457Y-104597690D01*
X152274147Y-104599202D01*
X152272382Y-104598975D01*
X152264006Y-104593379D01*
X152206801Y-104582000D01*
X150932199Y-104582000D01*
X150874994Y-104593379D01*
X150857520Y-104605055D01*
X150855524Y-104605186D01*
X150854413Y-104603523D01*
X150854874Y-104602109D01*
X150894197Y-104555056D01*
X150902830Y-104486340D01*
X150872867Y-104423711D01*
X150864197Y-104416200D01*
X150863543Y-104414310D01*
X150864853Y-104412798D01*
X150866618Y-104413025D01*
X150874994Y-104418621D01*
X150932199Y-104430000D01*
X152206801Y-104430000D01*
X152264006Y-104418621D01*
X152281480Y-104406945D01*
X152283476Y-104406814D01*
X152284587Y-104408477D01*
G37*
G36*
X152284587Y-103758477D02*
G01*
X152284126Y-103759891D01*
X152244803Y-103806944D01*
X152236170Y-103875660D01*
X152266133Y-103938289D01*
X152274803Y-103945800D01*
X152275457Y-103947690D01*
X152274147Y-103949202D01*
X152272382Y-103948975D01*
X152264006Y-103943379D01*
X152206801Y-103932000D01*
X150932199Y-103932000D01*
X150874994Y-103943379D01*
X150857520Y-103955055D01*
X150855524Y-103955186D01*
X150854413Y-103953523D01*
X150854874Y-103952109D01*
X150894197Y-103905056D01*
X150902830Y-103836340D01*
X150872867Y-103773711D01*
X150864197Y-103766200D01*
X150863543Y-103764310D01*
X150864853Y-103762798D01*
X150866618Y-103763025D01*
X150874994Y-103768621D01*
X150932199Y-103780000D01*
X152206801Y-103780000D01*
X152264006Y-103768621D01*
X152281480Y-103756945D01*
X152283476Y-103756814D01*
X152284587Y-103758477D01*
G37*
G36*
X158009587Y-103758477D02*
G01*
X158009126Y-103759891D01*
X157969803Y-103806944D01*
X157961170Y-103875660D01*
X157991133Y-103938289D01*
X157999803Y-103945800D01*
X158000457Y-103947690D01*
X157999147Y-103949202D01*
X157997382Y-103948975D01*
X157989006Y-103943379D01*
X157931801Y-103932000D01*
X156657199Y-103932000D01*
X156599994Y-103943379D01*
X156582520Y-103955055D01*
X156580524Y-103955186D01*
X156579413Y-103953523D01*
X156579874Y-103952109D01*
X156619197Y-103905056D01*
X156627830Y-103836340D01*
X156597867Y-103773711D01*
X156589197Y-103766200D01*
X156588543Y-103764310D01*
X156589853Y-103762798D01*
X156591618Y-103763025D01*
X156599994Y-103768621D01*
X156657199Y-103780000D01*
X157931801Y-103780000D01*
X157989006Y-103768621D01*
X158006480Y-103756945D01*
X158008476Y-103756814D01*
X158009587Y-103758477D01*
G37*
G36*
X158009587Y-103108477D02*
G01*
X158009126Y-103109891D01*
X157969803Y-103156944D01*
X157961170Y-103225660D01*
X157991133Y-103288289D01*
X157999803Y-103295800D01*
X158000457Y-103297690D01*
X157999147Y-103299202D01*
X157997382Y-103298975D01*
X157989006Y-103293379D01*
X157931801Y-103282000D01*
X156657199Y-103282000D01*
X156599994Y-103293379D01*
X156582520Y-103305055D01*
X156580524Y-103305186D01*
X156579413Y-103303523D01*
X156579874Y-103302109D01*
X156619197Y-103255056D01*
X156627830Y-103186340D01*
X156597867Y-103123711D01*
X156589197Y-103116200D01*
X156588543Y-103114310D01*
X156589853Y-103112798D01*
X156591618Y-103113025D01*
X156599994Y-103118621D01*
X156657199Y-103130000D01*
X157931801Y-103130000D01*
X157989006Y-103118621D01*
X158006480Y-103106945D01*
X158008476Y-103106814D01*
X158009587Y-103108477D01*
G37*
G36*
X152284587Y-103108477D02*
G01*
X152284126Y-103109891D01*
X152244803Y-103156944D01*
X152236170Y-103225660D01*
X152266133Y-103288289D01*
X152274803Y-103295800D01*
X152275457Y-103297690D01*
X152274147Y-103299202D01*
X152272382Y-103298975D01*
X152264006Y-103293379D01*
X152206801Y-103282000D01*
X150932199Y-103282000D01*
X150874994Y-103293379D01*
X150857520Y-103305055D01*
X150855524Y-103305186D01*
X150854413Y-103303523D01*
X150854874Y-103302109D01*
X150894197Y-103255056D01*
X150902830Y-103186340D01*
X150872867Y-103123711D01*
X150864197Y-103116200D01*
X150863543Y-103114310D01*
X150864853Y-103112798D01*
X150866618Y-103113025D01*
X150874994Y-103118621D01*
X150932199Y-103130000D01*
X152206801Y-103130000D01*
X152264006Y-103118621D01*
X152281480Y-103106945D01*
X152283476Y-103106814D01*
X152284587Y-103108477D01*
G37*
G36*
X158009587Y-102458477D02*
G01*
X158009126Y-102459891D01*
X157969803Y-102506944D01*
X157961170Y-102575660D01*
X157991133Y-102638289D01*
X157999803Y-102645800D01*
X158000457Y-102647690D01*
X157999147Y-102649202D01*
X157997382Y-102648975D01*
X157989006Y-102643379D01*
X157931801Y-102632000D01*
X156657199Y-102632000D01*
X156599994Y-102643379D01*
X156582520Y-102655055D01*
X156580524Y-102655186D01*
X156579413Y-102653523D01*
X156579874Y-102652109D01*
X156619197Y-102605056D01*
X156627830Y-102536340D01*
X156597867Y-102473711D01*
X156589197Y-102466200D01*
X156588543Y-102464310D01*
X156589853Y-102462798D01*
X156591618Y-102463025D01*
X156599994Y-102468621D01*
X156657199Y-102480000D01*
X157931801Y-102480000D01*
X157989006Y-102468621D01*
X158006480Y-102456945D01*
X158008476Y-102456814D01*
X158009587Y-102458477D01*
G37*
G36*
X152284587Y-102458477D02*
G01*
X152284126Y-102459891D01*
X152244803Y-102506944D01*
X152236170Y-102575660D01*
X152266133Y-102638289D01*
X152274803Y-102645800D01*
X152275457Y-102647690D01*
X152274147Y-102649202D01*
X152272382Y-102648975D01*
X152264006Y-102643379D01*
X152206801Y-102632000D01*
X150932199Y-102632000D01*
X150874994Y-102643379D01*
X150857520Y-102655055D01*
X150855524Y-102655186D01*
X150854413Y-102653523D01*
X150854874Y-102652109D01*
X150894197Y-102605056D01*
X150902830Y-102536340D01*
X150872867Y-102473711D01*
X150864197Y-102466200D01*
X150863543Y-102464310D01*
X150864853Y-102462798D01*
X150866618Y-102463025D01*
X150874994Y-102468621D01*
X150932199Y-102480000D01*
X152206801Y-102480000D01*
X152264006Y-102468621D01*
X152281480Y-102456945D01*
X152283476Y-102456814D01*
X152284587Y-102458477D01*
G37*
M02*
