G04 #@! TF.GenerationSoftware,KiCad,Pcbnew,6.0.5+dfsg-1~bpo11+1*
G04 #@! TF.CreationDate,2022-10-14T00:14:09+00:00*
G04 #@! TF.ProjectId,SSI2140_Phase_Shifter_front_panel,53534932-3134-4305-9f50-686173655f53,0*
G04 #@! TF.SameCoordinates,Original*
G04 #@! TF.FileFunction,Legend,Bot*
G04 #@! TF.FilePolarity,Positive*
%FSLAX46Y46*%
G04 Gerber Fmt 4.6, Leading zero omitted, Abs format (unit mm)*
G04 Created by KiCad (PCBNEW 6.0.5+dfsg-1~bpo11+1) date 2022-10-14 00:14:09*
%MOMM*%
%LPD*%
G01*
G04 APERTURE LIST*
%ADD10C,0.200000*%
%ADD11C,5.702000*%
G04 APERTURE END LIST*
D10*
X151133571Y-31423571D02*
X151133571Y-32495000D01*
X151205000Y-32709285D01*
X151347857Y-32852142D01*
X151562142Y-32923571D01*
X151705000Y-32923571D01*
X149705000Y-32923571D02*
X150419285Y-32923571D01*
X150419285Y-31423571D01*
X148347857Y-32780714D02*
X148419285Y-32852142D01*
X148633571Y-32923571D01*
X148776428Y-32923571D01*
X148990714Y-32852142D01*
X149133571Y-32709285D01*
X149205000Y-32566428D01*
X149276428Y-32280714D01*
X149276428Y-32066428D01*
X149205000Y-31780714D01*
X149133571Y-31637857D01*
X148990714Y-31495000D01*
X148776428Y-31423571D01*
X148633571Y-31423571D01*
X148419285Y-31495000D01*
X148347857Y-31566428D01*
X147276428Y-31423571D02*
X147276428Y-32495000D01*
X147347857Y-32709285D01*
X147490714Y-32852142D01*
X147705000Y-32923571D01*
X147847857Y-32923571D01*
X145847857Y-32923571D02*
X146562142Y-32923571D01*
X146562142Y-31423571D01*
X144490714Y-32780714D02*
X144562142Y-32852142D01*
X144776428Y-32923571D01*
X144919285Y-32923571D01*
X145133571Y-32852142D01*
X145276428Y-32709285D01*
X145347857Y-32566428D01*
X145419285Y-32280714D01*
X145419285Y-32066428D01*
X145347857Y-31780714D01*
X145276428Y-31637857D01*
X145133571Y-31495000D01*
X144919285Y-31423571D01*
X144776428Y-31423571D01*
X144562142Y-31495000D01*
X144490714Y-31566428D01*
X143419285Y-31423571D02*
X143419285Y-32495000D01*
X143490714Y-32709285D01*
X143633571Y-32852142D01*
X143847857Y-32923571D01*
X143990714Y-32923571D01*
X141990714Y-32923571D02*
X142705000Y-32923571D01*
X142705000Y-31423571D01*
X140633571Y-32780714D02*
X140705000Y-32852142D01*
X140919285Y-32923571D01*
X141062142Y-32923571D01*
X141276428Y-32852142D01*
X141419285Y-32709285D01*
X141490714Y-32566428D01*
X141562142Y-32280714D01*
X141562142Y-32066428D01*
X141490714Y-31780714D01*
X141419285Y-31637857D01*
X141276428Y-31495000D01*
X141062142Y-31423571D01*
X140919285Y-31423571D01*
X140705000Y-31495000D01*
X140633571Y-31566428D01*
X139562142Y-31423571D02*
X139562142Y-32495000D01*
X139633571Y-32709285D01*
X139776428Y-32852142D01*
X139990714Y-32923571D01*
X140133571Y-32923571D01*
X138133571Y-32923571D02*
X138847857Y-32923571D01*
X138847857Y-31423571D01*
X136776428Y-32780714D02*
X136847857Y-32852142D01*
X137062142Y-32923571D01*
X137205000Y-32923571D01*
X137419285Y-32852142D01*
X137562142Y-32709285D01*
X137633571Y-32566428D01*
X137705000Y-32280714D01*
X137705000Y-32066428D01*
X137633571Y-31780714D01*
X137562142Y-31637857D01*
X137419285Y-31495000D01*
X137205000Y-31423571D01*
X137062142Y-31423571D01*
X136847857Y-31495000D01*
X136776428Y-31566428D01*
%LPC*%
D11*
X126305000Y-32705000D03*
X161865000Y-32705000D03*
X161865000Y-155205000D03*
X126305000Y-155205000D03*
M02*
