G04 #@! TF.GenerationSoftware,KiCad,Pcbnew,6.0.5+dfsg-1~bpo11+1*
G04 #@! TF.CreationDate,2022-10-14T00:14:09+00:00*
G04 #@! TF.ProjectId,SSI2140_Phase_Shifter_front_panel,53534932-3134-4305-9f50-686173655f53,0*
G04 #@! TF.SameCoordinates,Original*
G04 #@! TF.FileFunction,Copper,L2,Bot*
G04 #@! TF.FilePolarity,Positive*
%FSLAX46Y46*%
G04 Gerber Fmt 4.6, Leading zero omitted, Abs format (unit mm)*
G04 Created by KiCad (PCBNEW 6.0.5+dfsg-1~bpo11+1) date 2022-10-14 00:14:09*
%MOMM*%
%LPD*%
G01*
G04 APERTURE LIST*
G04 #@! TA.AperFunction,ComponentPad*
%ADD10C,5.600000*%
G04 #@! TD*
G04 APERTURE END LIST*
D10*
X126305000Y-32705000D03*
X161865000Y-32705000D03*
X161865000Y-155205000D03*
X126305000Y-155205000D03*
G04 #@! TA.AperFunction,Conductor*
G36*
X124188642Y-30233502D02*
G01*
X124209616Y-30250405D01*
X126292190Y-32332980D01*
X126306131Y-32340592D01*
X126307966Y-32340461D01*
X126314580Y-32336210D01*
X128400384Y-30250405D01*
X128462696Y-30216380D01*
X128489479Y-30213500D01*
X159680521Y-30213500D01*
X159748642Y-30233502D01*
X159769616Y-30250405D01*
X161852190Y-32332980D01*
X161866131Y-32340592D01*
X161867966Y-32340461D01*
X161874580Y-32336210D01*
X163960384Y-30250405D01*
X164022696Y-30216380D01*
X164049479Y-30213500D01*
X168670500Y-30213500D01*
X168738621Y-30233502D01*
X168785114Y-30287158D01*
X168796500Y-30339500D01*
X168796500Y-157570500D01*
X168776498Y-157638621D01*
X168722842Y-157685114D01*
X168670500Y-157696500D01*
X164049479Y-157696500D01*
X163981358Y-157676498D01*
X163960384Y-157659595D01*
X161877810Y-155577020D01*
X161863869Y-155569408D01*
X161862034Y-155569539D01*
X161855420Y-155573790D01*
X159769616Y-157659595D01*
X159707304Y-157693620D01*
X159680521Y-157696500D01*
X128489479Y-157696500D01*
X128421358Y-157676498D01*
X128400384Y-157659595D01*
X126317810Y-155577020D01*
X126303869Y-155569408D01*
X126302034Y-155569539D01*
X126295420Y-155573790D01*
X124209616Y-157659595D01*
X124147304Y-157693620D01*
X124120521Y-157696500D01*
X119439500Y-157696500D01*
X119371379Y-157676498D01*
X119324886Y-157622842D01*
X119313500Y-157570500D01*
X119313500Y-155196832D01*
X122992333Y-155196832D01*
X123010117Y-155547893D01*
X123010827Y-155554649D01*
X123066420Y-155901723D01*
X123067859Y-155908378D01*
X123160608Y-156247410D01*
X123162757Y-156253871D01*
X123291581Y-156580912D01*
X123294412Y-156587095D01*
X123457803Y-156898310D01*
X123461286Y-156904152D01*
X123657330Y-157195896D01*
X123661433Y-157201340D01*
X123781425Y-157343836D01*
X123794164Y-157352279D01*
X123804608Y-157346181D01*
X125932980Y-155217810D01*
X125939357Y-155206131D01*
X126669408Y-155206131D01*
X126669539Y-155207966D01*
X126673790Y-155214580D01*
X128804009Y-157344798D01*
X128817605Y-157352223D01*
X128827218Y-157345522D01*
X128927518Y-157228912D01*
X128931676Y-157223514D01*
X129130762Y-156933840D01*
X129134310Y-156928029D01*
X129300942Y-156618559D01*
X129303849Y-156612381D01*
X129436090Y-156286713D01*
X129438304Y-156280283D01*
X129534598Y-155942237D01*
X129536105Y-155935607D01*
X129595332Y-155589118D01*
X129596112Y-155582378D01*
X129617668Y-155229925D01*
X129617784Y-155226323D01*
X129617853Y-155206819D01*
X129617761Y-155203194D01*
X129617416Y-155196832D01*
X158552333Y-155196832D01*
X158570117Y-155547893D01*
X158570827Y-155554649D01*
X158626420Y-155901723D01*
X158627859Y-155908378D01*
X158720608Y-156247410D01*
X158722757Y-156253871D01*
X158851581Y-156580912D01*
X158854412Y-156587095D01*
X159017803Y-156898310D01*
X159021286Y-156904152D01*
X159217330Y-157195896D01*
X159221433Y-157201340D01*
X159341425Y-157343836D01*
X159354164Y-157352279D01*
X159364608Y-157346181D01*
X161492980Y-155217810D01*
X161499357Y-155206131D01*
X162229408Y-155206131D01*
X162229539Y-155207966D01*
X162233790Y-155214580D01*
X164364009Y-157344798D01*
X164377605Y-157352223D01*
X164387218Y-157345522D01*
X164487518Y-157228912D01*
X164491676Y-157223514D01*
X164690762Y-156933840D01*
X164694310Y-156928029D01*
X164860942Y-156618559D01*
X164863849Y-156612381D01*
X164996090Y-156286713D01*
X164998304Y-156280283D01*
X165094598Y-155942237D01*
X165096105Y-155935607D01*
X165155332Y-155589118D01*
X165156112Y-155582378D01*
X165177668Y-155229925D01*
X165177784Y-155226323D01*
X165177853Y-155206819D01*
X165177761Y-155203194D01*
X165158666Y-154850615D01*
X165157931Y-154843849D01*
X165101130Y-154496985D01*
X165099663Y-154490313D01*
X165005736Y-154151627D01*
X165003562Y-154145163D01*
X164873598Y-153818578D01*
X164870742Y-153812398D01*
X164706269Y-153501763D01*
X164702769Y-153495937D01*
X164505697Y-153204862D01*
X164501590Y-153199453D01*
X164388565Y-153066179D01*
X164375740Y-153057743D01*
X164365416Y-153063795D01*
X162237020Y-155192190D01*
X162229408Y-155206131D01*
X161499357Y-155206131D01*
X161500592Y-155203869D01*
X161500461Y-155202034D01*
X161496210Y-155195420D01*
X159365992Y-153065203D01*
X159352455Y-153057811D01*
X159342753Y-153064599D01*
X159235430Y-153190257D01*
X159231296Y-153195664D01*
X159033215Y-153486041D01*
X159029697Y-153491851D01*
X158864134Y-153801922D01*
X158861259Y-153808087D01*
X158730155Y-154134218D01*
X158727962Y-154140658D01*
X158632846Y-154479044D01*
X158631363Y-154485679D01*
X158573350Y-154832354D01*
X158572591Y-154839126D01*
X158552357Y-155190037D01*
X158552333Y-155196832D01*
X129617416Y-155196832D01*
X129598666Y-154850615D01*
X129597931Y-154843849D01*
X129541130Y-154496985D01*
X129539663Y-154490313D01*
X129445736Y-154151627D01*
X129443562Y-154145163D01*
X129313598Y-153818578D01*
X129310742Y-153812398D01*
X129146269Y-153501763D01*
X129142769Y-153495937D01*
X128945697Y-153204862D01*
X128941590Y-153199453D01*
X128828565Y-153066179D01*
X128815740Y-153057743D01*
X128805416Y-153063795D01*
X126677020Y-155192190D01*
X126669408Y-155206131D01*
X125939357Y-155206131D01*
X125940592Y-155203869D01*
X125940461Y-155202034D01*
X125936210Y-155195420D01*
X123805992Y-153065203D01*
X123792455Y-153057811D01*
X123782753Y-153064599D01*
X123675430Y-153190257D01*
X123671296Y-153195664D01*
X123473215Y-153486041D01*
X123469697Y-153491851D01*
X123304134Y-153801922D01*
X123301259Y-153808087D01*
X123170155Y-154134218D01*
X123167962Y-154140658D01*
X123072846Y-154479044D01*
X123071363Y-154485679D01*
X123013350Y-154832354D01*
X123012591Y-154839126D01*
X122992357Y-155190037D01*
X122992333Y-155196832D01*
X119313500Y-155196832D01*
X119313500Y-152691862D01*
X124154950Y-152691862D01*
X124154986Y-152692704D01*
X124160037Y-152700826D01*
X126292190Y-154832980D01*
X126306131Y-154840592D01*
X126307966Y-154840461D01*
X126314580Y-154836210D01*
X128447798Y-152702991D01*
X128453875Y-152691862D01*
X159714950Y-152691862D01*
X159714986Y-152692704D01*
X159720037Y-152700826D01*
X161852190Y-154832980D01*
X161866131Y-154840592D01*
X161867966Y-154840461D01*
X161874580Y-154836210D01*
X164007798Y-152702991D01*
X164015412Y-152689047D01*
X164015344Y-152688089D01*
X164010836Y-152681272D01*
X164009418Y-152680065D01*
X163729813Y-152467064D01*
X163724187Y-152463240D01*
X163423214Y-152281681D01*
X163417202Y-152278484D01*
X163098370Y-152130487D01*
X163092070Y-152127967D01*
X162759129Y-152015273D01*
X162752551Y-152013437D01*
X162409417Y-151937367D01*
X162402678Y-151936251D01*
X162053310Y-151897680D01*
X162046529Y-151897301D01*
X161695015Y-151896687D01*
X161688242Y-151897042D01*
X161338720Y-151934395D01*
X161332010Y-151935482D01*
X160988586Y-152010361D01*
X160982011Y-152012172D01*
X160648683Y-152123702D01*
X160642361Y-152126205D01*
X160323034Y-152273079D01*
X160316991Y-152276265D01*
X160015401Y-152456763D01*
X160009755Y-152460571D01*
X159729408Y-152672596D01*
X159724211Y-152676987D01*
X159722972Y-152678155D01*
X159714950Y-152691862D01*
X128453875Y-152691862D01*
X128455412Y-152689047D01*
X128455344Y-152688089D01*
X128450836Y-152681272D01*
X128449418Y-152680065D01*
X128169813Y-152467064D01*
X128164187Y-152463240D01*
X127863214Y-152281681D01*
X127857202Y-152278484D01*
X127538370Y-152130487D01*
X127532070Y-152127967D01*
X127199129Y-152015273D01*
X127192551Y-152013437D01*
X126849417Y-151937367D01*
X126842678Y-151936251D01*
X126493310Y-151897680D01*
X126486529Y-151897301D01*
X126135015Y-151896687D01*
X126128242Y-151897042D01*
X125778720Y-151934395D01*
X125772010Y-151935482D01*
X125428586Y-152010361D01*
X125422011Y-152012172D01*
X125088683Y-152123702D01*
X125082361Y-152126205D01*
X124763034Y-152273079D01*
X124756991Y-152276265D01*
X124455401Y-152456763D01*
X124449755Y-152460571D01*
X124169408Y-152672596D01*
X124164211Y-152676987D01*
X124162972Y-152678155D01*
X124154950Y-152691862D01*
X119313500Y-152691862D01*
X119313500Y-137795000D01*
X124706617Y-137795000D01*
X124726138Y-138167475D01*
X124784485Y-138535869D01*
X124881021Y-138896146D01*
X125014688Y-139244358D01*
X125016180Y-139247286D01*
X125016183Y-139247293D01*
X125037361Y-139288856D01*
X125184020Y-139576691D01*
X125185816Y-139579457D01*
X125185818Y-139579460D01*
X125385366Y-139886737D01*
X125387163Y-139889504D01*
X125621890Y-140179369D01*
X125885631Y-140443110D01*
X126175496Y-140677837D01*
X126488308Y-140880980D01*
X126661083Y-140969013D01*
X126817707Y-141048817D01*
X126817714Y-141048820D01*
X126820642Y-141050312D01*
X126823714Y-141051491D01*
X126823718Y-141051493D01*
X126949749Y-141099872D01*
X127168854Y-141183979D01*
X127529131Y-141280515D01*
X127532381Y-141281030D01*
X127532387Y-141281031D01*
X127805628Y-141324307D01*
X127897525Y-141338862D01*
X127900810Y-141339034D01*
X127900818Y-141339035D01*
X128266699Y-141358210D01*
X128270000Y-141358383D01*
X128273301Y-141358210D01*
X128639182Y-141339035D01*
X128639190Y-141339034D01*
X128642475Y-141338862D01*
X128734372Y-141324307D01*
X129007613Y-141281031D01*
X129007619Y-141281030D01*
X129010869Y-141280515D01*
X129371146Y-141183979D01*
X129590251Y-141099872D01*
X129716282Y-141051493D01*
X129716286Y-141051491D01*
X129719358Y-141050312D01*
X129722286Y-141048820D01*
X129722293Y-141048817D01*
X129878917Y-140969013D01*
X130051692Y-140880980D01*
X130364504Y-140677837D01*
X130654369Y-140443110D01*
X130918110Y-140179369D01*
X131152837Y-139889504D01*
X131154634Y-139886737D01*
X131354182Y-139579460D01*
X131354184Y-139579457D01*
X131355980Y-139576691D01*
X131502640Y-139288856D01*
X131523817Y-139247293D01*
X131523820Y-139247286D01*
X131525312Y-139244358D01*
X131658979Y-138896146D01*
X131755515Y-138535869D01*
X131813862Y-138167475D01*
X131833383Y-137795000D01*
X140581617Y-137795000D01*
X140601138Y-138167475D01*
X140659485Y-138535869D01*
X140756021Y-138896146D01*
X140889688Y-139244358D01*
X140891180Y-139247286D01*
X140891183Y-139247293D01*
X140912361Y-139288856D01*
X141059020Y-139576691D01*
X141060816Y-139579457D01*
X141060818Y-139579460D01*
X141260366Y-139886737D01*
X141262163Y-139889504D01*
X141496890Y-140179369D01*
X141760631Y-140443110D01*
X142050496Y-140677837D01*
X142363308Y-140880980D01*
X142536083Y-140969013D01*
X142692707Y-141048817D01*
X142692714Y-141048820D01*
X142695642Y-141050312D01*
X142698714Y-141051491D01*
X142698718Y-141051493D01*
X142824749Y-141099872D01*
X143043854Y-141183979D01*
X143404131Y-141280515D01*
X143407381Y-141281030D01*
X143407387Y-141281031D01*
X143680628Y-141324307D01*
X143772525Y-141338862D01*
X143775810Y-141339034D01*
X143775818Y-141339035D01*
X144141699Y-141358210D01*
X144145000Y-141358383D01*
X144148301Y-141358210D01*
X144514182Y-141339035D01*
X144514190Y-141339034D01*
X144517475Y-141338862D01*
X144609372Y-141324307D01*
X144882613Y-141281031D01*
X144882619Y-141281030D01*
X144885869Y-141280515D01*
X145246146Y-141183979D01*
X145465251Y-141099872D01*
X145591282Y-141051493D01*
X145591286Y-141051491D01*
X145594358Y-141050312D01*
X145597286Y-141048820D01*
X145597293Y-141048817D01*
X145753917Y-140969013D01*
X145926692Y-140880980D01*
X146239504Y-140677837D01*
X146529369Y-140443110D01*
X146793110Y-140179369D01*
X147027837Y-139889504D01*
X147029634Y-139886737D01*
X147229182Y-139579460D01*
X147229184Y-139579457D01*
X147230980Y-139576691D01*
X147377640Y-139288856D01*
X147398817Y-139247293D01*
X147398820Y-139247286D01*
X147400312Y-139244358D01*
X147533979Y-138896146D01*
X147630515Y-138535869D01*
X147688862Y-138167475D01*
X147708383Y-137795000D01*
X156456617Y-137795000D01*
X156476138Y-138167475D01*
X156534485Y-138535869D01*
X156631021Y-138896146D01*
X156764688Y-139244358D01*
X156766180Y-139247286D01*
X156766183Y-139247293D01*
X156787361Y-139288856D01*
X156934020Y-139576691D01*
X156935816Y-139579457D01*
X156935818Y-139579460D01*
X157135366Y-139886737D01*
X157137163Y-139889504D01*
X157371890Y-140179369D01*
X157635631Y-140443110D01*
X157925496Y-140677837D01*
X158238308Y-140880980D01*
X158411083Y-140969013D01*
X158567707Y-141048817D01*
X158567714Y-141048820D01*
X158570642Y-141050312D01*
X158573714Y-141051491D01*
X158573718Y-141051493D01*
X158699749Y-141099872D01*
X158918854Y-141183979D01*
X159279131Y-141280515D01*
X159282381Y-141281030D01*
X159282387Y-141281031D01*
X159555628Y-141324307D01*
X159647525Y-141338862D01*
X159650810Y-141339034D01*
X159650818Y-141339035D01*
X160016699Y-141358210D01*
X160020000Y-141358383D01*
X160023301Y-141358210D01*
X160389182Y-141339035D01*
X160389190Y-141339034D01*
X160392475Y-141338862D01*
X160484372Y-141324307D01*
X160757613Y-141281031D01*
X160757619Y-141281030D01*
X160760869Y-141280515D01*
X161121146Y-141183979D01*
X161340251Y-141099872D01*
X161466282Y-141051493D01*
X161466286Y-141051491D01*
X161469358Y-141050312D01*
X161472286Y-141048820D01*
X161472293Y-141048817D01*
X161628917Y-140969013D01*
X161801692Y-140880980D01*
X162114504Y-140677837D01*
X162404369Y-140443110D01*
X162668110Y-140179369D01*
X162902837Y-139889504D01*
X162904634Y-139886737D01*
X163104182Y-139579460D01*
X163104184Y-139579457D01*
X163105980Y-139576691D01*
X163252640Y-139288856D01*
X163273817Y-139247293D01*
X163273820Y-139247286D01*
X163275312Y-139244358D01*
X163408979Y-138896146D01*
X163505515Y-138535869D01*
X163563862Y-138167475D01*
X163583383Y-137795000D01*
X163563862Y-137422525D01*
X163505515Y-137054131D01*
X163408979Y-136693854D01*
X163275312Y-136345642D01*
X163273817Y-136342707D01*
X163107479Y-136016250D01*
X163107475Y-136016243D01*
X163105980Y-136013309D01*
X162991316Y-135836741D01*
X162904634Y-135703263D01*
X162904633Y-135703262D01*
X162902837Y-135700496D01*
X162668110Y-135410631D01*
X162404369Y-135146890D01*
X162114504Y-134912163D01*
X161801692Y-134709020D01*
X161628917Y-134620987D01*
X161472293Y-134541183D01*
X161472286Y-134541180D01*
X161469358Y-134539688D01*
X161466286Y-134538509D01*
X161466282Y-134538507D01*
X161340251Y-134490128D01*
X161121146Y-134406021D01*
X160760869Y-134309485D01*
X160757619Y-134308970D01*
X160757613Y-134308969D01*
X160484372Y-134265693D01*
X160392475Y-134251138D01*
X160389190Y-134250966D01*
X160389182Y-134250965D01*
X160023301Y-134231790D01*
X160020000Y-134231617D01*
X160016699Y-134231790D01*
X159650818Y-134250965D01*
X159650810Y-134250966D01*
X159647525Y-134251138D01*
X159555628Y-134265693D01*
X159282387Y-134308969D01*
X159282381Y-134308970D01*
X159279131Y-134309485D01*
X158918854Y-134406021D01*
X158699749Y-134490128D01*
X158573718Y-134538507D01*
X158573714Y-134538509D01*
X158570642Y-134539688D01*
X158567714Y-134541180D01*
X158567707Y-134541183D01*
X158241250Y-134707521D01*
X158241247Y-134707523D01*
X158238309Y-134709020D01*
X158235543Y-134710816D01*
X158235540Y-134710818D01*
X157928263Y-134910366D01*
X157925496Y-134912163D01*
X157922939Y-134914234D01*
X157922933Y-134914238D01*
X157638192Y-135144816D01*
X157635631Y-135146890D01*
X157371890Y-135410631D01*
X157137163Y-135700496D01*
X157135367Y-135703262D01*
X157135366Y-135703263D01*
X157048685Y-135836741D01*
X156934020Y-136013309D01*
X156932525Y-136016243D01*
X156932521Y-136016250D01*
X156766183Y-136342707D01*
X156764688Y-136345642D01*
X156631021Y-136693854D01*
X156534485Y-137054131D01*
X156476138Y-137422525D01*
X156456617Y-137795000D01*
X147708383Y-137795000D01*
X147688862Y-137422525D01*
X147630515Y-137054131D01*
X147533979Y-136693854D01*
X147400312Y-136345642D01*
X147398817Y-136342707D01*
X147232479Y-136016250D01*
X147232475Y-136016243D01*
X147230980Y-136013309D01*
X147116316Y-135836741D01*
X147029634Y-135703263D01*
X147029633Y-135703262D01*
X147027837Y-135700496D01*
X146793110Y-135410631D01*
X146529369Y-135146890D01*
X146239504Y-134912163D01*
X145926692Y-134709020D01*
X145753917Y-134620987D01*
X145597293Y-134541183D01*
X145597286Y-134541180D01*
X145594358Y-134539688D01*
X145591286Y-134538509D01*
X145591282Y-134538507D01*
X145465251Y-134490128D01*
X145246146Y-134406021D01*
X144885869Y-134309485D01*
X144882619Y-134308970D01*
X144882613Y-134308969D01*
X144609372Y-134265693D01*
X144517475Y-134251138D01*
X144514190Y-134250966D01*
X144514182Y-134250965D01*
X144148301Y-134231790D01*
X144145000Y-134231617D01*
X144141699Y-134231790D01*
X143775818Y-134250965D01*
X143775810Y-134250966D01*
X143772525Y-134251138D01*
X143680628Y-134265693D01*
X143407387Y-134308969D01*
X143407381Y-134308970D01*
X143404131Y-134309485D01*
X143043854Y-134406021D01*
X142824749Y-134490128D01*
X142698718Y-134538507D01*
X142698714Y-134538509D01*
X142695642Y-134539688D01*
X142692714Y-134541180D01*
X142692707Y-134541183D01*
X142366250Y-134707521D01*
X142366247Y-134707523D01*
X142363309Y-134709020D01*
X142360543Y-134710816D01*
X142360540Y-134710818D01*
X142053263Y-134910366D01*
X142050496Y-134912163D01*
X142047939Y-134914234D01*
X142047933Y-134914238D01*
X141763192Y-135144816D01*
X141760631Y-135146890D01*
X141496890Y-135410631D01*
X141262163Y-135700496D01*
X141260367Y-135703262D01*
X141260366Y-135703263D01*
X141173685Y-135836741D01*
X141059020Y-136013309D01*
X141057525Y-136016243D01*
X141057521Y-136016250D01*
X140891183Y-136342707D01*
X140889688Y-136345642D01*
X140756021Y-136693854D01*
X140659485Y-137054131D01*
X140601138Y-137422525D01*
X140581617Y-137795000D01*
X131833383Y-137795000D01*
X131813862Y-137422525D01*
X131755515Y-137054131D01*
X131658979Y-136693854D01*
X131525312Y-136345642D01*
X131523817Y-136342707D01*
X131357479Y-136016250D01*
X131357475Y-136016243D01*
X131355980Y-136013309D01*
X131241316Y-135836741D01*
X131154634Y-135703263D01*
X131154633Y-135703262D01*
X131152837Y-135700496D01*
X130918110Y-135410631D01*
X130654369Y-135146890D01*
X130364504Y-134912163D01*
X130051692Y-134709020D01*
X129878917Y-134620987D01*
X129722293Y-134541183D01*
X129722286Y-134541180D01*
X129719358Y-134539688D01*
X129716286Y-134538509D01*
X129716282Y-134538507D01*
X129590251Y-134490128D01*
X129371146Y-134406021D01*
X129010869Y-134309485D01*
X129007619Y-134308970D01*
X129007613Y-134308969D01*
X128734372Y-134265693D01*
X128642475Y-134251138D01*
X128639190Y-134250966D01*
X128639182Y-134250965D01*
X128273301Y-134231790D01*
X128270000Y-134231617D01*
X128266699Y-134231790D01*
X127900818Y-134250965D01*
X127900810Y-134250966D01*
X127897525Y-134251138D01*
X127805628Y-134265693D01*
X127532387Y-134308969D01*
X127532381Y-134308970D01*
X127529131Y-134309485D01*
X127168854Y-134406021D01*
X126949749Y-134490128D01*
X126823718Y-134538507D01*
X126823714Y-134538509D01*
X126820642Y-134539688D01*
X126817714Y-134541180D01*
X126817707Y-134541183D01*
X126491250Y-134707521D01*
X126491247Y-134707523D01*
X126488309Y-134709020D01*
X126485543Y-134710816D01*
X126485540Y-134710818D01*
X126178263Y-134910366D01*
X126175496Y-134912163D01*
X126172939Y-134914234D01*
X126172933Y-134914238D01*
X125888192Y-135144816D01*
X125885631Y-135146890D01*
X125621890Y-135410631D01*
X125387163Y-135700496D01*
X125385367Y-135703262D01*
X125385366Y-135703263D01*
X125298685Y-135836741D01*
X125184020Y-136013309D01*
X125182525Y-136016243D01*
X125182521Y-136016250D01*
X125016183Y-136342707D01*
X125014688Y-136345642D01*
X124881021Y-136693854D01*
X124784485Y-137054131D01*
X124726138Y-137422525D01*
X124706617Y-137795000D01*
X119313500Y-137795000D01*
X119313500Y-98368266D01*
X126747001Y-98368266D01*
X126747109Y-98371356D01*
X126747499Y-98382534D01*
X126759347Y-98721798D01*
X126760856Y-98765016D01*
X126813361Y-99158521D01*
X126904014Y-99545023D01*
X127031951Y-99920835D01*
X127195950Y-100282369D01*
X127394446Y-100626174D01*
X127396235Y-100628672D01*
X127396237Y-100628676D01*
X127496353Y-100768516D01*
X127625544Y-100948969D01*
X127887038Y-101247671D01*
X127889286Y-101249782D01*
X128174178Y-101517314D01*
X128174185Y-101517320D01*
X128176433Y-101519431D01*
X128178883Y-101521318D01*
X128178888Y-101521322D01*
X128488522Y-101759773D01*
X128490965Y-101761654D01*
X128493564Y-101763278D01*
X128493574Y-101763285D01*
X128674998Y-101876650D01*
X128827634Y-101972027D01*
X129183224Y-102148544D01*
X129554342Y-102289518D01*
X129937446Y-102393605D01*
X129940489Y-102394120D01*
X129940495Y-102394121D01*
X130325837Y-102459297D01*
X130325844Y-102459298D01*
X130328878Y-102459811D01*
X130331949Y-102460026D01*
X130331951Y-102460026D01*
X130721837Y-102487290D01*
X130721845Y-102487290D01*
X130724903Y-102487504D01*
X130981170Y-102480346D01*
X131118666Y-102476505D01*
X131118669Y-102476505D01*
X131121740Y-102476419D01*
X131124793Y-102476033D01*
X131124797Y-102476033D01*
X131313315Y-102452218D01*
X131515601Y-102426663D01*
X131518605Y-102425981D01*
X131518608Y-102425980D01*
X131899731Y-102339391D01*
X131899737Y-102339389D01*
X131902727Y-102338710D01*
X132050604Y-102289518D01*
X132276499Y-102214373D01*
X132276505Y-102214371D01*
X132279423Y-102213400D01*
X132422633Y-102149639D01*
X132639294Y-102053176D01*
X132639300Y-102053173D01*
X132642094Y-102051929D01*
X132782747Y-101972027D01*
X132984603Y-101857357D01*
X132984611Y-101857352D01*
X132987276Y-101855838D01*
X133311676Y-101626999D01*
X133612197Y-101367596D01*
X133614318Y-101365369D01*
X133614324Y-101365363D01*
X133883853Y-101082329D01*
X133885970Y-101080106D01*
X133919237Y-101037527D01*
X134128472Y-100769717D01*
X134128474Y-100769714D01*
X134130382Y-100767272D01*
X134132038Y-100764662D01*
X134132044Y-100764654D01*
X134341447Y-100434688D01*
X134341451Y-100434681D01*
X134343101Y-100432081D01*
X134369390Y-100380039D01*
X134428043Y-100263925D01*
X134522096Y-100077732D01*
X134523203Y-100074878D01*
X134523207Y-100074869D01*
X134664543Y-99710483D01*
X134664546Y-99710474D01*
X134665658Y-99707607D01*
X134772417Y-99325239D01*
X134841354Y-98934278D01*
X134871811Y-98538457D01*
X134873395Y-98425000D01*
X134870772Y-98371356D01*
X134854152Y-98031552D01*
X134854002Y-98028482D01*
X134845220Y-97969012D01*
X134796458Y-97638795D01*
X134796457Y-97638791D01*
X134796008Y-97635749D01*
X134699967Y-97250550D01*
X134681728Y-97199327D01*
X134567828Y-96879460D01*
X134566796Y-96876561D01*
X134397765Y-96517352D01*
X134368015Y-96467445D01*
X134196068Y-96179003D01*
X134194488Y-96176352D01*
X133958906Y-95856815D01*
X133693266Y-95561793D01*
X133400105Y-95294100D01*
X133082222Y-95056293D01*
X133033370Y-95026707D01*
X132745277Y-94852231D01*
X132745268Y-94852226D01*
X132742649Y-94850640D01*
X132384629Y-94679106D01*
X132325229Y-94657486D01*
X132014475Y-94544381D01*
X132014474Y-94544381D01*
X132011579Y-94543327D01*
X131804688Y-94490206D01*
X131630043Y-94445365D01*
X131630040Y-94445364D01*
X131627059Y-94444599D01*
X131234740Y-94383865D01*
X131231683Y-94383694D01*
X131231682Y-94383694D01*
X131202924Y-94382086D01*
X130838368Y-94361704D01*
X130835290Y-94361833D01*
X130835286Y-94361833D01*
X130576983Y-94372659D01*
X130441724Y-94378328D01*
X130438680Y-94378756D01*
X130438678Y-94378756D01*
X130398989Y-94384334D01*
X130048596Y-94433579D01*
X129662735Y-94526928D01*
X129287825Y-94657486D01*
X129241035Y-94679106D01*
X128930242Y-94822712D01*
X128930232Y-94822717D01*
X128927445Y-94824005D01*
X128585034Y-95024896D01*
X128544018Y-95054696D01*
X128266342Y-95256439D01*
X128266336Y-95256444D01*
X128263861Y-95258242D01*
X128261575Y-95260271D01*
X128261572Y-95260274D01*
X128221134Y-95296177D01*
X127966991Y-95521815D01*
X127964901Y-95524072D01*
X127964899Y-95524074D01*
X127699354Y-95810837D01*
X127699349Y-95810843D01*
X127697259Y-95813100D01*
X127695399Y-95815550D01*
X127695396Y-95815554D01*
X127662202Y-95859286D01*
X127457238Y-96129316D01*
X127455627Y-96131934D01*
X127455624Y-96131939D01*
X127250834Y-96464821D01*
X127249220Y-96467445D01*
X127075190Y-96824258D01*
X127074119Y-96827139D01*
X127074116Y-96827145D01*
X126988146Y-97058313D01*
X126936810Y-97196352D01*
X126835400Y-97580173D01*
X126771928Y-97972058D01*
X126771734Y-97975138D01*
X126771734Y-97975140D01*
X126764762Y-98085967D01*
X126747001Y-98368266D01*
X119313500Y-98368266D01*
X119313500Y-86863761D01*
X152468170Y-86863761D01*
X152469554Y-86939270D01*
X152476345Y-87309803D01*
X152476644Y-87312578D01*
X152518838Y-87704162D01*
X152524138Y-87753353D01*
X152524683Y-87756094D01*
X152524684Y-87756099D01*
X152600472Y-88137105D01*
X152611172Y-88190899D01*
X152611959Y-88193580D01*
X152611960Y-88193586D01*
X152691399Y-88464369D01*
X152736756Y-88618976D01*
X152737776Y-88621572D01*
X152737777Y-88621575D01*
X152881008Y-88986120D01*
X152899896Y-89034194D01*
X153099301Y-89433266D01*
X153333392Y-89813032D01*
X153600315Y-90170485D01*
X153602176Y-90172563D01*
X153602177Y-90172564D01*
X153876884Y-90479268D01*
X153897957Y-90502796D01*
X153899994Y-90504699D01*
X153900001Y-90504706D01*
X154121633Y-90711742D01*
X154223961Y-90807332D01*
X154226157Y-90809045D01*
X154226161Y-90809048D01*
X154452577Y-90985625D01*
X154575746Y-91081682D01*
X154736588Y-91185536D01*
X154948183Y-91322162D01*
X154948191Y-91322167D01*
X154950527Y-91323675D01*
X155345335Y-91531394D01*
X155347928Y-91532476D01*
X155754462Y-91702116D01*
X155754467Y-91702118D01*
X155757046Y-91703194D01*
X155759711Y-91704037D01*
X155759717Y-91704039D01*
X155991317Y-91777284D01*
X156182398Y-91837715D01*
X156185128Y-91838318D01*
X156185129Y-91838318D01*
X156577664Y-91924982D01*
X156618025Y-91933893D01*
X156620799Y-91934251D01*
X156620800Y-91934251D01*
X157057707Y-91990608D01*
X157057714Y-91990609D01*
X157060477Y-91990965D01*
X157063264Y-91991075D01*
X157063270Y-91991075D01*
X157321519Y-92001221D01*
X157506251Y-92008479D01*
X157509043Y-92008340D01*
X157509048Y-92008340D01*
X157949013Y-91986438D01*
X157949022Y-91986437D01*
X157951817Y-91986298D01*
X157954594Y-91985910D01*
X157954596Y-91985910D01*
X158032542Y-91975025D01*
X158393647Y-91924596D01*
X158396357Y-91923968D01*
X158396367Y-91923966D01*
X158825515Y-91824494D01*
X158828242Y-91823862D01*
X159050990Y-91750842D01*
X159249510Y-91685764D01*
X159249516Y-91685762D01*
X159252163Y-91684894D01*
X159662052Y-91508791D01*
X160054664Y-91296950D01*
X160426890Y-91051046D01*
X160775782Y-90773026D01*
X161098580Y-90465093D01*
X161313168Y-90220402D01*
X161390874Y-90131795D01*
X161390877Y-90131791D01*
X161392725Y-90129684D01*
X161462131Y-90034680D01*
X161654242Y-89771712D01*
X161655891Y-89769455D01*
X161833582Y-89474311D01*
X161884541Y-89389669D01*
X161884546Y-89389660D01*
X161885992Y-89387258D01*
X162081207Y-88986120D01*
X162170211Y-88752428D01*
X162238994Y-88571832D01*
X162238996Y-88571825D01*
X162239990Y-88569216D01*
X162361085Y-88139848D01*
X162369480Y-88095207D01*
X162443015Y-87704162D01*
X162443017Y-87704150D01*
X162443531Y-87701415D01*
X162479719Y-87329000D01*
X162486462Y-87259606D01*
X162486463Y-87259594D01*
X162486677Y-87257389D01*
X162493548Y-86995000D01*
X162473700Y-86549324D01*
X162414312Y-86107177D01*
X162315855Y-85672060D01*
X162179108Y-85247417D01*
X162125622Y-85121104D01*
X162006245Y-84839186D01*
X162006245Y-84839185D01*
X162005155Y-84836612D01*
X161941134Y-84716458D01*
X161796679Y-84445351D01*
X161795371Y-84442896D01*
X161793850Y-84440567D01*
X161552944Y-84071721D01*
X161552941Y-84071717D01*
X161551420Y-84069388D01*
X161468192Y-83963813D01*
X161276960Y-83721237D01*
X161276958Y-83721235D01*
X161275231Y-83719044D01*
X160968992Y-83394639D01*
X160710902Y-83165898D01*
X160637234Y-83100607D01*
X160637227Y-83100602D01*
X160635128Y-83098741D01*
X160276282Y-82833694D01*
X160075449Y-82711345D01*
X159897684Y-82603049D01*
X159897677Y-82603045D01*
X159895295Y-82601594D01*
X159772964Y-82541267D01*
X159497696Y-82405521D01*
X159495184Y-82404282D01*
X159079118Y-82243318D01*
X158942562Y-82204032D01*
X158653071Y-82120748D01*
X158653065Y-82120746D01*
X158650390Y-82119977D01*
X158647653Y-82119448D01*
X158647647Y-82119446D01*
X158496581Y-82090219D01*
X158212394Y-82035236D01*
X158209617Y-82034951D01*
X158209607Y-82034950D01*
X157934789Y-82006793D01*
X157768600Y-81989765D01*
X157765810Y-81989728D01*
X157765802Y-81989728D01*
X157487276Y-81986083D01*
X157322521Y-81983926D01*
X157319721Y-81984139D01*
X157319720Y-81984139D01*
X156880475Y-82017551D01*
X156877688Y-82017763D01*
X156437625Y-82091010D01*
X156347566Y-82114385D01*
X156008533Y-82202380D01*
X156008522Y-82202383D01*
X156005815Y-82203086D01*
X155737441Y-82298913D01*
X155588320Y-82352159D01*
X155588315Y-82352161D01*
X155585677Y-82353103D01*
X155583137Y-82354274D01*
X155583132Y-82354276D01*
X155474661Y-82404282D01*
X155180538Y-82539875D01*
X154793607Y-82761921D01*
X154791315Y-82763523D01*
X154791307Y-82763528D01*
X154486471Y-82976581D01*
X154427945Y-83017485D01*
X154425804Y-83019285D01*
X154425801Y-83019287D01*
X154098818Y-83294146D01*
X154086450Y-83304542D01*
X154084476Y-83306526D01*
X154084472Y-83306530D01*
X153996823Y-83394639D01*
X153771824Y-83620819D01*
X153486559Y-83963813D01*
X153232914Y-84330808D01*
X153012896Y-84718897D01*
X153011737Y-84721446D01*
X153011735Y-84721450D01*
X152829405Y-85122462D01*
X152829400Y-85122473D01*
X152828248Y-85125008D01*
X152827326Y-85127634D01*
X152827321Y-85127646D01*
X152743148Y-85367340D01*
X152680433Y-85545925D01*
X152679742Y-85548645D01*
X152679741Y-85548649D01*
X152647706Y-85674788D01*
X152570619Y-85978316D01*
X152570176Y-85981066D01*
X152570174Y-85981076D01*
X152531737Y-86219714D01*
X152499678Y-86418757D01*
X152499480Y-86421558D01*
X152499479Y-86421564D01*
X152486456Y-86605498D01*
X152468170Y-86863761D01*
X119313500Y-86863761D01*
X119313500Y-75508266D01*
X126747001Y-75508266D01*
X126747109Y-75511356D01*
X126747499Y-75522534D01*
X126759347Y-75861798D01*
X126760856Y-75905016D01*
X126813361Y-76298521D01*
X126904014Y-76685023D01*
X127031951Y-77060835D01*
X127195950Y-77422369D01*
X127394446Y-77766174D01*
X127396235Y-77768672D01*
X127396237Y-77768676D01*
X127496353Y-77908516D01*
X127625544Y-78088969D01*
X127887038Y-78387671D01*
X127889286Y-78389782D01*
X128174178Y-78657314D01*
X128174185Y-78657320D01*
X128176433Y-78659431D01*
X128178883Y-78661318D01*
X128178888Y-78661322D01*
X128488522Y-78899773D01*
X128490965Y-78901654D01*
X128493564Y-78903278D01*
X128493574Y-78903285D01*
X128674998Y-79016650D01*
X128827634Y-79112027D01*
X129183224Y-79288544D01*
X129554342Y-79429518D01*
X129937446Y-79533605D01*
X129940489Y-79534120D01*
X129940495Y-79534121D01*
X130325837Y-79599297D01*
X130325844Y-79599298D01*
X130328878Y-79599811D01*
X130331949Y-79600026D01*
X130331951Y-79600026D01*
X130721837Y-79627290D01*
X130721845Y-79627290D01*
X130724903Y-79627504D01*
X130981170Y-79620346D01*
X131118666Y-79616505D01*
X131118669Y-79616505D01*
X131121740Y-79616419D01*
X131124793Y-79616033D01*
X131124797Y-79616033D01*
X131313315Y-79592218D01*
X131515601Y-79566663D01*
X131518605Y-79565981D01*
X131518608Y-79565980D01*
X131899731Y-79479391D01*
X131899737Y-79479389D01*
X131902727Y-79478710D01*
X132050604Y-79429518D01*
X132276499Y-79354373D01*
X132276505Y-79354371D01*
X132279423Y-79353400D01*
X132422633Y-79289639D01*
X132639294Y-79193176D01*
X132639300Y-79193173D01*
X132642094Y-79191929D01*
X132782747Y-79112027D01*
X132984603Y-78997357D01*
X132984611Y-78997352D01*
X132987276Y-78995838D01*
X133311676Y-78766999D01*
X133612197Y-78507596D01*
X133614318Y-78505369D01*
X133614324Y-78505363D01*
X133883853Y-78222329D01*
X133885970Y-78220106D01*
X133919237Y-78177527D01*
X134128472Y-77909717D01*
X134128474Y-77909714D01*
X134130382Y-77907272D01*
X134132038Y-77904662D01*
X134132044Y-77904654D01*
X134341447Y-77574688D01*
X134341451Y-77574681D01*
X134343101Y-77572081D01*
X134369390Y-77520039D01*
X134428043Y-77403925D01*
X134522096Y-77217732D01*
X134523203Y-77214878D01*
X134523207Y-77214869D01*
X134664543Y-76850483D01*
X134664546Y-76850474D01*
X134665658Y-76847607D01*
X134772417Y-76465239D01*
X134841354Y-76074278D01*
X134871811Y-75678457D01*
X134873395Y-75565000D01*
X134870772Y-75511356D01*
X134854152Y-75171552D01*
X134854002Y-75168482D01*
X134845220Y-75109012D01*
X134796458Y-74778795D01*
X134796457Y-74778791D01*
X134796008Y-74775749D01*
X134699967Y-74390550D01*
X134681728Y-74339327D01*
X134567828Y-74019460D01*
X134566796Y-74016561D01*
X134397765Y-73657352D01*
X134368015Y-73607445D01*
X134196068Y-73319003D01*
X134194488Y-73316352D01*
X133958906Y-72996815D01*
X133693266Y-72701793D01*
X133400105Y-72434100D01*
X133082222Y-72196293D01*
X133033370Y-72166707D01*
X132745277Y-71992231D01*
X132745268Y-71992226D01*
X132742649Y-71990640D01*
X132384629Y-71819106D01*
X132325229Y-71797486D01*
X132014475Y-71684381D01*
X132014474Y-71684381D01*
X132011579Y-71683327D01*
X131804688Y-71630206D01*
X131630043Y-71585365D01*
X131630040Y-71585364D01*
X131627059Y-71584599D01*
X131234740Y-71523865D01*
X131231683Y-71523694D01*
X131231682Y-71523694D01*
X131202924Y-71522086D01*
X130838368Y-71501704D01*
X130835290Y-71501833D01*
X130835286Y-71501833D01*
X130576983Y-71512659D01*
X130441724Y-71518328D01*
X130438680Y-71518756D01*
X130438678Y-71518756D01*
X130398989Y-71524334D01*
X130048596Y-71573579D01*
X129662735Y-71666928D01*
X129287825Y-71797486D01*
X129241035Y-71819106D01*
X128930242Y-71962712D01*
X128930232Y-71962717D01*
X128927445Y-71964005D01*
X128585034Y-72164896D01*
X128544018Y-72194696D01*
X128266342Y-72396439D01*
X128266336Y-72396444D01*
X128263861Y-72398242D01*
X128261575Y-72400271D01*
X128261572Y-72400274D01*
X128221134Y-72436177D01*
X127966991Y-72661815D01*
X127964901Y-72664072D01*
X127964899Y-72664074D01*
X127699354Y-72950837D01*
X127699349Y-72950843D01*
X127697259Y-72953100D01*
X127695399Y-72955550D01*
X127695396Y-72955554D01*
X127662202Y-72999286D01*
X127457238Y-73269316D01*
X127455627Y-73271934D01*
X127455624Y-73271939D01*
X127250834Y-73604821D01*
X127249220Y-73607445D01*
X127075190Y-73964258D01*
X127074119Y-73967139D01*
X127074116Y-73967145D01*
X126988146Y-74198313D01*
X126936810Y-74336352D01*
X126835400Y-74720173D01*
X126771928Y-75112058D01*
X126771734Y-75115138D01*
X126771734Y-75115140D01*
X126764762Y-75225967D01*
X126747001Y-75508266D01*
X119313500Y-75508266D01*
X119313500Y-63443266D01*
X153417001Y-63443266D01*
X153417109Y-63446356D01*
X153417499Y-63457534D01*
X153429347Y-63796798D01*
X153430856Y-63840016D01*
X153483361Y-64233521D01*
X153574014Y-64620023D01*
X153701951Y-64995835D01*
X153865950Y-65357369D01*
X154064446Y-65701174D01*
X154066235Y-65703672D01*
X154066237Y-65703676D01*
X154166353Y-65843516D01*
X154295544Y-66023969D01*
X154557038Y-66322671D01*
X154559286Y-66324782D01*
X154844178Y-66592314D01*
X154844185Y-66592320D01*
X154846433Y-66594431D01*
X154848883Y-66596318D01*
X154848888Y-66596322D01*
X155158522Y-66834773D01*
X155160965Y-66836654D01*
X155163564Y-66838278D01*
X155163574Y-66838285D01*
X155344998Y-66951650D01*
X155497634Y-67047027D01*
X155853224Y-67223544D01*
X156224342Y-67364518D01*
X156607446Y-67468605D01*
X156610489Y-67469120D01*
X156610495Y-67469121D01*
X156995837Y-67534297D01*
X156995844Y-67534298D01*
X156998878Y-67534811D01*
X157001949Y-67535026D01*
X157001951Y-67535026D01*
X157391837Y-67562290D01*
X157391845Y-67562290D01*
X157394903Y-67562504D01*
X157651170Y-67555346D01*
X157788666Y-67551505D01*
X157788669Y-67551505D01*
X157791740Y-67551419D01*
X157794793Y-67551033D01*
X157794797Y-67551033D01*
X157983315Y-67527218D01*
X158185601Y-67501663D01*
X158188605Y-67500981D01*
X158188608Y-67500980D01*
X158569731Y-67414391D01*
X158569737Y-67414389D01*
X158572727Y-67413710D01*
X158720604Y-67364518D01*
X158946499Y-67289373D01*
X158946505Y-67289371D01*
X158949423Y-67288400D01*
X159092633Y-67224639D01*
X159309294Y-67128176D01*
X159309300Y-67128173D01*
X159312094Y-67126929D01*
X159452747Y-67047027D01*
X159654603Y-66932357D01*
X159654611Y-66932352D01*
X159657276Y-66930838D01*
X159981676Y-66701999D01*
X160282197Y-66442596D01*
X160284318Y-66440369D01*
X160284324Y-66440363D01*
X160553853Y-66157329D01*
X160555970Y-66155106D01*
X160589237Y-66112527D01*
X160798472Y-65844717D01*
X160798474Y-65844714D01*
X160800382Y-65842272D01*
X160802038Y-65839662D01*
X160802044Y-65839654D01*
X161011447Y-65509688D01*
X161011451Y-65509681D01*
X161013101Y-65507081D01*
X161039390Y-65455039D01*
X161098043Y-65338925D01*
X161192096Y-65152732D01*
X161193203Y-65149878D01*
X161193207Y-65149869D01*
X161334543Y-64785483D01*
X161334546Y-64785474D01*
X161335658Y-64782607D01*
X161442417Y-64400239D01*
X161511354Y-64009278D01*
X161541811Y-63613457D01*
X161543395Y-63500000D01*
X161540772Y-63446356D01*
X161524152Y-63106552D01*
X161524002Y-63103482D01*
X161515220Y-63044012D01*
X161466458Y-62713795D01*
X161466457Y-62713791D01*
X161466008Y-62710749D01*
X161369967Y-62325550D01*
X161351728Y-62274327D01*
X161237828Y-61954460D01*
X161236796Y-61951561D01*
X161067765Y-61592352D01*
X161038015Y-61542445D01*
X160866068Y-61254003D01*
X160864488Y-61251352D01*
X160628906Y-60931815D01*
X160363266Y-60636793D01*
X160070105Y-60369100D01*
X159752222Y-60131293D01*
X159703370Y-60101707D01*
X159415277Y-59927231D01*
X159415268Y-59927226D01*
X159412649Y-59925640D01*
X159054629Y-59754106D01*
X158995229Y-59732486D01*
X158684475Y-59619381D01*
X158684474Y-59619381D01*
X158681579Y-59618327D01*
X158474688Y-59565206D01*
X158300043Y-59520365D01*
X158300040Y-59520364D01*
X158297059Y-59519599D01*
X157904740Y-59458865D01*
X157901683Y-59458694D01*
X157901682Y-59458694D01*
X157872924Y-59457086D01*
X157508368Y-59436704D01*
X157505290Y-59436833D01*
X157505286Y-59436833D01*
X157246983Y-59447659D01*
X157111724Y-59453328D01*
X157108680Y-59453756D01*
X157108678Y-59453756D01*
X157068989Y-59459334D01*
X156718596Y-59508579D01*
X156332735Y-59601928D01*
X155957825Y-59732486D01*
X155911035Y-59754106D01*
X155600242Y-59897712D01*
X155600232Y-59897717D01*
X155597445Y-59899005D01*
X155255034Y-60099896D01*
X155214018Y-60129696D01*
X154936342Y-60331439D01*
X154936336Y-60331444D01*
X154933861Y-60333242D01*
X154931575Y-60335271D01*
X154931572Y-60335274D01*
X154891134Y-60371177D01*
X154636991Y-60596815D01*
X154634901Y-60599072D01*
X154634899Y-60599074D01*
X154369354Y-60885837D01*
X154369349Y-60885843D01*
X154367259Y-60888100D01*
X154365399Y-60890550D01*
X154365396Y-60890554D01*
X154332202Y-60934286D01*
X154127238Y-61204316D01*
X154125627Y-61206934D01*
X154125624Y-61206939D01*
X153920834Y-61539821D01*
X153919220Y-61542445D01*
X153745190Y-61899258D01*
X153744119Y-61902139D01*
X153744116Y-61902145D01*
X153658146Y-62133313D01*
X153606810Y-62271352D01*
X153505400Y-62655173D01*
X153441928Y-63047058D01*
X153441734Y-63050138D01*
X153441734Y-63050140D01*
X153434762Y-63160967D01*
X153417001Y-63443266D01*
X119313500Y-63443266D01*
X119313500Y-52648266D01*
X126747001Y-52648266D01*
X126747109Y-52651356D01*
X126747499Y-52662534D01*
X126759347Y-53001798D01*
X126760856Y-53045016D01*
X126813361Y-53438521D01*
X126904014Y-53825023D01*
X127031951Y-54200835D01*
X127195950Y-54562369D01*
X127394446Y-54906174D01*
X127396235Y-54908672D01*
X127396237Y-54908676D01*
X127496353Y-55048516D01*
X127625544Y-55228969D01*
X127887038Y-55527671D01*
X127889286Y-55529782D01*
X128174178Y-55797314D01*
X128174185Y-55797320D01*
X128176433Y-55799431D01*
X128178883Y-55801318D01*
X128178888Y-55801322D01*
X128488522Y-56039773D01*
X128490965Y-56041654D01*
X128493564Y-56043278D01*
X128493574Y-56043285D01*
X128674998Y-56156650D01*
X128827634Y-56252027D01*
X129183224Y-56428544D01*
X129554342Y-56569518D01*
X129937446Y-56673605D01*
X129940489Y-56674120D01*
X129940495Y-56674121D01*
X130325837Y-56739297D01*
X130325844Y-56739298D01*
X130328878Y-56739811D01*
X130331949Y-56740026D01*
X130331951Y-56740026D01*
X130721837Y-56767290D01*
X130721845Y-56767290D01*
X130724903Y-56767504D01*
X130981170Y-56760346D01*
X131118666Y-56756505D01*
X131118669Y-56756505D01*
X131121740Y-56756419D01*
X131124793Y-56756033D01*
X131124797Y-56756033D01*
X131313315Y-56732218D01*
X131515601Y-56706663D01*
X131518605Y-56705981D01*
X131518608Y-56705980D01*
X131899731Y-56619391D01*
X131899737Y-56619389D01*
X131902727Y-56618710D01*
X132050604Y-56569518D01*
X132276499Y-56494373D01*
X132276505Y-56494371D01*
X132279423Y-56493400D01*
X132422633Y-56429639D01*
X132639294Y-56333176D01*
X132639300Y-56333173D01*
X132642094Y-56331929D01*
X132782747Y-56252027D01*
X132984603Y-56137357D01*
X132984611Y-56137352D01*
X132987276Y-56135838D01*
X133311676Y-55906999D01*
X133612197Y-55647596D01*
X133614318Y-55645369D01*
X133614324Y-55645363D01*
X133883853Y-55362329D01*
X133885970Y-55360106D01*
X133919237Y-55317527D01*
X134128472Y-55049717D01*
X134128474Y-55049714D01*
X134130382Y-55047272D01*
X134132038Y-55044662D01*
X134132044Y-55044654D01*
X134341447Y-54714688D01*
X134341451Y-54714681D01*
X134343101Y-54712081D01*
X134369390Y-54660039D01*
X134428043Y-54543925D01*
X134522096Y-54357732D01*
X134523203Y-54354878D01*
X134523207Y-54354869D01*
X134664543Y-53990483D01*
X134664546Y-53990474D01*
X134665658Y-53987607D01*
X134772417Y-53605239D01*
X134841354Y-53214278D01*
X134871811Y-52818457D01*
X134873395Y-52705000D01*
X134870772Y-52651356D01*
X134854152Y-52311552D01*
X134854002Y-52308482D01*
X134845220Y-52249012D01*
X134796458Y-51918795D01*
X134796457Y-51918791D01*
X134796008Y-51915749D01*
X134699967Y-51530550D01*
X134681728Y-51479327D01*
X134567828Y-51159460D01*
X134566796Y-51156561D01*
X134397765Y-50797352D01*
X134368015Y-50747445D01*
X134196068Y-50459003D01*
X134194488Y-50456352D01*
X133958906Y-50136815D01*
X133693266Y-49841793D01*
X133400105Y-49574100D01*
X133082222Y-49336293D01*
X133033370Y-49306707D01*
X132745277Y-49132231D01*
X132745268Y-49132226D01*
X132742649Y-49130640D01*
X132384629Y-48959106D01*
X132325229Y-48937486D01*
X132014475Y-48824381D01*
X132014474Y-48824381D01*
X132011579Y-48823327D01*
X131804688Y-48770206D01*
X131630043Y-48725365D01*
X131630040Y-48725364D01*
X131627059Y-48724599D01*
X131234740Y-48663865D01*
X131231683Y-48663694D01*
X131231682Y-48663694D01*
X131202924Y-48662086D01*
X130838368Y-48641704D01*
X130835290Y-48641833D01*
X130835286Y-48641833D01*
X130576983Y-48652659D01*
X130441724Y-48658328D01*
X130438680Y-48658756D01*
X130438678Y-48658756D01*
X130398989Y-48664334D01*
X130048596Y-48713579D01*
X129662735Y-48806928D01*
X129287825Y-48937486D01*
X129241035Y-48959106D01*
X128930242Y-49102712D01*
X128930232Y-49102717D01*
X128927445Y-49104005D01*
X128585034Y-49304896D01*
X128544018Y-49334696D01*
X128266342Y-49536439D01*
X128266336Y-49536444D01*
X128263861Y-49538242D01*
X128261575Y-49540271D01*
X128261572Y-49540274D01*
X128221134Y-49576177D01*
X127966991Y-49801815D01*
X127964901Y-49804072D01*
X127964899Y-49804074D01*
X127699354Y-50090837D01*
X127699349Y-50090843D01*
X127697259Y-50093100D01*
X127695399Y-50095550D01*
X127695396Y-50095554D01*
X127662202Y-50139286D01*
X127457238Y-50409316D01*
X127455627Y-50411934D01*
X127455624Y-50411939D01*
X127250834Y-50744821D01*
X127249220Y-50747445D01*
X127075190Y-51104258D01*
X127074119Y-51107139D01*
X127074116Y-51107145D01*
X126988146Y-51338313D01*
X126936810Y-51476352D01*
X126835400Y-51860173D01*
X126771928Y-52252058D01*
X126771734Y-52255138D01*
X126771734Y-52255140D01*
X126764762Y-52365967D01*
X126747001Y-52648266D01*
X119313500Y-52648266D01*
X119313500Y-35221381D01*
X124154160Y-35221381D01*
X124154237Y-35222470D01*
X124156698Y-35226206D01*
X124430632Y-35436404D01*
X124436262Y-35440259D01*
X124736591Y-35622862D01*
X124742593Y-35626080D01*
X125060897Y-35775184D01*
X125067202Y-35777732D01*
X125399743Y-35891587D01*
X125406313Y-35893446D01*
X125749183Y-35970714D01*
X125755912Y-35971853D01*
X126105143Y-36011643D01*
X126111933Y-36012046D01*
X126463419Y-36013886D01*
X126470220Y-36013554D01*
X126819853Y-35977423D01*
X126826581Y-35976357D01*
X127170274Y-35902676D01*
X127176822Y-35900897D01*
X127510549Y-35790527D01*
X127516891Y-35788041D01*
X127836718Y-35642288D01*
X127842777Y-35639121D01*
X128144995Y-35459676D01*
X128150659Y-35455884D01*
X128431732Y-35244849D01*
X128436958Y-35240464D01*
X128446613Y-35231428D01*
X128452540Y-35221381D01*
X159714160Y-35221381D01*
X159714237Y-35222470D01*
X159716698Y-35226206D01*
X159990632Y-35436404D01*
X159996262Y-35440259D01*
X160296591Y-35622862D01*
X160302593Y-35626080D01*
X160620897Y-35775184D01*
X160627202Y-35777732D01*
X160959743Y-35891587D01*
X160966313Y-35893446D01*
X161309183Y-35970714D01*
X161315912Y-35971853D01*
X161665143Y-36011643D01*
X161671933Y-36012046D01*
X162023419Y-36013886D01*
X162030220Y-36013554D01*
X162379853Y-35977423D01*
X162386581Y-35976357D01*
X162730274Y-35902676D01*
X162736822Y-35900897D01*
X163070549Y-35790527D01*
X163076891Y-35788041D01*
X163396718Y-35642288D01*
X163402777Y-35639121D01*
X163704995Y-35459676D01*
X163710659Y-35455884D01*
X163991732Y-35244849D01*
X163996958Y-35240464D01*
X164006613Y-35231428D01*
X164014682Y-35217750D01*
X164014654Y-35217024D01*
X164009512Y-35208723D01*
X161877810Y-33077020D01*
X161863869Y-33069408D01*
X161862034Y-33069539D01*
X161855420Y-33073790D01*
X159721774Y-35207437D01*
X159714160Y-35221381D01*
X128452540Y-35221381D01*
X128454682Y-35217750D01*
X128454654Y-35217024D01*
X128449512Y-35208723D01*
X126317810Y-33077020D01*
X126303869Y-33069408D01*
X126302034Y-33069539D01*
X126295420Y-33073790D01*
X124161774Y-35207437D01*
X124154160Y-35221381D01*
X119313500Y-35221381D01*
X119313500Y-32696832D01*
X122992333Y-32696832D01*
X123010117Y-33047893D01*
X123010827Y-33054649D01*
X123066420Y-33401723D01*
X123067859Y-33408378D01*
X123160608Y-33747410D01*
X123162757Y-33753871D01*
X123291581Y-34080912D01*
X123294412Y-34087095D01*
X123457803Y-34398310D01*
X123461286Y-34404152D01*
X123657330Y-34695896D01*
X123661433Y-34701340D01*
X123781425Y-34843836D01*
X123794164Y-34852279D01*
X123804608Y-34846181D01*
X125932980Y-32717810D01*
X125939357Y-32706131D01*
X126669408Y-32706131D01*
X126669539Y-32707966D01*
X126673790Y-32714580D01*
X128804009Y-34844798D01*
X128817605Y-34852223D01*
X128827218Y-34845522D01*
X128927518Y-34728912D01*
X128931676Y-34723514D01*
X129130762Y-34433840D01*
X129134310Y-34428029D01*
X129300942Y-34118559D01*
X129303849Y-34112381D01*
X129436090Y-33786713D01*
X129438304Y-33780283D01*
X129534598Y-33442237D01*
X129536105Y-33435607D01*
X129595332Y-33089118D01*
X129596112Y-33082378D01*
X129617668Y-32729925D01*
X129617784Y-32726323D01*
X129617853Y-32706819D01*
X129617761Y-32703194D01*
X129617416Y-32696832D01*
X158552333Y-32696832D01*
X158570117Y-33047893D01*
X158570827Y-33054649D01*
X158626420Y-33401723D01*
X158627859Y-33408378D01*
X158720608Y-33747410D01*
X158722757Y-33753871D01*
X158851581Y-34080912D01*
X158854412Y-34087095D01*
X159017803Y-34398310D01*
X159021286Y-34404152D01*
X159217330Y-34695896D01*
X159221433Y-34701340D01*
X159341425Y-34843836D01*
X159354164Y-34852279D01*
X159364608Y-34846181D01*
X161492980Y-32717810D01*
X161499357Y-32706131D01*
X162229408Y-32706131D01*
X162229539Y-32707966D01*
X162233790Y-32714580D01*
X164364009Y-34844798D01*
X164377605Y-34852223D01*
X164387218Y-34845522D01*
X164487518Y-34728912D01*
X164491676Y-34723514D01*
X164690762Y-34433840D01*
X164694310Y-34428029D01*
X164860942Y-34118559D01*
X164863849Y-34112381D01*
X164996090Y-33786713D01*
X164998304Y-33780283D01*
X165094598Y-33442237D01*
X165096105Y-33435607D01*
X165155332Y-33089118D01*
X165156112Y-33082378D01*
X165177668Y-32729925D01*
X165177784Y-32726323D01*
X165177853Y-32706819D01*
X165177761Y-32703194D01*
X165158666Y-32350615D01*
X165157931Y-32343849D01*
X165101130Y-31996985D01*
X165099663Y-31990313D01*
X165005736Y-31651627D01*
X165003562Y-31645163D01*
X164873598Y-31318578D01*
X164870742Y-31312398D01*
X164706269Y-31001763D01*
X164702769Y-30995937D01*
X164505697Y-30704862D01*
X164501590Y-30699453D01*
X164388565Y-30566179D01*
X164375740Y-30557743D01*
X164365416Y-30563795D01*
X162237020Y-32692190D01*
X162229408Y-32706131D01*
X161499357Y-32706131D01*
X161500592Y-32703869D01*
X161500461Y-32702034D01*
X161496210Y-32695420D01*
X159365992Y-30565203D01*
X159352455Y-30557811D01*
X159342753Y-30564599D01*
X159235430Y-30690257D01*
X159231296Y-30695664D01*
X159033215Y-30986041D01*
X159029697Y-30991851D01*
X158864134Y-31301922D01*
X158861259Y-31308087D01*
X158730155Y-31634218D01*
X158727962Y-31640658D01*
X158632846Y-31979044D01*
X158631363Y-31985679D01*
X158573350Y-32332354D01*
X158572591Y-32339126D01*
X158552357Y-32690037D01*
X158552333Y-32696832D01*
X129617416Y-32696832D01*
X129598666Y-32350615D01*
X129597931Y-32343849D01*
X129541130Y-31996985D01*
X129539663Y-31990313D01*
X129445736Y-31651627D01*
X129443562Y-31645163D01*
X129313598Y-31318578D01*
X129310742Y-31312398D01*
X129146269Y-31001763D01*
X129142769Y-30995937D01*
X128945697Y-30704862D01*
X128941590Y-30699453D01*
X128828565Y-30566179D01*
X128815740Y-30557743D01*
X128805416Y-30563795D01*
X126677020Y-32692190D01*
X126669408Y-32706131D01*
X125939357Y-32706131D01*
X125940592Y-32703869D01*
X125940461Y-32702034D01*
X125936210Y-32695420D01*
X123805992Y-30565203D01*
X123792455Y-30557811D01*
X123782753Y-30564599D01*
X123675430Y-30690257D01*
X123671296Y-30695664D01*
X123473215Y-30986041D01*
X123469697Y-30991851D01*
X123304134Y-31301922D01*
X123301259Y-31308087D01*
X123170155Y-31634218D01*
X123167962Y-31640658D01*
X123072846Y-31979044D01*
X123071363Y-31985679D01*
X123013350Y-32332354D01*
X123012591Y-32339126D01*
X122992357Y-32690037D01*
X122992333Y-32696832D01*
X119313500Y-32696832D01*
X119313500Y-30339500D01*
X119333502Y-30271379D01*
X119387158Y-30224886D01*
X119439500Y-30213500D01*
X124120521Y-30213500D01*
X124188642Y-30233502D01*
G37*
G04 #@! TD.AperFunction*
M02*
