  0
SECTION
  2
HEADER
  9
$ANGBASE
  50
0.0
  9
$ANGDIR
  70
1
  9
$MEASUREMENT
  70
1
  0
ENDSEC
  0
SECTION
  2
TABLES
  0
TABLE
  2
LTYPE
  70
4
  0
LTYPE
  5
40F
  2
CONTINUOUS
  70
0
  3
Solid line
  72
65
  73
0
  40
0.0
  0
LTYPE
  5
410
  2
DASHDOT
 70
0
  3
Dash Dot ____ _ ____ _
 72
65
 73
4
 40
2.0
 49
1.25
 49
-0.25
 49
0.25
 49
-0.25
  0
LTYPE
  5
411
  2
DASHED
 70
0
  3
Dashed __ __ __ __ __
 72
65
 73
2
 40
0.75
 49
0.5
 49
-0.25
  0
LTYPE
  5
43B
  2
DOTTED
 70
0
  3
Dotted .  .  .  .
 72
65
 73
2
 40
0.2
 49
0.0
 49
-0.2
  0
ENDTAB
  0
TABLE
  2
STYLE
  70
4
  0
STYLE
  2
KICAD
  70
0
  40
0
  41
1
  42
1
  50
0
  71
0
  3
isocp.shx
  0
STYLE
  2
KICADB
  70
0
  40
0
  41
1
  42
1
  50
0
  71
0
  3
isocp.shx
  0
STYLE
  2
KICADI
  70
0
  40
0
  41
1
  42
1
  50
15
  71
0
  3
isocp.shx
  0
STYLE
  2
KICADBI
  70
0
  40
0
  41
1
  42
1
  50
15
  71
0
  3
isocp.shx
  0
ENDTAB
  0
TABLE
  2
LAYER
  70
1
  0
LAYER
  2
BLACK
  70
0
  62
7
  6
CONTINUOUS
  0
ENDTAB
  0
ENDSEC
  0
SECTION
  2
ENTITIES
0
LINE
8
BLACK
6
CONTINUOUS
10
126.37
20
-145.295
11
125.998
21
-145.239
0
LINE
8
BLACK
6
CONTINUOUS
10
125.998
20
-145.239
11
125.633
21
-145.148
0
LINE
8
BLACK
6
CONTINUOUS
10
125.633
20
-145.148
11
125.278
21
-145.021
0
LINE
8
BLACK
6
CONTINUOUS
10
125.278
20
-145.021
11
124.938
21
-144.86
0
LINE
8
BLACK
6
CONTINUOUS
10
124.938
20
-144.86
11
124.615
21
-144.667
0
LINE
8
BLACK
6
CONTINUOUS
10
124.615
20
-144.667
11
124.313
21
-144.442
0
LINE
8
BLACK
6
CONTINUOUS
10
124.313
20
-144.442
11
124.034
21
-144.19
0
LINE
8
BLACK
6
CONTINUOUS
10
124.034
20
-144.19
11
123.782
21
-143.911
0
LINE
8
BLACK
6
CONTINUOUS
10
123.782
20
-143.911
11
123.557
21
-143.609
0
LINE
8
BLACK
6
CONTINUOUS
10
123.557
20
-143.609
11
123.364
21
-143.286
0
LINE
8
BLACK
6
CONTINUOUS
10
123.364
20
-143.286
11
123.203
21
-142.946
0
LINE
8
BLACK
6
CONTINUOUS
10
123.203
20
-142.946
11
123.076
21
-142.591
0
LINE
8
BLACK
6
CONTINUOUS
10
123.076
20
-142.591
11
122.985
21
-142.226
0
LINE
8
BLACK
6
CONTINUOUS
10
122.985
20
-142.226
11
122.929
21
-141.854
0
LINE
8
BLACK
6
CONTINUOUS
10
122.929
20
-141.854
11
122.911
21
-141.478
0
LINE
8
BLACK
6
CONTINUOUS
10
122.911
20
-141.478
11
122.911
21
-50.038
0
LINE
8
BLACK
6
CONTINUOUS
10
122.911
20
-50.038
11
122.929
21
-49.6621
0
LINE
8
BLACK
6
CONTINUOUS
10
122.929
20
-49.6621
11
122.985
21
-49.2898
0
LINE
8
BLACK
6
CONTINUOUS
10
122.985
20
-49.2898
11
123.076
21
-48.9248
0
LINE
8
BLACK
6
CONTINUOUS
10
123.076
20
-48.9248
11
123.203
21
-48.5704
0
LINE
8
BLACK
6
CONTINUOUS
10
123.203
20
-48.5704
11
123.364
21
-48.2302
0
LINE
8
BLACK
6
CONTINUOUS
10
123.364
20
-48.2302
11
123.557
21
-47.9074
0
LINE
8
BLACK
6
CONTINUOUS
10
123.557
20
-47.9074
11
123.782
21
-47.6051
0
LINE
8
BLACK
6
CONTINUOUS
10
123.782
20
-47.6051
11
124.034
21
-47.3262
0
LINE
8
BLACK
6
CONTINUOUS
10
124.034
20
-47.3262
11
124.313
21
-47.0735
0
LINE
8
BLACK
6
CONTINUOUS
10
124.313
20
-47.0735
11
124.615
21
-46.8493
0
LINE
8
BLACK
6
CONTINUOUS
10
124.615
20
-46.8493
11
124.938
21
-46.6558
0
LINE
8
BLACK
6
CONTINUOUS
10
124.938
20
-46.6558
11
125.278
21
-46.4949
0
LINE
8
BLACK
6
CONTINUOUS
10
125.278
20
-46.4949
11
125.633
21
-46.3681
0
LINE
8
BLACK
6
CONTINUOUS
10
125.633
20
-46.3681
11
125.998
21
-46.2767
0
LINE
8
BLACK
6
CONTINUOUS
10
125.998
20
-46.2767
11
126.37
21
-46.2215
0
LINE
8
BLACK
6
CONTINUOUS
10
126.37
20
-46.2215
11
126.746
21
-46.203
0
LINE
8
BLACK
6
CONTINUOUS
10
126.746
20
-46.203
11
166.116
21
-46.203
0
LINE
8
BLACK
6
CONTINUOUS
10
166.116
20
-46.203
11
166.492
21
-46.2215
0
LINE
8
BLACK
6
CONTINUOUS
10
166.492
20
-46.2215
11
166.864
21
-46.2767
0
LINE
8
BLACK
6
CONTINUOUS
10
166.864
20
-46.2767
11
167.229
21
-46.3681
0
LINE
8
BLACK
6
CONTINUOUS
10
167.229
20
-46.3681
11
167.584
21
-46.4949
0
LINE
8
BLACK
6
CONTINUOUS
10
167.584
20
-46.4949
11
167.924
21
-46.6558
0
LINE
8
BLACK
6
CONTINUOUS
10
167.924
20
-46.6558
11
168.247
21
-46.8493
0
LINE
8
BLACK
6
CONTINUOUS
10
168.247
20
-46.8493
11
168.549
21
-47.0735
0
LINE
8
BLACK
6
CONTINUOUS
10
168.549
20
-47.0735
11
168.828
21
-47.3262
0
LINE
8
BLACK
6
CONTINUOUS
10
168.828
20
-47.3262
11
169.08
21
-47.6051
0
LINE
8
BLACK
6
CONTINUOUS
10
169.08
20
-47.6051
11
169.305
21
-47.9074
0
LINE
8
BLACK
6
CONTINUOUS
10
169.305
20
-47.9074
11
169.498
21
-48.2302
0
LINE
8
BLACK
6
CONTINUOUS
10
169.498
20
-48.2302
11
169.659
21
-48.5704
0
LINE
8
BLACK
6
CONTINUOUS
10
169.659
20
-48.5704
11
169.786
21
-48.9248
0
LINE
8
BLACK
6
CONTINUOUS
10
169.786
20
-48.9248
11
169.877
21
-49.2898
0
LINE
8
BLACK
6
CONTINUOUS
10
169.877
20
-49.2898
11
169.933
21
-49.6621
0
LINE
8
BLACK
6
CONTINUOUS
10
169.933
20
-49.6621
11
169.951
21
-50.038
0
LINE
8
BLACK
6
CONTINUOUS
10
169.951
20
-50.038
11
169.951
21
-141.478
0
LINE
8
BLACK
6
CONTINUOUS
10
169.951
20
-141.478
11
169.933
21
-141.854
0
LINE
8
BLACK
6
CONTINUOUS
10
169.933
20
-141.854
11
169.877
21
-142.226
0
LINE
8
BLACK
6
CONTINUOUS
10
169.877
20
-142.226
11
169.786
21
-142.591
0
LINE
8
BLACK
6
CONTINUOUS
10
169.786
20
-142.591
11
169.659
21
-142.946
0
LINE
8
BLACK
6
CONTINUOUS
10
169.659
20
-142.946
11
169.498
21
-143.286
0
LINE
8
BLACK
6
CONTINUOUS
10
169.498
20
-143.286
11
169.305
21
-143.609
0
LINE
8
BLACK
6
CONTINUOUS
10
169.305
20
-143.609
11
169.08
21
-143.911
0
LINE
8
BLACK
6
CONTINUOUS
10
169.08
20
-143.911
11
168.828
21
-144.19
0
LINE
8
BLACK
6
CONTINUOUS
10
168.828
20
-144.19
11
168.549
21
-144.442
0
LINE
8
BLACK
6
CONTINUOUS
10
168.549
20
-144.442
11
168.247
21
-144.667
0
LINE
8
BLACK
6
CONTINUOUS
10
168.247
20
-144.667
11
167.924
21
-144.86
0
LINE
8
BLACK
6
CONTINUOUS
10
167.924
20
-144.86
11
167.584
21
-145.021
0
LINE
8
BLACK
6
CONTINUOUS
10
167.584
20
-145.021
11
167.229
21
-145.148
0
LINE
8
BLACK
6
CONTINUOUS
10
167.229
20
-145.148
11
166.864
21
-145.239
0
LINE
8
BLACK
6
CONTINUOUS
10
166.864
20
-145.239
11
166.492
21
-145.295
0
LINE
8
BLACK
6
CONTINUOUS
10
166.492
20
-145.295
11
166.116
21
-145.313
0
LINE
8
BLACK
6
CONTINUOUS
10
166.116
20
-145.313
11
126.746
21
-145.313
0
LINE
8
BLACK
6
CONTINUOUS
10
126.746
20
-145.313
11
126.37
21
-145.295
0
LINE
8
BLACK
6
CONTINUOUS
10
126.736
20
-46.2489
11
126.375
21
-46.2667
0
LINE
8
BLACK
6
CONTINUOUS
10
126.375
20
-46.2667
11
126.007
21
-46.3212
0
LINE
8
BLACK
6
CONTINUOUS
10
126.007
20
-46.3212
11
125.646
21
-46.4116
0
LINE
8
BLACK
6
CONTINUOUS
10
125.646
20
-46.4116
11
125.296
21
-46.5369
0
LINE
8
BLACK
6
CONTINUOUS
10
125.296
20
-46.5369
11
124.96
21
-46.6959
0
LINE
8
BLACK
6
CONTINUOUS
10
124.96
20
-46.6959
11
124.641
21
-46.8871
0
LINE
8
BLACK
6
CONTINUOUS
10
124.641
20
-46.8871
11
124.342
21
-47.1086
0
LINE
8
BLACK
6
CONTINUOUS
10
124.342
20
-47.1086
11
124.066
21
-47.3584
0
LINE
8
BLACK
6
CONTINUOUS
10
124.066
20
-47.3584
11
123.817
21
-47.6339
0
LINE
8
BLACK
6
CONTINUOUS
10
123.817
20
-47.6339
11
123.595
21
-47.9326
0
LINE
8
BLACK
6
CONTINUOUS
10
123.595
20
-47.9326
11
123.404
21
-48.2516
0
LINE
8
BLACK
6
CONTINUOUS
10
123.404
20
-48.2516
11
123.245
21
-48.5878
0
LINE
8
BLACK
6
CONTINUOUS
10
123.245
20
-48.5878
11
123.12
21
-48.9379
0
LINE
8
BLACK
6
CONTINUOUS
10
123.12
20
-48.9379
11
123.029
21
-49.2987
0
LINE
8
BLACK
6
CONTINUOUS
10
123.029
20
-49.2987
11
122.975
21
-49.6666
0
LINE
8
BLACK
6
CONTINUOUS
10
122.975
20
-49.6666
11
122.957
21
-50.0281
0
LINE
8
BLACK
6
CONTINUOUS
10
122.957
20
-50.0281
11
122.961
21
-50.038
0
LINE
8
BLACK
6
CONTINUOUS
10
122.961
20
-50.038
11
122.961
21
-141.478
0
LINE
8
BLACK
6
CONTINUOUS
10
122.961
20
-141.478
11
122.957
21
-141.488
0
LINE
8
BLACK
6
CONTINUOUS
10
122.957
20
-141.488
11
122.975
21
-141.849
0
LINE
8
BLACK
6
CONTINUOUS
10
122.975
20
-141.849
11
123.029
21
-142.217
0
LINE
8
BLACK
6
CONTINUOUS
10
123.029
20
-142.217
11
123.12
21
-142.578
0
LINE
8
BLACK
6
CONTINUOUS
10
123.12
20
-142.578
11
123.245
21
-142.928
0
LINE
8
BLACK
6
CONTINUOUS
10
123.245
20
-142.928
11
123.404
21
-143.264
0
LINE
8
BLACK
6
CONTINUOUS
10
123.404
20
-143.264
11
123.595
21
-143.583
0
LINE
8
BLACK
6
CONTINUOUS
10
123.595
20
-143.583
11
123.817
21
-143.882
0
LINE
8
BLACK
6
CONTINUOUS
10
123.817
20
-143.882
11
124.066
21
-144.158
0
LINE
8
BLACK
6
CONTINUOUS
10
124.066
20
-144.158
11
124.342
21
-144.407
0
LINE
8
BLACK
6
CONTINUOUS
10
124.342
20
-144.407
11
124.641
21
-144.629
0
LINE
8
BLACK
6
CONTINUOUS
10
124.641
20
-144.629
11
124.96
21
-144.82
0
LINE
8
BLACK
6
CONTINUOUS
10
124.96
20
-144.82
11
125.296
21
-144.979
0
LINE
8
BLACK
6
CONTINUOUS
10
125.296
20
-144.979
11
125.646
21
-145.104
0
LINE
8
BLACK
6
CONTINUOUS
10
125.646
20
-145.104
11
126.007
21
-145.195
0
LINE
8
BLACK
6
CONTINUOUS
10
126.007
20
-145.195
11
126.375
21
-145.249
0
LINE
8
BLACK
6
CONTINUOUS
10
126.375
20
-145.249
11
126.736
21
-145.267
0
LINE
8
BLACK
6
CONTINUOUS
10
126.736
20
-145.267
11
126.746
21
-145.263
0
LINE
8
BLACK
6
CONTINUOUS
10
126.746
20
-145.263
11
166.116
21
-145.263
0
LINE
8
BLACK
6
CONTINUOUS
10
166.116
20
-145.263
11
166.126
21
-145.267
0
LINE
8
BLACK
6
CONTINUOUS
10
166.126
20
-145.267
11
166.487
21
-145.249
0
LINE
8
BLACK
6
CONTINUOUS
10
166.487
20
-145.249
11
166.855
21
-145.195
0
LINE
8
BLACK
6
CONTINUOUS
10
166.855
20
-145.195
11
167.216
21
-145.104
0
LINE
8
BLACK
6
CONTINUOUS
10
167.216
20
-145.104
11
167.566
21
-144.979
0
LINE
8
BLACK
6
CONTINUOUS
10
167.566
20
-144.979
11
167.902
21
-144.82
0
LINE
8
BLACK
6
CONTINUOUS
10
167.902
20
-144.82
11
168.221
21
-144.629
0
LINE
8
BLACK
6
CONTINUOUS
10
168.221
20
-144.629
11
168.52
21
-144.407
0
LINE
8
BLACK
6
CONTINUOUS
10
168.52
20
-144.407
11
168.796
21
-144.158
0
LINE
8
BLACK
6
CONTINUOUS
10
168.796
20
-144.158
11
169.045
21
-143.882
0
LINE
8
BLACK
6
CONTINUOUS
10
169.045
20
-143.882
11
169.267
21
-143.583
0
LINE
8
BLACK
6
CONTINUOUS
10
169.267
20
-143.583
11
169.458
21
-143.264
0
LINE
8
BLACK
6
CONTINUOUS
10
169.458
20
-143.264
11
169.617
21
-142.928
0
LINE
8
BLACK
6
CONTINUOUS
10
169.617
20
-142.928
11
169.742
21
-142.578
0
LINE
8
BLACK
6
CONTINUOUS
10
169.742
20
-142.578
11
169.833
21
-142.217
0
LINE
8
BLACK
6
CONTINUOUS
10
169.833
20
-142.217
11
169.887
21
-141.849
0
LINE
8
BLACK
6
CONTINUOUS
10
169.887
20
-141.849
11
169.905
21
-141.488
0
LINE
8
BLACK
6
CONTINUOUS
10
169.905
20
-141.488
11
169.901
21
-141.478
0
LINE
8
BLACK
6
CONTINUOUS
10
169.901
20
-141.478
11
169.901
21
-50.038
0
LINE
8
BLACK
6
CONTINUOUS
10
169.901
20
-50.038
11
169.905
21
-50.0281
0
LINE
8
BLACK
6
CONTINUOUS
10
169.905
20
-50.0281
11
169.887
21
-49.6666
0
LINE
8
BLACK
6
CONTINUOUS
10
169.887
20
-49.6666
11
169.833
21
-49.2987
0
LINE
8
BLACK
6
CONTINUOUS
10
169.833
20
-49.2987
11
169.742
21
-48.9379
0
LINE
8
BLACK
6
CONTINUOUS
10
169.742
20
-48.9379
11
169.617
21
-48.5878
0
LINE
8
BLACK
6
CONTINUOUS
10
169.617
20
-48.5878
11
169.458
21
-48.2516
0
LINE
8
BLACK
6
CONTINUOUS
10
169.458
20
-48.2516
11
169.267
21
-47.9326
0
LINE
8
BLACK
6
CONTINUOUS
10
169.267
20
-47.9326
11
169.045
21
-47.6339
0
LINE
8
BLACK
6
CONTINUOUS
10
169.045
20
-47.6339
11
168.796
21
-47.3584
0
LINE
8
BLACK
6
CONTINUOUS
10
168.796
20
-47.3584
11
168.52
21
-47.1086
0
LINE
8
BLACK
6
CONTINUOUS
10
168.52
20
-47.1086
11
168.221
21
-46.8871
0
LINE
8
BLACK
6
CONTINUOUS
10
168.221
20
-46.8871
11
167.902
21
-46.6959
0
LINE
8
BLACK
6
CONTINUOUS
10
167.902
20
-46.6959
11
167.566
21
-46.5369
0
LINE
8
BLACK
6
CONTINUOUS
10
167.566
20
-46.5369
11
167.216
21
-46.4116
0
LINE
8
BLACK
6
CONTINUOUS
10
167.216
20
-46.4116
11
166.855
21
-46.3212
0
LINE
8
BLACK
6
CONTINUOUS
10
166.855
20
-46.3212
11
166.487
21
-46.2667
0
LINE
8
BLACK
6
CONTINUOUS
10
166.487
20
-46.2667
11
166.126
21
-46.2489
0
LINE
8
BLACK
6
CONTINUOUS
10
166.126
20
-46.2489
11
166.116
21
-46.253
0
LINE
8
BLACK
6
CONTINUOUS
10
166.116
20
-46.253
11
126.746
21
-46.253
0
LINE
8
BLACK
6
CONTINUOUS
10
126.746
20
-46.253
11
126.736
21
-46.2489
  0
ENDSEC
  0
EOF
