  0
SECTION
  2
HEADER
  9
$ANGBASE
  50
0.0
  9
$ANGDIR
  70
1
  9
$MEASUREMENT
  70
1
  0
ENDSEC
  0
SECTION
  2
TABLES
  0
TABLE
  2
LTYPE
  70
4
  0
LTYPE
  5
40F
  2
CONTINUOUS
  70
0
  3
Solid line
  72
65
  73
0
  40
0.0
  0
LTYPE
  5
410
  2
DASHDOT
 70
0
  3
Dash Dot ____ _ ____ _
 72
65
 73
4
 40
2.0
 49
1.25
 49
-0.25
 49
0.25
 49
-0.25
  0
LTYPE
  5
411
  2
DASHED
 70
0
  3
Dashed __ __ __ __ __
 72
65
 73
2
 40
0.75
 49
0.5
 49
-0.25
  0
LTYPE
  5
43B
  2
DOTTED
 70
0
  3
Dotted .  .  .  .
 72
65
 73
2
 40
0.2
 49
0.0
 49
-0.2
  0
ENDTAB
  0
TABLE
  2
STYLE
  70
4
  0
STYLE
  2
KICAD
  70
0
  40
0
  41
1
  42
1
  50
0
  71
0
  3
isocp.shx
  0
STYLE
  2
KICADB
  70
0
  40
0
  41
1
  42
1
  50
0
  71
0
  3
isocp.shx
  0
STYLE
  2
KICADI
  70
0
  40
0
  41
1
  42
1
  50
15
  71
0
  3
isocp.shx
  0
STYLE
  2
KICADBI
  70
0
  40
0
  41
1
  42
1
  50
15
  71
0
  3
isocp.shx
  0
ENDTAB
  0
TABLE
  2
LAYER
  70
1
  0
LAYER
  2
BLACK
  70
0
  62
7
  6
CONTINUOUS
  0
ENDTAB
  0
ENDSEC
  0
SECTION
  2
ENTITIES
0
CIRCLE
8
BLACK
10
124.076
20
-138.938
40
0.951
0
CIRCLE
8
BLACK
10
127.176
20
-138.938
40
0.951
0
CIRCLE
8
BLACK
10
135.476
20
-138.938
40
0.951
0
LINE
8
BLACK
6
CONTINUOUS
10
139.307
20
-99.948
11
139.307
21
-99.428
0
LINE
8
BLACK
6
CONTINUOUS
10
136.485
20
-99.948
11
136.485
21
-99.428
0
ARC
8
BLACK
10
137.896
20
-99.428
40
1.411
50
360
51
540
0
ARC
8
BLACK
10
137.896
20
-99.948
40
1.411
50
180
51
360
0
LINE
8
BLACK
6
CONTINUOUS
10
129.707
20
-99.948
11
129.707
21
-99.428
0
LINE
8
BLACK
6
CONTINUOUS
10
126.885
20
-99.948
11
126.885
21
-99.428
0
ARC
8
BLACK
10
128.296
20
-99.428
40
1.411
50
360
51
540
0
ARC
8
BLACK
10
128.296
20
-99.948
40
1.411
50
180
51
360
0
LINE
8
BLACK
6
CONTINUOUS
10
131.547
20
-108.088
11
131.543
21
-108.108
0
LINE
8
BLACK
6
CONTINUOUS
10
131.543
20
-108.108
11
131.532
21
-108.124
0
LINE
8
BLACK
6
CONTINUOUS
10
131.532
20
-108.124
11
131.516
21
-108.135
0
LINE
8
BLACK
6
CONTINUOUS
10
131.516
20
-108.135
11
131.496
21
-108.139
0
LINE
8
BLACK
6
CONTINUOUS
10
131.496
20
-108.139
11
129.696
21
-108.139
0
LINE
8
BLACK
6
CONTINUOUS
10
129.696
20
-108.139
11
129.676
21
-108.135
0
LINE
8
BLACK
6
CONTINUOUS
10
129.676
20
-108.135
11
129.66
21
-108.124
0
LINE
8
BLACK
6
CONTINUOUS
10
129.66
20
-108.124
11
129.649
21
-108.108
0
LINE
8
BLACK
6
CONTINUOUS
10
129.649
20
-108.108
11
129.645
21
-108.088
0
LINE
8
BLACK
6
CONTINUOUS
10
129.645
20
-108.088
11
129.645
21
-106.288
0
LINE
8
BLACK
6
CONTINUOUS
10
129.645
20
-106.288
11
129.649
21
-106.268
0
LINE
8
BLACK
6
CONTINUOUS
10
129.649
20
-106.268
11
129.66
21
-106.252
0
LINE
8
BLACK
6
CONTINUOUS
10
129.66
20
-106.252
11
129.676
21
-106.241
0
LINE
8
BLACK
6
CONTINUOUS
10
129.676
20
-106.241
11
129.696
21
-106.237
0
LINE
8
BLACK
6
CONTINUOUS
10
129.696
20
-106.237
11
131.496
21
-106.237
0
LINE
8
BLACK
6
CONTINUOUS
10
131.496
20
-106.237
11
131.516
21
-106.241
0
LINE
8
BLACK
6
CONTINUOUS
10
131.516
20
-106.241
11
131.532
21
-106.252
0
LINE
8
BLACK
6
CONTINUOUS
10
131.532
20
-106.252
11
131.543
21
-106.268
0
LINE
8
BLACK
6
CONTINUOUS
10
131.543
20
-106.268
11
131.547
21
-106.288
0
LINE
8
BLACK
6
CONTINUOUS
10
131.547
20
-106.288
11
131.547
21
-108.088
0
CIRCLE
8
BLACK
10
133.096
20
-107.188
40
0.951
0
CIRCLE
8
BLACK
10
135.596
20
-107.188
40
0.951
0
LINE
8
BLACK
6
CONTINUOUS
10
156.377
20
-65.033
11
156.377
21
-64.513
0
LINE
8
BLACK
6
CONTINUOUS
10
153.555
20
-65.033
11
153.555
21
-64.513
0
ARC
8
BLACK
10
154.966
20
-64.513
40
1.411
50
360
51
540
0
ARC
8
BLACK
10
154.966
20
-65.033
40
1.411
50
180
51
360
0
LINE
8
BLACK
6
CONTINUOUS
10
165.977
20
-65.033
11
165.977
21
-64.513
0
LINE
8
BLACK
6
CONTINUOUS
10
163.155
20
-65.033
11
163.155
21
-64.513
0
ARC
8
BLACK
10
164.566
20
-64.513
40
1.411
50
360
51
540
0
ARC
8
BLACK
10
164.566
20
-65.033
40
1.411
50
180
51
360
0
LINE
8
BLACK
6
CONTINUOUS
10
158.217
20
-73.173
11
158.213
21
-73.1925
0
LINE
8
BLACK
6
CONTINUOUS
10
158.213
20
-73.1925
11
158.202
21
-73.2091
0
LINE
8
BLACK
6
CONTINUOUS
10
158.202
20
-73.2091
11
158.186
21
-73.2201
0
LINE
8
BLACK
6
CONTINUOUS
10
158.186
20
-73.2201
11
158.166
21
-73.224
0
LINE
8
BLACK
6
CONTINUOUS
10
158.166
20
-73.224
11
156.366
21
-73.224
0
LINE
8
BLACK
6
CONTINUOUS
10
156.366
20
-73.224
11
156.346
21
-73.2201
0
LINE
8
BLACK
6
CONTINUOUS
10
156.346
20
-73.2201
11
156.33
21
-73.2091
0
LINE
8
BLACK
6
CONTINUOUS
10
156.33
20
-73.2091
11
156.319
21
-73.1925
0
LINE
8
BLACK
6
CONTINUOUS
10
156.319
20
-73.1925
11
156.315
21
-73.173
0
LINE
8
BLACK
6
CONTINUOUS
10
156.315
20
-73.173
11
156.315
21
-71.373
0
LINE
8
BLACK
6
CONTINUOUS
10
156.315
20
-71.373
11
156.319
21
-71.3535
0
LINE
8
BLACK
6
CONTINUOUS
10
156.319
20
-71.3535
11
156.33
21
-71.3369
0
LINE
8
BLACK
6
CONTINUOUS
10
156.33
20
-71.3369
11
156.346
21
-71.3259
0
LINE
8
BLACK
6
CONTINUOUS
10
156.346
20
-71.3259
11
156.366
21
-71.322
0
LINE
8
BLACK
6
CONTINUOUS
10
156.366
20
-71.322
11
158.166
21
-71.322
0
LINE
8
BLACK
6
CONTINUOUS
10
158.166
20
-71.322
11
158.186
21
-71.3259
0
LINE
8
BLACK
6
CONTINUOUS
10
158.186
20
-71.3259
11
158.202
21
-71.3369
0
LINE
8
BLACK
6
CONTINUOUS
10
158.202
20
-71.3369
11
158.213
21
-71.3535
0
LINE
8
BLACK
6
CONTINUOUS
10
158.213
20
-71.3535
11
158.217
21
-71.373
0
LINE
8
BLACK
6
CONTINUOUS
10
158.217
20
-71.373
11
158.217
21
-73.173
0
CIRCLE
8
BLACK
10
159.766
20
-72.273
40
0.951
0
CIRCLE
8
BLACK
10
162.266
20
-72.273
40
0.951
0
LINE
8
BLACK
6
CONTINUOUS
10
139.307
20
-54.228
11
139.307
21
-53.708
0
LINE
8
BLACK
6
CONTINUOUS
10
136.485
20
-54.228
11
136.485
21
-53.708
0
ARC
8
BLACK
10
137.896
20
-53.708
40
1.411
50
360
51
540
0
ARC
8
BLACK
10
137.896
20
-54.228
40
1.411
50
180
51
360
0
LINE
8
BLACK
6
CONTINUOUS
10
129.707
20
-54.228
11
129.707
21
-53.708
0
LINE
8
BLACK
6
CONTINUOUS
10
126.885
20
-54.228
11
126.885
21
-53.708
0
ARC
8
BLACK
10
128.296
20
-53.708
40
1.411
50
360
51
540
0
ARC
8
BLACK
10
128.296
20
-54.228
40
1.411
50
180
51
360
0
LINE
8
BLACK
6
CONTINUOUS
10
131.547
20
-62.368
11
131.543
21
-62.3875
0
LINE
8
BLACK
6
CONTINUOUS
10
131.543
20
-62.3875
11
131.532
21
-62.4041
0
LINE
8
BLACK
6
CONTINUOUS
10
131.532
20
-62.4041
11
131.516
21
-62.4151
0
LINE
8
BLACK
6
CONTINUOUS
10
131.516
20
-62.4151
11
131.496
21
-62.419
0
LINE
8
BLACK
6
CONTINUOUS
10
131.496
20
-62.419
11
129.696
21
-62.419
0
LINE
8
BLACK
6
CONTINUOUS
10
129.696
20
-62.419
11
129.676
21
-62.4151
0
LINE
8
BLACK
6
CONTINUOUS
10
129.676
20
-62.4151
11
129.66
21
-62.4041
0
LINE
8
BLACK
6
CONTINUOUS
10
129.66
20
-62.4041
11
129.649
21
-62.3875
0
LINE
8
BLACK
6
CONTINUOUS
10
129.649
20
-62.3875
11
129.645
21
-62.368
0
LINE
8
BLACK
6
CONTINUOUS
10
129.645
20
-62.368
11
129.645
21
-60.568
0
LINE
8
BLACK
6
CONTINUOUS
10
129.645
20
-60.568
11
129.649
21
-60.5485
0
LINE
8
BLACK
6
CONTINUOUS
10
129.649
20
-60.5485
11
129.66
21
-60.5319
0
LINE
8
BLACK
6
CONTINUOUS
10
129.66
20
-60.5319
11
129.676
21
-60.5209
0
LINE
8
BLACK
6
CONTINUOUS
10
129.676
20
-60.5209
11
129.696
21
-60.517
0
LINE
8
BLACK
6
CONTINUOUS
10
129.696
20
-60.517
11
131.496
21
-60.517
0
LINE
8
BLACK
6
CONTINUOUS
10
131.496
20
-60.517
11
131.516
21
-60.5209
0
LINE
8
BLACK
6
CONTINUOUS
10
131.516
20
-60.5209
11
131.532
21
-60.5319
0
LINE
8
BLACK
6
CONTINUOUS
10
131.532
20
-60.5319
11
131.543
21
-60.5485
0
LINE
8
BLACK
6
CONTINUOUS
10
131.543
20
-60.5485
11
131.547
21
-60.568
0
LINE
8
BLACK
6
CONTINUOUS
10
131.547
20
-60.568
11
131.547
21
-62.368
0
CIRCLE
8
BLACK
10
133.096
20
-61.468
40
0.951
0
CIRCLE
8
BLACK
10
135.596
20
-61.468
40
0.951
0
CIRCLE
8
BLACK
10
167.766
20
-89.238
40
1.551
0
CIRCLE
8
BLACK
10
151.766
20
-89.238
40
1.551
0
CIRCLE
8
BLACK
10
154.766
20
-78.988
40
0.7258
0
CIRCLE
8
BLACK
10
157.266
20
-78.988
40
0.7258
0
CIRCLE
8
BLACK
10
159.766
20
-78.988
40
0.7258
0
CIRCLE
8
BLACK
10
162.266
20
-78.988
40
0.7258
0
CIRCLE
8
BLACK
10
164.766
20
-78.988
40
0.7258
0
CIRCLE
8
BLACK
10
164.766
20
-97.288
40
0.7258
0
CIRCLE
8
BLACK
10
162.266
20
-97.288
40
0.7258
0
CIRCLE
8
BLACK
10
159.766
20
-97.288
40
0.7258
0
CIRCLE
8
BLACK
10
157.266
20
-97.288
40
0.7258
0
CIRCLE
8
BLACK
10
154.766
20
-97.288
40
0.7258
0
CIRCLE
8
BLACK
10
155.826
20
-138.938
40
0.951
0
CIRCLE
8
BLACK
10
158.926
20
-138.938
40
0.951
0
CIRCLE
8
BLACK
10
167.226
20
-138.938
40
0.951
0
CIRCLE
8
BLACK
10
139.951
20
-138.938
40
0.951
0
CIRCLE
8
BLACK
10
143.051
20
-138.938
40
0.951
0
CIRCLE
8
BLACK
10
151.351
20
-138.938
40
0.951
0
LINE
8
BLACK
6
CONTINUOUS
10
129.707
20
-77.088
11
129.707
21
-76.568
0
LINE
8
BLACK
6
CONTINUOUS
10
126.885
20
-77.088
11
126.885
21
-76.568
0
ARC
8
BLACK
10
128.296
20
-76.568
40
1.411
50
360
51
540
0
ARC
8
BLACK
10
128.296
20
-77.088
40
1.411
50
180
51
360
0
LINE
8
BLACK
6
CONTINUOUS
10
139.307
20
-77.088
11
139.307
21
-76.568
0
LINE
8
BLACK
6
CONTINUOUS
10
136.485
20
-77.088
11
136.485
21
-76.568
0
ARC
8
BLACK
10
137.896
20
-76.568
40
1.411
50
360
51
540
0
ARC
8
BLACK
10
137.896
20
-77.088
40
1.411
50
180
51
360
0
LINE
8
BLACK
6
CONTINUOUS
10
131.547
20
-85.228
11
131.543
21
-85.2475
0
LINE
8
BLACK
6
CONTINUOUS
10
131.543
20
-85.2475
11
131.532
21
-85.2641
0
LINE
8
BLACK
6
CONTINUOUS
10
131.532
20
-85.2641
11
131.516
21
-85.2751
0
LINE
8
BLACK
6
CONTINUOUS
10
131.516
20
-85.2751
11
131.496
21
-85.279
0
LINE
8
BLACK
6
CONTINUOUS
10
131.496
20
-85.279
11
129.696
21
-85.279
0
LINE
8
BLACK
6
CONTINUOUS
10
129.696
20
-85.279
11
129.676
21
-85.2751
0
LINE
8
BLACK
6
CONTINUOUS
10
129.676
20
-85.2751
11
129.66
21
-85.2641
0
LINE
8
BLACK
6
CONTINUOUS
10
129.66
20
-85.2641
11
129.649
21
-85.2475
0
LINE
8
BLACK
6
CONTINUOUS
10
129.649
20
-85.2475
11
129.645
21
-85.228
0
LINE
8
BLACK
6
CONTINUOUS
10
129.645
20
-85.228
11
129.645
21
-83.428
0
LINE
8
BLACK
6
CONTINUOUS
10
129.645
20
-83.428
11
129.649
21
-83.4085
0
LINE
8
BLACK
6
CONTINUOUS
10
129.649
20
-83.4085
11
129.66
21
-83.3919
0
LINE
8
BLACK
6
CONTINUOUS
10
129.66
20
-83.3919
11
129.676
21
-83.3809
0
LINE
8
BLACK
6
CONTINUOUS
10
129.676
20
-83.3809
11
129.696
21
-83.377
0
LINE
8
BLACK
6
CONTINUOUS
10
129.696
20
-83.377
11
131.496
21
-83.377
0
LINE
8
BLACK
6
CONTINUOUS
10
131.496
20
-83.377
11
131.516
21
-83.3809
0
LINE
8
BLACK
6
CONTINUOUS
10
131.516
20
-83.3809
11
131.532
21
-83.3919
0
LINE
8
BLACK
6
CONTINUOUS
10
131.532
20
-83.3919
11
131.543
21
-83.4085
0
LINE
8
BLACK
6
CONTINUOUS
10
131.543
20
-83.4085
11
131.547
21
-83.428
0
LINE
8
BLACK
6
CONTINUOUS
10
131.547
20
-83.428
11
131.547
21
-85.228
0
CIRCLE
8
BLACK
10
133.096
20
-84.328
40
0.951
0
CIRCLE
8
BLACK
10
135.596
20
-84.328
40
0.951
0
CIRCLE
8
BLACK
10
146.558
20
-73.112
40
0.851
0
CIRCLE
8
BLACK
10
146.558
20
-68.112
40
0.851
0
LINE
8
BLACK
6
CONTINUOUS
10
141.44
20
-52.413
11
141.42
21
-52.4091
0
LINE
8
BLACK
6
CONTINUOUS
10
141.42
20
-52.4091
11
141.404
21
-52.3981
0
LINE
8
BLACK
6
CONTINUOUS
10
141.404
20
-52.3981
11
141.393
21
-52.3815
0
LINE
8
BLACK
6
CONTINUOUS
10
141.393
20
-52.3815
11
141.389
21
-52.362
0
LINE
8
BLACK
6
CONTINUOUS
10
141.389
20
-52.362
11
141.389
21
-50.762
0
LINE
8
BLACK
6
CONTINUOUS
10
141.389
20
-50.762
11
141.393
21
-50.7425
0
LINE
8
BLACK
6
CONTINUOUS
10
141.393
20
-50.7425
11
141.404
21
-50.7259
0
LINE
8
BLACK
6
CONTINUOUS
10
141.404
20
-50.7259
11
141.42
21
-50.7149
0
LINE
8
BLACK
6
CONTINUOUS
10
141.42
20
-50.7149
11
141.44
21
-50.711
0
LINE
8
BLACK
6
CONTINUOUS
10
141.44
20
-50.711
11
143.04
21
-50.711
0
LINE
8
BLACK
6
CONTINUOUS
10
143.04
20
-50.711
11
143.06
21
-50.7149
0
LINE
8
BLACK
6
CONTINUOUS
10
143.06
20
-50.7149
11
143.076
21
-50.7259
0
LINE
8
BLACK
6
CONTINUOUS
10
143.076
20
-50.7259
11
143.087
21
-50.7425
0
LINE
8
BLACK
6
CONTINUOUS
10
143.087
20
-50.7425
11
143.091
21
-50.762
0
LINE
8
BLACK
6
CONTINUOUS
10
143.091
20
-50.762
11
143.091
21
-52.362
0
LINE
8
BLACK
6
CONTINUOUS
10
143.091
20
-52.362
11
143.087
21
-52.3815
0
LINE
8
BLACK
6
CONTINUOUS
10
143.087
20
-52.3815
11
143.076
21
-52.3981
0
LINE
8
BLACK
6
CONTINUOUS
10
143.076
20
-52.3981
11
143.06
21
-52.4091
0
LINE
8
BLACK
6
CONTINUOUS
10
143.06
20
-52.4091
11
143.04
21
-52.413
0
LINE
8
BLACK
6
CONTINUOUS
10
143.04
20
-52.413
11
141.44
21
-52.413
0
CIRCLE
8
BLACK
10
142.24
20
-49.062
40
0.851
0
CIRCLE
8
BLACK
10
128.778
20
-133.35
40
0.851
0
CIRCLE
8
BLACK
10
133.778
20
-133.35
40
0.851
0
LINE
8
BLACK
6
CONTINUOUS
10
154.571
20
-50.888
11
154.567
21
-50.9075
0
LINE
8
BLACK
6
CONTINUOUS
10
154.567
20
-50.9075
11
154.556
21
-50.9241
0
LINE
8
BLACK
6
CONTINUOUS
10
154.556
20
-50.9241
11
154.54
21
-50.9351
0
LINE
8
BLACK
6
CONTINUOUS
10
154.54
20
-50.9351
11
154.52
21
-50.939
0
LINE
8
BLACK
6
CONTINUOUS
10
154.52
20
-50.939
11
152.82
21
-50.939
0
LINE
8
BLACK
6
CONTINUOUS
10
152.82
20
-50.939
11
152.8
21
-50.9351
0
LINE
8
BLACK
6
CONTINUOUS
10
152.8
20
-50.9351
11
152.784
21
-50.9241
0
LINE
8
BLACK
6
CONTINUOUS
10
152.784
20
-50.9241
11
152.773
21
-50.9075
0
LINE
8
BLACK
6
CONTINUOUS
10
152.773
20
-50.9075
11
152.769
21
-50.888
0
LINE
8
BLACK
6
CONTINUOUS
10
152.769
20
-50.888
11
152.769
21
-49.188
0
LINE
8
BLACK
6
CONTINUOUS
10
152.769
20
-49.188
11
152.773
21
-49.1685
0
LINE
8
BLACK
6
CONTINUOUS
10
152.773
20
-49.1685
11
152.784
21
-49.1519
0
LINE
8
BLACK
6
CONTINUOUS
10
152.784
20
-49.1519
11
152.8
21
-49.1409
0
LINE
8
BLACK
6
CONTINUOUS
10
152.8
20
-49.1409
11
152.82
21
-49.137
0
LINE
8
BLACK
6
CONTINUOUS
10
152.82
20
-49.137
11
154.52
21
-49.137
0
LINE
8
BLACK
6
CONTINUOUS
10
154.52
20
-49.137
11
154.54
21
-49.1409
0
LINE
8
BLACK
6
CONTINUOUS
10
154.54
20
-49.1409
11
154.556
21
-49.1519
0
LINE
8
BLACK
6
CONTINUOUS
10
154.556
20
-49.1519
11
154.567
21
-49.1685
0
LINE
8
BLACK
6
CONTINUOUS
10
154.567
20
-49.1685
11
154.571
21
-49.188
0
LINE
8
BLACK
6
CONTINUOUS
10
154.571
20
-49.188
11
154.571
21
-50.888
0
ARC
8
BLACK
10
151.13
20
-50.038
40
0.901
50
360
51
540
0
ARC
8
BLACK
10
151.13
20
-50.038
40
0.901
50
180
51
360
0
ARC
8
BLACK
10
153.67
20
-52.578
40
0.901
50
360
51
540
0
ARC
8
BLACK
10
153.67
20
-52.578
40
0.901
50
180
51
360
0
ARC
8
BLACK
10
151.13
20
-52.578
40
0.901
50
360
51
540
0
ARC
8
BLACK
10
151.13
20
-52.578
40
0.901
50
180
51
360
0
ARC
8
BLACK
10
153.67
20
-55.118
40
0.901
50
360
51
540
0
ARC
8
BLACK
10
153.67
20
-55.118
40
0.901
50
180
51
360
0
ARC
8
BLACK
10
151.13
20
-55.118
40
0.901
50
360
51
540
0
ARC
8
BLACK
10
151.13
20
-55.118
40
0.901
50
180
51
360
0
ARC
8
BLACK
10
153.67
20
-57.658
40
0.901
50
360
51
540
0
ARC
8
BLACK
10
153.67
20
-57.658
40
0.901
50
180
51
360
0
ARC
8
BLACK
10
151.13
20
-57.658
40
0.901
50
360
51
540
0
ARC
8
BLACK
10
151.13
20
-57.658
40
0.901
50
180
51
360
0
ARC
8
BLACK
10
153.67
20
-60.198
40
0.901
50
360
51
540
0
ARC
8
BLACK
10
153.67
20
-60.198
40
0.901
50
180
51
360
0
ARC
8
BLACK
10
151.13
20
-60.198
40
0.901
50
360
51
540
0
ARC
8
BLACK
10
151.13
20
-60.198
40
0.901
50
180
51
360
0
CIRCLE
8
BLACK
10
134.874
20
-89.916
40
1.351
0
CIRCLE
8
BLACK
10
127.254
20
-89.916
40
1.351
0
CIRCLE
8
BLACK
10
138.176
20
-125.222
40
0.771
0
CIRCLE
8
BLACK
10
138.176
20
-127.762
40
0.771
0
CIRCLE
8
BLACK
10
138.176
20
-130.302
40
0.771
0
LINE
8
BLACK
6
CONTINUOUS
10
141.44
20
-59.525
11
141.42
21
-59.5211
0
LINE
8
BLACK
6
CONTINUOUS
10
141.42
20
-59.5211
11
141.404
21
-59.5101
0
LINE
8
BLACK
6
CONTINUOUS
10
141.404
20
-59.5101
11
141.393
21
-59.4935
0
LINE
8
BLACK
6
CONTINUOUS
10
141.393
20
-59.4935
11
141.389
21
-59.474
0
LINE
8
BLACK
6
CONTINUOUS
10
141.389
20
-59.474
11
141.389
21
-57.874
0
LINE
8
BLACK
6
CONTINUOUS
10
141.389
20
-57.874
11
141.393
21
-57.8545
0
LINE
8
BLACK
6
CONTINUOUS
10
141.393
20
-57.8545
11
141.404
21
-57.8379
0
LINE
8
BLACK
6
CONTINUOUS
10
141.404
20
-57.8379
11
141.42
21
-57.8269
0
LINE
8
BLACK
6
CONTINUOUS
10
141.42
20
-57.8269
11
141.44
21
-57.823
0
LINE
8
BLACK
6
CONTINUOUS
10
141.44
20
-57.823
11
143.04
21
-57.823
0
LINE
8
BLACK
6
CONTINUOUS
10
143.04
20
-57.823
11
143.06
21
-57.8269
0
LINE
8
BLACK
6
CONTINUOUS
10
143.06
20
-57.8269
11
143.076
21
-57.8379
0
LINE
8
BLACK
6
CONTINUOUS
10
143.076
20
-57.8379
11
143.087
21
-57.8545
0
LINE
8
BLACK
6
CONTINUOUS
10
143.087
20
-57.8545
11
143.091
21
-57.874
0
LINE
8
BLACK
6
CONTINUOUS
10
143.091
20
-57.874
11
143.091
21
-59.474
0
LINE
8
BLACK
6
CONTINUOUS
10
143.091
20
-59.474
11
143.087
21
-59.4935
0
LINE
8
BLACK
6
CONTINUOUS
10
143.087
20
-59.4935
11
143.076
21
-59.5101
0
LINE
8
BLACK
6
CONTINUOUS
10
143.076
20
-59.5101
11
143.06
21
-59.5211
0
LINE
8
BLACK
6
CONTINUOUS
10
143.06
20
-59.5211
11
143.04
21
-59.525
0
LINE
8
BLACK
6
CONTINUOUS
10
143.04
20
-59.525
11
141.44
21
-59.525
0
CIRCLE
8
BLACK
10
142.24
20
-56.174
40
0.851
0
CIRCLE
8
BLACK
10
143.216
20
-93.218
40
0.851
0
CIRCLE
8
BLACK
10
138.216
20
-93.218
40
0.851
  0
ENDSEC
  0
EOF
